<svg width="403" height="153" viewBox="0 0 403 153" xmlns="http://www.w3.org/2000/svg" xmlns:xlink="http://www.w3.org/1999/xlink"><title>Group 2</title><defs><linearGradient x1="9.257%" y1="100%" x2="77.243%" y2="70.651%" id="a"><stop stop-color="#144A9D" offset="0%"/><stop stop-color="#396FC7" offset="100%"/></linearGradient><path d="M35.454 7.41l-.776 2.81 2.5-1.4a2.872 2.872 0 0 0-1.724-1.41zm-6.13 2.867c0 3.008 2.386 5.447 5.332 5.447 2.946 0 5.333-2.44 5.333-5.447 0-3.008-2.388-5.447-5.334-5.447-2.946 0-5.333 2.44-5.333 5.447zm5.332-3.89c2.1 0 3.81 1.745 3.81 3.89s-1.71 3.89-3.81 3.89-3.81-1.745-3.81-3.89 1.71-3.89 3.81-3.89zm1.84-2.23c.002-.02.007-.042.007-.063v-.49a.97.97 0 0 0-.958-.983H33.87a.97.97 0 0 0-.957.983v.482a6.057 6.057 0 0 1 3.584.072zm-5.848.96a.94.94 0 0 0-1.354 0l-.17.174a1 1 0 0 0 0 1.39l.18.185c.385-.63.873-1.19 1.44-1.648l-.096-.1z" id="b"/><linearGradient x1="50%" y1="0%" x2="53.404%" y2="126.201%" id="c"><stop stop-color="#2270C3" offset="0%"/><stop stop-color="#0F3D90" offset="100%"/></linearGradient><linearGradient x1="50%" y1="0%" x2="50%" y2="100%" id="d"><stop stop-color="#043883" offset="0%"/><stop stop-color="#501C4E" offset="100%"/></linearGradient><linearGradient x1="50%" y1="0%" x2="50%" y2="100%" id="e"><stop stop-color="#F2AEC8" offset="0%"/><stop stop-color="#3D58B3" offset="100%"/></linearGradient><linearGradient x1="50%" y1="0%" x2="50%" y2="100%" id="f"><stop stop-color="#BA2960" offset="0%"/><stop stop-color="#3D58B3" offset="100%"/></linearGradient></defs><g fill="none" fill-rule="evenodd"><path d="M42.814 121.143l-29.46-21.34 86.677-18.425 11.23 52.82-86.678 18.424 18.232-31.48z" fill="#396FC7"/><path d="M61 122h51v12l-51-12z" fill="#43215E"/><path d="M299.702 48l-24.38-27h88.614v54h-88.613l24.38-27z" fill="url(#a)" transform="rotate(-168 334.748 33.317)"/><path d="M335 121h-51v12l51-12z" fill="#34266D"/><g transform="translate(173 131)"><use fill="#00B7E5" xlink:href="#b"/><use xlink:href="#b"/></g><path d="M183.415 145.414a59.89 59.89 0 0 1-.616-1.674c-.194-.548-.393-1.106-.598-1.673h-6.045l-1.213 3.347H173c.513-1.387.994-2.67 1.444-3.848.45-1.18.888-2.298 1.32-3.356.428-1.06.855-2.07 1.28-3.035.422-.964.865-1.92 1.327-2.865h1.714c.462.946.905 1.9 1.33 2.865.422.964.85 1.976 1.28 3.035.43 1.058.868 2.177 1.318 3.356.45 1.18.93 2.46 1.444 3.848h-2.04zm-1.752-4.86c-.41-1.097-.818-2.158-1.222-3.186a56.442 56.442 0 0 0-1.26-2.96 46.77 46.77 0 0 0-1.28 2.96c-.405 1.028-.806 2.09-1.204 3.186h4.967zM189.795 146.07c-1.1-.027-1.878-.263-2.338-.71-.46-.447-.69-1.144-.69-2.09v-11.963l1.782-.307v11.982c0 .295.025.537.076.73.05.19.134.344.25.46.114.114.268.2.46.258.19.057.428.105.708.144l-.25 1.495M198.764 145.395c-.152.103-.447.233-.885.392-.438.16-.95.24-1.532.24a4.898 4.898 0 0 1-1.683-.287 3.656 3.656 0 0 1-1.38-.89c-.393-.4-.703-.9-.932-1.5-.228-.598-.342-1.31-.342-2.14 0-.726.11-1.392.324-1.997.216-.605.53-1.127.942-1.567.412-.44.916-.783 1.512-1.032.596-.248 1.268-.373 2.017-.373.824 0 1.543.062 2.16.183.614.12 1.13.233 1.55.334v8.868c0 1.53-.394 2.637-1.18 3.325-.787.688-1.98 1.032-3.577 1.032a10.07 10.07 0 0 1-3.195-.516l.323-1.55c.355.14.79.266 1.303.374.513.11 1.048.163 1.606.163 1.053 0 1.81-.21 2.274-.63.462-.42.694-1.09.694-2.007v-.42zm-.732-7.52a8.6 8.6 0 0 0-1.208-.067c-.95 0-1.684.313-2.197.937-.514.624-.77 1.452-.77 2.484 0 .573.072 1.063.218 1.47.146.41.342.746.59 1.014.247.267.532.465.856.592.324.128.657.19 1 .19.468 0 .9-.065 1.293-.2.393-.133.703-.29.932-.467v-5.81c-.178-.052-.415-.1-.713-.145zM217.33 146.07c-1.1-.027-1.88-.263-2.34-.71-.46-.447-.69-1.144-.69-2.09v-11.963l1.783-.307v11.982c0 .295.025.537.076.73.05.19.134.344.25.46.114.114.267.2.46.258.19.057.426.105.708.144l-.25 1.495M220.855 134.044a1.39 1.39 0 0 1-.928-.323c-.255-.214-.383-.504-.383-.87s.128-.656.383-.872c.254-.215.564-.323.928-.323.364 0 .674.108.93.323.254.216.382.506.382.872s-.128.656-.383.87a1.393 1.393 0 0 1-.93.324zm-1.005 1.84h2.033v10.185h-2.033v-10.185zM228.115 135.586c.725 0 1.337.1 1.836.297.5.198.9.478 1.205.84.304.36.52.79.65 1.29.13.498.195 1.047.195 1.648v6.655l-.65.112c-.28.048-.593.092-.943.133-.35.04-.728.08-1.136.113-.407.034-.812.05-1.213.05-.57 0-1.094-.06-1.573-.183a3.438 3.438 0 0 1-1.244-.584 2.646 2.646 0 0 1-.815-1.054c-.195-.437-.292-.962-.292-1.577 0-.586.114-1.092.34-1.515.227-.423.534-.764.923-1.023.388-.26.842-.45 1.36-.574a7.046 7.046 0 0 1 1.63-.184c.182 0 .37.01.564.03.195.02.38.048.554.082.175.034.327.065.457.092.13.027.22.048.272.06v-.53c0-.315-.032-.625-.097-.933a2.194 2.194 0 0 0-.35-.817 1.792 1.792 0 0 0-.69-.574c-.29-.144-.67-.216-1.135-.216-.596 0-1.117.045-1.564.133-.446.09-.78.18-1 .277l-.214-1.577c.233-.11.622-.215 1.166-.317a9.54 9.54 0 0 1 1.767-.154zm.156 9.54c.428 0 .807-.01 1.137-.03.33-.02.605-.057.825-.112v-3.174c-.13-.068-.34-.126-.63-.174a6.666 6.666 0 0 0-1.06-.072c-.27 0-.56.02-.864.062-.304.04-.583.126-.835.256-.253.13-.463.307-.63.532-.17.225-.254.522-.254.89 0 .683.206 1.158.62 1.424.415.266.978.4 1.69.4zM156.268 145.12c-.496 0-.956-.128-1.38-.384a2.862 2.862 0 0 1-.996-.984V145h-.54v-8.76h.6v3.876a3.976 3.976 0 0 1 1.044-1.056c.4-.272.864-.408 1.392-.408.44 0 .838.094 1.194.282.356.188.656.436.9.744s.432.656.564 1.044c.132.388.198.782.198 1.182a3.342 3.342 0 0 1-.858 2.25 3.113 3.113 0 0 1-.948.702 2.653 2.653 0 0 1-1.17.264zm-.12-.54c.36 0 .692-.076.996-.228a2.54 2.54 0 0 0 .786-.606 2.87 2.87 0 0 0 .516-.858c.124-.32.186-.648.186-.984a2.986 2.986 0 0 0-.66-1.878 2.398 2.398 0 0 0-.75-.606 2.06 2.06 0 0 0-.966-.228c-.264 0-.514.046-.75.138a2.58 2.58 0 0 0-.648.366c-.196.152-.37.328-.522.528-.152.2-.28.408-.384.624v2.064c.024.232.11.45.258.654.148.204.33.38.546.528.216.148.448.266.696.354.248.088.48.132.696.132zm6.514 2.544c.072 0 .178-.004.318-.012a.76.76 0 0 0 .318-.072.374.374 0 0 0 .114-.114c.044-.06.102-.162.174-.306s.164-.346.276-.606a49.8 49.8 0 0 0 .42-1.014l-2.784-6.24h.636l2.472 5.652 2.316-5.652h.588l-3.42 8.208c-.12.288-.278.478-.474.57a1.67 1.67 0 0 1-.714.138h-.12a.61.61 0 0 1-.12-.012v-.54z" fill="#FFF"/><path d="M49 0h274v54H49V0z" fill="url(#c)" transform="translate(13 68)"/><path d="M108.42 99.45c0 .565-.1 1.105-.3 1.62-.2.513-.478.963-.832 1.348a4.12 4.12 0 0 1-1.24.925c-.475.23-.985.347-1.53.347-.467 0-.94-.07-1.423-.206a3.377 3.377 0 0 1-1.302-.706c-.386-.334-.703-.775-.952-1.324-.248-.548-.373-1.242-.373-2.08V89.3c0-.6.097-1.156.29-1.67.193-.514.466-.96.82-1.336a3.8 3.8 0 0 1 1.264-.887 4.02 4.02 0 0 1 1.628-.32c.563 0 1.085.106 1.567.32.482.214.9.514 1.253.9.354.385.63.848.832 1.387.2.54.3 1.127.3 1.76v1.028h-2.457v-.873c0-.515-.137-.96-.41-1.338a1.3 1.3 0 0 0-1.11-.565c-.61 0-1.015.2-1.216.604-.2.403-.3.913-.3 1.53v9.353c0 .53.107.977.324 1.336.218.36.608.54 1.17.54.16 0 .334-.03.518-.09.185-.06.354-.16.506-.296.153-.138.278-.326.374-.566.096-.24.145-.54.145-.9v-.9h2.458v1.132zm10.212-9.893c0-.736.12-1.387.36-1.953.242-.565.56-1.032.953-1.4a4.057 4.057 0 0 1 1.326-.835 4.1 4.1 0 0 1 1.483-.284 4.1 4.1 0 0 1 1.482.283c.49.187.932.466 1.326.834.395.368.712.835.953 1.4.24.566.362 1.217.362 1.953v9.662c0 .753-.12 1.408-.362 1.965a4.1 4.1 0 0 1-.952 1.387 4.057 4.057 0 0 1-1.325.835 4.1 4.1 0 0 1-1.482.283 4.1 4.1 0 0 1-1.482-.283 4.057 4.057 0 0 1-1.325-.835 4.1 4.1 0 0 1-.952-1.387c-.24-.557-.36-1.212-.36-1.966v-9.663zm2.458 9.662c0 .633.165 1.1.494 1.4.33.3.72.45 1.17.45.45 0 .84-.15 1.168-.45.33-.3.494-.767.494-1.4v-9.663c0-.634-.164-1.1-.494-1.4-.33-.3-.72-.45-1.17-.45-.45 0-.838.15-1.168.45-.33.3-.494.766-.494 1.4v9.662zm16.31-13.98h2.36l3.158 9.688h.048l3.133-9.688h2.385v18.296h-2.458V92.41h-.048l-2.435 7.862h-1.23l-2.41-7.863h-.048v11.126H137.4V85.24zm21.754 0h2.362l3.158 9.688h.048l3.133-9.688h2.386v18.296h-2.457V92.41h-.05l-2.433 7.862h-1.23l-2.41-7.863h-.047v11.126h-2.46V85.24zm21.756 0h7.327v2.467h-4.87v5.37h4.243v2.467h-4.242v5.37h4.87v2.622h-7.328V85.24zm19.73 8.172h1.4c.433 0 .778-.065 1.035-.193.257-.13.454-.314.59-.554.137-.24.23-.535.278-.886a9.08 9.08 0 0 0 .072-1.22c0-.463-.024-.87-.072-1.22-.048-.352-.15-.652-.3-.9a1.384 1.384 0 0 0-.64-.553c-.273-.12-.635-.18-1.085-.18h-1.277v5.705zm-2.457-8.172h3.952c2.892 0 4.338 1.79 4.338 5.37 0 1.063-.156 1.975-.47 2.737-.313.763-.863 1.375-1.65 1.838l2.65 8.35h-2.602l-2.29-7.81h-1.47v7.81h-2.457V85.24zm26.43 14.21c0 .565-.1 1.105-.3 1.62-.2.513-.48.963-.832 1.348a4.12 4.12 0 0 1-1.24.925c-.474.23-.984.347-1.53.347-.467 0-.94-.07-1.423-.206a3.377 3.377 0 0 1-1.3-.706c-.387-.334-.704-.775-.953-1.324-.25-.548-.374-1.242-.374-2.08V89.3c0-.6.097-1.156.29-1.67.192-.514.465-.96.82-1.336a3.8 3.8 0 0 1 1.264-.887 4.02 4.02 0 0 1 1.627-.32c.563 0 1.086.106 1.568.32.482.214.9.514 1.253.9.354.385.632.848.832 1.387.2.54.302 1.127.302 1.76v1.028h-2.46v-.873c0-.515-.135-.96-.408-1.338a1.3 1.3 0 0 0-1.11-.565c-.61 0-1.015.2-1.216.604-.2.403-.3.913-.3 1.53v9.353c0 .53.107.977.324 1.336.217.36.607.54 1.17.54.16 0 .332-.03.517-.09.186-.06.355-.16.507-.296.153-.138.277-.326.374-.566.097-.24.145-.54.145-.9v-.9h2.46v1.132zm10.43-14.21h2.457v18.296h-2.458V85.24zM252 90.508h-.047l-1.205 6.63h2.458L252 90.507zm-1.035-5.268h2.048l3.832 18.296h-2.458l-.723-3.932h-3.35l-.723 3.932h-2.458l3.833-18.296zm15.44 0h2.46v15.675h4.867v2.62h-7.326V85.24zm25.227 5.268h-2.46v-.59c0-.6-.13-1.12-.396-1.556-.265-.437-.71-.655-1.338-.655-.337 0-.615.07-.83.206a1.47 1.47 0 0 0-.508.526c-.12.214-.204.462-.253.745a5.268 5.268 0 0 0-.072.886c0 .36.012.665.036.913.025.25.086.463.182.643s.237.338.422.475c.185.138.438.275.76.412l1.88.797c.545.22.987.483 1.324.782.338.3.6.65.784 1.054.184.403.31.865.373 1.388.065.522.097 1.117.097 1.785 0 .77-.073 1.486-.217 2.145-.145.66-.382 1.225-.71 1.696-.33.472-.768.845-1.315 1.12-.546.273-1.213.41-2 .41a4.14 4.14 0 0 1-1.663-.334 4.035 4.035 0 0 1-1.326-.912 4.326 4.326 0 0 1-.878-1.375 4.51 4.51 0 0 1-.326-1.723v-.976h2.46v.823c0 .48.13.912.396 1.298.265.386.71.58 1.338.58.418 0 .743-.065.976-.194a1.28 1.28 0 0 0 .53-.54c.12-.23.197-.518.23-.86.03-.343.047-.72.047-1.13 0-.48-.016-.874-.048-1.183-.032-.308-.1-.557-.205-.745a1.29 1.29 0 0 0-.434-.463 5.577 5.577 0 0 0-.735-.385l-1.758-.77c-1.06-.463-1.77-1.076-2.133-1.838s-.543-1.717-.543-2.865c0-.685.088-1.336.265-1.953a4.666 4.666 0 0 1 .783-1.593c.346-.445.783-.8 1.314-1.066.53-.265 1.147-.398 1.854-.398.61 0 1.17.12 1.675.36.506.24.94.557 1.3.95.362.395.64.836.832 1.324.193.488.29.99.29 1.503v1.285z" fill="#FFF"/><path d="M36.564 76.94a26.99 26.99 0 0 0-4.04-.418 24.53 24.53 0 0 0-3.592.167c-1.274.148-2.384.51-3.33 1.09-.77.472-1.278 1.025-1.522 1.656-.245.63-.112 1.362.397 2.193.375.614.816 1.035 1.324 1.266.51.23 1.114.355 1.82.376.703.02 1.512-.038 2.425-.177a73.407 73.407 0 0 1 3.148-.39c1.853-.233 3.605-.313 5.258-.24 1.653.072 3.22.39 4.707.954 1.486.566 2.92 1.478 4.302 2.74 1.382 1.26 2.743 2.984 4.083 5.172 1.715 2.803 2.807 5.37 3.278 7.7.47 2.33.484 4.413.04 6.25-.442 1.837-1.227 3.446-2.355 4.828a15.297 15.297 0 0 1-3.868 3.406c-1.155.706-2.42 1.3-3.795 1.78a26.18 26.18 0 0 1-4.303 1.1c-1.495.252-2.998.39-4.51.413a23.852 23.852 0 0 1-4.454-.344l-3.144-13.513c1.626.328 3.23.52 4.81.575 1.35.078 2.785.01 4.306-.198 1.52-.207 2.903-.694 4.146-1.454.948-.58 1.493-1.17 1.635-1.77.14-.596.025-1.203-.35-1.816-.402-.657-.93-1.102-1.58-1.335-.653-.233-1.41-.325-2.277-.276-.866.047-1.827.154-2.886.32a44.31 44.31 0 0 1-3.45.397c-1.82.153-3.483.132-4.985-.063a13.177 13.177 0 0 1-4.176-1.236c-1.28-.63-2.48-1.505-3.594-2.63-1.115-1.12-2.196-2.538-3.24-4.245-1.582-2.582-2.658-5.055-3.227-7.415-.57-2.36-.71-4.53-.417-6.516.29-1.983.933-3.745 1.924-5.285.99-1.538 2.27-2.79 3.84-3.75a13.72 13.72 0 0 1 3.677-1.574 24.126 24.126 0 0 1 3.94-.697c1.33-.12 2.618-.158 3.868-.11 1.25.047 2.392.116 3.424.206l2.742 12.857zm24.465-.596c1.026-.426 1.763-1.126 2.21-2.097.447-.972.67-2.1.668-3.382 0-1.283-.193-2.683-.575-4.202a33.45 33.45 0 0 0-1.548-4.622L51.622 37.577l8.84-3.672L70.624 58.37c1.374 3.306 2.37 6.52 2.995 9.64.622 3.12.765 5.983.43 8.584-.338 2.603-1.17 4.887-2.497 6.853-1.328 1.966-3.23 3.464-5.708 4.493-2.57 1.067-5.032 1.343-7.39.83-2.356-.515-4.57-1.6-6.64-3.255-2.07-1.655-3.964-3.788-5.687-6.4-1.723-2.612-3.243-5.503-4.56-8.676L31.404 45.973l8.84-3.672 10.162 24.465a33.885 33.885 0 0 0 2.197 4.392c.814 1.364 1.676 2.5 2.583 3.406.91.907 1.852 1.537 2.832 1.89.978.352 1.98.315 3.01-.112zm23.776 4.583L70.09 28.274l15.348-4.29c1.738-.484 3.49-.4 5.26.25 1.768.653 3.417 1.684 4.947 3.095 1.53 1.41 2.903 3.132 4.12 5.164a26.018 26.018 0 0 1 2.758 6.384c.65 2.325.997 4.666 1.043 7.024.046 2.36-.202 4.534-.745 6.524-.542 1.99-1.4 3.697-2.57 5.117s-2.627 2.373-4.365 2.858l-5.818 1.627 4.52 16.166-9.78 2.734zm51.86-25.45l2.2 12.904-25.974 4.43-9.19-53.893 25.514-4.35 2.2 12.904-15.503 2.644 1.295 7.59 13.244-2.258 2.045 11.993-13.244 2.257 1.45 8.502 15.964-2.723zm7.66 12.03l-5.472-54.397 16.89-1.7c1.796-.18 3.51.203 5.14 1.147 1.63.947 3.078 2.245 4.344 3.897 1.265 1.653 2.323 3.585 3.173 5.795a25.98 25.98 0 0 1 1.624 6.762c.32 3.168.15 6.164-.51 8.99-.657 2.826-1.727 5.192-3.21 7.094l10.302 19.162-11.4 1.147-8.675-15.998-3.78.38 1.68 16.702-10.104 1.016zm69.04-40.288a26.796 26.796 0 0 0-3.21-2.49 24.39 24.39 0 0 0-3.137-1.76c-1.16-.548-2.294-.826-3.405-.835-.902-.008-1.624.192-2.166.598-.543.407-.816 1.098-.824 2.072-.006.72.145 1.31.454 1.775.308.465.756.892 1.344 1.282.586.39 1.303.768 2.15 1.133.85.367 1.81.812 2.88 1.333 1.695.784 3.224 1.643 4.59 2.578a15.054 15.054 0 0 1 3.487 3.3c.962 1.268 1.696 2.8 2.202 4.6.507 1.803.75 3.986.73 6.552-.03 3.286-.46 6.04-1.292 8.267-.835 2.227-1.926 4.002-3.273 5.325-1.347 1.325-2.866 2.275-4.553 2.85-1.69.577-3.384.86-5.085.845a19.65 19.65 0 0 1-4.164-.496 26.166 26.166 0 0 1-4.233-1.344 29.66 29.66 0 0 1-4.045-2.035 23.92 23.92 0 0 1-3.598-2.647l4.48-13.13a29.307 29.307 0 0 0 3.778 3.033 22.356 22.356 0 0 0 3.76 2.11c1.4.627 2.83.947 4.287.96 1.11.008 1.885-.204 2.323-.637.437-.433.66-1.01.665-1.728.006-.77-.206-1.426-.635-1.97-.43-.54-1.025-1.02-1.784-1.438a29.62 29.62 0 0 0-2.62-1.253 44.438 44.438 0 0 1-3.14-1.488c-1.624-.833-3.024-1.73-4.196-2.69a13.162 13.162 0 0 1-2.89-3.258c-.754-1.212-1.306-2.59-1.66-4.133-.35-1.542-.518-3.315-.502-5.317.025-3.027.42-5.694 1.185-7.998.765-2.304 1.797-4.22 3.095-5.75 1.295-1.53 2.772-2.685 4.43-3.467a11.872 11.872 0 0 1 5.24-1.15 13.69 13.69 0 0 1 3.954.608c1.28.396 2.518.894 3.71 1.494a29.98 29.98 0 0 1 3.344 1.952 69.52 69.52 0 0 1 2.796 1.986l-4.475 12.36zm33.38 25.766l-1.014 13.05-26.27-2.042L223.7 9.49l25.803 2.005-1.015 13.05-15.68-1.22-.596 7.678 13.394 1.042-.942 12.13-13.396-1.042-.667 8.598 16.147 1.256zm1.843 13.182l22.264-51.802 8.124 1.3 4.937 56.155-10.593-1.694-.52-10.923-9.718-1.555-3.852 10.223-10.643-1.702zm38.286 6.97L300.57 20.21l16.436 4.253c1.748.452 3.222 1.404 4.425 2.855 1.203 1.452 2.113 3.17 2.728 5.16.614 1.988.938 4.167.97 6.534.034 2.37-.24 4.67-.818 6.907-.798 3.08-1.994 5.833-3.59 8.256-1.594 2.425-3.418 4.273-5.467 5.544l3.03 21.544-11.09-2.87-2.602-18.012-3.678-.952-4.205 16.25-9.83-2.543zm38.11-19.192a41.004 41.004 0 0 1 4.613-8.792c1.892-2.74 4.016-5.037 6.37-6.89 2.354-1.852 4.844-3.13 7.47-3.838 2.625-.706 5.253-.562 7.883.435 3.083 1.17 5.39 3.21 6.923 6.125 1.53 2.915 2.212 6.26 2.043 10.038l-10.15 4.882c.18-1.358.19-2.535.03-3.53-.163-.994-.428-1.836-.798-2.525-.37-.69-.827-1.247-1.37-1.673-.545-.425-1.077-.737-1.596-.934-1.2-.455-2.382-.45-3.542.016-1.16.465-2.267 1.227-3.316 2.283-1.05 1.057-2.01 2.34-2.88 3.85a31.967 31.967 0 0 0-2.204 4.64 29.397 29.397 0 0 0-1.475 5.288c-.312 1.75-.403 3.362-.275 4.837.126 1.477.48 2.75 1.058 3.82.577 1.07 1.42 1.813 2.523 2.232.55.208 1.16.315 1.827.32.667.006 1.363-.142 2.09-.442.726-.302 1.46-.765 2.197-1.39.74-.627 1.456-1.467 2.152-2.52l5.15 9.775c-1.197 1.687-2.573 3.088-4.126 4.2-1.555 1.113-3.156 1.933-4.803 2.46-1.65.53-3.287.787-4.915.773-1.63-.014-3.125-.278-4.488-.795-2.403-.91-4.324-2.502-5.763-4.777-1.44-2.276-2.41-4.934-2.907-7.978-.5-3.043-.553-6.304-.163-9.78a41.377 41.377 0 0 1 2.44-10.11zM402.18 67.38L375.322 115l-8.845-4.99 10.515-18.644-10.795-6.088-10.516 18.645-8.845-4.988 26.857-47.62 8.844 4.99-9.91 17.57 10.796 6.09 9.91-17.572 8.845 4.988zM151.44 36.764l6.372-.64c.622-.064 1.148-.63 1.582-1.708.432-1.075.556-2.532.37-4.37-.19-1.89-.645-3.303-1.367-4.236-.722-.934-1.394-1.37-2.016-1.307l-6.113.615 1.172 11.645zM86.543 49.42l5.166-1.443c.602-.17 1.047-.733 1.338-1.694.29-.96.14-2.503-.456-4.63-.608-2.174-1.323-3.573-2.146-4.196-.822-.622-1.535-.85-2.137-.683l-4.916 1.374 3.15 11.272zm217.647-2.663l6.202 1.605c.605.156 1.296-.194 2.074-1.054.78-.86 1.4-2.183 1.862-3.972.475-1.838.537-3.32.182-4.447-.354-1.127-.834-1.768-1.438-1.924l-5.95-1.54-2.93 11.33zM272.447 30.45l-6.29 17.553 6.634 1.06-.344-18.613z" fill-opacity=".362" fill="#0A2452"/><path d="M213.116 23.117c-.01.267-.017.534-.026.8l1.087-2.914c1.03-2.762 2.186-5.507 3.097-8.31.243-.746.18-1.558.215-2.342.053-1.246.108-2.492.163-3.74l-1.065 2.853-3.137 8.408a3.48 3.48 0 0 0-.197.94c-.006-.483-.122-.603-.75-1.11a25.532 25.532 0 0 0-3.48-2.374c-1.953-1.105-5.365-2.87-7.507-1.244-1.06.805-.807 2.512-.804 3.698l.01 3.945c-.007-2.827 3.037-2.858 5.09-2.22 2.663.83 5.19 2.595 7.278 4.413l.026-.8zM271.95 66.55l-.563-8.824c-.04-.65-.083-1.184-.026-1.76-.027.08-.06.142-.096.166-.172.11-1.04-.16-1.22-.19l-8.282-1.288.25-1.322c-.21.95-.46 1.888-.806 2.81l-3.085 8.252c.01-.04.016-.08.023-.12-.03.043-.094.05-.25.085-.472.102-1.315-.207-1.787-.28l-5.75-.893c-.53-.082-2.488-.12-2.66-.564-.084-.22.126-.84.16-1.07l.235-1.584.33-2.222c3.54.55 7.078 1.1 10.616 1.648l-.308 1.678c.23-1.112.507-2.21.912-3.294l3.095-8.27-.014.073a.17.17 0 0 1 .06-.066c.198-.11 1.036.16 1.252.194l8.38 1.303-.872 3.965c.29-1.322.58-2.644.872-3.965.227 3.524.452 7.05.68 10.573-.014.057-.028.115-.04.172.035-.063.093-.106.204-.146.34-.123 1.257.195 1.6.248l8.814 1.368-1.133 4.273c-.11.416-.058.544-.343.643-.347.12-1.18-.183-1.534-.238l-8.71-1.353v-.002zm.51-2.212l.487-2.124a28049.067 28049.067 0 0 1-.488 2.124zm-.842-40.913c-.4 1.123-.797 2.243-1.195 3.364-1.38 3.89-2.763 7.778-4.144 11.668-.82 2.3-1.185 4.652-1.648 7.053.404-1.133.806-2.268 1.21-3.403l4.116-11.598a23.7 23.7 0 0 0 .637-2.128c-.018.133-.035.266-.05.4-.092.808.018 1.664.045 2.478l.21 6.07.317 9.18 1.122-5.268-.078-2.21c-.18-5.203-.362-10.405-.544-15.607zm93.994 72.71l-1.225 2.064c3.226-5.997 6.34-12.07 9.68-18l.03-.05c-.122.044-.252-.087-.41-.158-2.663-1.213-5.21-2.813-7.785-4.203-.883-.48-1.767-.956-2.65-1.433a237985.123 237985.123 0 0 1-7.244 13.37c-3.004-1.63-6.008-3.258-9.01-4.888l-.95 1.89-.726 1.447c-.148.296-.526.78-.556 1.11-.03.33-.076.2.31.422.585.34 1.19.648 1.785.97l5.05 2.742c.362.197 1.052.773 1.467.797.108.005.178-.016.23-.062l10.434-19.26.52-.958.508-.936c.127-.235.537-1.362.792-1.462l.017-.033-.017.032c.1-.04.35.146.463.208l7.88 4.25 2.672 1.44-2.776 4.71c.266-.102.69-1.172.834-1.418l1.94-3.29-8.598 15.987-1.23 2.285-.066.112a.233.233 0 0 1 .135-.074c.277-.03 1.046.566 1.283.695l7.713 4.18-2.287 3.592c-.145.228-.36.758-.59.78-.287.026-.987-.536-1.227-.667l-7.618-4.134 1.224-2.065zm-12.004-3.977l.272-.502c-.13.243-.172.417-.272.502zm-49.59-40.006h.002l-2.492-.625c-.218-.055-.906-.362-1.107-.277-.14.06-.065.094-.17.277-.448.783-.6 1.957-.866 2.82l-.615 2.002 2.452.614c.216.054.888.356 1.09.273.093-.04.092-.07.112-.14a3.126 3.126 0 0 0-.01.08c-.08.752.253 1.7.38 2.443l1.015 5.943 1.522 8.897c.56-1.615 1.122-3.23 1.684-4.846l-.377-2.197c-.874-5.088-1.748-10.176-2.62-15.265zm-.51 1.596zM286.6 64.67l.046-.166 1.537-6.236c2.252-9.127 4.5-18.252 6.752-27.378l4.24-17.201c-.72 2.65-1.447 5.293-2.105 7.96l-6.773 27.47-5.003 20.29c0 .006-.002.01-.003.016l8.252 2.075c.26.067 1.096.443 1.366.345.192-.07.252-.542.326-.78l1.267-4.086c-2.785-.7-5.568-1.4-8.352-2.098-.285-.072-1.103-.437-1.385-.348a.29.29 0 0 0-.165.137zm61.196-11.666l8.42-4.006c.37-.175.986-.333 1.29-.613.232-.213.358-.69.495-.975.68-1.427 1.363-2.855 2.044-4.282-2.82 1.34-5.636 2.68-8.455 4.018-.398.19-1.054.358-1.382.657a.997.997 0 0 0-.208.295c.68-1.973.117-4.663-.97-6.34-1.29-1.988-3.885-3.097-6.164-2.326-3.022 1.022-5.11 3.95-6.55 6.66-1.322 2.495-2.28 5.196-3.35 7.81 1.497-3.658 4.378-9.097 8.854-9.42 1.715-.123 3.504.75 4.568 2.092 1.42 1.79 1.634 4.23 1.406 6.43zm-35.915-21.23l.1-.316c.302-.936.604-1.874.905-2.813-.955-.236-1.91-.474-2.864-.712l-1.944-.483c-.18-.044-.91-.35-1.076-.267-.366.183-.677 2.122-.8 2.53l-.884 2.92 2.815.7 1.95.486c.135.032.903.337 1.037.258a.12.12 0 0 0 .03-.028l-.01.033c.948.245 1.42 1.514 1.598 2.374.246 1.195.057 2.465-.223 3.637l1.772-5.347c.272-1.144.454-2.37.25-3.54-.158-.91-.64-2.3-1.65-2.56l-1.005 3.128zM140.215 64.88l-.464-2.87c-.788-4.882-1.584-9.74-2.546-14.592l.462 2.862c.778 4.817 1.557 9.613 2.507 14.397l-.955-4.784c-1.08.18-2.162.358-3.244.537l-22.697 3.76 1.044 3.65c.05.17.192 1.175.367 1.276.06.035.254-.057.323-.053.602.033 1.353-.225 1.944-.323l3.116-.517 8.55-1.417 11.594-1.922v-.004zm15.262-1.81l-.31-3.338c-.555-5.953-1.07-11.875-1.937-17.79l.308 3.302c.544 5.85 1.037 11.674 1.89 17.485-.234-1.557-.466-3.112-.698-4.668l-10.07.985c.254 1.395.508 2.79.76 4.185.046.244.048.714.23.81.25.134 1.133-.11 1.396-.136l8.433-.826-.002-.01zm1.594-20.894l-.08-.597 7.41 13.486 1.065 1.94.06.52-.06-.52 11.342-1.105c.118 1.513.445 3.145.365 4.657-.026.49.108.337-.357.432-.626.126-1.306.126-1.94.188l-5.91.577c-.518.05-2.595.537-2.933.2l.01.086-4.315-7.86-2.848-5.19c-.376-.685-.946-1.436-1.185-2.185l-.44-3.262-.185-1.367zm8.845 18.752c0-.01 0-.017-.002-.024l-.082-.71.084.734zm-.11-.966l-.084-.728-.08-.696.163 1.424zm-45.51-13.966c.024.05.054.088.09.107.166.088.814-.134.99-.163l4.456-.736 7.444-1.23-1.088-5.29-13.16 2.172c.39 2.488.783 4.976 1.175 7.464.31 1.977.91 3.916 1.393 5.856l-1.174-7.446c-.04-.245-.082-.49-.128-.734zm-4.228-23.888c-.002 0-.002 0-.002-.002l15.35-2.52c.33 1.672.658 3.345.987 5.018-.92-4.734-1.704-9.47-2.47-14.234l-.487-3.032c.963 4.924 1.784 9.85 2.58 14.804l.48 2.99c.003.008.004.015.005.022l-8.333 1.37-5.226.86c-.336.056-1.03.317-1.365.225-.13-.037-.184-.052-.214-.1.024.122.047.244.068.365.413 2.29.728 4.603 1.09 6.903-.464-1.903-1.038-3.81-1.372-5.738-.398-2.304-.73-4.622-1.093-6.932zm34.668.613c.037.113.08.193.13.23.152.108.96-.095 1.134-.112l2.008-.196c.926-.09 1.85-.182 2.776-.273l-.706-5.61-6.032.59.427 2.996c.014.093.025.276.04.504-.146-1.167-.3-2.334-.468-3.5.514 5.54 1.02 11.041 1.816 16.545-.347-3.737-.694-7.458-1.125-11.174zM71.833 53.345l.804 1.995-1.684-4.225c-3.24-8.134-6.468-16.273-9.742-24.393.554 1.39 1.108 2.778 1.66 4.168 2.842 7.13 5.672 14.266 8.534 21.39l-.84-2.075c1.684 4.22 2.983 8.76 3.148 13.328.145 3.975-.675 8.092-3.136 11.295-2.25 2.927-5.992 4.77-9.625 5.106-8.206.755-14.152-6.727-17.522-13.283l2.513 4.89c2.46 4.786 5.86 9.595 10.875 11.89 4.19 1.92 8.81 1.445 12.698-1 4.294-2.698 6.143-7.683 6.24-12.602.114-5.778-1.808-11.198-3.92-16.484zm-40.31 26.69c-.21-.37-.413-.76-.67-1.097-.7-.914-1.788-1.205-2.89-1.245-2.337-.085-4.707.53-7.036.71-2.84.22-5.81.148-8.47-.982C9.7 76.248 7.618 74.062 6 71.576c1.043 1.606 2.088 3.21 3.13 4.817 1.428 2.196 3.227 4.19 5.58 5.39 2.34 1.192 4.954 1.487 7.545 1.42 2.3-.06 4.544-.488 6.827-.705 1.7-.162 3.75-.22 4.73 1.477a12804.46 12804.46 0 0 1-2.236-3.845l2.25 3.87c-.745-1.293-1.562-2.692-2.304-3.965zm62.884-9.21a45.105 45.105 0 0 1-.91-2.983 166337.557 166337.557 0 0 1-3.7-14.098l5.815-1.574 1.176 3.584-1.175-3.584c5.954-1.61 7.93-8.445 7.943-13.96.042.146.087.292.132.44-.224-.92-.154-1.86-.242-2.81a25.5 25.5 0 0 0-.875-4.716c1.174 4.086 2.52 8.088 2.528 12.397-.056-.196-.112-.39-.17-.585.112.632.168 1.266.133 1.9-.273 5.067-2.395 10.983-7.773 12.438l-2.672.724c-.632.17-1.264.342-1.895.514-.187.05-.945.39-1.125.305a.278.278 0 0 1-.087-.072c.147.48.286.962.414 1.448l2.843 10.825.855 3.255-8.23 2.235c-.262.07-1.088.458-1.364.37-.2-.064-.292-.532-.382-.765l-1.56-4.023 9.828-2.665.495 1.403zm-68.324-8.707l.22.392-.562-3.117c-.525-2.92-.89-5.926-1.586-8.81-.186-.768-.677-1.448-1.057-2.142l-1.84-3.366.56 3.105c.533 2.97.965 5.983 1.605 8.933.05.227.126.442.22.65-.153-.207-.342-.304-.828-.378a26.2 26.2 0 0 0-3.956-.307c-2.375 0-6.787.124-7.9 2.836-.52 1.268.61 2.632 1.237 3.664l2.105 3.458c-1.495-2.455 1.26-4.056 3.333-4.56 2.76-.668 5.9-.465 8.67.033l-.22-.393zm59.514-26.97c.318.21 1.835-.434 2.237-.542.865-.234 2.732-.467 3.597-.7-.59-1.814-1.182-3.627-1.774-5.44-1.632.44-4.262.878-5.894 1.317.8 3.04 3.06 10.007 2.263 6.977a44.064 44.064 0 0 0-.472-1.66.18.18 0 0 0 .044.047zm.656 0a2007.364 2007.364 0 0 1 0 0zm7.252-1.958c.573 1.794 1.144 3.59 1.716 5.384-.48-1.506-1.743-4.228-3.788-3.67l-1.776-5.44c2.077-.565 3.362 2.196 3.85 3.725zM41.95 34.754c3.758 7.95 6.793 16.196 10.01 24.383.552 1.4 1.1 2.8 1.652 4.2-3.805-7.95-6.81-16.236-10.035-24.44l-1.628-4.143zm12.602 30.75c-1.138-2.376-2.38-4.727-3.34-7.182 1.14 2.38 2.2 4.803 3.34 7.182zm-14.007 8.137c2.866 5.32 6.574 11.102 4.622 17.407-2.702 8.726-13.71 11.554-21.768 10.704-.72-.076-1.275-.002-1.716-.526-.375-.444-.667-1.005-.988-1.488-.58-.877-1.162-1.754-1.744-2.63 6.442 1.14 14.395-.156 19.473-4.5 2.63-2.25 4.433-5.293 4.686-8.805.26-3.588-.885-7.045-2.565-10.163zM159.33 21.685c.22 1.846.437 3.692.655 5.54-.145-1.23-.438-2.506-1.176-3.52-.448-.61-1.182-1.418-2.024-1.335l-.706-5.61c2.176-.215 3.067 3.37 3.25 4.924zm11.193-1.427c.623 7.007 1.504 14.62-3.263 20.503l-.308-2.952c-.06-.592-.123-1.184-.185-1.777-.07-.685.013-.65.475-1.3 2.93-4.108 3.72-9.534 3.28-14.472zm-39.177 7.934c.946 4.633 1.724 9.262 2.474 13.933l.457 2.85c-.954-4.637-1.726-9.27-2.476-13.947-.15-.945-.303-1.89-.454-2.836zm181.608 8.71c-.59 1.777-1.177 3.554-1.766 5.33.714-2.154 1.382-4.328 2.096-6.486-.095.39-.203.776-.33 1.157zm9.374 4.34c-2.096 5.76-4.005 11.988-9.534 15.39l.867-2.464c.265-.753.445-1.988.925-2.63.173-.23.648-.435.895-.613.49-.355.96-.74 1.406-1.152a18.062 18.062 0 0 0 2.222-2.483c1.37-1.834 2.436-3.896 3.22-6.048zm60.525 23.095l-2.895 4.925c3.023-5.616 5.933-11.31 9.077-16.856.965-1.702 1.977-3.378 2.965-5.066-2.67 4.96-5.34 9.92-8.008 14.88l-1.14 2.117zM318.15 73.41l-1.66 4.282c-.195.502-.072.44-.47.456-.522.022-1.237-.31-1.74-.438l-8.95-2.25c.51-1.463.916-3.02 1.542-4.433.21-.47.018-.328.41-.346.54-.024 1.287.324 1.81.455 3.018.76 6.04 1.517 9.06 2.276zm4.17-22.68l1.95-5.203c-2.6 6.942-3.49 15.16-1.22 22.32 1.076 3.39 2.992 6.725 6.052 8.653 3.01 1.896 6.74 2.276 10.17 1.535 4.133-.894 7.792-3.42 10.21-6.895-.78 1.593-1.466 3.29-2.363 4.82-2.197 3.75-6.767 6.302-10.94 6.96-4.408.696-8.992-.62-11.9-4.138-3.008-3.643-4.16-8.57-4.363-13.206-.22-5.04.635-10.133 2.402-14.846zm-73.415-34.928l-.593 4.543c-.026.21-.02.953-.18 1.064-.152.103-.878-.067-1.05-.08-3.604-.27-7.206-.54-10.81-.808l-3.322-.25.4-4.632c.02-.22-.02-.885.14-.99.174-.114.928.07 1.13.085l10.926.816 3.36.252zm-3.592 19.747l-.505 3.98c-.027.208-.005 1.225-.172 1.355-.086.066-.565-.043-.662-.05l-9.356-.707-3.04-.23.348-3.99c.017-.188-.03-1.243.12-1.36.095-.074.63.047.74.056a398391379.97 398391379.97 0 0 0 12.527.945zm1.268 22.067l-.53 3.806c-.026.196-.014 1.09-.17 1.218-.056.045-.31-.03-.378-.027-.808.044-1.685-.128-2.49-.19l-4.156-.313c-5.932-.45-11.864-.9-17.796-1.348-.747-.056-.92.142-.876-.646l.25-4.476 22.847 1.727 3.3.25zM207.53 40.99c-.03 1.756-.062 3.513-.094 5.27.044-2.36-2.392-3.382-4.214-4.174-2.39-1.04-4.803-2.066-6.95-3.576-2.49-1.753-4.354-4.117-5.167-7.092-.493-1.805-.58-3.655-.64-5.515l-.142-4.37c.086 2.6.567 5.247 1.92 7.503 1.337 2.23 3.388 3.864 5.608 5.143 2.055 1.183 4.256 2.003 6.386 3.025 1.596.766 3.33 1.774 3.294 3.784zm10.81.16c-.287 5.74-.135 12.167-4.517 16.526-6.56 6.526-17.656 3.29-24.122-1.667-.562-.43-1.006-.634-1.12-1.284-.093-.54-.047-1.15-.07-1.696-.04-1.02-.083-2.04-.126-3.06 5.005 4.355 12.638 7.387 19.283 5.953 3.245-.7 6.1-2.488 7.93-5.31 1.83-2.82 2.577-6.135 2.744-9.462z" fill="url(#d)"/><path d="M24.064 58.122a26.99 26.99 0 0 0-4.04-.416 24.53 24.53 0 0 0-3.592.167c-1.274.148-2.384.512-3.33 1.092-.77.47-1.278 1.023-1.522 1.654-.245.63-.112 1.362.397 2.193.375.614.816 1.035 1.324 1.266.51.23 1.114.355 1.82.375.703.02 1.512-.037 2.425-.176a73.407 73.407 0 0 1 3.148-.393c1.853-.23 3.605-.31 5.258-.24 1.653.073 3.22.392 4.707.956 1.486.566 2.92 1.48 4.302 2.74 1.382 1.26 2.743 2.985 4.083 5.173 1.715 2.802 2.807 5.37 3.278 7.7.47 2.33.484 4.413.04 6.25-.442 1.836-1.227 3.445-2.355 4.827a15.297 15.297 0 0 1-3.868 3.406c-1.155.706-2.42 1.3-3.795 1.78a26.18 26.18 0 0 1-4.303 1.1c-1.495.252-2.998.39-4.51.413a23.852 23.852 0 0 1-4.454-.344l-3.144-13.514c1.626.33 3.23.52 4.81.576 1.35.077 2.785.01 4.306-.198 1.52-.208 2.903-.694 4.146-1.455.948-.58 1.493-1.17 1.635-1.77.14-.597.025-1.203-.35-1.816-.402-.657-.93-1.102-1.58-1.335-.653-.234-1.41-.326-2.277-.278-.866.05-1.827.156-2.886.322a44.31 44.31 0 0 1-3.45.397c-1.82.154-3.483.133-4.985-.062a13.177 13.177 0 0 1-4.176-1.236c-1.28-.63-2.48-1.506-3.594-2.63-1.115-1.122-2.196-2.538-3.24-4.245-1.582-2.583-2.658-5.055-3.227-7.415-.57-2.36-.71-4.53-.417-6.516.29-1.983.933-3.745 1.924-5.285.99-1.538 2.27-2.79 3.84-3.75a13.72 13.72 0 0 1 3.677-1.573 24.126 24.126 0 0 1 3.94-.697c1.33-.12 2.618-.16 3.868-.11 1.25.046 2.392.115 3.424.205l2.742 12.857zm36.465 9.405c1.026-.426 1.763-1.126 2.21-2.097.447-.972.67-2.1.668-3.382 0-1.283-.193-2.683-.575-4.202a33.45 33.45 0 0 0-1.548-4.622L51.122 28.76l8.84-3.673 10.162 24.465c1.374 3.307 2.37 6.52 2.995 9.64.622 3.122.765 5.984.43 8.585-.338 2.603-1.17 4.887-2.497 6.853-1.328 1.966-3.23 3.464-5.708 4.493-2.57 1.067-5.032 1.343-7.39.83-2.356-.515-4.57-1.6-6.64-3.255-2.07-1.655-3.964-3.788-5.687-6.4-1.723-2.612-3.243-5.503-4.56-8.676L30.904 37.157l8.84-3.672L49.907 57.95a33.885 33.885 0 0 0 2.197 4.392c.814 1.365 1.676 2.5 2.583 3.407.91.906 1.852 1.536 2.832 1.888.978.353 1.98.316 3.01-.11zm23.776 4.584L69.59 19.46l15.348-4.29c1.738-.484 3.49-.4 5.26.25 1.768.653 3.417 1.684 4.947 3.095 1.53 1.41 2.903 3.133 4.12 5.165a26.018 26.018 0 0 1 2.758 6.384c.65 2.325.997 4.666 1.043 7.024.046 2.36-.202 4.534-.745 6.524-.542 1.99-1.4 3.697-2.57 5.117s-2.627 2.373-4.365 2.858l-5.818 1.626 4.52 16.167-9.78 2.734zm51.862-25.45l2.2 12.905-25.975 4.428-9.19-53.892 25.514-4.35 2.2 12.905-15.503 2.643 1.295 7.59 13.243-2.258 2.045 11.993-13.244 2.258 1.45 8.503 15.964-2.722zm7.66 12.03l-5.473-54.397 16.89-1.7c1.796-.18 3.51.203 5.14 1.147 1.63.947 3.078 2.245 4.344 3.897 1.264 1.653 2.322 3.585 3.172 5.795a25.98 25.98 0 0 1 1.623 6.763c.32 3.168.15 6.164-.51 8.99-.657 2.826-1.727 5.192-3.21 7.094l10.302 19.16-11.4 1.148-8.675-15.998-3.782.38 1.68 16.702-10.103 1.017zM212.864 18.4a26.796 26.796 0 0 0-3.21-2.49 24.39 24.39 0 0 0-3.136-1.758c-1.16-.55-2.294-.827-3.405-.836-.902-.008-1.624.192-2.166.598-.543.407-.816 1.098-.824 2.072-.006.72.145 1.31.454 1.775.308.465.756.892 1.344 1.282.586.39 1.303.768 2.15 1.133.85.367 1.81.812 2.88 1.333 1.695.785 3.224 1.644 4.59 2.58a15.054 15.054 0 0 1 3.487 3.3c.962 1.267 1.696 2.8 2.202 4.6.507 1.802.75 3.985.73 6.55-.03 3.287-.46 6.042-1.292 8.268-.835 2.227-1.926 4.002-3.273 5.325-1.347 1.325-2.866 2.275-4.553 2.85-1.69.577-3.384.86-5.085.845a19.65 19.65 0 0 1-4.164-.496 26.166 26.166 0 0 1-4.233-1.343 29.66 29.66 0 0 1-4.045-2.036 23.92 23.92 0 0 1-3.598-2.648l4.48-13.13a29.307 29.307 0 0 0 3.778 3.033 22.356 22.356 0 0 0 3.76 2.11c1.4.626 2.83.946 4.287.958 1.11.01 1.885-.203 2.323-.636.437-.432.66-1.008.665-1.727.006-.77-.206-1.426-.635-1.97-.43-.54-1.025-1.02-1.784-1.438a29.62 29.62 0 0 0-2.62-1.253 44.438 44.438 0 0 1-3.14-1.49c-1.624-.832-3.024-1.73-4.196-2.69a13.162 13.162 0 0 1-2.89-3.257c-.754-1.212-1.306-2.59-1.66-4.133-.35-1.543-.518-3.316-.502-5.318.025-3.027.42-5.694 1.185-7.998.765-2.304 1.797-4.22 3.095-5.75 1.295-1.53 2.772-2.685 4.43-3.467a11.872 11.872 0 0 1 5.24-1.15 13.69 13.69 0 0 1 3.954.61c1.28.395 2.518.893 3.71 1.493a29.98 29.98 0 0 1 3.344 1.952 69.52 69.52 0 0 1 2.796 1.986l-4.475 12.362zm34.382 25.768l-1.015 13.05-26.27-2.042L224.2.673l25.803 2.006-1.015 13.05-15.68-1.22-.596 7.677 13.394 1.042-.942 12.128-13.396-1.04-.667 8.597 16.147 1.255zm.842 13.18l22.264-51.8 8.124 1.3 4.937 56.154-10.593-1.695-.52-10.924-9.718-1.555-3.852 10.224-10.643-1.703zm38.287 6.97l13.695-52.926 16.435 4.253c1.748.452 3.222 1.404 4.425 2.855 1.202 1.452 2.112 3.17 2.727 5.16.613 1.988.937 4.167.97 6.534.033 2.37-.24 4.67-.82 6.907-.797 3.082-1.993 5.834-3.588 8.257-1.595 2.425-3.42 4.273-5.468 5.544l3.03 21.544-11.09-2.87-2.602-18.012-3.68-.952-4.204 16.25-9.83-2.543zm38.11-19.19a41.004 41.004 0 0 1 4.612-8.792c1.892-2.74 4.016-5.037 6.37-6.89 2.354-1.852 4.844-3.13 7.47-3.838 2.625-.706 5.253-.562 7.883.435 3.083 1.17 5.39 3.21 6.923 6.124 1.53 2.914 2.212 6.26 2.043 10.037l-10.15 4.882c.18-1.36.19-2.536.03-3.53-.163-.995-.428-1.837-.798-2.526-.37-.69-.827-1.247-1.37-1.673-.545-.424-1.077-.736-1.596-.933-1.2-.455-2.382-.45-3.542.016-1.16.466-2.267 1.228-3.316 2.284-1.05 1.057-2.01 2.34-2.88 3.85a31.967 31.967 0 0 0-2.204 4.64 29.397 29.397 0 0 0-1.475 5.288c-.312 1.75-.403 3.36-.275 4.836.126 1.478.48 2.75 1.058 3.82.577 1.07 1.42 1.814 2.523 2.233.55.21 1.16.316 1.827.32.667.007 1.363-.14 2.09-.44.726-.303 1.46-.766 2.197-1.392.74-.625 1.456-1.465 2.152-2.518l5.15 9.775c-1.197 1.687-2.573 3.088-4.126 4.2-1.555 1.113-3.156 1.933-4.803 2.46-1.65.53-3.287.787-4.915.773-1.63-.014-3.125-.278-4.488-.795-2.403-.91-4.324-2.503-5.763-4.778-1.44-2.276-2.41-4.934-2.907-7.978-.5-3.044-.553-6.305-.163-9.78a41.377 41.377 0 0 1 2.44-10.11zm77.192 6.435l-26.857 47.62-8.845-4.99 10.515-18.645-10.795-6.088-10.516 18.645-8.845-4.988 26.857-47.62 8.844 4.988-9.91 17.572 10.796 6.088 9.91-17.57 8.845 4.987zm-250.74-23.62l6.373-.64c.622-.063 1.148-.63 1.582-1.707.432-1.075.556-2.532.37-4.37-.19-1.89-.645-3.303-1.367-4.236-.722-.933-1.394-1.37-2.016-1.306l-6.114.615 1.172 11.646zm-64.896 12.66l5.166-1.444c.602-.168 1.047-.732 1.338-1.693.29-.96.14-2.503-.456-4.63-.608-2.174-1.323-3.573-2.146-4.196-.822-.62-1.535-.85-2.137-.682l-4.916 1.374 3.15 11.272zm217.648-2.664l6.2 1.606c.606.156 1.297-.194 2.075-1.054.78-.86 1.4-2.183 1.862-3.972.474-1.838.536-3.32.18-4.447-.353-1.126-.833-1.767-1.437-1.923l-5.95-1.54-2.93 11.33zm-31.746-16.307l-6.29 17.553 6.634 1.06-.344-18.613z" fill="url(#e)"/><path d="M24.564 58.938a26.99 26.99 0 0 0-4.04-.416 24.53 24.53 0 0 0-3.592.168c-1.274.148-2.384.512-3.33 1.092-.77.47-1.278 1.023-1.522 1.654-.245.632-.112 1.362.397 2.194.375.613.816 1.035 1.324 1.265.51.23 1.114.356 1.82.377.703.02 1.512-.038 2.425-.177a73.407 73.407 0 0 1 3.148-.39c1.853-.233 3.605-.313 5.258-.24 1.653.072 3.22.39 4.707.954 1.486.566 2.92 1.478 4.302 2.74 1.382 1.26 2.743 2.984 4.083 5.172 1.715 2.803 2.807 5.37 3.278 7.7.47 2.33.484 4.413.04 6.25-.442 1.837-1.227 3.446-2.355 4.828a15.297 15.297 0 0 1-3.868 3.406c-1.155.706-2.42 1.3-3.795 1.78a26.18 26.18 0 0 1-4.303 1.1c-1.495.252-2.998.39-4.51.413a23.852 23.852 0 0 1-4.454-.344l-3.144-13.513c1.626.328 3.23.52 4.81.575 1.35.078 2.785.01 4.306-.198 1.52-.207 2.903-.694 4.146-1.454.948-.58 1.493-1.17 1.635-1.77.14-.596.025-1.203-.35-1.816-.402-.657-.93-1.102-1.58-1.335-.653-.233-1.41-.325-2.277-.276-.866.047-1.827.154-2.886.32a44.31 44.31 0 0 1-3.45.397c-1.82.153-3.483.132-4.985-.063a13.177 13.177 0 0 1-4.176-1.236c-1.28-.63-2.48-1.505-3.594-2.63-1.115-1.12-2.196-2.538-3.24-4.245-1.582-2.582-2.658-5.055-3.227-7.414-.57-2.36-.71-4.532-.417-6.518.29-1.983.933-3.745 1.924-5.285.99-1.538 2.27-2.79 3.84-3.75a13.72 13.72 0 0 1 3.677-1.573 24.126 24.126 0 0 1 3.94-.697c1.33-.122 2.618-.16 3.868-.11 1.25.045 2.392.114 3.424.204l2.742 12.858zm36.465 9.406c1.026-.426 1.763-1.126 2.21-2.097.447-.972.67-2.1.668-3.382 0-1.283-.193-2.683-.575-4.202a33.45 33.45 0 0 0-1.548-4.622L51.622 29.577l8.84-3.672L70.624 50.37c1.374 3.306 2.37 6.52 2.995 9.64.622 3.12.765 5.983.43 8.584-.338 2.603-1.17 4.887-2.497 6.853-1.328 1.966-3.23 3.464-5.708 4.493-2.57 1.067-5.032 1.343-7.39.83-2.356-.515-4.57-1.6-6.64-3.255-2.07-1.655-3.964-3.788-5.687-6.4-1.723-2.612-3.243-5.503-4.56-8.676L31.404 37.973l8.84-3.672 10.162 24.465a33.885 33.885 0 0 0 2.197 4.392c.814 1.364 1.676 2.5 2.583 3.406.91.907 1.852 1.537 2.832 1.89.978.352 1.98.315 3.01-.112zm23.776 4.583L70.09 20.274l15.348-4.29c1.738-.484 3.49-.4 5.26.25 1.768.653 3.417 1.684 4.947 3.095 1.53 1.41 2.903 3.132 4.12 5.164a26.018 26.018 0 0 1 2.758 6.384c.65 2.325.997 4.666 1.043 7.024.046 2.36-.202 4.534-.745 6.524-.542 1.99-1.4 3.697-2.57 5.117s-2.627 2.373-4.365 2.858l-5.818 1.627 4.52 16.166-9.78 2.734zm51.86-25.45l2.2 12.904-25.974 4.43-9.19-53.893 25.514-4.35 2.2 12.904-15.503 2.644 1.295 7.59 13.244-2.258 2.045 11.993-13.244 2.257 1.45 8.502 15.964-2.723zm7.66 12.03L138.854 5.11l16.89-1.7c1.796-.18 3.51.203 5.14 1.147 1.63.947 3.078 2.245 4.344 3.897 1.265 1.653 2.323 3.585 3.173 5.795a25.98 25.98 0 0 1 1.624 6.762c.32 3.168.15 6.164-.51 8.99-.657 2.826-1.727 5.192-3.21 7.094l10.302 19.162-11.4 1.147-8.675-15.998-3.78.38 1.68 16.702-10.104 1.016zm69.04-40.288a26.796 26.796 0 0 0-3.21-2.49 24.39 24.39 0 0 0-3.137-1.76c-1.16-.548-2.294-.826-3.405-.835-.902-.008-1.624.192-2.166.598-.543.407-.816 1.098-.824 2.072-.006.72.145 1.31.454 1.775.308.465.756.892 1.344 1.282.586.39 1.303.768 2.15 1.133.85.367 1.81.812 2.88 1.333 1.695.784 3.224 1.643 4.59 2.578a15.054 15.054 0 0 1 3.487 3.3c.962 1.268 1.696 2.8 2.202 4.6.507 1.803.75 3.986.73 6.552-.03 3.286-.46 6.04-1.292 8.267-.835 2.227-1.926 4.002-3.273 5.325-1.347 1.325-2.866 2.275-4.553 2.85-1.69.577-3.384.86-5.085.845a19.65 19.65 0 0 1-4.164-.496 26.166 26.166 0 0 1-4.233-1.344 29.66 29.66 0 0 1-4.045-2.035 23.92 23.92 0 0 1-3.598-2.647l4.48-13.13a29.307 29.307 0 0 0 3.778 3.033 22.356 22.356 0 0 0 3.76 2.11c1.4.627 2.83.947 4.287.96 1.11.008 1.885-.204 2.323-.637.437-.433.66-1.01.665-1.728.006-.77-.206-1.426-.635-1.97-.43-.54-1.025-1.02-1.784-1.438a29.62 29.62 0 0 0-2.62-1.253 44.438 44.438 0 0 1-3.14-1.488c-1.624-.833-3.024-1.73-4.196-2.69a13.162 13.162 0 0 1-2.89-3.258c-.754-1.212-1.306-2.59-1.66-4.133-.35-1.542-.518-3.315-.502-5.317.025-3.027.42-5.694 1.185-7.998.765-2.304 1.797-4.22 3.095-5.75 1.295-1.53 2.772-2.685 4.43-3.467a11.872 11.872 0 0 1 5.24-1.15 13.69 13.69 0 0 1 3.954.608c1.28.396 2.518.894 3.71 1.494a29.98 29.98 0 0 1 3.344 1.952 69.52 69.52 0 0 1 2.796 1.986l-4.475 12.36zm34.38 25.766l-1.014 13.05-26.27-2.042L224.7 1.49l25.803 2.005-1.015 13.05-15.68-1.22-.596 7.678 13.394 1.042-.942 12.13-13.396-1.042-.667 8.598 16.147 1.256zm.843 13.182l22.264-51.802 8.124 1.3 4.937 56.155-10.593-1.694-.52-10.923-9.718-1.555-3.852 10.223-10.643-1.702zm38.286 6.97L300.57 12.21l16.436 4.253c1.748.452 3.222 1.404 4.425 2.855 1.203 1.452 2.113 3.17 2.728 5.16.614 1.988.938 4.167.97 6.534.034 2.37-.24 4.67-.818 6.907-.798 3.08-1.994 5.833-3.59 8.256-1.594 2.425-3.418 4.273-5.467 5.544l3.03 21.544-11.09-2.87-2.602-18.012-3.678-.952-4.205 16.25-9.83-2.543zm38.11-19.192a41.004 41.004 0 0 1 4.613-8.792c1.892-2.74 4.016-5.037 6.37-6.89 2.354-1.852 4.844-3.13 7.47-3.838 2.625-.706 5.253-.562 7.883.435 3.083 1.17 5.39 3.21 6.923 6.125 1.53 2.915 2.212 6.26 2.043 10.038l-10.15 4.882c.18-1.358.19-2.535.03-3.53-.163-.994-.428-1.836-.798-2.525-.37-.69-.827-1.247-1.37-1.673-.545-.425-1.077-.737-1.596-.934-1.2-.455-2.382-.45-3.542.016-1.16.465-2.267 1.227-3.316 2.283-1.05 1.057-2.01 2.34-2.88 3.85a31.967 31.967 0 0 0-2.204 4.64 29.397 29.397 0 0 0-1.475 5.288c-.312 1.75-.403 3.362-.275 4.837.126 1.477.48 2.75 1.058 3.82.577 1.07 1.42 1.813 2.523 2.232.55.208 1.16.315 1.827.32.667.006 1.363-.142 2.09-.442.726-.302 1.46-.765 2.197-1.39.74-.627 1.456-1.467 2.152-2.52l5.15 9.775c-1.197 1.687-2.573 3.088-4.126 4.2-1.555 1.113-3.156 1.933-4.803 2.46-1.65.53-3.287.787-4.915.773-1.63-.014-3.125-.278-4.488-.795-2.403-.91-4.324-2.502-5.763-4.777-1.44-2.276-2.41-4.934-2.907-7.978-.5-3.043-.553-6.304-.163-9.78a41.377 41.377 0 0 1 2.44-10.11zm77.193 6.435L375.322 100l-8.845-4.99 10.515-18.644-10.795-6.088-10.516 18.645-8.845-4.988 26.857-47.62 8.844 4.99-9.91 17.57 10.796 6.09 9.91-17.572 8.845 4.988zM151.44 28.764l6.372-.64c.622-.064 1.148-.63 1.582-1.708.432-1.075.556-2.532.37-4.37-.19-1.89-.645-3.303-1.367-4.236-.722-.934-1.394-1.37-2.016-1.307l-6.113.615 1.172 11.645zM86.543 41.42l5.166-1.443c.602-.17 1.047-.733 1.338-1.694.29-.96.14-2.503-.456-4.63-.608-2.174-1.323-3.573-2.146-4.196-.822-.622-1.535-.85-2.137-.683l-4.916 1.374 3.15 11.272zm217.647-2.663l6.202 1.605c.605.156 1.296-.194 2.074-1.054.78-.86 1.4-2.183 1.862-3.972.475-1.838.537-3.32.182-4.447-.354-1.127-.834-1.768-1.438-1.924l-5.95-1.54-2.93 11.33zM272.447 22.45l-6.29 17.553 6.634 1.06-.344-18.613z" fill="url(#f)"/></g></svg>