<?xml version="1.0" encoding="UTF-8" standalone="no"?>
<svg width="296px" height="41px" viewBox="0 0 296 41" version="1.1" xmlns="http://www.w3.org/2000/svg" xmlns:xlink="http://www.w3.org/1999/xlink" xmlns:sketch="http://www.bohemiancoding.com/sketch/ns">
    <!-- Generator: Sketch 3.5.1 (25234) - http://www.bohemiancoding.com/sketch -->
    <title>logo-instantsearch</title>
    <desc>Created with Sketch.</desc>
    <defs>
        <path d="M171.625627,34 C170.901334,34 170.149617,33.9459465 169.370454,33.8378378 C168.59129,33.7297292 167.817625,33.5837847 167.049436,33.4 C166.281246,33.2162153 165.54599,32.9891905 164.843645,32.7189189 C164.141301,32.4486473 163.526758,32.151353 163,31.827027 L165.074101,28.3243243 C166.215411,28.9729762 167.323782,29.4702685 168.399247,29.8162162 C169.474713,30.1621639 170.506266,30.3351351 171.493938,30.3351351 C172.262128,30.3351351 172.849235,30.2162174 173.255278,29.9783784 C173.661321,29.7405394 173.864339,29.3945969 173.864339,28.9405405 C173.864339,28.4864842 173.58999,28.1351364 173.041283,27.8864865 C172.492577,27.6378366 171.548815,27.3405423 170.209971,26.9945946 C169.046712,26.6918904 168.059055,26.3891907 167.246969,26.0864865 C166.434883,25.7837823 165.781932,25.4432451 165.288096,25.0648649 C164.79426,24.6864846 164.437606,24.2594618 164.218123,23.7837838 C163.99864,23.3081057 163.888901,22.7459492 163.888901,22.0972973 C163.888901,21.2324281 164.069971,20.4432468 164.432117,19.7297297 C164.794264,19.0162126 165.29358,18.4108133 165.930079,17.9135135 C166.566579,17.4162137 167.318296,17.0270284 168.185253,16.7459459 C169.05221,16.4648635 170.001458,16.3243243 171.033027,16.3243243 C172.240182,16.3243243 173.474753,16.5027009 174.736779,16.8594595 C175.998804,17.216218 177.233376,17.708105 178.440531,18.3351351 L176.36643,21.6108108 C175.290965,21.0270241 174.330742,20.6000014 173.485734,20.3297297 C172.640725,20.0594581 171.823164,19.9243243 171.033027,19.9243243 C170.374579,19.9243243 169.831367,20.0378367 169.403376,20.2648649 C168.975385,20.491893 168.761392,20.8540516 168.761392,21.3513514 C168.761392,21.5891904 168.816262,21.7891884 168.926003,21.9513514 C169.035745,22.1135143 169.216815,22.2648642 169.46922,22.4054054 C169.721625,22.5459466 170.056332,22.6756751 170.473349,22.7945946 C170.890366,22.9135141 171.406142,23.0486479 172.020694,23.2 C173.293694,23.5243259 174.369143,23.848647 175.247074,24.172973 C176.125004,24.4972989 176.838312,24.8594575 177.387019,25.2594595 C177.935726,25.6594615 178.330789,26.1189163 178.57222,26.6378378 C178.813651,27.1567594 178.934365,27.7729694 178.934365,28.4864865 C178.934365,29.3297339 178.764268,30.0918885 178.42407,30.772973 C178.083872,31.4540575 177.59553,32.0324301 176.95903,32.5081081 C176.32253,32.9837862 175.554352,33.3513501 174.654473,33.6108108 C173.754594,33.8702716 172.744989,34 171.625627,34 Z M189.425585,34 C187.976999,34 186.676584,33.7675699 185.5243,33.3027027 C184.372016,32.8378355 183.395332,32.2054094 182.59422,31.4054054 C181.793108,30.6054014 181.184053,29.6810863 180.767036,28.6324324 C180.350019,27.5837785 180.141513,26.4864922 180.141513,25.3405405 C180.141513,24.1081019 180.350019,22.9459514 180.767036,21.8540541 C181.184053,20.7621567 181.787621,19.8054095 182.577759,18.9837838 C183.367897,18.1621581 184.339093,17.5135159 185.491378,17.0378378 C186.643662,16.5621598 187.955051,16.3243243 189.425585,16.3243243 C190.896119,16.3243243 192.202022,16.5621598 193.343332,17.0378378 C194.484642,17.5135159 195.450351,18.1567527 196.240489,18.9675676 C197.030627,19.7783824 197.628708,20.7135082 198.034751,21.772973 C198.440794,22.8324377 198.643813,23.9459401 198.643813,25.1135135 C198.643813,25.4162177 198.632839,25.7135121 198.61089,26.0054054 C198.588942,26.2972988 198.55602,26.5513503 198.512124,26.7675676 L185.738294,26.7675676 C185.826087,27.9135192 186.248585,28.7837808 187.005801,29.3783784 C187.763016,29.9729759 188.624473,30.2702703 189.590196,30.2702703 C190.358386,30.2702703 191.099129,30.0864883 191.812448,29.7189189 C192.525767,29.3513495 193.003134,28.8540572 193.244565,28.227027 L197.72199,29.4594595 C197.041594,30.8000067 195.988092,31.8918877 194.561455,32.7351351 C193.134817,33.5783826 191.422878,34 189.425585,34 Z M193.079954,23.5567568 C192.970213,22.4756703 192.57515,21.6216248 191.894753,20.9945946 C191.214357,20.3675644 190.369361,20.0540541 189.359741,20.0540541 C188.328172,20.0540541 187.477689,20.3729698 186.808267,21.0108108 C186.138845,21.6486518 185.749269,22.497292 185.639528,23.5567568 L193.079954,23.5567568 Z M205.678198,34 C204.822216,34 204.026603,33.8648662 203.291336,33.5945946 C202.556069,33.324323 201.925065,32.9459484 201.398307,32.4594595 C200.871548,31.9729705 200.454537,31.4000033 200.147262,30.7405405 C199.839986,30.0810778 199.68635,29.3621661 199.68635,28.5837838 C199.68635,27.7405363 199.867421,26.9729764 200.229567,26.2810811 C200.591714,25.5891857 201.102003,24.9945971 201.760452,24.4972973 C202.4189,23.9999975 203.198052,23.6108122 204.097931,23.3297297 C204.99781,23.0486472 205.996441,22.9081081 207.093855,22.9081081 C207.818147,22.9081081 208.520482,22.967567 209.200878,23.0864865 C209.881274,23.205406 210.473869,23.3837826 210.978679,23.6216216 L210.978679,22.8432432 C210.978679,20.8756658 209.826412,19.8918919 207.521844,19.8918919 C206.578068,19.8918919 205.678202,20.0486471 204.82222,20.3621622 C203.966237,20.6756772 203.066372,21.1459428 202.122596,21.772973 L200.575251,18.5297297 C201.716561,17.7945909 202.90175,17.2432451 204.130853,16.8756757 C205.359956,16.5081063 206.665858,16.3243243 208.048599,16.3243243 C210.660444,16.3243243 212.679654,16.9297237 214.106292,18.1405405 C215.532929,19.3513574 216.246237,21.1243126 216.246237,23.4594595 L216.246237,27.8378378 C216.246237,28.3567594 216.345003,28.7189179 216.542538,28.9243243 C216.740072,29.1297308 217.091239,29.2540538 217.596049,29.2972973 L217.596049,33.6756757 C217.091239,33.7837843 216.624845,33.8540539 216.196854,33.8864865 C215.768863,33.9189191 215.390261,33.9351351 215.061037,33.9351351 C214.095313,33.9135134 213.360057,33.7189208 212.855247,33.3513514 C212.350436,32.9837819 212.032191,32.4540575 211.900502,31.7621622 L211.801735,30.9837838 C211.033545,31.9567616 210.117219,32.7027001 209.052728,33.2216216 C207.988237,33.7405431 206.863405,34 205.678198,34 Z M207.225543,30.2702703 C207.796199,30.2702703 208.350384,30.1729739 208.888117,29.9783784 C209.425849,29.7837828 209.870295,29.5243259 210.221467,29.2 C210.726278,28.8108089 210.978679,28.4000022 210.978679,27.9675676 L210.978679,26.3459459 C210.517765,26.1729721 210.01845,26.0378383 209.480717,25.9405405 C208.942984,25.8432428 208.443669,25.7945946 207.982755,25.7945946 C207.017031,25.7945946 206.221418,26.0108086 205.595893,26.4432432 C204.970367,26.8756778 204.657609,27.4378344 204.657609,28.1297297 C204.657609,28.7567599 204.899036,29.2702683 205.381898,29.6702703 C205.86476,30.0702723 206.479302,30.2702703 207.225543,30.2702703 Z M230.852738,21.0918919 C229.579739,21.1135136 228.432959,21.318917 227.412364,21.7081081 C226.39177,22.0972992 225.640053,22.6810772 225.157191,23.4594595 L225.157191,33.6756757 L219.889632,33.6756757 L219.889632,16.6486486 L224.729202,16.6486486 L224.729202,20.0864865 C225.343753,18.9405348 226.117418,18.0486518 227.050219,17.4108108 C227.983021,16.7729698 228.976165,16.4324326 230.029682,16.3891892 C230.468648,16.3891892 230.742997,16.3999999 230.852738,16.4216216 L230.852738,21.0918919 Z M231.829431,25.1459459 C231.829431,23.9783725 232.037937,22.8594648 232.454954,21.7891892 C232.871971,20.7189136 233.47554,19.7783824 234.265677,18.9675676 C235.055815,18.1567527 236.027011,17.5135159 237.179296,17.0378378 C238.33158,16.5621598 239.642969,16.3243243 241.113503,16.3243243 C243.110796,16.3243243 244.789813,16.7405364 246.150606,17.572973 C247.511399,18.4054096 248.531978,19.4918852 249.212375,20.8324324 L244.076505,22.3567568 C243.396109,21.2756703 242.397477,20.7351351 241.080581,20.7351351 C239.983168,20.7351351 239.066841,21.1351311 238.331574,21.9351351 C237.596307,22.7351391 237.228679,23.8053987 237.228679,25.1459459 C237.228679,25.8162196 237.327445,26.4270243 237.524979,26.9783784 C237.722514,27.5297325 237.996863,27.9999981 238.348035,28.3891892 C238.699207,28.7783803 239.110731,29.08108 239.582619,29.2972973 C240.054507,29.5135146 240.553823,29.6216216 241.080581,29.6216216 C241.739029,29.6216216 242.342598,29.4648664 242.891304,29.1513514 C243.440011,28.8378363 243.846048,28.4324349 244.109427,27.9351351 L249.245297,29.4918919 C248.608797,30.8108174 247.593705,31.8918877 246.19999,32.7351351 C244.806274,33.5783826 243.110796,34 241.113503,34 C239.664918,34 238.364502,33.7567592 237.212218,33.2702703 C236.059934,32.7837814 235.08325,32.1351392 234.282138,31.3243243 C233.481027,30.5135095 232.871971,29.5729783 232.454954,28.5027027 C232.037937,27.4324271 231.829431,26.3135194 231.829431,25.1459459 Z M268,33.6756757 L262.732441,33.6756757 L262.732441,24.1081081 C262.732441,23.0053999 262.507475,22.1945972 262.057536,21.6756757 C261.607596,21.1567542 260.998541,20.8972973 260.230351,20.8972973 C259.923075,20.8972973 259.588369,20.9675669 259.226223,21.1081081 C258.864076,21.2486494 258.512909,21.4540527 258.172711,21.7243243 C257.832513,21.9945959 257.519755,22.3135117 257.234427,22.6810811 C256.9491,23.0486505 256.72962,23.4594572 256.575982,23.9135135 L256.575982,33.6756757 L251.308424,33.6756757 L251.308424,10 L256.575982,10 L256.575982,19.5027027 C257.212482,18.4864814 258.051991,17.7027055 259.094534,17.1513514 C260.137077,16.5999972 261.294831,16.3243243 262.56783,16.3243243 C263.731089,16.3243243 264.669363,16.5243223 265.382682,16.9243243 C266.096001,17.3243263 266.644699,17.8324294 267.028794,18.4486486 C267.412889,19.0648679 267.670777,19.7567529 267.802467,20.5243243 C267.934156,21.2918957 268,22.0432396 268,22.7783784 L268,33.6756757 Z" id="path-1"></path>
    </defs>
    <g id="Page-1" stroke="none" stroke-width="1" fill="none" fill-rule="evenodd" sketch:type="MSPage">
        <g id="instansearch-website" sketch:type="MSArtboardGroup" transform="translate(-44.000000, -28.000000)">
            <g id="logo-instantsearch" sketch:type="MSLayerGroup" transform="translate(44.000000, 28.000000)">
                <g id="icon-widget-copy" fill="#FFFFFF" sketch:type="MSShapeGroup">
                    <path d="M31.0380722,21.05286 C31.1117176,20.6351967 31.0140433,20.1999913 30.785967,19.868454 L27.3846564,14.9242233 C28.6167569,13.6595369 29.4395453,12.0313564 29.7471228,10.286998 C30.5897117,5.50843876 27.466059,0.967818814 22.766007,0.139072822 C18.0659549,-0.68967317 13.577698,2.50876175 12.7351091,7.28732102 C11.8925202,12.0658803 15.0161728,16.6065002 19.7162249,17.4352462 C21.4319252,17.7377705 23.2166003,17.5078126 24.8056897,16.7620542 L28.2091664,21.6940006 C28.4350766,22.0378221 28.8034712,22.2801061 29.2142726,22.3525414 C30.0600404,22.5016731 30.8864496,21.9127549 31.0380722,21.05286 Z M26.6497461,9.73732321 C26.1147346,12.7715241 23.2507993,14.8124302 20.2664475,14.2862084 C17.2820956,13.7599867 15.2889077,10.8626387 15.8239192,7.82843784 C16.3589307,4.79423696 19.222866,2.75333087 22.2072179,3.27955262 C25.1915697,3.80577437 27.1847576,6.70312233 26.6497461,9.73732321 Z M19.8078879,30.2453097 C20.1077764,29.9454212 20.5202995,29.7758077 20.9226981,29.7724748 L26.9236864,29.7227712 C27.252953,27.9880992 28.1147483,26.3802244 29.3672239,25.1277489 C32.7983013,21.6966714 38.309413,21.6510253 41.6841211,25.0257334 C45.0588292,28.4004415 45.0131831,33.9115532 41.5821056,37.3426306 C38.1510282,40.773708 32.6399165,40.8193542 29.2652084,37.4446461 C28.0333098,36.2127475 27.1980327,34.6189288 26.897458,32.8894735 L20.9052899,32.9303568 C20.494071,32.94251 20.0843013,32.7797072 19.7893396,32.4847455 C19.1820657,31.8774716 19.1904704,30.8627272 19.8078879,30.2453097 Z M31.5706697,27.3660608 C29.3920679,29.5446627 29.3629413,33.0612768 31.5057508,35.2040863 C33.6485603,37.3468958 37.1651744,37.3177693 39.3437763,35.1391674 C41.5223782,32.9605655 41.5515047,29.4439514 39.4086952,27.3011419 C37.2658857,25.1583324 33.7492716,25.187459 31.5706697,27.3660608 Z M18.4635371,19.291434 C18.5661378,19.7029426 18.4990598,20.1439013 18.294666,20.4905408 L15.2465329,25.6599909 C16.5638522,26.8356496 17.4982124,28.4024692 17.9267209,30.1211229 C19.1005928,34.8292658 16.3012868,39.57672 11.6704942,40.7313063 C7.03970164,41.8858925 2.33926641,39.0083338 1.16539454,34.3001909 C-0.00847733073,29.592048 2.79082865,24.8445938 7.42162124,23.6900075 C9.1120391,23.268539 10.9084079,23.3734441 12.5456479,24.0065366 L15.5967987,18.8491896 C15.7981748,18.4904469 16.1487711,18.2230553 16.553519,18.1221403 C17.3868236,17.9143741 18.2523006,18.4442103 18.4635371,19.291434 Z M14.8732397,30.8869148 C14.1278763,27.8974256 11.128551,26.0612691 8.18817627,26.7943869 C5.24780154,27.5275046 3.46157772,30.5568326 4.20694109,33.5463218 C4.95230447,36.535811 7.9516298,38.3719675 10.8920045,37.6388497 C13.8323793,36.905732 15.6186031,33.876404 14.8732397,30.8869148 Z" id="Icons/Search"></path>
                </g>
                <path d="M55,33.3406836 L55,16.5545755 L60.2562704,16.5545755 L60.2562704,33.3406836 L55,33.3406836 Z M55,14.6361632 L55,10 L60.2562704,10 L60.2562704,14.6361632 L55,14.6361632 Z M80.1862959,33.3406836 L74.9300254,33.3406836 L74.9300254,23.9084895 C74.9300254,22.800068 74.7164916,21.9954086 74.2894175,21.4944873 C73.8623434,20.993566 73.298395,20.7431092 72.5975554,20.7431092 C72.2252344,20.7431092 71.8474438,20.8177133 71.4641721,20.9669239 C71.0809005,21.1161345 70.7195355,21.3239604 70.3800663,21.5904079 C70.0405972,21.8568554 69.7285092,22.1712588 69.4437932,22.5336273 C69.1590771,22.8959959 68.940068,23.2903323 68.7867594,23.7166483 L68.7867594,33.3406836 L63.5304889,33.3406836 L63.5304889,16.5545755 L68.2611323,16.5545755 L68.2611323,19.368247 C68.8962682,18.3664044 69.7942054,17.5937183 70.9549709,17.0501654 C72.1157364,16.5066125 73.4516918,16.2348401 74.9628771,16.2348401 C76.0798402,16.2348401 76.9832526,16.4320083 77.6731416,16.8263506 C78.3630305,17.2206929 78.8941275,17.7322644 79.2664486,18.3610805 C79.6387696,18.9898966 79.8851548,19.6773208 80.0056116,20.4233738 C80.1260684,21.1694267 80.1862959,21.894153 80.1862959,22.5975744 L80.1862959,33.3406836 Z M90.5564795,33.660419 C89.8337387,33.660419 89.0836326,33.6071303 88.3061387,33.5005513 C87.5286448,33.3939723 86.7566378,33.2500928 85.9900945,33.0689085 C85.2235512,32.8877242 84.4898708,32.6639117 83.7890313,32.3974642 C83.0881917,32.1310167 82.4749663,31.8379288 81.9493366,31.5181918 L84.0189931,28.0650496 C85.1578574,28.7045236 86.2638532,29.1947796 87.3370138,29.5358324 C88.4101744,29.8768852 89.4395171,30.047409 90.4250727,30.047409 C91.191616,30.047409 91.7774653,29.9301739 92.1826381,29.6957001 C92.587811,29.4612263 92.7903944,29.1201786 92.7903944,28.6725469 C92.7903944,28.2249151 92.516633,27.8785385 91.9691021,27.6334068 C91.4215712,27.3882751 90.4798322,27.0951873 89.1438568,26.7541345 C87.9830913,26.4557133 86.9975504,26.1572966 86.1872047,25.8588754 C85.3768589,25.5604542 84.7253069,25.2247354 84.2325291,24.8517089 C83.7397513,24.4786824 83.3838615,24.0577017 83.1648491,23.5887541 C82.9458368,23.1198065 82.8363322,22.5656041 82.8363322,21.9261301 C82.8363322,21.0734981 83.0170147,20.2954831 83.3783851,19.5920617 C83.7397555,18.8886404 84.2380012,18.2918069 84.873137,17.8015436 C85.5082729,17.3112802 86.258379,16.9276015 87.1234778,16.6504961 C87.9885767,16.3733907 88.9357909,16.2348401 89.965149,16.2348401 C91.169717,16.2348401 92.4016431,16.4106928 93.6609642,16.7624035 C94.9202853,17.1141142 96.1522113,17.5990414 97.3567793,18.2171996 L95.2871229,21.446527 C94.2139623,20.8710004 93.2557976,20.4500197 92.4126,20.1835722 C91.5694024,19.9171247 90.7535935,19.783903 89.965149,19.783903 C89.3081119,19.783903 88.7660645,19.8958092 88.3389904,20.1196251 C87.9119163,20.343441 87.6983824,20.7004753 87.6983824,21.1907387 C87.6983824,21.4252125 87.7531347,21.6223807 87.8626409,21.7822492 C87.972147,21.9421177 88.1528295,22.091326 88.4046937,22.2298787 C88.656558,22.3684314 88.9905468,22.4963243 89.4066703,22.6135612 C89.8227938,22.7307981 90.3374651,22.8640198 90.9506997,23.0132304 C92.2209714,23.3329674 93.2941159,23.6526996 94.1701654,23.9724366 C95.0462148,24.2921736 95.7579943,24.6492079 96.3055253,25.0435502 C96.8530562,25.4378925 97.2472725,25.8908464 97.4881861,26.4024256 C97.7290997,26.9140048 97.8495547,27.5214959 97.8495547,28.2249173 C97.8495547,29.0562335 97.6798227,29.8076041 97.3403535,30.4790518 C97.0008843,31.1504995 96.5135891,31.7206886 95.8784533,32.1896362 C95.2433174,32.6585837 94.4767857,33.0209469 93.578835,33.2767365 C92.6808843,33.5325261 91.6734425,33.660419 90.5564795,33.660419 L90.5564795,33.660419 Z M111.110687,32.4454245 C110.387946,32.7438457 109.566662,33.0209469 108.64681,33.2767365 C107.726958,33.5325261 106.785219,33.660419 105.821565,33.660419 C105.164528,33.660419 104.545827,33.5804859 103.965444,33.4206174 C103.385062,33.2607489 102.875866,33.0049632 102.437841,32.6532525 C101.999816,32.3015418 101.654877,31.8379301 101.403013,31.2624035 C101.151148,30.6868769 101.025218,29.9941239 101.025218,29.1841235 L101.025218,20.4233738 L98.8241549,20.4233738 L98.8241549,16.5545755 L101.025218,16.5545755 L101.025218,11.2149945 L106.281489,11.2149945 L106.281489,16.5545755 L109.796619,16.5545755 L109.796619,20.4233738 L106.281489,20.4233738 L106.281489,27.4255788 C106.281489,27.9797896 106.42932,28.3794549 106.724986,28.6245865 C107.020653,28.8697182 107.387493,28.9922822 107.825518,28.9922822 C108.197839,28.9922822 108.592055,28.9283358 109.008179,28.800441 C109.424302,28.6725462 109.796618,28.5339956 110.125136,28.384785 L111.110687,32.4454245 Z M117.76863,33.660419 C116.914481,33.660419 116.120573,33.5271972 115.386882,33.2607497 C114.653191,32.9943022 114.02354,32.6212813 113.49791,32.1416759 C112.97228,31.6620704 112.556163,31.0972102 112.249546,30.4470783 C111.942928,29.7969464 111.789622,29.0882067 111.789622,28.3208379 C111.789622,27.4895218 111.970304,26.7328222 112.331675,26.0507166 C112.693045,25.3686111 113.202241,24.7824354 113.859278,24.292172 C114.516316,23.8019086 115.293798,23.41823 116.191748,23.1411246 C117.089699,22.8640192 118.08619,22.7254686 119.181252,22.7254686 C119.903993,22.7254686 120.604822,22.7840861 121.28376,22.901323 C121.962699,23.0185599 122.554023,23.1944126 123.057752,23.4288864 L123.057752,22.6615215 C123.057752,20.7217838 121.907954,19.7519294 119.608324,19.7519294 C118.666571,19.7519294 117.768634,19.9064667 116.914486,20.2155458 C116.060337,20.5246248 115.1624,20.9882365 114.220647,21.6063947 L112.676618,18.4090408 C113.815482,17.6843036 114.998131,17.1407589 116.2246,16.7783903 C117.451069,16.4160217 118.754173,16.2348401 120.133951,16.2348401 C122.740198,16.2348401 124.755082,16.8316736 126.178662,18.0253583 C127.602243,19.2190431 128.314022,20.9669124 128.314022,23.2690187 L128.314022,27.5854465 C128.314022,28.0970257 128.412576,28.45406 128.609687,28.6565601 C128.806799,28.8590602 129.157213,28.9816242 129.660941,29.0242558 L129.660941,33.3406836 C129.157213,33.4472626 128.691819,33.5165379 128.264745,33.5485116 C127.837671,33.5804853 127.45988,33.5964719 127.131361,33.5964719 C126.167707,33.5751561 125.434027,33.3833168 124.930298,33.0209482 C124.42657,32.6585796 124.109006,32.1363503 123.977599,31.4542448 L123.879044,30.6868798 C123.112501,31.6460908 122.198138,32.3814748 121.135928,32.893054 C120.073718,33.4046332 118.951296,33.660419 117.76863,33.660419 L117.76863,33.660419 Z M119.312659,29.983462 C119.882091,29.983462 120.435089,29.8875423 120.971669,29.6957001 C121.50825,29.5038579 121.951743,29.2480722 122.302163,28.9283352 C122.805891,28.5446508 123.057752,28.1396567 123.057752,27.7133407 L123.057752,26.1146637 C122.597826,25.9441373 122.09958,25.8109156 121.563,25.7149945 C121.02642,25.6190734 120.528174,25.5711136 120.068248,25.5711136 C119.104594,25.5711136 118.310686,25.7842684 117.6865,26.2105843 C117.062315,26.6369003 116.750227,27.1911028 116.750227,27.8732084 C116.750227,28.4913666 116.991137,28.9976092 117.472964,29.3919515 C117.954792,29.7862938 118.568017,29.983462 119.312659,29.983462 L119.312659,29.983462 Z M148.605416,33.3406836 L143.349146,33.3406836 L143.349146,23.9084895 C143.349146,22.800068 143.135612,21.9954086 142.708538,21.4944873 C142.281464,20.993566 141.717515,20.7431092 141.016676,20.7431092 C140.644355,20.7431092 140.266564,20.8177133 139.883292,20.9669239 C139.500021,21.1161345 139.138656,21.3239604 138.799187,21.5904079 C138.459717,21.8568554 138.14763,22.1712588 137.862913,22.5336273 C137.578197,22.8959959 137.359188,23.2903323 137.20588,23.7166483 L137.20588,33.3406836 L131.949609,33.3406836 L131.949609,16.5545755 L136.680253,16.5545755 L136.680253,19.368247 C137.315388,18.3664044 138.213326,17.5937183 139.374091,17.0501654 C140.534857,16.5066125 141.870812,16.2348401 143.381997,16.2348401 C144.498961,16.2348401 145.402373,16.4320083 146.092262,16.8263506 C146.782151,17.2206929 147.313248,17.7322644 147.685569,18.3610805 C148.05789,18.9898966 148.304275,19.6773208 148.424732,20.4233738 C148.545189,21.1694267 148.605416,21.894153 148.605416,22.5975744 L148.605416,33.3406836 Z M162.884951,32.4454245 C162.16221,32.7438457 161.340926,33.0209469 160.421074,33.2767365 C159.501222,33.5325261 158.559483,33.660419 157.595829,33.660419 C156.938792,33.660419 156.320091,33.5804859 155.739708,33.4206174 C155.159326,33.2607489 154.650129,33.0049632 154.212105,32.6532525 C153.77408,32.3015418 153.429141,31.8379301 153.177276,31.2624035 C152.925412,30.6868769 152.799482,29.9941239 152.799482,29.1841235 L152.799482,20.4233738 L150.598419,20.4233738 L150.598419,16.5545755 L152.799482,16.5545755 L152.799482,11.2149945 L158.055752,11.2149945 L158.055752,16.5545755 L161.570883,16.5545755 L161.570883,20.4233738 L158.055752,20.4233738 L158.055752,27.4255788 C158.055752,27.9797896 158.203584,28.3794549 158.49925,28.6245865 C158.794917,28.8697182 159.161757,28.9922822 159.599782,28.9922822 C159.972103,28.9922822 160.366319,28.9283358 160.782443,28.800441 C161.198566,28.6725462 161.570882,28.5339956 161.8994,28.384785 L162.884951,32.4454245 Z M271.613095,33.3406836 L271.613095,30.6229327 L273.05857,30.6229327 L273.05857,33.3406836 L271.613095,33.3406836 Z M274.394538,39 C273.693699,39 273.042147,38.9094092 272.439863,38.7282249 C271.837579,38.5470406 271.295531,38.243295 270.813704,37.8169791 L271.7007,36.7618523 C272.073021,37.0602735 272.478188,37.2627705 272.916212,37.3693495 C273.354237,37.4759285 273.792255,37.5292172 274.23028,37.5292172 C274.646403,37.5292172 275.05157,37.4492842 275.445792,37.2894157 C275.840015,37.1295472 276.190429,36.9057346 276.497047,36.6179713 C276.803664,36.330208 277.055524,35.9891604 277.252635,35.5948181 C277.449747,35.2004758 277.548301,34.7688373 277.548301,34.2998897 L277.548301,16.7144432 L279.190885,16.7144432 L279.190885,34.2359427 C279.190885,34.939364 279.054004,35.5788284 278.780239,36.154355 C278.506474,36.7298816 278.139633,37.2307954 277.679707,37.6571114 C277.219781,38.0834273 276.70511,38.4138173 276.135678,38.6482911 C275.566246,38.8827649 274.985872,39 274.394538,39 L274.394538,39 Z M277.548301,12.9415656 L277.548301,10 L279.190885,10 L279.190885,12.9415656 L277.548301,12.9415656 Z M289.429662,33.660419 C288.115588,33.660419 286.856286,33.4472642 285.651718,33.0209482 C284.44715,32.5946322 283.395906,31.9551678 282.497955,31.1025358 L283.319248,30.0154355 C284.239099,30.8254359 285.191789,31.4222693 286.177345,31.8059537 C287.1629,32.1896381 288.246995,32.3814774 289.429662,32.3814774 C290.918946,32.3814774 292.118021,32.0777318 293.026922,31.4702315 C293.935823,30.8627313 294.390267,30.0154409 294.390267,28.9283352 C294.390267,28.416756 294.275287,27.9851175 294.045324,27.6334068 C293.815361,27.2816961 293.470422,26.9832794 293.010496,26.7381477 C292.55057,26.493016 291.981147,26.2745324 291.302208,26.0826902 C290.62327,25.890848 289.834837,25.6883509 288.936887,25.4751929 C287.973232,25.262035 287.135522,25.0488802 286.423732,24.8357222 C285.711942,24.6225642 285.126093,24.3667784 284.666167,24.0683572 C284.206241,23.769936 283.861302,23.4075729 283.631339,22.9812569 C283.401376,22.5549409 283.286396,22.0113962 283.286396,21.3506064 C283.286396,20.5192902 283.450653,19.7945639 283.779171,19.1764057 C284.10769,18.5582476 284.562134,18.046676 285.142516,17.6416759 C285.722899,17.2366757 286.390877,16.9329301 287.146469,16.73043 C287.902062,16.5279299 288.70692,16.4266814 289.561069,16.4266814 C290.897044,16.4266814 292.079693,16.645165 293.109051,17.0821389 C294.138409,17.5191128 294.937793,18.0786441 295.507225,18.7607497 L294.587377,19.6240353 C294.017945,18.9845613 293.27879,18.504963 292.369888,18.185226 C291.460987,17.865489 290.491872,17.7056229 289.462514,17.7056229 C288.827378,17.7056229 288.230578,17.7695694 287.672097,17.8974642 C287.113615,18.025359 286.62632,18.227856 286.210196,18.5049614 C285.794073,18.7820668 285.465559,19.1391011 285.224646,19.576075 C284.983732,20.0130489 284.863277,20.5299492 284.863277,21.1267916 C284.863277,21.617055 284.945405,22.0113914 285.109665,22.3098126 C285.273924,22.6082338 285.536735,22.8640195 285.898105,23.0771775 C286.259476,23.2903355 286.72487,23.4768459 287.294302,23.6367144 C287.863734,23.7965829 288.542662,23.9724356 289.331107,24.1642778 C290.404267,24.4200674 291.356957,24.6651954 292.189204,24.8996692 C293.021451,25.134143 293.716805,25.421902 294.275286,25.7629548 C294.833768,26.1040076 295.260835,26.5090017 295.556502,26.9779493 C295.852169,27.4468969 296,28.0437303 296,28.7684675 C296,30.2605734 295.4032,31.4489114 294.209583,32.3335171 C293.015965,33.2181228 291.422674,33.660419 289.429662,33.660419 L289.429662,33.660419 Z" id="instantsearch.js" fill="#FFFFFF" sketch:type="MSShapeGroup"></path>
                <g id="Path">
                    <use fill="#00B7E5" fill-rule="evenodd" sketch:type="MSShapeGroup" xlink:href="#path-1"></use>
                    <use fill="none" xlink:href="#path-1"></use>
                </g>
            </g>
        </g>
    </g>
</svg>