<svg width="95" height="30" viewBox="0 0 95 30" xmlns="http://www.w3.org/2000/svg"><title>logo-algolia</title><g fill="none" fill-rule="evenodd"><path d="M57.036 11.646L55.8 16.01l3.98-2.173a4.553 4.553 0 0 0-2.744-2.19zM49.38 8.08a1.524 1.524 0 0 0-2.157 0l-.27.27a1.53 1.53 0 0 0 0 2.16l.288.287a9.99 9.99 0 0 1 2.294-2.562l-.154-.154zM58.696 6.586c.002-.032.01-.064.01-.097v-.765c0-.842-.683-1.526-1.525-1.526h-2.668c-.842 0-1.524.682-1.524 1.525v.75a9.87 9.87 0 0 1 5.708.11" fill="#46AEDA"/><path d="M55.764 10.053c3.346 0 6.068 2.714 6.068 6.048 0 3.336-2.722 6.05-6.068 6.05-3.345 0-6.067-2.714-6.067-6.05 0-3.333 2.722-6.047 6.067-6.047zM47.27 16.1c0 4.678 3.802 8.47 8.494 8.47s8.495-3.792 8.495-8.47c0-4.675-3.804-8.466-8.496-8.466s-8.494 3.79-8.494 8.467z" fill="#46AEDA"/><path d="M16.888 24.11c-.35-.927-.68-1.84-.988-2.736-.31-.896-.628-1.81-.957-2.736H5.247L3.302 24.11H.182A696.945 696.945 0 0 1 2.5 17.82c.72-1.928 1.424-3.758 2.114-5.49a191.86 191.86 0 0 1 2.054-4.96 127.89 127.89 0 0 1 2.13-4.685h2.748a127.89 127.89 0 0 1 2.13 4.684c.68 1.576 1.364 3.23 2.054 4.96.69 1.732 1.395 3.562 2.115 5.49.72 1.926 1.493 4.023 2.316 6.29H16.89zm-2.81-7.945c-.66-1.794-1.312-3.53-1.96-5.21a93.26 93.26 0 0 0-2.023-4.838 77.263 77.263 0 0 0-2.053 4.838 208.278 208.278 0 0 0-1.93 5.21h7.966zM27.695 24.42c-1.77-.042-3.026-.423-3.767-1.145-.74-.72-1.11-1.844-1.11-3.37V.613l2.87-.494V19.44c0 .474.04.866.123 1.175.084.31.218.556.403.742.185.184.433.323.74.416.31.093.69.17 1.143.232l-.4 2.41M41.374 22.502c-.247.166-.726.377-1.436.634-.71.258-1.54.387-2.486.387-.967 0-1.878-.155-2.732-.464-.854-.31-1.6-.79-2.24-1.44-.637-.648-1.14-1.457-1.512-2.425-.37-.97-.556-2.123-.556-3.463 0-1.175.175-2.252.525-3.23a7.17 7.17 0 0 1 1.53-2.536c.667-.71 1.485-1.268 2.453-1.67.968-.402 2.06-.603 3.273-.603 1.338 0 2.506.1 3.505.294a60.69 60.69 0 0 1 2.517.54v14.347c0 2.473-.638 4.266-1.914 5.38-1.277 1.112-3.21 1.668-5.805 1.668-1.01 0-1.96-.082-2.856-.247a16.39 16.39 0 0 1-2.332-.587l.525-2.504c.576.226 1.28.427 2.115.602.834.175 1.703.263 2.61.263 1.707 0 2.937-.34 3.69-1.02.75-.68 1.126-1.763 1.126-3.247v-.68zm-1.19-12.165c-.483-.072-1.136-.11-1.96-.11-1.543 0-2.732.507-3.566 1.517-.834 1.01-1.25 2.35-1.25 4.02 0 .926.118 1.72.355 2.38.236.66.555 1.205.957 1.638.4.433.864.752 1.39.958.524.207 1.065.31 1.62.31.762 0 1.462-.11 2.1-.325.638-.217 1.142-.47 1.513-.757v-9.4a9.533 9.533 0 0 0-1.158-.23zM72.092 24.42c-1.77-.042-3.026-.423-3.767-1.144-.74-.72-1.112-1.845-1.112-3.37V.614L70.085.12V19.44c0 .474.04.866.124 1.175.08.31.215.556.4.742.185.184.432.324.74.416.31.093.69.17 1.144.232l-.402 2.412M77.125 5.128a1.84 1.84 0 0 1-1.312-.51c-.36-.34-.54-.8-.54-1.376 0-.577.18-1.036.54-1.376.36-.34.798-.51 1.312-.51s.952.17 1.313.51c.36.34.54.8.54 1.376 0 .577-.18 1.035-.54 1.376-.36.34-.8.51-1.313.51zm-1.42 2.906h2.87V24.11h-2.87V8.034zM88.704 7.632c1.153 0 2.125.15 2.918.448.792.3 1.43.722 1.914 1.268s.83 1.195 1.035 1.948a9.43 9.43 0 0 1 .31 2.488v10.05L93.844 24c-.443.073-.942.14-1.497.2-.556.063-1.16.12-1.807.17-.647.052-1.29.08-1.93.08-.905 0-1.738-.094-2.5-.28-.76-.185-1.42-.48-1.976-.88a4.032 4.032 0 0 1-1.297-1.593c-.31-.66-.463-1.454-.463-2.382 0-.886.18-1.65.54-2.287.36-.638.85-1.153 1.467-1.545.62-.392 1.34-.68 2.163-.866a11.767 11.767 0 0 1 2.593-.28c.288 0 .587.016.896.047.308.03.602.073.88.124l.726.14c.205.042.35.072.432.093v-.804c0-.475-.052-.944-.155-1.408a3.23 3.23 0 0 0-.556-1.236c-.268-.36-.634-.65-1.097-.866-.463-.216-1.065-.325-1.806-.325-.947 0-1.775.067-2.486.2-.71.135-1.24.275-1.59.42l-.34-2.382c.372-.165.99-.325 1.854-.48.865-.154 1.8-.23 2.81-.23zm.247 14.407c.68 0 1.283-.017 1.808-.048.524-.03.962-.087 1.312-.17v-4.79c-.207-.104-.54-.192-1.004-.264a11.146 11.146 0 0 0-1.683-.11c-.432 0-.89.032-1.374.094-.484.062-.927.19-1.328.387a2.84 2.84 0 0 0-1.004.803c-.268.34-.4.788-.4 1.344 0 1.03.328 1.747.987 2.15.658.4 1.554.602 2.686.602z" fill="#FFF"/></g></svg>