<?xml version="1.0" encoding="UTF-8" standalone="no"?>
<svg width="403px" height="153px" viewBox="0 0 403 153" version="1.1" xmlns="http://www.w3.org/2000/svg" xmlns:xlink="http://www.w3.org/1999/xlink" xmlns:sketch="http://www.bohemiancoding.com/sketch/ns">
    <!-- Generator: Sketch 3.5.1 (25234) - http://www.bohemiancoding.com/sketch -->
    <title>logo-supersearch</title>
    <desc>Created with Sketch.</desc>
    <defs>
        <linearGradient x1="9.25748094%" y1="100%" x2="77.2431823%" y2="70.6510607%" id="linearGradient-1">
            <stop stop-color="#144A9D" offset="0%"></stop>
            <stop stop-color="#396FC7" offset="100%"></stop>
        </linearGradient>
        <path d="M35.4542059,7.4114163 L34.6784114,10.2192506 L37.1769576,8.82060142 C36.8140929,8.14103177 36.1949121,7.62718405 35.4542059,7.4114163 Z M29.3231089,10.2772571 C29.3231089,13.2851733 31.7103044,15.7241379 34.6559989,15.7241379 C37.6016934,15.7241379 39.9888889,13.2851733 39.9888889,10.2772571 C39.9888889,7.26934099 37.6016934,4.83037632 34.6559989,4.83037632 C31.7103044,4.83037632 29.3231089,7.26934099 29.3231089,10.2772571 Z M34.6559989,6.38662798 C36.7563005,6.38662798 38.465206,8.13206148 38.465206,10.2772571 C38.465206,12.4224528 36.7563005,14.1678863 34.6559989,14.1678863 C32.5556973,14.1678863 30.8467918,12.4224528 30.8467918,10.2772571 C30.8467918,8.13206148 32.5556973,6.38662798 34.6559989,6.38662798 Z M36.4966447,4.15666741 C36.4980806,4.13555262 36.5026276,4.11541992 36.5026276,4.0938141 L36.5026276,3.60277262 C36.5023883,3.06066282 36.0740104,2.62093518 35.5453585,2.62068966 L33.8698981,2.62068966 C33.3414856,2.62093518 32.9128683,3.0604173 32.9128683,3.60277262 L32.9128683,4.08522087 C33.4463065,3.93201593 34.0075056,3.84829336 34.5880893,3.84829336 C35.2536307,3.84829336 35.8947617,3.95730457 36.4966447,4.15666741 Z M30.6479695,5.1178811 C30.2741559,4.73437771 29.6677258,4.73462323 29.2939122,5.1178811 L29.1247149,5.29146427 C28.7509013,5.67472214 28.7511406,6.2968717 29.1247149,6.6803751 L29.3049208,6.86500669 C29.6885464,6.23352735 30.176993,5.67619527 30.7446536,5.217317 L30.6479695,5.1178811 Z" id="path-2"></path>
        <linearGradient x1="50%" y1="0%" x2="53.4044252%" y2="126.20081%" id="linearGradient-3">
            <stop stop-color="#2270C3" offset="0%"></stop>
            <stop stop-color="#0F3D90" offset="100%"></stop>
        </linearGradient>
        <linearGradient x1="50%" y1="0%" x2="50%" y2="100%" id="linearGradient-4">
            <stop stop-color="#043883" offset="0%"></stop>
            <stop stop-color="#501C4E" offset="100%"></stop>
        </linearGradient>
        <linearGradient x1="50%" y1="0%" x2="50%" y2="100%" id="linearGradient-5">
            <stop stop-color="#F2AEC8" offset="0%"></stop>
            <stop stop-color="#3D58B3" offset="100%"></stop>
        </linearGradient>
        <linearGradient x1="50%" y1="0%" x2="50%" y2="100%" id="linearGradient-6">
            <stop stop-color="#BA2960" offset="0%"></stop>
            <stop stop-color="#3D58B3" offset="100%"></stop>
        </linearGradient>
    </defs>
    <g id="Page-1" stroke="none" stroke-width="1" fill="none" fill-rule="evenodd" sketch:type="MSPage">
        <g id="-supersearch" sketch:type="MSArtboardGroup" transform="translate(-30.000000, -23.000000)">
            <g id="logo-supersearch" sketch:type="MSLayerGroup" transform="translate(30.000000, 23.000000)">
                <path d="M13.3545907,99.8018833 L100.031459,81.3781462 L111.923828,134.093017 L24.5818221,152.621854 L42.8143751,121.143209 L13.3545907,99.8018833 Z" id="Rectangle-437-Copy" fill="#396FC7" sketch:type="MSShapeGroup"></path>
                <path d="M62.0175781,122 L112,122 L112,134 L62.0175781,122 Z" id="Rectangle-439" fill="#43215E" sketch:type="MSShapeGroup"></path>
                <path d="M381.581395,98.8018833 L294.904527,80.3781462 L284.097168,133.127685 L370.354164,151.621854 L352.121611,120.143209 L381.581395,98.8018833 Z" id="Rectangle-437-Copy-2" fill="url(#linearGradient-1)" sketch:type="MSShapeGroup"></path>
                <path d="M284,121 L284,133 L335.957764,121.986328 L284,121 Z" id="Rectangle-439-Copy" fill="#34266D" sketch:type="MSShapeGroup"></path>
                <g id="Algolia_logo_bg-dark" transform="translate(173.000000, 131.000000)">
                    <g id="Fill-4">
                        <use fill="#00B7E5" fill-rule="evenodd" sketch:type="MSShapeGroup" xlink:href="#path-2"></use>
                        <use fill="none" xlink:href="#path-2"></use>
                    </g>
                    <path d="M10.4149236,14.4137931 C10.1965051,13.8463108 9.99139619,13.2886328 9.79888374,12.7402923 C9.60637129,12.1919518 9.40720408,11.6340403 9.20209514,11.0667915 L3.15720419,11.0667915 L1.94437575,14.4137931 L0,14.4137931 C0.513128865,13.0271848 0.994409992,11.7446889 1.44384338,10.5658384 C1.8930391,9.38722136 2.33225269,8.26836387 2.7626725,7.2097328 C3.1923793,6.15063485 3.61923407,5.1391578 4.04276146,4.17483477 C4.46628885,3.21051173 4.90906749,2.25575957 5.37109737,1.31034483 L7.08445818,1.31034483 C7.54648806,2.25575957 7.9892667,3.21051173 8.41279409,4.17483477 C8.83632148,5.1391578 9.26293858,6.15063485 9.69312072,7.2097328 C10.1228275,8.26836387 10.5622788,9.38722136 11.0117122,10.5658384 C11.4609079,11.7446889 11.942189,13.0271848 12.4555556,14.4137931 L10.4149236,14.4137931 L10.4149236,14.4137931 L10.4149236,14.4137931 Z M8.66306028,9.55436135 C8.25212938,8.45744682 7.84476353,7.39578108 7.44072505,6.36819696 C7.03621124,5.34084628 6.61577355,4.35458029 6.17964967,3.40893211 C5.73021628,4.35458029 5.30359918,5.34084628 4.8995607,6.36819696 C4.49528456,7.39578108 4.09386045,8.45744682 3.69623905,9.55436135 L8.66306028,9.55436135 L8.66306028,9.55436135 L8.66306028,9.55436135 Z" id="Fill-5" fill="#FFFFFF" sketch:type="MSShapeGroup"></path>
                    <path d="M16.7952207,15.0689655 C15.6960799,15.0434032 14.9166935,14.8071888 14.4565881,14.3596122 C13.996246,13.9125089 13.7666667,13.2159367 13.7666667,12.2698956 L13.7666667,0.30674739 L15.5491018,0 L15.5491018,11.9823199 C15.5491018,12.2767595 15.5748999,12.5193645 15.6257861,12.7110816 C15.6771456,12.9025621 15.7602202,13.0561725 15.8750098,13.1712027 C15.9900362,13.2859963 16.1436413,13.3723874 16.3353519,13.4299025 C16.5272992,13.4874176 16.7635056,13.5354653 17.0444444,13.5738087 L16.7952207,15.0689655" id="Fill-6" fill="#FFFFFF" sketch:type="MSShapeGroup"></path>
                    <path d="M25.7637087,14.3954858 C25.6117723,14.4978823 25.3168231,14.6281193 24.8793309,14.7873766 C24.4418387,14.9466338 23.9313136,15.0263804 23.3479907,15.0263804 C22.7519867,15.0263804 22.190738,14.9305901 21.664714,14.7397174 C21.1384553,14.5483728 20.678654,14.2522722 20.285545,13.850944 C19.892436,13.4493798 19.5817532,12.9496659 19.3534963,12.3508587 C19.1254744,11.7520515 19.0111111,11.038579 19.0111111,10.2104413 C19.0111111,9.48422827 19.1186642,8.81841502 19.3344749,8.21323749 C19.5500508,7.60829589 19.8637865,7.08569618 20.2761517,6.64614619 C20.6880473,6.20659619 21.191997,5.86260054 21.7882357,5.61415923 C22.3842397,5.36571793 23.0563292,5.24137931 23.8045043,5.24137931 C24.628765,5.24137931 25.3482906,5.30225097 25.9635508,5.42305054 C26.5785761,5.54432198 27.0952068,5.65568409 27.5136776,5.75737279 L27.5136776,14.6250522 C27.5136776,16.1539217 27.1208035,17.2621162 26.3345855,17.9501075 C25.5478979,18.6380988 24.3561249,18.9818585 22.7583272,18.9818585 C22.1369614,18.9818585 21.5505856,18.9313681 20.998965,18.8294435 C20.4473443,18.7270469 19.9685217,18.6064833 19.5629666,18.4663369 L19.8863304,16.9183565 C20.2411617,17.058031 20.6756012,17.1826056 21.189179,17.2909005 C21.7027568,17.3989595 22.2384089,17.4534609 22.79637,17.4534609 C23.8488876,17.4534609 24.606456,17.2432413 25.0695449,16.8225662 C25.532399,16.402363 25.7637087,15.7332467 25.7637087,14.8159249 L25.7637087,14.3954858 L25.7637087,14.3954858 L25.7637087,14.3954858 Z M25.0315021,6.87547662 C24.7332653,6.83112053 24.3307631,6.80847061 23.8237605,6.80847061 C22.8726905,6.80847061 22.1402491,7.12108668 21.6266712,7.74513915 C21.1130934,8.36942755 20.8564219,9.1973293 20.8564219,10.2293162 C20.8564219,10.8028783 20.928985,11.2933906 21.0750506,11.7010891 C21.2208813,12.1090236 21.4174358,12.4461771 21.664714,12.7139652 C21.9119923,12.9812815 22.1973133,13.1789964 22.5206771,13.3061662 C22.8440409,13.433808 23.1770329,13.4972749 23.5194181,13.4972749 C23.9883778,13.4972749 24.4195296,13.4305049 24.8126386,13.2967288 C25.2055127,13.1627167 25.5164304,13.0069986 25.7446873,12.8286304 L25.7446873,7.01892611 C25.5669193,6.96796379 25.3295041,6.92030459 25.0315021,6.87547662 L25.0315021,6.87547662 Z" id="Fill-7" fill="#FFFFFF" sketch:type="MSShapeGroup"></path>
                    <path d="M44.32859,15.0689655 C43.2293713,15.0431665 42.4500975,14.8071888 41.9900585,14.3596122 C41.5300195,13.9125089 41.3,13.2157 41.3,12.2698956 L41.3,0.30674739 L43.0828877,0 L43.0828877,11.9820832 C43.0828877,12.2765228 43.1082088,12.5191278 43.1593242,12.710845 C43.2104397,12.9025621 43.2935023,13.0559358 43.4087487,13.170966 C43.5235218,13.2859963 43.6766315,13.3723874 43.868551,13.4299025 C44.0602339,13.4874176 44.2964062,13.5352286 44.5777778,13.573572 L44.32859,15.0689655" id="Fill-8" fill="#FFFFFF" sketch:type="MSShapeGroup"></path>
                    <path d="M47.8552858,3.04441529 C47.491358,3.04441529 47.1813855,2.93658263 46.9269867,2.72140087 C46.6717787,2.50573556 46.5444444,2.21560285 46.5444444,1.84979385 C46.5444444,1.48422664 46.6717787,1.19361037 46.9269867,0.97842861 C47.1813855,0.762763294 47.491358,0.655172414 47.8552858,0.655172414 C48.2194833,0.655172414 48.5291861,0.762763294 48.7843941,0.97842861 C49.0387929,1.19361037 49.1666667,1.48422664 49.1666667,1.84979385 C49.1666667,2.21560285 49.0387929,2.50573556 48.7843941,2.72140087 C48.5291861,2.93658263 48.2194833,3.04441529 47.8552858,3.04441529 L47.8552858,3.04441529 L47.8552858,3.04441529 Z M46.8503704,4.88530735 L48.8825926,4.88530735 L48.8825926,15.0689655 L46.8503704,15.0689655 L46.8503704,4.88530735 L46.8503704,4.88530735 Z" id="Fill-9" fill="#FFFFFF" sketch:type="MSShapeGroup"></path>
                    <path d="M55.1152263,4.5862069 C55.8403841,4.5862069 56.452116,4.68554438 56.9509018,4.88320828 C57.4492079,5.08112495 57.8506346,5.36093817 58.1549418,5.72239517 C58.4592491,6.08435771 58.6762689,6.5143146 58.8057613,7.01251862 C58.935014,7.51072265 59,8.05998563 59,8.66056034 L59,15.3149079 C58.8446091,15.3422068 58.6275893,15.3796163 58.3494203,15.4273893 C58.0707717,15.4751623 57.7568724,15.5193966 57.4072428,15.5603448 C57.0576132,15.6012931 56.6787278,15.6387026 56.2710664,15.6728262 C55.8629254,15.706697 55.4581415,15.7241379 55.0569547,15.7241379 C54.4869481,15.7241379 53.9627435,15.6627155 53.4836214,15.5398707 C53.0044993,15.4170259 52.5901235,15.2223952 52.2404938,14.9564841 C51.8908642,14.6903203 51.61893,14.338974 51.4246914,13.9019397 C51.2304527,13.465158 51.1333333,12.9396552 51.1333333,12.325431 C51.1333333,11.7387585 51.2465193,11.233477 51.4733709,10.8103448 C51.6995031,10.3874654 52.0071676,10.0462298 52.3958848,9.78663793 C52.7843621,9.52755162 53.2375857,9.3362069 53.7555556,9.21336207 C54.2732856,9.09051724 54.8171539,9.02909483 55.3871605,9.02909483 C55.5682101,9.02909483 55.756214,9.03920551 55.9504527,9.05967965 C56.1446914,9.08015379 56.329338,9.10795817 56.503913,9.14182897 C56.6787278,9.17595253 56.8310014,9.20653736 56.9607336,9.23383621 C57.0899863,9.26138782 57.180631,9.28186196 57.232428,9.29525862 L57.232428,8.76293103 C57.232428,8.44899425 57.2000549,8.13859621 57.1353086,7.83123138 C57.0703226,7.52411931 56.9537794,7.25138357 56.785679,7.01251862 C56.6173388,6.77365368 56.3873698,6.58256173 56.0960118,6.43899 C55.8046538,6.2959238 55.4257684,6.22413793 54.9598354,6.22413793 C54.3639303,6.22413793 53.8430829,6.26862495 53.3960941,6.35734621 C52.9495849,6.44606748 52.6160219,6.53832748 52.3958848,6.63362069 L52.1822222,5.05711207 C52.4153086,4.94816943 52.8040258,4.84226 53.3476543,4.73988931 C53.8915226,4.63726586 54.4807133,4.5862069 55.1152263,4.5862069 L55.1152263,4.5862069 L55.1152263,4.5862069 Z M55.2706173,14.1271552 C55.6979424,14.1271552 56.0768277,14.1167917 56.4070335,14.0963176 C56.7372392,14.0758434 57.0122908,14.0386867 57.232428,13.9838362 L57.232428,10.8103448 C57.1026957,10.7423505 56.8923904,10.684214 56.6012722,10.636441 C56.3096743,10.5886681 55.9569273,10.5644024 55.5425514,10.5644024 C55.2706173,10.5644024 54.9823767,10.5851293 54.6783092,10.6260776 C54.3740019,10.6670259 54.0953534,10.7524612 53.8430829,10.8818779 C53.5903328,11.0118002 53.3797876,11.18899 53.2116872,11.4144583 C53.0433471,11.639421 52.959177,11.9364224 52.959177,12.3049569 C52.959177,12.9874282 53.1661251,13.4616193 53.5807407,13.7277831 C53.9951166,13.9941997 54.5584088,14.1271552 55.2706173,14.1271552 L55.2706173,14.1271552 L55.2706173,14.1271552 Z" id="Fill-10" fill="#FFFFFF" sketch:type="MSShapeGroup"></path>
                </g>
                <path d="M156.268182,145.12 C155.772179,145.12 155.312184,144.992001 154.888182,144.736 C154.46418,144.479999 154.132183,144.152002 153.892182,143.752 L153.892182,145 L153.352182,145 L153.352182,136.24 L153.952182,136.24 L153.952182,140.116 C154.248183,139.683998 154.59618,139.332001 154.996182,139.06 C155.396184,138.787999 155.860179,138.652 156.388182,138.652 C156.828184,138.652 157.22618,138.745999 157.582182,138.934 C157.938184,139.122001 158.238181,139.369998 158.482182,139.678 C158.726183,139.986002 158.914181,140.333998 159.046182,140.722 C159.178183,141.110002 159.244182,141.503998 159.244182,141.904 C159.244182,142.336002 159.168183,142.745998 159.016182,143.134 C158.864181,143.522002 158.654183,143.861999 158.386182,144.154 C158.118181,144.446001 157.802184,144.679999 157.438182,144.856 C157.07418,145.032001 156.684184,145.12 156.268182,145.12 L156.268182,145.12 L156.268182,145.12 Z M156.148182,144.58 C156.508184,144.58 156.84018,144.504001 157.144182,144.352 C157.448183,144.199999 157.710181,143.998001 157.930182,143.746 C158.150183,143.493999 158.322181,143.208002 158.446182,142.888 C158.570183,142.567998 158.632182,142.240002 158.632182,141.904 C158.632182,141.551998 158.574183,141.214002 158.458182,140.89 C158.342181,140.565998 158.180183,140.278001 157.972182,140.026 C157.764181,139.773999 157.514183,139.572001 157.222182,139.42 C156.93018,139.267999 156.608184,139.192 156.256182,139.192 C155.992181,139.192 155.742183,139.238 155.506182,139.33 C155.270181,139.422 155.054183,139.543999 154.858182,139.696 C154.662181,139.848001 154.488183,140.023999 154.336182,140.224 C154.184181,140.424001 154.056182,140.631999 153.952182,140.848 L153.952182,142.912 C153.976182,143.144001 154.062181,143.361999 154.210182,143.566 C154.358183,143.770001 154.540181,143.945999 154.756182,144.094 C154.972183,144.242001 155.204181,144.36 155.452182,144.448 C155.700183,144.536 155.932181,144.58 156.148182,144.58 L156.148182,144.58 L156.148182,144.58 Z M162.662,147.124 C162.734,147.124 162.839999,147.12 162.98,147.112 C163.120001,147.104 163.226,147.08 163.298,147.04 C163.33,147.024 163.368,146.986 163.412,146.926 C163.456,146.866 163.514,146.764001 163.586,146.62 C163.658,146.475999 163.749999,146.274001 163.862,146.014 C163.974001,145.753999 164.113999,145.416002 164.282,145 L161.498,138.76 L162.134,138.76 L164.606,144.412 L166.922,138.76 L167.51,138.76 L164.09,146.968 C163.969999,147.256001 163.812001,147.446 163.616,147.538 C163.419999,147.63 163.182001,147.676 162.902,147.676 L162.782,147.676 C162.742,147.676 162.702,147.672 162.662,147.664 L162.662,147.124 L162.662,147.124 Z" id="by" fill="#FFFFFF" sketch:type="MSShapeGroup"></path>
                <path d="M62,68 L202.820312,68 L336,68 L336,122 L206.300781,122 L62,122 L62,68 Z" id="Rectangle-437" fill="url(#linearGradient-3)" sketch:type="MSShapeGroup"></path>
                <path d="M108.420935,99.4501177 C108.420935,100.015433 108.320514,100.555044 108.119668,101.068967 C107.918822,101.582891 107.641658,102.032567 107.28817,102.418009 C106.934681,102.803451 106.520944,103.111801 106.046948,103.343066 C105.572951,103.574331 105.06281,103.689962 104.516509,103.689962 C104.050547,103.689962 103.576557,103.62144 103.094527,103.484394 C102.612497,103.347348 102.178676,103.111803 101.793052,102.777753 C101.407428,102.443703 101.090096,102.002593 100.841047,101.454408 C100.591998,100.906223 100.467475,100.212437 100.467475,99.3730296 L100.467475,89.3001863 C100.467475,88.7006093 100.56388,88.1438676 100.756692,87.6299444 C100.949504,87.1160213 101.22265,86.6706279 101.576139,86.2937509 C101.929628,85.916874 102.351398,85.6213726 102.841462,85.407238 C103.331527,85.1931033 103.873802,85.0860376 104.468307,85.0860376 C105.030675,85.0860376 105.552867,85.1931033 106.034897,85.407238 C106.516927,85.6213726 106.934681,85.9211566 107.28817,86.306599 C107.641658,86.6920413 107.918822,87.1545652 108.119668,87.6941845 C108.320514,88.2338038 108.420935,88.8205239 108.420935,89.4543625 L108.420935,90.4822036 L105.962593,90.4822036 L105.962593,89.6085387 C105.962593,89.0946155 105.82602,88.6492221 105.552869,88.2723452 C105.279719,87.8954682 104.910168,87.7070325 104.444205,87.7070325 C103.833633,87.7070325 103.427931,87.9083161 103.227085,88.3108892 C103.026239,88.7134623 102.925817,89.2230951 102.925817,89.8398029 L102.925817,99.1931574 C102.925817,99.7242113 103.034272,100.169605 103.251186,100.529351 C103.4681,100.889097 103.857735,101.068967 104.420104,101.068967 C104.58078,101.068967 104.753505,101.038989 104.938284,100.979031 C105.123062,100.919074 105.29177,100.820573 105.444413,100.683527 C105.597056,100.546481 105.721579,100.358045 105.817985,100.118214 C105.914391,99.8783836 105.962593,99.5785996 105.962593,99.2188534 L105.962593,98.3194924 L108.420935,98.3194924 L108.420935,99.4501177 L108.420935,99.4501177 Z M118.631891,89.5571466 C118.631891,88.8205234 118.752397,88.1695639 118.993412,87.6042484 C119.234427,87.038933 119.551759,86.5721264 119.945417,86.2038148 C120.339075,85.8355033 120.78093,85.5571324 121.270994,85.3686939 C121.761058,85.1802554 122.255132,85.0860376 122.75323,85.0860376 C123.251328,85.0860376 123.745401,85.1802554 124.235465,85.3686939 C124.725529,85.5571324 125.167384,85.8355033 125.561042,86.2038148 C125.9547,86.5721264 126.272032,87.038933 126.513047,87.6042484 C126.754062,88.1695639 126.874568,88.8205234 126.874568,89.5571466 L126.874568,99.2188534 C126.874568,99.9726073 126.754062,100.62785 126.513047,101.1846 C126.272032,101.74135 125.9547,102.203874 125.561042,102.572185 C125.167384,102.940497 124.725529,103.218868 124.235465,103.407306 C123.745401,103.595745 123.251328,103.689962 122.75323,103.689962 C122.255132,103.689962 121.761058,103.595745 121.270994,103.407306 C120.78093,103.218868 120.339075,102.940497 119.945417,102.572185 C119.551759,102.203874 119.234427,101.74135 118.993412,101.1846 C118.752397,100.62785 118.631891,99.9726073 118.631891,99.2188534 L118.631891,89.5571466 L118.631891,89.5571466 Z M121.090233,99.2188534 C121.090233,99.8526919 121.254925,100.319498 121.584312,100.619287 C121.913699,100.919075 122.303335,101.068967 122.75323,101.068967 C123.203125,101.068967 123.59276,100.919075 123.922147,100.619287 C124.251535,100.319498 124.416226,99.8526919 124.416226,99.2188534 L124.416226,89.5571466 C124.416226,88.9233081 124.251535,88.4565015 123.922147,88.156713 C123.59276,87.8569245 123.203125,87.7070325 122.75323,87.7070325 C122.303335,87.7070325 121.913699,87.8569245 121.584312,88.156713 C121.254925,88.4565015 121.090233,88.9233081 121.090233,89.5571466 L121.090233,99.2188534 L121.090233,99.2188534 Z M137.398842,85.2402138 L139.760779,85.2402138 L142.918061,94.9276166 L142.966264,94.9276166 L146.099445,85.2402138 L148.485483,85.2402138 L148.485483,103.535786 L146.027141,103.535786 L146.027141,92.4094058 L145.978939,92.4094058 L143.544698,100.272391 L142.315527,100.272391 L139.905387,92.4094058 L139.857184,92.4094058 L139.857184,103.535786 L137.398842,103.535786 L137.398842,85.2402138 L137.398842,85.2402138 Z M159.154366,85.2402138 L161.516303,85.2402138 L164.673585,94.9276166 L164.721788,94.9276166 L167.854969,85.2402138 L170.241007,85.2402138 L170.241007,103.535786 L167.782665,103.535786 L167.782665,92.4094058 L167.734462,92.4094058 L165.300222,100.272391 L164.07105,100.272391 L161.660911,92.4094058 L161.612708,92.4094058 L161.612708,103.535786 L159.154366,103.535786 L159.154366,85.2402138 L159.154366,85.2402138 Z M180.90989,85.2402138 L188.236714,85.2402138 L188.236714,87.7070325 L183.368232,87.7070325 L183.368232,93.0775025 L187.610077,93.0775025 L187.610077,95.5443213 L183.368232,95.5443213 L183.368232,100.914791 L188.236714,100.914791 L188.236714,103.535786 L180.90989,103.535786 L180.90989,85.2402138 L180.90989,85.2402138 Z M200.640897,93.4115509 L202.038778,93.4115509 C202.472605,93.4115509 202.818055,93.3473115 203.075137,93.2188307 C203.33222,93.0903499 203.529046,92.9061969 203.665622,92.6663661 C203.802197,92.4265353 203.894585,92.1310339 203.942788,91.7798531 C203.990991,91.4286723 204.015092,91.0218225 204.015092,90.5592917 C204.015092,90.0967609 203.990991,89.6899112 203.942788,89.3387304 C203.894585,88.9875495 203.794163,88.6877655 203.64152,88.4393693 C203.488877,88.1909732 203.275984,88.0068201 203.002833,87.8869047 C202.729683,87.7669893 202.368166,87.7070325 201.918271,87.7070325 L200.640897,87.7070325 L200.640897,93.4115509 L200.640897,93.4115509 Z M198.182555,85.2402138 L202.135183,85.2402138 C205.027365,85.2402138 206.473434,87.0303525 206.473434,90.6106838 C206.473434,91.6727916 206.316777,92.5849915 206.003457,93.3473108 C205.690137,94.1096302 205.139828,94.7220461 204.352511,95.1845769 L207.003665,103.535786 L204.400714,103.535786 L202.111082,95.7241935 L200.640897,95.7241935 L200.640897,103.535786 L198.182555,103.535786 L198.182555,85.2402138 L198.182555,85.2402138 Z M224.613749,99.4501177 C224.613749,100.015433 224.513327,100.555044 224.312481,101.068967 C224.111635,101.582891 223.834472,102.032567 223.480983,102.418009 C223.127494,102.803451 222.713758,103.111801 222.239761,103.343066 C221.765765,103.574331 221.255624,103.689962 220.709323,103.689962 C220.24336,103.689962 219.769371,103.62144 219.287341,103.484394 C218.80531,103.347348 218.37149,103.111803 217.985865,102.777753 C217.600241,102.443703 217.282909,102.002593 217.03386,101.454408 C216.784811,100.906223 216.660289,100.212437 216.660289,99.3730296 L216.660289,89.3001863 C216.660289,88.7006093 216.756693,88.1438676 216.949505,87.6299444 C217.142318,87.1160213 217.415464,86.6706279 217.768953,86.2937509 C218.122442,85.916874 218.544212,85.6213726 219.034276,85.407238 C219.52434,85.1931033 220.066616,85.0860376 220.66112,85.0860376 C221.223489,85.0860376 221.74568,85.1931033 222.227711,85.407238 C222.709741,85.6213726 223.127494,85.9211566 223.480983,86.306599 C223.834472,86.6920413 224.111635,87.1545652 224.312481,87.6941845 C224.513327,88.2338038 224.613749,88.8205239 224.613749,89.4543625 L224.613749,90.4822036 L222.155407,90.4822036 L222.155407,89.6085387 C222.155407,89.0946155 222.018833,88.6492221 221.745683,88.2723452 C221.472532,87.8954682 221.102981,87.7070325 220.637019,87.7070325 C220.026447,87.7070325 219.620744,87.9083161 219.419898,88.3108892 C219.219052,88.7134623 219.118631,89.2230951 219.118631,89.8398029 L219.118631,99.1931574 C219.118631,99.7242113 219.227086,100.169605 219.444,100.529351 C219.660913,100.889097 220.050549,101.068967 220.612917,101.068967 C220.773594,101.068967 220.946319,101.038989 221.131097,100.979031 C221.315876,100.919074 221.484584,100.820573 221.637227,100.683527 C221.78987,100.546481 221.914392,100.358045 222.010798,100.118214 C222.107204,99.8783836 222.155407,99.5785996 222.155407,99.2188534 L222.155407,98.3194924 L224.613749,98.3194924 L224.613749,99.4501177 L224.613749,99.4501177 Z M235.041617,85.2402138 L237.49996,85.2402138 L237.49996,103.535786 L235.041617,103.535786 L235.041617,85.2402138 L235.041617,85.2402138 Z M252.000964,90.5078997 L251.952761,90.5078997 L250.747691,97.1374751 L253.206034,97.1374751 L252.000964,90.5078997 L252.000964,90.5078997 Z M250.964604,85.2402138 L253.013222,85.2402138 L256.845344,103.535786 L254.387002,103.535786 L253.66396,99.6042938 L250.313866,99.6042938 L249.590824,103.535786 L247.132482,103.535786 L250.964604,85.2402138 L250.964604,85.2402138 Z M266.405563,85.2402138 L268.863905,85.2402138 L268.863905,100.914791 L273.732386,100.914791 L273.732386,103.535786 L266.405563,103.535786 L266.405563,85.2402138 L266.405563,85.2402138 Z M291.631687,90.5078997 L289.173345,90.5078997 L289.173345,89.916891 C289.173345,89.317314 289.040789,88.7991159 288.775672,88.3622813 C288.510555,87.9254466 288.064684,87.7070325 287.438045,87.7070325 C287.100623,87.7070325 286.82346,87.7755546 286.606547,87.9126008 C286.389633,88.0496469 286.220925,88.2252347 286.100417,88.4393693 C285.97991,88.653504 285.895556,88.9018965 285.847353,89.1845542 C285.79915,89.4672119 285.775048,89.7627133 285.775048,90.0710672 C285.775048,90.4308134 285.787099,90.73488 285.811201,90.9832762 C285.835302,91.2316724 285.895555,91.4458038 285.991961,91.6256769 C286.088367,91.80555 286.228957,91.9640073 286.413735,92.1010534 C286.598514,92.2380996 286.851576,92.3751437 287.172929,92.5121899 L289.052838,93.3087668 C289.599139,93.5314668 290.040993,93.7927072 290.378415,94.0924957 C290.715836,94.3922842 290.976932,94.7434597 291.16171,95.1460328 C291.346488,95.548606 291.471011,96.0111299 291.535282,96.5336184 C291.599552,97.0561069 291.631687,97.6513923 291.631687,98.3194924 C291.631687,99.0903771 291.559384,99.8055761 291.414775,100.465111 C291.270166,101.124645 291.033171,101.689952 290.703783,102.161049 C290.374396,102.632145 289.936559,103.004734 289.390258,103.278826 C288.843957,103.552918 288.177158,103.689962 287.389842,103.689962 C286.795338,103.689962 286.241011,103.578614 285.726846,103.355914 C285.21268,103.133214 284.770826,102.829147 284.401269,102.443705 C284.031712,102.058263 283.738482,101.600021 283.521568,101.068967 C283.304654,100.537914 283.196199,99.9640413 283.196199,99.3473335 L283.196199,98.3708845 L285.654541,98.3708845 L285.654541,99.1931574 C285.654541,99.672819 285.787098,100.105364 286.052214,100.490807 C286.317331,100.876249 286.763202,101.068967 287.389842,101.068967 C287.807601,101.068967 288.132967,101.004728 288.365948,100.876247 C288.59893,100.747766 288.775671,100.567896 288.896179,100.336631 C289.016687,100.105365 289.093007,99.8184291 289.125142,99.4758137 C289.157278,99.1331983 289.173345,98.7563269 289.173345,98.3451884 C289.173345,97.8655268 289.157278,97.471525 289.125142,97.1631711 C289.093007,96.8548172 289.02472,96.6064248 288.92028,96.4179863 C288.81584,96.2295478 288.671234,96.0753732 288.486455,95.9554578 C288.301677,95.8355424 288.056649,95.7070635 287.751363,95.5700173 L285.991961,94.7991365 C284.931494,94.3366056 284.22051,93.7241897 283.858988,92.9618704 C283.497465,92.1995511 283.316706,91.2445249 283.316706,90.0967632 C283.316706,89.4115323 283.405077,88.7605728 283.581822,88.143865 C283.758566,87.5271572 284.019662,86.9961113 284.365117,86.5507112 C284.710572,86.1053112 285.14841,85.749853 285.678643,85.484326 C286.208876,85.2187991 286.827472,85.0860376 287.53445,85.0860376 C288.145022,85.0860376 288.703365,85.2059512 289.209497,85.445782 C289.715629,85.6856128 290.14945,86.0025273 290.510972,86.3965351 C290.872495,86.7905428 291.149658,87.2316536 291.34247,87.7198805 C291.535283,88.2081075 291.631687,88.7091751 291.631687,89.2230982 L291.631687,90.5078997 L291.631687,90.5078997 Z" id="COMMERCIALS" fill="#FFFFFF" sketch:type="MSShapeGroup"></path>
                <path d="M36.5639,76.9385 C35.1929,76.6945 33.8469,76.5565 32.5239,76.5225 C31.4029,76.4865 30.2049,76.5425 28.9319,76.6895 C27.6579,76.8375 26.5479,77.2015 25.6009,77.7815 C24.8309,78.2525 24.3239,78.8045 24.0799,79.4355 C23.8349,80.0675 23.9679,80.7985 24.4769,81.6295 C24.8519,82.2435 25.2929,82.6645 25.8009,82.8955 C26.3089,83.1255 26.9139,83.2515 27.6189,83.2715 C28.3229,83.2925 29.1319,83.2345 30.0449,83.0955 C30.9579,82.9585 32.0079,82.8285 33.1929,82.7035 C35.0459,82.4725 36.7979,82.3925 38.4509,82.4645 C40.1029,82.5365 41.6709,82.8555 43.1569,83.4195 C44.6429,83.9855 46.0769,84.8985 47.4589,86.1585 C48.8419,87.4195 50.2029,89.1445 51.5429,91.3325 C53.2579,94.1345 54.3499,96.7015 54.8209,99.0315 C55.2909,101.3615 55.3039,103.4455 54.8609,105.2815 C54.4179,107.1185 53.6329,108.7275 52.5049,110.1095 C51.3759,111.4915 50.0869,112.6275 48.6369,113.5155 C47.4819,114.2225 46.2169,114.8155 44.8419,115.2965 C43.4669,115.7775 42.0339,116.1445 40.5389,116.3965 C39.0449,116.6485 37.5419,116.7865 36.0299,116.8095 C34.5169,116.8325 33.0329,116.7185 31.5759,116.4655 L28.4319,102.9525 C30.0579,103.2815 31.6609,103.4735 33.2419,103.5285 C34.5909,103.6055 36.0269,103.5395 37.5479,103.3305 C39.0679,103.1225 40.4509,102.6365 41.6939,101.8755 C42.6419,101.2955 43.1869,100.7075 43.3289,100.1075 C43.4709,99.5095 43.3549,98.9035 42.9799,98.2905 C42.5779,97.6335 42.0499,97.1885 41.3989,96.9555 C40.7469,96.7225 39.9889,96.6305 39.1229,96.6785 C38.2569,96.7275 37.2959,96.8345 36.2369,97.0005 C35.1789,97.1675 34.0289,97.3005 32.7859,97.3975 C30.9659,97.5505 29.3039,97.5295 27.8019,97.3345 C26.2989,97.1415 24.9069,96.7295 23.6259,96.0985 C22.3449,95.4695 21.1469,94.5925 20.0319,93.4695 C18.9169,92.3465 17.8359,90.9305 16.7919,89.2235 C15.2099,86.6405 14.1339,84.1685 13.5649,81.8085 C12.9959,79.4495 12.8559,77.2775 13.1479,75.2925 C13.4389,73.3095 14.0809,71.5475 15.0719,70.0075 C16.0629,68.4685 17.3429,67.2175 18.9129,66.2565 C20.0669,65.5505 21.2929,65.0255 22.5889,64.6835 C23.8849,64.3415 25.1989,64.1095 26.5289,63.9865 C27.8589,63.8655 29.1479,63.8275 30.3979,63.8755 C31.6479,63.9225 32.7899,63.9915 33.8219,64.0815 L36.5639,76.9385 L36.5639,76.9385 Z M61.0287,76.3437 C62.0557,75.9177 62.7927,75.2177 63.2397,74.2467 C63.6867,73.2747 63.9097,72.1477 63.9077,70.8647 C63.9067,69.5817 63.7147,68.1817 63.3327,66.6627 C62.9497,65.1457 62.4337,63.6057 61.7847,62.0407 L51.6217,37.5757 L60.4617,33.9037 L70.6237,58.3687 C71.9977,61.6757 72.9947,64.8897 73.6187,68.0097 C74.2417,71.1307 74.3847,73.9927 74.0487,76.5937 C73.7117,79.1967 72.8797,81.4807 71.5527,83.4467 C70.2247,85.4127 68.3227,86.9107 65.8447,87.9397 C63.2757,89.0067 60.8127,89.2827 58.4557,88.7687 C56.0987,88.2547 53.8857,87.1697 51.8157,85.5147 C49.7457,83.8597 47.8507,81.7267 46.1277,79.1147 C44.4047,76.5027 42.8847,73.6117 41.5667,70.4387 L31.4047,45.9737 L40.2447,42.3017 L50.4067,66.7667 C51.0567,68.3307 51.7887,69.7957 52.6037,71.1587 C53.4177,72.5237 54.2797,73.6587 55.1867,74.5657 C56.0957,75.4727 57.0387,76.1027 58.0187,76.4547 C58.9977,76.8077 60.0007,76.7707 61.0287,76.3437 L61.0287,76.3437 Z M84.8058,80.9274 L70.0908,28.2744 L85.4378,23.9854 C87.1758,23.5004 88.9288,23.5834 90.6978,24.2344 C92.4658,24.8874 94.1148,25.9184 95.6448,27.3294 C97.1748,28.7404 98.5478,30.4624 99.7648,32.4944 C100.9818,34.5264 101.9008,36.6544 102.5228,38.8784 C103.1718,41.2034 103.5198,43.5444 103.5658,45.9024 C103.6118,48.2624 103.3638,50.4364 102.8208,52.4264 C102.2778,54.4174 101.4208,56.1234 100.2498,57.5434 C99.0788,58.9634 97.6228,59.9164 95.8848,60.4014 L90.0668,62.0274 L94.5858,78.1934 L84.8058,80.9274 L84.8058,80.9274 Z M136.6673,55.4773 L138.8673,68.3813 L112.8923,72.8093 L103.7033,18.9173 L129.2163,14.5673 L131.4163,27.4713 L115.9133,30.1143 L117.2083,37.7053 L130.4523,35.4463 L132.4973,47.4393 L119.2533,49.6973 L120.7023,58.1993 L136.6673,55.4773 L136.6673,55.4773 Z M144.3263,67.5057 L138.8543,13.1097 L155.7453,11.4107 C157.5403,11.2297 159.2533,11.6127 160.8843,12.5567 C162.5153,13.5037 163.9623,14.8017 165.2283,16.4537 C166.4933,18.1067 167.5513,20.0387 168.4013,22.2487 C169.2523,24.4587 169.7933,26.7137 170.0243,29.0117 C170.3433,32.1797 170.1733,35.1757 169.5153,38.0007 C168.8573,40.8277 167.7873,43.1937 166.3043,45.0957 L176.6063,64.2577 L165.2073,65.4047 L156.5313,49.4067 L152.7493,49.7867 L154.4293,66.4887 L144.3263,67.5057 L144.3263,67.5057 Z M213.3651,27.2187 C212.3311,26.2857 211.2611,25.4567 210.1561,24.7287 C209.2231,24.1047 208.1781,23.5187 207.0191,22.9707 C205.8601,22.4217 204.7261,22.1437 203.6151,22.1347 C202.7131,22.1267 201.9911,22.3267 201.4491,22.7327 C200.9071,23.1397 200.6341,23.8307 200.6261,24.8047 C200.6201,25.5247 200.7711,26.1147 201.0801,26.5797 C201.3881,27.0447 201.8361,27.4717 202.4241,27.8617 C203.0101,28.2507 203.7271,28.6297 204.5751,28.9947 C205.4231,29.3617 206.3831,29.8067 207.4551,30.3277 C209.1491,31.1117 210.6781,31.9707 212.0431,32.9057 C213.4061,33.8417 214.5681,34.9417 215.5311,36.2067 C216.4921,37.4737 217.2261,39.0067 217.7321,40.8067 C218.2391,42.6087 218.4811,44.7917 218.4611,47.3577 C218.4331,50.6437 218.0031,53.3987 217.1701,55.6247 C216.3351,57.8517 215.2441,59.6267 213.8971,60.9497 C212.5501,62.2747 211.0311,63.2247 209.3441,63.8007 C207.6541,64.3767 205.9601,64.6587 204.2591,64.6447 C202.9051,64.6337 201.5171,64.4687 200.0961,64.1487 C198.6761,63.8297 197.2641,63.3827 195.8631,62.8057 C194.4611,62.2297 193.1141,61.5517 191.8181,60.7707 C190.5221,59.9897 189.3231,59.1077 188.2201,58.1227 L192.7011,44.9917 C193.9071,46.1317 195.1651,47.1427 196.4781,48.0257 C197.5831,48.8047 198.8361,49.5087 200.2371,50.1357 C201.6371,50.7627 203.0671,51.0827 204.5251,51.0947 C205.6361,51.1037 206.4101,50.8917 206.8481,50.4587 C207.2851,50.0267 207.5081,49.4507 207.5131,48.7317 C207.5191,47.9617 207.3071,47.3057 206.8781,46.7627 C206.4481,46.2207 205.8531,45.7417 205.0941,45.3237 C204.3331,44.9077 203.4601,44.4897 202.4731,44.0707 C201.4871,43.6527 200.4411,43.1567 199.3351,42.5817 C197.7101,41.7487 196.3101,40.8517 195.1381,39.8907 C193.9651,38.9327 193.0011,37.8467 192.2481,36.6337 C191.4941,35.4217 190.9421,34.0437 190.5891,32.5007 C190.2381,30.9577 190.0701,29.1847 190.0861,27.1827 C190.1111,24.1557 190.5051,21.4887 191.2711,19.1847 C192.0351,16.8807 193.0671,14.9647 194.3651,13.4347 C195.6601,11.9057 197.1371,10.7497 198.7941,9.9677 C200.4481,9.1847 202.1961,8.8017 204.0361,8.8167 C205.3901,8.8267 206.7081,9.0307 207.9891,9.4257 C209.2701,9.8217 210.5081,10.3197 211.7011,10.9197 C212.8931,11.5197 214.0081,12.1697 215.0441,12.8717 C216.0801,13.5727 217.0111,14.2347 217.8401,14.8577 L213.3651,27.2187 L213.3651,27.2187 Z M246.7472,52.9858 L245.7322,66.0368 L219.4622,63.9938 L223.6992,9.4888 L249.5032,11.4948 L248.4882,24.5458 L232.8092,23.3258 L232.2122,31.0028 L245.6062,32.0448 L244.6642,44.1738 L231.2682,43.1328 L230.6012,51.7308 L246.7472,52.9858 L246.7472,52.9858 Z M248.5892,66.1677 L270.8542,14.3657 L278.9782,15.6657 L283.9152,71.8207 L273.3222,70.1257 L272.8022,59.2027 L263.0842,57.6477 L259.2322,67.8707 L248.5892,66.1677 L248.5892,66.1677 Z M286.8763,73.1373 L300.5713,20.2103 L317.0063,24.4633 C318.7543,24.9153 320.2283,25.8673 321.4313,27.3183 C322.6333,28.7703 323.5433,30.4893 324.1583,32.4773 C324.7723,34.4663 325.0963,36.6453 325.1293,39.0123 C325.1623,41.3813 324.8893,43.6823 324.3103,45.9193 C323.5123,49.0013 322.3163,51.7533 320.7213,54.1763 C319.1263,56.6013 317.3023,58.4493 315.2533,59.7203 L318.2843,81.2643 L307.1933,78.3943 L304.5913,60.3823 L300.9123,59.4303 L296.7073,75.6813 L286.8763,73.1373 L286.8763,73.1373 Z M324.9862,53.9463 C326.1692,50.8263 327.7062,47.8963 329.5992,45.1543 C331.4922,42.4143 333.6162,40.1173 335.9702,38.2643 C338.3242,36.4123 340.8142,35.1333 343.4402,34.4263 C346.0652,33.7203 348.6932,33.8643 351.3232,34.8613 C354.4062,36.0303 356.7142,38.0713 358.2462,40.9853 C359.7772,43.9003 360.4582,47.2463 360.2892,51.0233 L350.1402,55.9053 C350.3212,54.5473 350.3302,53.3703 350.1702,52.3753 C350.0072,51.3813 349.7422,50.5393 349.3722,49.8503 C349.0022,49.1613 348.5452,48.6033 348.0022,48.1773 C347.4572,47.7523 346.9252,47.4403 346.4062,47.2433 C345.2052,46.7883 344.0242,46.7933 342.8642,47.2593 C341.7032,47.7253 340.5972,48.4873 339.5482,49.5433 C338.4972,50.6003 337.5372,51.8833 336.6692,53.3933 C335.7992,54.9033 335.0642,56.4493 334.4642,58.0333 C333.7912,59.8093 333.2992,61.5723 332.9892,63.3213 C332.6782,65.0703 332.5872,66.6823 332.7152,68.1573 C332.8412,69.6343 333.1942,70.9063 333.7732,71.9763 C334.3502,73.0473 335.1922,73.7903 336.2962,74.2093 C336.8472,74.4183 337.4572,74.5253 338.1232,74.5303 C338.7902,74.5363 339.4862,74.3883 340.2132,74.0883 C340.9392,73.7863 341.6722,73.3233 342.4102,72.6973 C343.1492,72.0713 343.8662,71.2313 344.5622,70.1783 L349.7122,79.9533 C348.5152,81.6403 347.1392,83.0413 345.5862,84.1533 C344.0312,85.2663 342.4302,86.0863 340.7832,86.6143 C339.1342,87.1423 337.4962,87.4003 335.8682,87.3863 C334.2392,87.3723 332.7432,87.1083 331.3802,86.5913 C328.9772,85.6803 327.0562,84.0883 325.6172,81.8133 C324.1762,79.5373 323.2082,76.8793 322.7102,73.8353 C322.2112,70.7923 322.1572,67.5313 322.5472,64.0563 C322.9352,60.5803 323.7492,57.2113 324.9862,53.9463 L324.9862,53.9463 Z M402.1786,67.3813 L375.3226,115.0003 L366.4776,110.0113 L376.9926,91.3663 L366.1976,85.2783 L355.6816,103.9233 L346.8366,98.9353 L373.6936,51.3163 L382.5376,56.3043 L372.6276,73.8763 L383.4236,79.9643 L393.3336,62.3933 L402.1786,67.3813 L402.1786,67.3813 Z M151.4393,36.7627 L157.8123,36.1217 C158.4343,36.0587 158.9603,35.4917 159.3943,34.4147 C159.8263,33.3397 159.9503,31.8827 159.7653,30.0437 C159.5753,28.1547 159.1193,26.7417 158.3973,25.8087 C157.6753,24.8757 157.0033,24.4397 156.3813,24.5027 L150.2673,25.1177 L151.4393,36.7627 L151.4393,36.7627 Z M86.5438,49.4204 L91.7098,47.9774 C92.3118,47.8084 92.7568,47.2444 93.0478,46.2834 C93.3378,45.3234 93.1868,43.7804 92.5918,41.6534 C91.9838,39.4794 91.2688,38.0804 90.4458,37.4574 C89.6238,36.8354 88.9108,36.6074 88.3088,36.7744 L83.3938,38.1484 L86.5438,49.4204 L86.5438,49.4204 Z M304.1913,46.7573 L310.3923,48.3623 C310.9973,48.5183 311.6883,48.1683 312.4663,47.3083 C313.2453,46.4493 313.8653,45.1253 314.3283,43.3363 C314.8033,41.4983 314.8653,40.0153 314.5103,38.8893 C314.1563,37.7633 313.6763,37.1223 313.0723,36.9663 L307.1233,35.4263 L304.1913,46.7573 L304.1913,46.7573 Z M272.4462,30.4497 L266.1562,48.0027 L272.7902,49.0637 L272.4462,30.4497 L272.4462,30.4497 Z" id="Fill-1" fill-opacity="0.362262228" fill="#0A2452" sketch:type="MSShapeGroup"></path>
                <path d="M213.116,23.1173088 C213.107268,23.3840726 213.098562,23.6508363 213.089899,23.9176 C213.451574,22.9466 213.814244,21.9746 214.176913,21.0026 C215.206297,18.2406 216.362864,15.4956 217.274009,12.6926 C217.517444,11.9466 217.453853,11.1346 217.488629,10.3506 C217.543278,9.1036 217.597927,7.8576 217.652576,6.6106 C217.297855,7.5616 216.943135,8.5126 216.588415,9.4626 C215.542139,12.2656 214.495863,15.0676 213.450581,17.8706 C213.334134,18.1823919 213.279629,18.4945663 213.253,18.8110534 C213.247234,18.3270623 213.131464,18.2069616 212.503467,17.6996 C211.410492,16.8156 210.243988,16.0166 209.021843,15.3256 C207.070384,14.2206 203.658312,12.4556 201.51608,14.0816 C200.455893,14.8866 200.709265,16.5936 200.712246,17.7796 L200.723176,21.7246 C200.715227,18.8976 203.758668,18.8666 205.811475,19.5056 C208.475355,20.3356 211.002116,22.0996 213.0897,23.9176 C213.098467,23.6508363 213.107233,23.3840726 213.116,23.1173088 L213.116,23.1173088 L213.116,23.1173088 Z M271.950981,66.5495929 C271.76224,63.6082953 271.574492,60.6669976 271.386743,57.7257 C271.345538,57.0747612 271.303787,56.5417299 271.360759,55.9645642 C271.333242,56.0466924 271.301417,56.107685 271.26433,56.1315 C271.092435,56.2425 270.225009,55.9705 270.045165,55.9425 L261.762396,54.6545 C261.84582,54.2135485 261.929146,53.7725969 262.012435,53.3316454 C261.803183,54.2811276 261.551041,55.2197784 261.206369,56.1418 C260.177978,58.8928 259.149588,61.6428 258.121197,64.3938 C258.128538,64.3536603 258.135844,64.3135376 258.143119,64.273432 C258.112158,64.3174614 258.049227,64.3248511 257.894255,64.3585 C257.421295,64.4615 256.577716,64.1535 256.105749,64.0805 C254.189067,63.7825 252.272385,63.4845 250.35471,63.1865 C249.825113,63.1045 247.867693,63.0655 247.696791,62.6225 C247.612334,62.4025 247.821987,61.7835 247.855769,61.5525 C247.934265,61.0245 248.01276,60.4975 248.091256,59.9695 C248.200554,59.2295 248.310845,58.4885 248.421136,57.7475 C251.959397,58.2975 255.497657,58.8465 259.035918,59.3955 C258.933287,59.9549277 258.830797,60.5144974 258.728342,61.0741022 C258.957155,59.9615857 259.234956,58.8633138 259.640433,57.7798 C260.671805,55.0238 261.703177,52.2668 262.734548,49.5098 C262.729914,49.5343413 262.725294,49.5588806 262.720689,49.5834177 C262.738314,49.5527922 262.758227,49.5299818 262.780851,49.5175 C262.977586,49.4075 263.816197,49.6775 264.031811,49.7115 C266.824861,50.1455 269.618905,50.5785 272.411955,51.0125 C272.121513,52.3348006 271.830102,53.656126 271.539636,54.9784023 C271.830475,53.6561746 272.121314,52.3340163 272.412153,51.0127 C272.638697,54.5367 272.864248,58.0617 273.090792,61.5857 C273.077602,61.6432099 273.064412,61.7007197 273.05122,61.7582296 C273.086716,61.6949646 273.144905,61.6516625 273.256129,61.6116 C273.595945,61.4886 274.513051,61.8066 274.855848,61.8596 C277.793966,62.3156 280.732084,62.7716 283.670201,63.2276 C283.292628,64.6516 282.915054,66.0766 282.537481,67.5006 C282.428183,67.9156 282.478858,68.0436 282.19369,68.1426 C281.846919,68.2626 281.01427,67.9596 280.65955,67.9046 C277.757202,67.4536 274.853861,67.0026 271.95052,66.5516 C271.950674,66.550931 271.950827,66.550262 271.950981,66.5495929 L271.950981,66.5495929 L271.950981,66.5495929 Z M272.459122,64.3376271 C272.621664,63.6296786 272.784226,62.9218314 272.946652,62.2140074 C272.943669,62.2278561 272.940518,62.2420498 272.937179,62.2566 C272.777827,62.9504346 272.618474,63.6440345 272.459122,64.3376271 L272.459122,64.3376271 L272.459122,64.3376271 Z M271.61792,23.4254741 C271.618032,23.4249161 271.618144,23.424358 271.618255,23.4238 C271.618136,23.4241366 271.618016,23.4244733 271.617897,23.4248099 C271.617671,23.4246318 271.617485,23.4255636 271.617298,23.4264954 C271.219178,24.5475953 270.821058,25.6676985 270.422937,26.7888 C269.041813,30.6788 267.659696,34.5678 266.278572,38.4578 C265.460827,40.7578 265.095177,43.1098 264.632153,45.5108 C265.03556,44.3768 265.437974,43.2418 265.841382,42.1068 C267.213563,38.2408 268.585744,34.3748 269.957926,30.5088 C270.207036,29.8072983 270.413996,29.0974242 270.594962,28.3815896 C270.576622,28.5146801 270.559821,28.6477232 270.544754,28.7807 C270.453342,29.5897 270.56264,30.4457 270.590461,31.2597 C270.661007,33.2837 270.73056,35.3077 270.800113,37.3307 C270.90643,40.3897 271.011753,43.4497 271.117076,46.5087 C271.491669,44.7527 271.865268,42.9977 272.238867,41.2417 C272.213033,40.5047 272.187199,39.7677 272.162359,39.0307 C271.980548,33.8292914 271.799731,28.6268829 271.61792,23.4254741 L271.61792,23.4254741 L271.61792,23.4254741 Z M365.61159,96.1346307 C365.203512,96.8227386 364.795435,97.5108633 364.387358,98.1992 C367.61263,92.2032 370.726617,86.1312 374.068142,80.2012 C374.077916,80.1838506 374.087698,80.1665052 374.097486,80.1491639 C373.97465,80.1938082 373.844832,80.0634547 373.686396,79.9917 C371.023509,78.7787 368.476876,77.1787 365.902421,75.7887 C365.019139,75.3107223 364.134863,74.8337445 363.251581,74.3567667 C360.732573,79.0068095 358.213179,83.6568524 355.69377,88.3068952 C355.798393,88.1137283 355.903041,87.9206033 356.007711,87.7275 C353.004015,86.0985 350.000319,84.4685 346.996622,82.8395 L346.047721,84.7305 C345.806272,85.2125 345.563831,85.6955 345.322382,86.1775 C345.174334,86.4735 344.795767,86.9585 344.765958,87.2875 C344.735156,87.6185 344.690444,87.4875 345.074972,87.7095 C345.661205,88.0485 346.26731,88.3575 346.861491,88.6805 C348.544674,89.5945 350.227856,90.5085 351.911039,91.4225 C352.271721,91.6185 352.962283,92.1955 353.37662,92.2185 C353.48495,92.2246907 353.554611,92.2037936 353.607675,92.1584124 C357.085194,85.7383749 360.563678,79.3183375 364.041182,72.8983 C364.214291,72.5789882 364.3874,72.2595963 364.560509,71.9401471 L365.067785,71.0037 C365.194967,70.7687 365.60533,69.6417 365.859695,69.5417 C365.859753,69.5416771 365.859811,69.5416544 365.859869,69.5416317 C365.865707,69.530854 365.871544,69.520077 365.877382,69.5093 C365.871544,69.5200772 365.865707,69.5308544 365.859869,69.5416316 C365.961327,69.5019125 366.208519,69.6877354 366.32272,69.7497 L374.202082,73.9987 C375.092336,74.4786869 375.983584,74.9596738 376.874831,75.4396608 C374.097906,80.1490113 374.098326,80.1488567 374.098746,80.1487 C374.366028,80.0477 374.789308,78.9777 374.934375,78.7317 C375.580952,77.6351514 376.227529,76.5376036 376.874106,75.4410542 C374.007861,80.7704362 371.141616,86.0998181 368.276364,91.4292 C367.866002,92.1912 367.456632,92.9532 367.04627,93.7152 C367.024168,93.7524809 367.002066,93.7897612 366.979964,93.8270409 C367.022517,93.7852319 367.067512,93.7578537 367.115326,93.7529 C367.391551,93.7239 368.160608,94.3189 368.398082,94.4479 C370.968562,95.8409 373.540036,97.2339 376.110517,98.6269 C375.348414,99.8249 374.585319,101.0219 373.823216,102.2199 C373.678149,102.4479 373.461541,102.9779 373.23301,102.9989 C372.945855,103.0259 372.24635,102.4639 372.005896,102.3329 C369.466217,100.9549 366.926539,99.5769 364.387855,98.1989 C364.795578,97.5108098 365.203598,96.8227196 365.61159,96.1346295 L365.61159,96.1346307 L365.61159,96.1346307 Z M353.607693,92.1583968 C353.698383,91.9909904 353.789072,91.8235848 353.879756,91.6561833 C353.748992,91.8993416 353.707987,92.0726072 353.607693,92.1583968 L353.607693,92.1583968 L353.607693,92.1583968 Z M304.019155,52.1521519 C304.019278,52.1517679 304.0194,52.151384 304.019523,52.151 L301.527538,51.527 C301.309936,51.472 300.622355,51.165 300.420652,51.25 C300.279558,51.309 300.355073,51.344 300.24975,51.527 C299.80163,52.31 299.648613,53.484 299.384312,54.347 C299.179627,55.014 298.973949,55.682 298.769264,56.349 C299.587009,56.554 300.404754,56.759 301.221505,56.964 C301.438113,57.018 302.109796,57.32 302.310506,57.237 C302.405218,57.1980664 302.403668,57.1672437 302.423972,57.0973457 C302.420395,57.1244577 302.417178,57.1514782 302.414339,57.1784 C302.333856,57.9294 302.666717,58.8784 302.792906,59.6204 C303.131728,61.6014 303.470551,63.5824 303.809373,65.5634 C304.31711,68.5284 304.823854,71.4944 305.33159,74.4604 C305.892983,72.8454 306.454375,71.2294 307.015767,69.6144 C306.890571,68.8824 306.764382,68.1504 306.639187,67.4174 C305.765843,62.3286506 304.892499,57.2409012 304.019155,52.1521519 L304.019155,52.1521519 L304.019155,52.1521519 Z M303.509213,53.7484704 C303.466683,53.8816176 303.424153,54.0147888 303.381622,54.148 C303.376805,54.1630709 303.372021,54.1782368 303.367268,54.1934939 C303.414557,54.0451464 303.461878,53.8968028 303.509213,53.7484706 L303.509213,53.7484704 L303.509213,53.7484704 Z M286.598008,64.6714714 C286.613435,64.615482 286.628862,64.5594916 286.644288,64.5035 C287.156993,62.4255 287.668704,60.3465 288.181409,58.2685 C290.431946,49.1415 292.681489,40.0155 294.932025,30.8895 C296.344945,25.1555 297.758858,19.4215 299.172771,13.6885 C298.452401,16.3385 297.725075,18.9825 297.067302,21.6495 L290.293833,49.1205 C288.625801,55.8844719 286.958761,62.6474452 285.290731,69.4104178 C285.289325,69.4155119 285.287919,69.4206059 285.286514,69.4257 C288.037832,70.1177 290.788157,70.8087 293.539475,71.5007 C293.799802,71.5667 294.636425,71.9427 294.905694,71.8447 C295.098456,71.7747 295.158072,71.3027 295.2316,71.0647 C295.653886,69.7027 295.865526,69.0217 296.499452,66.9787 C293.715344,66.2797 290.932231,65.5807 288.148123,64.8817 C287.862956,64.8097 287.045211,64.4447 286.763025,64.5337 C286.689053,64.5569276 286.637021,64.6056946 286.598008,64.6714714 L286.598008,64.6714714 L286.598008,64.6714714 Z M347.794025,53.0044 C350.600985,51.6694 353.407946,50.3334 356.214906,48.9984 C356.583537,48.8234 357.199578,48.6654 357.503624,48.3854 C357.73613,48.1724 357.862319,47.6964 357.999438,47.4104 C358.681057,45.9834 359.362676,44.5554 360.044296,43.1284 C357.225412,44.4674 354.407522,45.8074 351.588638,47.1464 C351.192186,47.3354 350.5364,47.5044 350.207514,47.8034 C350.123886,47.8796039 350.057396,47.9834048 350.000139,48.0981278 C350.68052,46.1246233 350.116653,43.4350235 349.031174,41.7593 C347.741462,39.7703 345.145148,38.6613 342.865797,39.4323 C339.844215,40.4543 337.754644,43.3813 336.316884,46.0923 C334.994384,48.5873 334.035546,51.2883 332.96741,53.9013 C334.4628,50.2443 337.344282,44.8053 341.819521,44.4833 C343.535493,44.3593 345.323999,45.2313 346.38816,46.5743 C347.807008,48.3652582 348.021652,50.805186 347.79414,53.0041459 L347.794025,53.0044 L347.794025,53.0044 Z M311.879276,31.774559 C311.913101,31.6692028 311.946907,31.5638514 311.980686,31.4585 C312.281751,30.5215 312.583809,29.5835 312.884875,28.6455 C311.930011,28.4085 310.975148,28.1705 310.021278,27.9335 C309.372448,27.7725 308.724611,27.6115 308.075781,27.4495 C307.895937,27.4055 307.16563,27.0985 306.999697,27.1825 C306.634047,27.3665 306.323045,29.3045 306.199837,29.7135 L305.31552,32.6325 C306.254486,32.8665 307.193452,33.1005 308.131424,33.3345 C308.781247,33.4955 309.431071,33.6575 310.080895,33.8195 C310.215033,33.8525 310.983097,34.1565 311.117235,34.0775 C311.127636,34.071435 311.137784,34.062257 311.147675,34.0504429 L311.137306,34.0827 C312.085214,34.3277 312.558174,35.5967 312.735038,36.4567 C312.981454,37.6517 312.791674,38.9217 312.512468,40.0937 L314.284082,34.7467 C314.556333,33.6027 314.738164,32.3777 314.534473,31.2077 C314.376488,30.2967 313.892598,28.9057 312.885073,28.6457 L311.879276,31.774559 L311.879276,31.774559 L311.879276,31.774559 Z M140.21593,64.8801815 L139.752415,62.0113 C138.964479,57.1283 138.167601,52.2693 137.205782,47.4183 L137.667813,50.2803 C138.445583,55.0971883 139.225285,59.8926945 140.17543,64.6773586 L139.220037,59.8927 C138.138985,60.0717 137.057932,60.2507 135.975886,60.4297 L113.278753,64.1887 C113.626518,65.4057 113.975277,66.6217 114.324036,67.8387 C114.372723,68.0087 114.515803,69.0147 114.690679,69.1157 C114.75129,69.1507 114.944051,69.0587 115.01261,69.0627 C115.614741,69.0957 116.365913,68.8377 116.957114,68.7397 C117.996434,68.5677 119.034761,68.3957 120.073088,68.2227 C122.923768,67.7507 125.773454,67.2777 128.624133,66.8057 C132.4883,66.1647 136.352466,65.5237 140.216632,64.8837 L140.21593,64.8801815 L140.21593,64.8801815 L140.21593,64.8801815 Z M155.477681,63.0691532 C155.374661,61.9566355 155.27066,60.8441177 155.167647,59.7316 C154.61321,53.7786 154.097524,47.8566 153.231092,41.9426 C153.333435,43.0426 153.435777,44.1426 153.538119,45.2436 C154.081622,51.0939037 154.574519,56.9182619 155.426772,62.7289205 C155.194001,61.1729392 154.96203,59.6177022 154.730059,58.0616 C151.37363,58.3896 148.0172,58.7186 144.659777,59.0466 C144.914143,60.4416 145.167514,61.8366 145.420886,63.2316 C145.465599,63.4756 145.467586,63.9456 145.649417,64.0426 C145.899808,64.1756 146.783131,63.9316 147.046439,63.9056 L155.479244,63.0796 C155.478723,63.0761177 155.478202,63.0726355 155.477681,63.0691532 L155.477681,63.0691532 L155.477681,63.0691532 Z M157.071995,42.1764272 C157.045128,41.9773181 157.01827,41.7782091 156.991426,41.5791 C156.991262,41.5791158 156.991099,41.5791315 156.990935,41.5791473 C159.461054,46.0751 161.93118,50.5711 164.401305,55.0661 C164.757019,55.7131 165.111739,56.3601 165.467453,57.0071 L165.526897,57.5254543 C165.507136,57.3525988 165.487417,57.1797723 165.467751,57.007 C169.24746,56.638 173.028163,56.27 176.808865,55.901 C176.928099,57.413 177.254998,59.045 177.174515,60.557 C177.148682,61.046 177.282819,60.894 176.817808,60.989 C176.191831,61.116 175.512199,61.116 174.877279,61.178 C172.906942,61.371 170.937598,61.563 168.968255,61.755 C168.449588,61.806 166.372934,62.292 166.035105,61.956 C166.035059,61.9559545 166.035014,61.9559088 166.034968,61.9558631 L166.044743,62.0411 C164.606983,59.4201 163.168229,56.8001 161.730469,54.1801 C160.780574,52.4501 159.831672,50.7211 158.881777,48.9911 C158.505509,48.3046682 157.935806,47.5543421 157.696988,46.8049608 C157.550375,45.7175828 157.403386,44.6302049 157.256494,43.542827 C157.195113,43.0871651 157.133672,42.6317575 157.071995,42.1764272 L157.071995,42.1764272 L157.071995,42.1764272 Z M165.917048,60.9275926 C165.916396,60.9188484 165.915677,60.9109583 165.914878,60.904 C165.887375,60.6672334 165.860052,60.4302855 165.832833,60.1932334 L165.917048,60.9275926 L165.917048,60.9275926 L165.917048,60.9275926 Z M165.806345,59.9622551 C165.778545,59.7195586 165.750828,59.4767793 165.72311,59.234 C165.696418,59.0022271 165.669727,58.7703566 165.643065,58.5384494 L165.806345,59.9622551 L165.806345,59.9622551 L165.806345,59.9622551 Z M120.29566,45.9959092 C120.321106,46.0461823 120.351163,46.0843281 120.387342,46.1032 C120.553276,46.1912 121.201112,45.9692 121.377976,45.9402 C122.863429,45.6942 124.348882,45.4492 125.833342,45.2042 C128.314397,44.7942 130.795452,44.3842 133.276507,43.9752 C132.913838,42.2112 132.551169,40.4482 132.1885,38.6852 C127.801692,39.4092 123.415879,40.1322 119.029071,40.8562 C119.420613,43.344368 119.813062,45.832184 120.204517,48.32 C120.515518,50.297 121.114668,52.236 121.597564,54.176 C121.20608,51.694 120.81559,49.212 120.424106,46.73 C120.385489,46.484803 120.342412,46.2401269 120.29566,45.9959092 L120.29566,45.9959092 L120.29566,45.9959092 Z M116.06858,22.1081787 C116.06842,22.1075192 116.06826,22.1068596 116.0681,22.1062 C121.184221,21.2662 126.301335,20.4252 131.417455,19.5852 C131.746959,21.2577247 132.075655,22.9310615 132.405,24.6037468 C131.485084,19.8701772 130.701472,15.1329622 129.936274,10.3698 C129.773321,9.3588 129.611362,8.3488 129.448409,7.3378 C130.411222,12.2618 131.231947,17.1868 132.028826,22.1418 C132.188612,23.1384433 132.349377,24.1350867 132.509178,25.1327082 C132.510589,25.1398721 132.512,25.1470361 132.513412,25.1542 C132.512666,25.1544846 132.512691,25.1546423 132.512716,25.1548 C129.734741,25.6112864 126.957851,26.0682432 124.179968,26.5252 C122.438162,26.8112 120.695362,27.0982 118.953557,27.3842 C118.617715,27.4402 117.923178,27.7012 117.589324,27.6092 C117.458838,27.5730045 117.405806,27.5579121 117.376316,27.5105623 C117.399826,27.6320877 117.422565,27.7536985 117.444455,27.8754 C117.856805,30.1664 118.171781,32.4784 118.53445,34.7784 C118.070432,32.8754 117.496123,30.9694 117.162269,29.0404 C116.763931,26.7359916 116.433125,24.4175904 116.06858,22.1081787 L116.06858,22.1081787 L116.06858,22.1081787 Z M150.738077,22.7206733 C150.774916,22.8325847 150.817986,22.9134709 150.868648,22.9498 C151.019678,23.0578 151.829473,22.8548 152.002362,22.8378 C152.672058,22.7728 153.340761,22.7068 154.010457,22.6418 C154.935512,22.5508 155.860567,22.4598 156.785622,22.3688 C156.550135,20.4988 156.315642,18.6288 156.080156,16.7588 C154.06908,16.9558 152.058005,17.1528 150.047923,17.3498 C150.19001,18.3478 150.33309,19.3468 150.475177,20.3458 C150.488621,20.4390918 150.499938,20.6219817 150.513633,20.8497243 C150.368736,19.6829346 150.214195,18.5163296 150.047426,17.3495 C150.561125,22.8895 151.067868,28.3915 151.862759,33.8955 C151.516104,30.1576578 151.168996,26.4371203 150.738077,22.7206733 L150.738077,22.7206733 L150.738077,22.7206733 Z M71.8330292,53.3444106 C72.1005845,54.0092647 72.368437,54.673999 72.6366208,55.3386 C72.0752287,53.9306 71.5148302,52.5226 70.9534381,51.1146 C67.7142553,42.9806 64.4850087,34.8416 61.2110494,26.7216 C61.7644925,28.1106 62.3179357,29.4996 62.8713789,30.8896 C65.7116354,38.0210048 68.5420091,45.1562351 71.4043921,52.2785602 C71.1242894,51.5855253 70.8430375,50.8945423 70.5648355,50.2051 C72.2480182,54.4261 73.5466722,58.9641 73.7116122,63.5331 C73.8566799,67.5081 73.036948,71.6251 70.5757653,74.8281 C68.3262224,77.7551 64.5842707,79.5991 60.950623,79.9341 C52.7443621,80.6891 46.7975802,73.2071 43.4282339,66.6511 C44.2658508,68.2811 45.1034677,69.9111 45.9410846,71.5411 C48.4002801,76.3261 51.8004284,81.1351 56.8152001,83.4311 C61.0042782,85.3501 65.6255786,84.8751 69.5125979,82.4311 C73.8069992,79.7321 75.6561155,74.7471 75.7524961,69.8281 C75.866871,64.0500809 73.9452789,58.6303849 71.8330292,53.3444106 L71.8330292,53.3444106 L71.8330292,53.3444106 Z M31.5218857,80.0349825 C31.3122644,79.6640278 31.1096349,79.2727764 30.8522822,78.9366 C30.1527777,78.0226 29.06477,77.7316 27.9638453,77.6916 C25.6258707,77.6066 23.2561005,78.2216 20.9270684,78.4016 C18.0883122,78.6216 15.1174053,78.5496 12.4584933,77.4196 C9.69922624,76.2476 7.61561694,74.0616 6,71.5756 C7.04329507,73.1816 8.08758376,74.7866 9.13087883,76.3926 C10.557709,78.5886 12.3571446,80.5836 14.7100234,81.7836 C17.0489916,82.9746 19.6641846,83.2696 22.2545372,83.2026 C24.5537608,83.1426 26.7993293,82.7146 29.0816615,82.4976 C30.7827292,82.3356 32.8305684,82.2776 33.8112658,83.9746 C33.0749975,82.7086 32.3387293,81.4426 31.6024611,80.1756 C31.5935848,80.1603652 31.5847345,80.1450782 31.5759056,80.1297445 C32.3258613,81.4195297 33.0758169,82.7093148 33.8257726,83.9991 C33.0805741,82.7070836 32.2639902,81.3076494 31.5218857,80.0349825 L31.5218857,80.0349825 L31.5218857,80.0349825 Z M94.4066908,70.8246024 C94.0737837,69.8402195 93.7618536,68.8491714 93.4967593,67.8405 C92.5438831,64.2115 91.591007,60.5825 90.6381308,56.9525 C90.3579316,55.8825 90.0767387,54.8125 89.7955458,53.7425 C89.8250869,53.8274455 89.8547251,53.9123532 89.8844421,53.9972295 C89.8549165,53.9122868 89.8253843,53.8273434 89.7958439,53.7424 L95.6124623,52.1684 C96.0044466,53.3631415 96.3959412,54.5578831 96.7876335,55.7522787 L95.6129592,52.1684 C101.566696,50.5594 103.543989,43.7234 103.555912,38.2074 C103.598386,38.3535703 103.642633,38.5001637 103.688176,38.6471559 C103.464252,37.7279657 103.533553,36.7891792 103.446118,35.839 C103.300057,34.245 103.012902,32.659 102.570744,31.122 C103.744202,35.208 105.089556,39.21 105.098499,43.519 C105.042062,43.3244359 104.985609,43.1298874 104.929145,42.9353524 C105.040397,43.5666972 105.095754,44.2009504 105.061238,44.8364 C104.787008,49.9022567 102.66476,55.8180654 97.286662,57.2732766 C96.3954305,57.5154 95.505152,57.7564 94.6148735,57.9974 C93.9829348,58.1684 93.3509961,58.3394 92.720051,58.5114 C92.5332515,58.5614 91.7751237,58.9004 91.5952795,58.8154 C91.566021,58.8015133 91.5368597,58.7768773 91.5079058,58.7431618 C91.6550642,59.2228902 91.7941132,59.7053027 91.9218805,60.1915 C92.8697886,63.7995 93.8167031,67.4065 94.7646112,71.0145 C95.0497785,72.0995 95.3349459,73.1855 95.6201132,74.2705 C95.5791362,74.1541882 95.5380295,74.0379624 95.4968358,73.9218046 C95.5377344,74.0380744 95.5786283,74.1543398 95.619517,74.2706 C92.8761478,75.0146 90.1327785,75.7596 87.3894093,76.5046 C87.1280887,76.5756 86.3023952,76.9626 86.0261704,76.8746 C85.8264539,76.8106 85.7340478,76.3426 85.6436289,76.1096 C85.1239686,74.7686 84.6033147,73.4276 84.0836543,72.0866 C87.3596009,71.1986 90.636541,70.3096 93.9124875,69.4216 C94.07723,69.8891999 94.2419724,70.3568835 94.4066908,70.8246024 L94.4066908,70.8246024 L94.4066908,70.8246024 Z M26.0826609,62.1169761 C26.1560181,62.2476841 26.2293858,62.378392 26.3027672,62.5091 C26.1149741,61.4701 25.9281746,60.4321 25.7413751,59.3931 C25.2147594,56.4741 24.8510966,53.4671 24.1535793,50.5841 C23.9677734,49.8151 23.4769279,49.1351 23.0973673,48.4411 C22.4843072,47.3181 21.8712471,46.1961 21.2581871,45.0741 C21.443993,46.1091 21.6307925,47.1441 21.8165984,48.1791 C22.3501693,51.1511 22.7823915,54.1631 23.4222792,57.1131 C23.4713649,57.3396228 23.5477687,57.5548942 23.6408717,57.7634786 C23.4888502,57.5556026 23.299644,57.4590747 22.8139884,57.385 C21.506392,57.185 20.1809104,57.078 18.8584097,57.078 C16.4826778,57.078 12.07103,57.202 10.9571883,59.914 C10.4365344,61.182 11.5672676,62.546 12.1952318,63.578 L14.299707,67.036 C12.805311,64.581 15.5586164,62.98 17.6332832,62.477 C20.3915566,61.808 23.5323716,62.011 26.3025684,62.509 L26.0826609,62.1169761 L26.0826609,62.1169761 L26.0826609,62.1169761 Z M85.5974258,35.1468 C85.9153824,35.3568 87.4316379,34.7128 87.8340517,34.6048 C88.6994898,34.3708 90.5659216,34.1378 91.4313597,33.9048 C90.8391655,32.0908 90.247965,30.2778 89.6557708,28.4648 C88.024256,28.9038 85.3937349,29.3428 83.7622201,29.7818 C84.5610471,32.8232976 86.8208632,39.7888 86.0249781,36.7588 C85.8788906,36.2024016 85.7203064,35.6502507 85.5528944,35.1010387 C85.5674903,35.1213128 85.5823474,35.1368991 85.5974258,35.1468 L85.5974258,35.1468 Z M86.2531494,35.1473316 C86.2471862,35.1256237 86.2417083,35.1072159 86.2367438,35.0928 C86.2286329,35.0690674 86.2205219,35.0453332 86.2124109,35.0215974 C86.2260288,35.0634964 86.2396088,35.1054075 86.2531494,35.1473316 L86.2531494,35.1473316 L86.2531494,35.1473316 Z M93.5052315,33.189 C94.0775534,34.984 94.6488817,36.779 95.2212035,38.574 C94.7412878,37.068 93.4774103,34.346 91.4315584,34.904 L89.6559695,29.465 C91.7326235,28.899 93.0183605,31.66 93.5052315,33.189 L93.5052315,33.189 L93.5052315,33.189 Z M41.9486693,34.7546 C45.7075124,42.7056 48.7430042,50.9506 51.9613211,59.1376 C52.5117835,60.5376 53.0612522,61.9376 53.6117146,63.3376 C49.8071652,55.3886 46.8014818,47.1016 43.5772032,38.8986 C43.0346898,37.5166 42.4911827,36.1356 41.9486693,34.7546 L41.9486693,34.7546 L41.9486693,34.7546 Z M54.5518725,65.5054 C53.414184,63.1294 52.1731597,60.7784 51.211341,58.3234 C52.3520103,60.7044 53.4121968,63.1264 54.5518725,65.5054 L54.5518725,65.5054 L54.5518725,65.5054 Z M40.5446922,73.6418 C43.4112696,78.9608 47.1194384,84.7438 45.1669862,91.0488 C42.4653487,99.7758 31.4580889,102.6038 23.3988829,101.7538 C22.6804997,101.6778 22.1250693,101.7518 21.6839045,101.2278 C21.3093119,100.7838 21.0171893,100.2228 20.6962518,99.7398 C20.1149874,98.8628 19.533723,97.9858 18.9524586,97.1098 C25.3940605,98.2498 33.3469498,96.9538 38.4253128,92.6098 C41.0564036,90.3588 42.8578264,87.3168 43.1111981,83.8048 C43.3705314,80.2168 42.2248941,76.7598 40.5446922,73.6418 L40.5446922,73.6418 L40.5446922,73.6418 Z M159.330368,21.6845 C159.548963,23.5305 159.766564,25.3765 159.985159,27.2235 C159.840092,25.9955 159.546975,24.7195 158.80872,23.7065 C158.361594,23.0935 157.628306,22.2865 156.785721,22.3695 L156.080255,16.7585 C158.25627,16.5455 159.146549,20.1305 159.330368,21.6845 L159.330368,21.6845 L159.330368,21.6845 Z M170.523162,20.2582 C171.146158,27.2652 172.027494,34.8772 167.260132,40.7612 C167.15779,39.7772 167.055448,38.7932 166.952112,37.8082 C166.890508,37.2162 166.828903,36.6242 166.767299,36.0312 C166.695759,35.3452 166.780216,35.3792 167.242247,34.7312 C170.171422,30.6222 170.962339,25.1962 170.523162,20.2582 L170.523162,20.2582 L170.523162,20.2582 Z M131.346438,28.1917 C132.292359,32.8247 133.070359,37.4537 133.819544,42.1247 C133.971567,43.0747 134.124584,44.0247 134.276607,44.9747 C133.322737,40.3377 132.550699,35.7037 131.80052,31.0277 C131.64949,30.0827 131.497467,29.1367 131.346438,28.1917 L131.346438,28.1917 L131.346438,28.1917 Z M312.9545,36.9025 C312.365287,38.6795 311.777067,40.4565 311.187854,42.2325 C311.902263,40.0785 312.569972,37.9035 313.28438,35.7465 C313.188993,36.1355 313.080689,36.5225 312.9545,36.9025 L312.9545,36.9025 L312.9545,36.9025 Z M322.328159,41.2417 C320.231633,47.0007 318.322899,53.2297 312.794429,56.6317 C313.083571,55.8097 313.371719,54.9887 313.660861,54.1677 C313.925162,53.4147 314.105007,52.1797 314.584922,51.5387 C314.757811,51.3077 315.232759,51.1027 315.480169,50.9247 C315.971014,50.5697 316.440994,50.1837 316.886133,49.7727 C317.703878,49.0187 318.442133,48.1817 319.107855,47.2897 C320.478049,45.4557 321.544197,43.3937 322.328159,41.2417 L322.328159,41.2417 L322.328159,41.2417 Z M382.852786,64.3374 C381.887987,65.9794 380.923187,67.6204 379.958388,69.2624 C382.980963,63.6464 385.891259,57.9534 389.035055,52.4064 C389.999854,50.7044 391.012347,49.0284 392,47.3404 C389.331152,52.2994 386.66131,57.2594 383.992462,62.2194 C383.612901,62.9254 383.232347,63.6314 382.852786,64.3374 L382.852786,64.3374 L382.852786,64.3374 Z M318.150607,73.4111 C317.597164,74.8381 317.04372,76.2651 316.490277,77.6921 C316.294535,78.1941 316.417743,78.1311 316.020298,78.1481 C315.497656,78.1701 314.783248,77.8371 314.279485,77.7101 L305.330994,75.4601 C305.839725,73.9971 306.246113,72.4411 306.87209,71.0271 C307.080749,70.5571 306.889975,70.6991 307.281459,70.6811 C307.820992,70.6561 308.569183,71.0041 309.090831,71.1351 C312.110425,71.8941 315.131013,72.6521 318.150607,73.4111 L318.150607,73.4111 L318.150607,73.4111 Z M322.318819,50.7299 C322.968643,48.9959 323.61946,47.2609 324.269284,45.5269 C321.668995,52.4689 320.778717,60.6879 323.050119,67.8479 C324.126203,71.2379 326.041892,74.5719 329.102224,76.4999 C332.111882,78.3959 335.842904,78.7759 339.271867,78.0349 C343.405303,77.1409 347.063791,74.6159 349.482248,71.1399 C348.701267,72.7329 348.015673,74.4289 347.119433,75.9589 C344.922552,79.7099 340.352919,82.2619 336.179739,82.9209 C331.772066,83.6159 327.187529,82.2989 324.281207,78.7819 C321.271549,75.1389 320.118957,70.2109 319.917253,65.5759 C319.697664,60.5369 320.552173,55.4429 322.318819,50.7299 L322.318819,50.7299 L322.318819,50.7299 Z M248.904556,15.8016 C248.706827,17.3156 248.510091,18.8306 248.312362,20.3446 C248.285534,20.5556 248.292489,21.2976 248.132518,21.4086 C247.980495,21.5126 247.254162,21.3426 247.082267,21.3296 C243.478428,21.0606 239.875582,20.7906 236.271743,20.5216 C235.164857,20.4386 234.05797,20.3556 232.95009,20.2726 L233.350517,15.6396 C233.369395,15.4186 233.329651,14.7546 233.488629,14.6506 C233.663505,14.5356 234.417659,14.7196 234.619362,14.7346 C238.261953,15.0066 241.904543,15.2786 245.546139,15.5506 C246.665943,15.6346 247.784752,15.7176 248.904556,15.8016 L248.904556,15.8016 L248.904556,15.8016 Z M245.312938,35.5494 C245.145017,36.8764 244.976103,38.2034 244.808182,39.5294 C244.781354,39.7384 244.803214,40.7554 244.636287,40.8854 C244.549842,40.9514 244.07092,40.8424 243.973546,40.8354 C240.85459,40.5994 237.735635,40.3634 234.617673,40.1284 C233.604187,40.0514 232.591693,39.9754 231.578207,39.8984 C231.69446,38.5684 231.810713,37.2374 231.925972,35.9074 C231.942863,35.7204 231.897157,34.6654 232.046199,34.5484 C232.140593,34.4744 232.675157,34.5954 232.787436,34.6044 C235.940174,34.8424 239.092912,35.0804 242.245651,35.3184 C243.26808,35.3954 244.290509,35.4724 245.312938,35.5494 L245.312938,35.5494 L245.312938,35.5494 Z M246.580989,57.6171 L246.050399,61.4231 C246.023571,61.6191 246.036488,62.5141 245.878503,62.6411 C245.823855,62.6851 245.571477,62.6091 245.501924,62.6131 C244.694115,62.6571 243.816754,62.4851 243.011926,62.4241 C241.626828,62.3191 240.240736,62.2151 238.855637,62.1101 C232.923759,61.6611 226.991882,61.2111 221.060004,60.7621 C220.312806,60.7061 220.138924,60.9041 220.183636,60.1161 L220.434027,55.6401 C228.050081,56.2161 235.665141,56.7921 243.281195,57.3671 L246.580989,57.6171 L246.580989,57.6171 L246.580989,57.6171 Z M207.527546,40.989 C207.496744,42.746 207.465942,44.503 207.434146,46.259 C207.477865,43.9 205.041523,42.878 203.220228,42.086 C200.829592,41.047 198.417096,40.02 196.270889,38.51 C193.779898,36.757 191.915877,34.393 191.103101,31.418 C190.610268,29.613 190.52283,27.763 190.46222,25.903 L190.321126,21.532 C190.405584,24.134 190.887487,26.78 192.239796,29.036 C193.577201,31.265 195.628021,32.9 197.847755,34.179 C199.90255,35.363 202.104399,36.183 204.233715,37.205 C205.830453,37.971 207.563316,38.979 207.527546,40.989 L207.527546,40.989 L207.527546,40.989 Z M218.338766,41.1511 C218.050618,46.8911 218.202641,53.3171 213.820801,57.6761 C207.259966,64.2021 196.164274,60.9661 189.697832,56.0091 C189.13644,55.5791 188.692294,55.3761 188.579022,54.7261 C188.484629,54.1861 188.531329,53.5771 188.508476,53.0301 C188.466744,52.0101 188.425012,50.9901 188.382287,49.9701 C193.387122,54.3251 201.020068,57.3571 207.66536,55.9231 C210.909511,55.2231 213.766153,53.4351 215.59639,50.6131 C217.425634,47.7921 218.171839,44.4781 218.338766,41.1511 L218.338766,41.1511 L218.338766,41.1511 Z" id="Fill-1" fill="url(#linearGradient-4)" sketch:type="MSShapeGroup"></path>
                <path d="M24.0641438,58.122224 C22.6931438,57.878224 21.3471438,57.740224 20.0241438,57.706224 C18.9031438,57.670224 17.7051438,57.726224 16.4321438,57.873224 C15.1581438,58.021224 14.0481438,58.385224 13.1011438,58.965224 C12.3311438,59.436224 11.8241438,59.988224 11.5801438,60.619224 C11.3351438,61.251224 11.4681438,61.982224 11.9771438,62.813224 C12.3521438,63.427224 12.7931438,63.848224 13.3011438,64.079224 C13.8091438,64.309224 14.4141438,64.435224 15.1191438,64.455224 C15.8231438,64.476224 16.6321438,64.418224 17.5451438,64.279224 C18.4581438,64.142224 19.5081438,64.012224 20.6931438,63.887224 C22.5461438,63.656224 24.2981438,63.576224 25.9511438,63.648224 C27.6031438,63.720224 29.1711438,64.039224 30.6571438,64.603224 C32.1431438,65.169224 33.5771438,66.082224 34.9591438,67.342224 C36.3421438,68.603224 37.7031438,70.328224 39.0431438,72.516224 C40.7581438,75.318224 41.8501438,77.885224 42.3211438,80.215224 C42.7911438,82.545224 42.8041438,84.629224 42.3611438,86.465224 C41.9181438,88.302224 41.1331438,89.911224 40.0051438,91.293224 C38.8761438,92.675224 37.5871438,93.811224 36.1371438,94.699224 C34.9821438,95.406224 33.7171438,95.999224 32.3421438,96.480224 C30.9671438,96.961224 29.5341438,97.328224 28.0391438,97.580224 C26.5451438,97.832224 25.0421438,97.970224 23.5301438,97.993224 C22.0171438,98.016224 20.5331438,97.902224 19.0761438,97.649224 L15.9321438,84.136224 C17.5581438,84.465224 19.1611438,84.657224 20.7421438,84.712224 C22.0911438,84.789224 23.5271438,84.723224 25.0481438,84.514224 C26.5681438,84.306224 27.9511438,83.820224 29.1941438,83.059224 C30.1421438,82.479224 30.6871438,81.891224 30.8291438,81.291224 C30.9711438,80.693224 30.8551438,80.087224 30.4801438,79.474224 C30.0781438,78.817224 29.5501438,78.372224 28.8991438,78.139224 C28.2471438,77.906224 27.4891438,77.814224 26.6231438,77.862224 C25.7571438,77.911224 24.7961438,78.018224 23.7371438,78.184224 C22.6791438,78.351224 21.5291438,78.484224 20.2861438,78.581224 C18.4661438,78.734224 16.8041438,78.713224 15.3021438,78.518224 C13.7991438,78.325224 12.4071438,77.913224 11.1261438,77.282224 C9.84514379,76.653224 8.64714379,75.776224 7.53214379,74.653224 C6.41714379,73.530224 5.33614379,72.114224 4.29214379,70.407224 C2.71014379,67.824224 1.63414379,65.352224 1.06514379,62.992224 C0.496143787,60.633224 0.356143787,58.461224 0.648143787,56.476224 C0.939143787,54.493224 1.58114379,52.731224 2.57214379,51.191224 C3.56314379,49.652224 4.84314379,48.401224 6.41314379,47.440224 C7.56714379,46.734224 8.79314379,46.209224 10.0891438,45.867224 C11.3851438,45.525224 12.6991438,45.293224 14.0291438,45.170224 C15.3591438,45.049224 16.6481438,45.011224 17.8981438,45.059224 C19.1481438,45.106224 20.2901438,45.175224 21.3221438,45.265224 L24.0641438,58.122224 L24.0641438,58.122224 Z M60.5289438,67.527424 C61.5559438,67.101424 62.2929438,66.401424 62.7399438,65.430424 C63.1869438,64.458424 63.4099438,63.331424 63.4079438,62.048424 C63.4069438,60.765424 63.2149438,59.365424 62.8329438,57.846424 C62.4499438,56.329424 61.9339438,54.789424 61.2849438,53.224424 L51.1219438,28.759424 L59.9619438,25.087424 L70.1239438,49.552424 C71.4979438,52.859424 72.4949438,56.073424 73.1189438,59.193424 C73.7419438,62.314424 73.8849438,65.176424 73.5489438,67.777424 C73.2119438,70.380424 72.3799438,72.664424 71.0529438,74.630424 C69.7249438,76.596424 67.8229438,78.094424 65.3449438,79.123424 C62.7759438,80.190424 60.3129438,80.466424 57.9559438,79.952424 C55.5989438,79.438424 53.3859438,78.353424 51.3159438,76.698424 C49.2459438,75.043424 47.3509438,72.910424 45.6279438,70.298424 C43.9049438,67.686424 42.3849438,64.795424 41.0669438,61.622424 L30.9049438,37.157424 L39.7449438,33.485424 L49.9069438,57.950424 C50.5569438,59.514424 51.2889438,60.979424 52.1039438,62.342424 C52.9179438,63.707424 53.7799438,64.842424 54.6869438,65.749424 C55.5959438,66.656424 56.5389438,67.286424 57.5189438,67.638424 C58.4979438,67.991424 59.5009438,67.954424 60.5289438,67.527424 L60.5289438,67.527424 Z M84.3060438,72.111124 L69.5910438,19.458124 L84.9380438,15.169124 C86.6760438,14.684124 88.4290438,14.767124 90.1980438,15.418124 C91.9660438,16.071124 93.6150438,17.102124 95.1450438,18.513124 C96.6750438,19.924124 98.0480438,21.646124 99.2650438,23.678124 C100.482044,25.710124 101.401044,27.838124 102.023044,30.062124 C102.672044,32.387124 103.020044,34.728124 103.066044,37.086124 C103.112044,39.446124 102.864044,41.620124 102.321044,43.610124 C101.778044,45.601124 100.921044,47.307124 99.7500438,48.727124 C98.5790438,50.147124 97.1230438,51.100124 95.3850438,51.585124 L89.5670438,53.211124 L94.0860438,69.377124 L84.3060438,72.111124 L84.3060438,72.111124 Z M136.167544,46.661024 L138.367544,59.565024 L112.392544,63.993024 L103.203544,10.101024 L128.716544,5.75102398 L130.916544,18.655024 L115.413544,21.298024 L116.708544,28.889024 L129.952544,26.630024 L131.997544,38.623024 L118.753544,40.881024 L120.202544,49.383024 L136.167544,46.661024 L136.167544,46.661024 Z M143.826544,58.689424 L138.354544,4.29342398 L155.245544,2.59442398 C157.040544,2.41342398 158.753544,2.79642398 160.384544,3.74042398 C162.015544,4.68742398 163.462544,5.98542398 164.728544,7.63742398 C165.993544,9.29042398 167.051544,11.222424 167.901544,13.432424 C168.752544,15.642424 169.293544,17.897424 169.524544,20.195424 C169.843544,23.363424 169.673544,26.359424 169.015544,29.184424 C168.357544,32.011424 167.287544,34.377424 165.804544,36.279424 L176.106544,55.441424 L164.707544,56.588424 L156.031544,40.590424 L152.249544,40.970424 L153.929544,57.672424 L143.826544,58.689424 L143.826544,58.689424 Z M212.865344,18.402424 C211.831344,17.469424 210.761344,16.640424 209.656344,15.912424 C208.723344,15.288424 207.678344,14.702424 206.519344,14.154424 C205.360344,13.605424 204.226344,13.327424 203.115344,13.318424 C202.213344,13.310424 201.491344,13.510424 200.949344,13.916424 C200.407344,14.323424 200.134344,15.014424 200.126344,15.988424 C200.120344,16.708424 200.271344,17.298424 200.580344,17.763424 C200.888344,18.228424 201.336344,18.655424 201.924344,19.045424 C202.510344,19.434424 203.227344,19.813424 204.075344,20.178424 C204.923344,20.545424 205.883344,20.990424 206.955344,21.511424 C208.649344,22.295424 210.178344,23.154424 211.543344,24.089424 C212.906344,25.025424 214.068344,26.125424 215.031344,27.390424 C215.992344,28.657424 216.726344,30.190424 217.232344,31.990424 C217.739344,33.792424 217.981344,35.975424 217.961344,38.541424 C217.933344,41.827424 217.503344,44.582424 216.670344,46.808424 C215.835344,49.035424 214.744344,50.810424 213.397344,52.133424 C212.050344,53.458424 210.531344,54.408424 208.844344,54.984424 C207.154344,55.560424 205.460344,55.842424 203.759344,55.828424 C202.405344,55.817424 201.017344,55.652424 199.596344,55.332424 C198.176344,55.013424 196.764344,54.566424 195.363344,53.989424 C193.961344,53.413424 192.614344,52.735424 191.318344,51.954424 C190.022344,51.173424 188.823344,50.291424 187.720344,49.306424 L192.201344,36.175424 C193.407344,37.315424 194.665344,38.326424 195.978344,39.209424 C197.083344,39.988424 198.336344,40.692424 199.737344,41.319424 C201.137344,41.946424 202.567344,42.266424 204.025344,42.278424 C205.136344,42.287424 205.910344,42.075424 206.348344,41.642424 C206.785344,41.210424 207.008344,40.634424 207.013344,39.915424 C207.019344,39.145424 206.807344,38.489424 206.378344,37.946424 C205.948344,37.404424 205.353344,36.925424 204.594344,36.507424 C203.833344,36.091424 202.960344,35.673424 201.973344,35.254424 C200.987344,34.836424 199.941344,34.340424 198.835344,33.765424 C197.210344,32.932424 195.810344,32.035424 194.638344,31.074424 C193.465344,30.116424 192.501344,29.030424 191.748344,27.817424 C190.994344,26.605424 190.442344,25.227424 190.089344,23.684424 C189.738344,22.141424 189.570344,20.368424 189.586344,18.366424 C189.611344,15.339424 190.005344,12.672424 190.771344,10.368424 C191.535344,8.06442398 192.567344,6.14842398 193.865344,4.61842398 C195.160344,3.08942398 196.637344,1.93342398 198.294344,1.15142398 C199.948344,0.368423982 201.696344,-0.0145760184 203.536344,0.000423981592 C204.890344,0.0104239816 206.208344,0.214423982 207.489344,0.609423982 C208.770344,1.00542398 210.008344,1.50342398 211.201344,2.10342398 C212.393344,2.70342398 213.508344,3.35342398 214.544344,4.05542398 C215.580344,4.75642398 216.511344,5.41842398 217.340344,6.04142398 L212.865344,18.402424 L212.865344,18.402424 Z M247.247444,44.169524 L246.232444,57.220524 L219.962444,55.177524 L224.199444,0.672523982 L250.003444,2.67852398 L248.988444,15.729524 L233.309444,14.509524 L232.712444,22.186524 L246.106444,23.228524 L245.164444,35.357524 L231.768444,34.316524 L231.101444,42.914524 L247.247444,44.169524 L247.247444,44.169524 Z M248.089444,57.351424 L270.354444,5.54942398 L278.478444,6.84942398 L283.415444,63.004424 L272.822444,61.309424 L272.302444,50.386424 L262.584444,48.831424 L258.732444,59.054424 L248.089444,57.351424 L248.089444,57.351424 Z M286.376544,64.321024 L300.071544,11.394024 L316.506544,15.647024 C318.254544,16.099024 319.728544,17.051024 320.931544,18.502024 C322.133544,19.954024 323.043544,21.673024 323.658544,23.661024 C324.272544,25.650024 324.596544,27.829024 324.629544,30.196024 C324.662544,32.565024 324.389544,34.866024 323.810544,37.103024 C323.012544,40.185024 321.816544,42.937024 320.221544,45.360024 C318.626544,47.785024 316.802544,49.633024 314.753544,50.904024 L317.784544,72.448024 L306.693544,69.578024 L304.091544,51.566024 L300.412544,50.614024 L296.207544,66.865024 L286.376544,64.321024 L286.376544,64.321024 Z M324.486444,45.130024 C325.669444,42.010024 327.206444,39.080024 329.099444,36.338024 C330.992444,33.598024 333.116444,31.301024 335.470444,29.448024 C337.824444,27.596024 340.314444,26.317024 342.940444,25.610024 C345.565444,24.904024 348.193444,25.048024 350.823444,26.045024 C353.906444,27.214024 356.214444,29.255024 357.746444,32.169024 C359.277444,35.084024 359.958444,38.430024 359.789444,42.207024 L349.640444,47.089024 C349.821444,45.731024 349.830444,44.554024 349.670444,43.559024 C349.507444,42.565024 349.242444,41.723024 348.872444,41.034024 C348.502444,40.345024 348.045444,39.787024 347.502444,39.361024 C346.957444,38.936024 346.425444,38.624024 345.906444,38.427024 C344.705444,37.972024 343.524444,37.977024 342.364444,38.443024 C341.203444,38.909024 340.097444,39.671024 339.048444,40.727024 C337.997444,41.784024 337.037444,43.067024 336.169444,44.577024 C335.299444,46.087024 334.564444,47.633024 333.964444,49.217024 C333.291444,50.993024 332.799444,52.756024 332.489444,54.505024 C332.178444,56.254024 332.087444,57.866024 332.215444,59.341024 C332.341444,60.818024 332.694444,62.090024 333.273444,63.160024 C333.850444,64.231024 334.692444,64.974024 335.796444,65.393024 C336.347444,65.602024 336.957444,65.709024 337.623444,65.714024 C338.290444,65.720024 338.986444,65.572024 339.713444,65.272024 C340.439444,64.970024 341.172444,64.507024 341.910444,63.881024 C342.649444,63.255024 343.366444,62.415024 344.062444,61.362024 L349.212444,71.137024 C348.015444,72.824024 346.639444,74.225024 345.086444,75.337024 C343.531444,76.450024 341.930444,77.270024 340.283444,77.798024 C338.634444,78.326024 336.996444,78.584024 335.368444,78.570024 C333.739444,78.556024 332.243444,78.292024 330.880444,77.775024 C328.477444,76.864024 326.556444,75.272024 325.117444,72.997024 C323.676444,70.721024 322.708444,68.063024 322.210444,65.019024 C321.711444,61.976024 321.657444,58.715024 322.047444,55.240024 C322.435444,51.764024 323.249444,48.395024 324.486444,45.130024 L324.486444,45.130024 Z M401.678844,51.565024 L374.822844,99.184024 L365.977844,94.195024 L376.492844,75.550024 L365.697844,69.462024 L355.181844,88.107024 L346.336844,83.119024 L373.193844,35.500024 L382.037844,40.488024 L372.127844,58.060024 L382.923844,64.148024 L392.833844,46.577024 L401.678844,51.565024 L401.678844,51.565024 Z M150.939544,27.946424 L157.312544,27.305424 C157.934544,27.242424 158.460544,26.675424 158.894544,25.598424 C159.326544,24.523424 159.450544,23.066424 159.265544,21.227424 C159.075544,19.338424 158.619544,17.925424 157.897544,16.992424 C157.175544,16.059424 156.503544,15.623424 155.881544,15.686424 L149.767544,16.301424 L150.939544,27.946424 L150.939544,27.946424 Z M86.0440438,40.604124 L91.2100438,39.161124 C91.8120438,38.992124 92.2570438,38.428124 92.5480438,37.467124 C92.8380438,36.507124 92.6870438,34.964124 92.0920438,32.837124 C91.4840438,30.663124 90.7690438,29.264124 89.9460438,28.641124 C89.1240438,28.019124 88.4110438,27.791124 87.8090438,27.958124 L82.8940438,29.332124 L86.0440438,40.604124 L86.0440438,40.604124 Z M303.691544,37.941024 L309.892544,39.546024 C310.497544,39.702024 311.188544,39.352024 311.966544,38.492024 C312.745544,37.633024 313.365544,36.309024 313.828544,34.520024 C314.303544,32.682024 314.365544,31.199024 314.010544,30.073024 C313.656544,28.947024 313.176544,28.306024 312.572544,28.150024 L306.623544,26.610024 L303.691544,37.941024 L303.691544,37.941024 Z M271.946444,21.633424 L265.656444,39.186424 L272.290444,40.247424 L271.946444,21.633424 L271.946444,21.633424 Z" id="Fill-1" fill="url(#linearGradient-5)" sketch:type="MSShapeGroup"></path>
                <path d="M24.5639,58.9385 C23.1929,58.6945 21.8469,58.5565 20.5239,58.5225 C19.4029,58.4865 18.2049,58.5425 16.9319,58.6895 C15.6579,58.8375 14.5479,59.2015 13.6009,59.7815 C12.8309,60.2525 12.3239,60.8045 12.0799,61.4355 C11.8349,62.0675 11.9679,62.7985 12.4769,63.6295 C12.8519,64.2435 13.2929,64.6645 13.8009,64.8955 C14.3089,65.1255 14.9139,65.2515 15.6189,65.2715 C16.3229,65.2925 17.1319,65.2345 18.0449,65.0955 C18.9579,64.9585 20.0079,64.8285 21.1929,64.7035 C23.0459,64.4725 24.7979,64.3925 26.4509,64.4645 C28.1029,64.5365 29.6709,64.8555 31.1569,65.4195 C32.6429,65.9855 34.0769,66.8985 35.4589,68.1585 C36.8419,69.4195 38.2029,71.1445 39.5429,73.3325 C41.2579,76.1345 42.3499,78.7015 42.8209,81.0315 C43.2909,83.3615 43.3039,85.4455 42.8609,87.2815 C42.4179,89.1185 41.6329,90.7275 40.5049,92.1095 C39.3759,93.4915 38.0869,94.6275 36.6369,95.5155 C35.4819,96.2225 34.2169,96.8155 32.8419,97.2965 C31.4669,97.7775 30.0339,98.1445 28.5389,98.3965 C27.0449,98.6485 25.5419,98.7865 24.0299,98.8095 C22.5169,98.8325 21.0329,98.7185 19.5759,98.4655 L16.4319,84.9525 C18.0579,85.2815 19.6609,85.4735 21.2419,85.5285 C22.5909,85.6055 24.0269,85.5395 25.5479,85.3305 C27.0679,85.1225 28.4509,84.6365 29.6939,83.8755 C30.6419,83.2955 31.1869,82.7075 31.3289,82.1075 C31.4709,81.5095 31.3549,80.9035 30.9799,80.2905 C30.5779,79.6335 30.0499,79.1885 29.3989,78.9555 C28.7469,78.7225 27.9889,78.6305 27.1229,78.6785 C26.2569,78.7275 25.2959,78.8345 24.2369,79.0005 C23.1789,79.1675 22.0289,79.3005 20.7859,79.3975 C18.9659,79.5505 17.3039,79.5295 15.8019,79.3345 C14.2989,79.1415 12.9069,78.7295 11.6259,78.0985 C10.3449,77.4695 9.1469,76.5925 8.0319,75.4695 C6.9169,74.3465 5.8359,72.9305 4.7919,71.2235 C3.2099,68.6405 2.1339,66.1685 1.5649,63.8085 C0.9959,61.4495 0.8559,59.2775 1.1479,57.2925 C1.4389,55.3095 2.0809,53.5475 3.0719,52.0075 C4.0629,50.4685 5.3429,49.2175 6.9129,48.2565 C8.0669,47.5505 9.2929,47.0255 10.5889,46.6835 C11.8849,46.3415 13.1989,46.1095 14.5289,45.9865 C15.8589,45.8655 17.1479,45.8275 18.3979,45.8755 C19.6479,45.9225 20.7899,45.9915 21.8219,46.0815 L24.5639,58.9385 L24.5639,58.9385 Z M61.0287,68.3437 C62.0557,67.9177 62.7927,67.2177 63.2397,66.2467 C63.6867,65.2747 63.9097,64.1477 63.9077,62.8647 C63.9067,61.5817 63.7147,60.1817 63.3327,58.6627 C62.9497,57.1457 62.4337,55.6057 61.7847,54.0407 L51.6217,29.5757 L60.4617,25.9037 L70.6237,50.3687 C71.9977,53.6757 72.9947,56.8897 73.6187,60.0097 C74.2417,63.1307 74.3847,65.9927 74.0487,68.5937 C73.7117,71.1967 72.8797,73.4807 71.5527,75.4467 C70.2247,77.4127 68.3227,78.9107 65.8447,79.9397 C63.2757,81.0067 60.8127,81.2827 58.4557,80.7687 C56.0987,80.2547 53.8857,79.1697 51.8157,77.5147 C49.7457,75.8597 47.8507,73.7267 46.1277,71.1147 C44.4047,68.5027 42.8847,65.6117 41.5667,62.4387 L31.4047,37.9737 L40.2447,34.3017 L50.4067,58.7667 C51.0567,60.3307 51.7887,61.7957 52.6037,63.1587 C53.4177,64.5237 54.2797,65.6587 55.1867,66.5657 C56.0957,67.4727 57.0387,68.1027 58.0187,68.4547 C58.9977,68.8077 60.0007,68.7707 61.0287,68.3437 L61.0287,68.3437 Z M84.8058,72.9274 L70.0908,20.2744 L85.4378,15.9854 C87.1758,15.5004 88.9288,15.5834 90.6978,16.2344 C92.4658,16.8874 94.1148,17.9184 95.6448,19.3294 C97.1748,20.7404 98.5478,22.4624 99.7648,24.4944 C100.9818,26.5264 101.9008,28.6544 102.5228,30.8784 C103.1718,33.2034 103.5198,35.5444 103.5658,37.9024 C103.6118,40.2624 103.3638,42.4364 102.8208,44.4264 C102.2778,46.4174 101.4208,48.1234 100.2498,49.5434 C99.0788,50.9634 97.6228,51.9164 95.8848,52.4014 L90.0668,54.0274 L94.5858,70.1934 L84.8058,72.9274 L84.8058,72.9274 Z M136.6673,47.4773 L138.8673,60.3813 L112.8923,64.8093 L103.7033,10.9173 L129.2163,6.5673 L131.4163,19.4713 L115.9133,22.1143 L117.2083,29.7053 L130.4523,27.4463 L132.4973,39.4393 L119.2533,41.6973 L120.7023,50.1993 L136.6673,47.4773 L136.6673,47.4773 Z M144.3263,59.5057 L138.8543,5.1097 L155.7453,3.4107 C157.5403,3.2297 159.2533,3.6127 160.8843,4.5567 C162.5153,5.5037 163.9623,6.8017 165.2283,8.4537 C166.4933,10.1067 167.5513,12.0387 168.4013,14.2487 C169.2523,16.4587 169.7933,18.7137 170.0243,21.0117 C170.3433,24.1797 170.1733,27.1757 169.5153,30.0007 C168.8573,32.8277 167.7873,35.1937 166.3043,37.0957 L176.6063,56.2577 L165.2073,57.4047 L156.5313,41.4067 L152.7493,41.7867 L154.4293,58.4887 L144.3263,59.5057 L144.3263,59.5057 Z M213.3651,19.2187 C212.3311,18.2857 211.2611,17.4567 210.1561,16.7287 C209.2231,16.1047 208.1781,15.5187 207.0191,14.9707 C205.8601,14.4217 204.7261,14.1437 203.6151,14.1347 C202.7131,14.1267 201.9911,14.3267 201.4491,14.7327 C200.9071,15.1397 200.6341,15.8307 200.6261,16.8047 C200.6201,17.5247 200.7711,18.1147 201.0801,18.5797 C201.3881,19.0447 201.8361,19.4717 202.4241,19.8617 C203.0101,20.2507 203.7271,20.6297 204.5751,20.9947 C205.4231,21.3617 206.3831,21.8067 207.4551,22.3277 C209.1491,23.1117 210.6781,23.9707 212.0431,24.9057 C213.4061,25.8417 214.5681,26.9417 215.5311,28.2067 C216.4921,29.4737 217.2261,31.0067 217.7321,32.8067 C218.2391,34.6087 218.4811,36.7917 218.4611,39.3577 C218.4331,42.6437 218.0031,45.3987 217.1701,47.6247 C216.3351,49.8517 215.2441,51.6267 213.8971,52.9497 C212.5501,54.2747 211.0311,55.2247 209.3441,55.8007 C207.6541,56.3767 205.9601,56.6587 204.2591,56.6447 C202.9051,56.6337 201.5171,56.4687 200.0961,56.1487 C198.6761,55.8297 197.2641,55.3827 195.8631,54.8057 C194.4611,54.2297 193.1141,53.5517 191.8181,52.7707 C190.5221,51.9897 189.3231,51.1077 188.2201,50.1227 L192.7011,36.9917 C193.9071,38.1317 195.1651,39.1427 196.4781,40.0257 C197.5831,40.8047 198.8361,41.5087 200.2371,42.1357 C201.6371,42.7627 203.0671,43.0827 204.5251,43.0947 C205.6361,43.1037 206.4101,42.8917 206.8481,42.4587 C207.2851,42.0267 207.5081,41.4507 207.5131,40.7317 C207.5191,39.9617 207.3071,39.3057 206.8781,38.7627 C206.4481,38.2207 205.8531,37.7417 205.0941,37.3237 C204.3331,36.9077 203.4601,36.4897 202.4731,36.0707 C201.4871,35.6527 200.4411,35.1567 199.3351,34.5817 C197.7101,33.7487 196.3101,32.8517 195.1381,31.8907 C193.9651,30.9327 193.0011,29.8467 192.2481,28.6337 C191.4941,27.4217 190.9421,26.0437 190.5891,24.5007 C190.2381,22.9577 190.0701,21.1847 190.0861,19.1827 C190.1111,16.1557 190.5051,13.4887 191.2711,11.1847 C192.0351,8.8807 193.0671,6.9647 194.3651,5.4347 C195.6601,3.9057 197.1371,2.7497 198.7941,1.9677 C200.4481,1.1847 202.1961,0.8017 204.0361,0.8167 C205.3901,0.8267 206.7081,1.0307 207.9891,1.4257 C209.2701,1.8217 210.5081,2.3197 211.7011,2.9197 C212.8931,3.5197 214.0081,4.1697 215.0441,4.8717 C216.0801,5.5727 217.0111,6.2347 217.8401,6.8577 L213.3651,19.2187 L213.3651,19.2187 Z M247.7472,44.9858 L246.7322,58.0368 L220.4622,55.9938 L224.6992,1.4888 L250.5032,3.4948 L249.4882,16.5458 L233.8092,15.3258 L233.2122,23.0028 L246.6062,24.0448 L245.6642,36.1738 L232.2682,35.1328 L231.6012,43.7308 L247.7472,44.9858 L247.7472,44.9858 Z M248.5892,58.1677 L270.8542,6.3657 L278.9782,7.6657 L283.9152,63.8207 L273.3222,62.1257 L272.8022,51.2027 L263.0842,49.6477 L259.2322,59.8707 L248.5892,58.1677 L248.5892,58.1677 Z M286.8763,65.1373 L300.5713,12.2103 L317.0063,16.4633 C318.7543,16.9153 320.2283,17.8673 321.4313,19.3183 C322.6333,20.7703 323.5433,22.4893 324.1583,24.4773 C324.7723,26.4663 325.0963,28.6453 325.1293,31.0123 C325.1623,33.3813 324.8893,35.6823 324.3103,37.9193 C323.5123,41.0013 322.3163,43.7533 320.7213,46.1763 C319.1263,48.6013 317.3023,50.4493 315.2533,51.7203 L318.2843,73.2643 L307.1933,70.3943 L304.5913,52.3823 L300.9123,51.4303 L296.7073,67.6813 L286.8763,65.1373 L286.8763,65.1373 Z M324.9862,45.9463 C326.1692,42.8263 327.7062,39.8963 329.5992,37.1543 C331.4922,34.4143 333.6162,32.1173 335.9702,30.2643 C338.3242,28.4123 340.8142,27.1333 343.4402,26.4263 C346.0652,25.7203 348.6932,25.8643 351.3232,26.8613 C354.4062,28.0303 356.7142,30.0713 358.2462,32.9853 C359.7772,35.9003 360.4582,39.2463 360.2892,43.0233 L350.1402,47.9053 C350.3212,46.5473 350.3302,45.3703 350.1702,44.3753 C350.0072,43.3813 349.7422,42.5393 349.3722,41.8503 C349.0022,41.1613 348.5452,40.6033 348.0022,40.1773 C347.4572,39.7523 346.9252,39.4403 346.4062,39.2433 C345.2052,38.7883 344.0242,38.7933 342.8642,39.2593 C341.7032,39.7253 340.5972,40.4873 339.5482,41.5433 C338.4972,42.6003 337.5372,43.8833 336.6692,45.3933 C335.7992,46.9033 335.0642,48.4493 334.4642,50.0333 C333.7912,51.8093 333.2992,53.5723 332.9892,55.3213 C332.6782,57.0703 332.5872,58.6823 332.7152,60.1573 C332.8412,61.6343 333.1942,62.9063 333.7732,63.9763 C334.3502,65.0473 335.1922,65.7903 336.2962,66.2093 C336.8472,66.4183 337.4572,66.5253 338.1232,66.5303 C338.7902,66.5363 339.4862,66.3883 340.2132,66.0883 C340.9392,65.7863 341.6722,65.3233 342.4102,64.6973 C343.1492,64.0713 343.8662,63.2313 344.5622,62.1783 L349.7122,71.9533 C348.5152,73.6403 347.1392,75.0413 345.5862,76.1533 C344.0312,77.2663 342.4302,78.0863 340.7832,78.6143 C339.1342,79.1423 337.4962,79.4003 335.8682,79.3863 C334.2392,79.3723 332.7432,79.1083 331.3802,78.5913 C328.9772,77.6803 327.0562,76.0883 325.6172,73.8133 C324.1762,71.5373 323.2082,68.8793 322.7102,65.8353 C322.2112,62.7923 322.1572,59.5313 322.5472,56.0563 C322.9352,52.5803 323.7492,49.2113 324.9862,45.9463 L324.9862,45.9463 Z M402.1786,52.3813 L375.3226,100.0003 L366.4776,95.0113 L376.9926,76.3663 L366.1976,70.2783 L355.6816,88.9233 L346.8366,83.9353 L373.6936,36.3163 L382.5376,41.3043 L372.6276,58.8763 L383.4236,64.9643 L393.3336,47.3933 L402.1786,52.3813 L402.1786,52.3813 Z M151.4393,28.7627 L157.8123,28.1217 C158.4343,28.0587 158.9603,27.4917 159.3943,26.4147 C159.8263,25.3397 159.9503,23.8827 159.7653,22.0437 C159.5753,20.1547 159.1193,18.7417 158.3973,17.8087 C157.6753,16.8757 157.0033,16.4397 156.3813,16.5027 L150.2673,17.1177 L151.4393,28.7627 L151.4393,28.7627 Z M86.5438,41.4204 L91.7098,39.9774 C92.3118,39.8084 92.7568,39.2444 93.0478,38.2834 C93.3378,37.3234 93.1868,35.7804 92.5918,33.6534 C91.9838,31.4794 91.2688,30.0804 90.4458,29.4574 C89.6238,28.8354 88.9108,28.6074 88.3088,28.7744 L83.3938,30.1484 L86.5438,41.4204 L86.5438,41.4204 Z M304.1913,38.7573 L310.3923,40.3623 C310.9973,40.5183 311.6883,40.1683 312.4663,39.3083 C313.2453,38.4493 313.8653,37.1253 314.3283,35.3363 C314.8033,33.4983 314.8653,32.0153 314.5103,30.8893 C314.1563,29.7633 313.6763,29.1223 313.0723,28.9663 L307.1233,27.4263 L304.1913,38.7573 L304.1913,38.7573 Z M272.4462,22.4497 L266.1562,40.0027 L272.7902,41.0637 L272.4462,22.4497 L272.4462,22.4497 Z" id="Fill-1" fill="url(#linearGradient-6)" sketch:type="MSShapeGroup"></path>
            </g>
        </g>
    </g>
</svg>