<svg width="403" height="153" viewBox="0 0 403 153" xmlns="http://www.w3.org/2000/svg"><title>Group 2</title><defs><linearGradient x1="28.239%" y1="100%" x2="64.551%" y2="70.651%" id="a"><stop stop-color="#144A9D" offset="0%"/><stop stop-color="#396FC7" offset="100%"/></linearGradient><linearGradient x1="50%" y1="0%" x2="50.132%" y2="126.201%" id="b"><stop stop-color="#2270C3" offset="0%"/><stop stop-color="#0F3D90" offset="100%"/></linearGradient><linearGradient x1="50%" y1="0%" x2="50%" y2="100%" id="c"><stop stop-color="#043883" offset="0%"/><stop stop-color="#501C4E" offset="100%"/></linearGradient><linearGradient x1="50%" y1="0%" x2="50%" y2="100%" id="d"><stop stop-color="#F2AEC8" offset="0%"/><stop stop-color="#3D58B3" offset="100%"/></linearGradient><linearGradient x1="50%" y1="0%" x2="50%" y2="100%" id="e"><stop stop-color="#BA2960" offset="0%"/><stop stop-color="#3D58B3" offset="100%"/></linearGradient><linearGradient x1="-37.75%" y1="134.819%" x2="130.239%" y2="-27.593%" id="f"><stop stop-color="#00AEFF" offset="0%"/><stop stop-color="#3369E7" offset="100%"/></linearGradient></defs><g fill-rule="nonzero" fill="none"><path fill="#396FC7" d="M13.355 99.802l86.676-18.424 11.893 52.715-87.342 18.529 18.232-31.479z"/><path fill="#43215E" d="M62.018 122H112v12z"/><path fill="url(#a)" d="M381.581 98.802l-86.676-18.424-10.808 52.75 86.257 18.494-18.232-31.479z"/><path fill="#34266D" d="M284 121v12l51.958-11.014z"/><path d="M156.268 145.12c-.496 0-.956-.128-1.38-.384a2.862 2.862 0 0 1-.996-.984V145h-.54v-8.76h.6v3.876a3.976 3.976 0 0 1 1.044-1.056c.4-.272.864-.408 1.392-.408.44 0 .838.094 1.194.282.356.188.656.436.9.744s.432.656.564 1.044c.132.388.198.782.198 1.182a3.342 3.342 0 0 1-.858 2.25 3.113 3.113 0 0 1-.948.702 2.653 2.653 0 0 1-1.17.264zm-.12-.54c.36 0 .692-.076.996-.228a2.54 2.54 0 0 0 .786-.606 2.87 2.87 0 0 0 .516-.858c.124-.32.186-.648.186-.984a2.986 2.986 0 0 0-.66-1.878 2.398 2.398 0 0 0-.75-.606 2.06 2.06 0 0 0-.966-.228c-.264 0-.514.046-.75.138a2.58 2.58 0 0 0-.648.366c-.196.152-.37.328-.522.528-.152.2-.28.408-.384.624v2.064c.024.232.11.45.258.654.148.204.33.38.546.528.216.148.448.266.696.354.248.088.48.132.696.132zm6.514 2.544c.072 0 .178-.004.318-.012a.761.761 0 0 0 .318-.072.374.374 0 0 0 .114-.114c.044-.06.102-.162.174-.306s.164-.346.276-.606a49.8 49.8 0 0 0 .42-1.014l-2.784-6.24h.636l2.472 5.652 2.316-5.652h.588l-3.42 8.208c-.12.288-.278.478-.474.57a1.671 1.671 0 0 1-.714.138h-.12a.61.61 0 0 1-.12-.012v-.54z" fill="#FFF"/><path fill="url(#b)" d="M62 68h274v54H62z"/><path d="M108.42 99.45c0 .565-.1 1.105-.3 1.619-.201.514-.478.964-.832 1.349a4.12 4.12 0 0 1-1.241.925 3.444 3.444 0 0 1-1.53.347c-.466 0-.94-.069-1.422-.206a3.377 3.377 0 0 1-1.302-.706c-.386-.334-.703-.775-.952-1.324-.249-.548-.374-1.242-.374-2.081V89.3c0-.6.097-1.156.29-1.67.193-.514.466-.96.82-1.336a3.799 3.799 0 0 1 1.264-.887 4.02 4.02 0 0 1 1.627-.321c.563 0 1.085.107 1.567.321.482.214.9.514 1.253.9.354.385.63.848.832 1.387.2.54.3 1.127.3 1.76v1.028h-2.457v-.873c0-.514-.137-.96-.41-1.337a1.299 1.299 0 0 0-1.109-.565c-.61 0-1.016.201-1.217.604-.2.402-.301.912-.301 1.529v9.353c0 .531.108.977.325 1.336.217.36.607.54 1.17.54.16 0 .333-.03.517-.09.185-.06.354-.158.506-.295.153-.138.278-.326.374-.566.096-.24.145-.54.145-.9v-.899h2.458v1.131zm10.212-9.893c0-.736.12-1.387.361-1.953a4.073 4.073 0 0 1 .952-1.4 4.057 4.057 0 0 1 1.326-.835c.49-.189.984-.283 1.482-.283s.992.094 1.482.283c.49.188.932.467 1.326.835.394.368.711.835.952 1.4.241.566.362 1.217.362 1.953v9.662c0 .754-.12 1.409-.362 1.966a4.1 4.1 0 0 1-.952 1.387 4.057 4.057 0 0 1-1.326.835c-.49.189-.984.283-1.482.283s-.992-.094-1.482-.283a4.057 4.057 0 0 1-1.326-.835 4.1 4.1 0 0 1-.952-1.387c-.24-.557-.361-1.212-.361-1.966v-9.662zm2.458 9.662c0 .634.165 1.1.494 1.4.33.3.72.45 1.17.45.45 0 .839-.15 1.168-.45.33-.3.494-.766.494-1.4v-9.662c0-.634-.164-1.1-.494-1.4-.33-.3-.719-.45-1.169-.45-.45 0-.84.15-1.169.45-.33.3-.494.766-.494 1.4v9.662zM137.4 85.24h2.362l3.157 9.688h.048l3.133-9.688h2.386v18.296h-2.458V92.409h-.048l-2.434 7.863h-1.23l-2.41-7.863h-.048v11.127H137.4V85.24zm21.755 0h2.362l3.158 9.688h.048l3.133-9.688h2.386v18.296h-2.458V92.409h-.049l-2.434 7.863h-1.229l-2.41-7.863h-.048v11.127h-2.459V85.24zm21.756 0h7.327v2.467h-4.869v5.37h4.242v2.467h-4.242v5.37h4.869v2.622h-7.327V85.24zm19.73 8.172h1.399c.434 0 .78-.065 1.036-.193.257-.129.454-.313.59-.553.137-.24.23-.535.278-.886a9.08 9.08 0 0 0 .072-1.22c0-.463-.024-.87-.072-1.221a2.296 2.296 0 0 0-.301-.9 1.384 1.384 0 0 0-.64-.552c-.272-.12-.634-.18-1.084-.18h-1.277v5.705zm-2.457-8.172h3.952c2.892 0 4.338 1.79 4.338 5.37 0 1.063-.156 1.975-.47 2.737-.313.763-.863 1.375-1.65 1.838l2.65 8.35h-2.602l-2.29-7.81h-1.47v7.81h-2.458V85.24zm26.43 14.21c0 .565-.1 1.105-.3 1.619-.201.514-.479.964-.832 1.349a4.12 4.12 0 0 1-1.241.925 3.444 3.444 0 0 1-1.53.347c-.467 0-.94-.069-1.423-.206a3.377 3.377 0 0 1-1.301-.706c-.386-.334-.703-.775-.952-1.324-.25-.548-.374-1.242-.374-2.081V89.3c0-.6.097-1.156.29-1.67.192-.514.465-.96.819-1.336a3.799 3.799 0 0 1 1.265-.887 4.02 4.02 0 0 1 1.627-.321c.562 0 1.085.107 1.567.321.482.214.9.514 1.253.9.353.385.63.848.831 1.387.201.54.302 1.127.302 1.76v1.028h-2.459v-.873c0-.514-.136-.96-.41-1.337a1.299 1.299 0 0 0-1.108-.565c-.61 0-1.016.201-1.217.604-.2.402-.301.912-.301 1.529v9.353c0 .531.108.977.325 1.336.217.36.607.54 1.169.54.16 0 .333-.03.518-.09s.354-.158.506-.295c.153-.138.277-.326.374-.566.096-.24.144-.54.144-.9v-.899h2.459v1.131zm10.429-14.21h2.458v18.296h-2.458V85.24zM252 90.508h-.048l-1.205 6.63h2.458l-1.205-6.63zm-1.036-5.268h2.048l3.832 18.296h-2.458l-.723-3.932h-3.35l-.723 3.932h-2.459l3.833-18.296zm15.44 0h2.459v15.675h4.868v2.62h-7.326V85.24zm25.227 5.268h-2.459v-.591c0-.6-.132-1.118-.397-1.555-.265-.437-.711-.655-1.338-.655-.337 0-.615.069-.831.206a1.47 1.47 0 0 0-.507.526c-.12.215-.204.463-.253.746a5.268 5.268 0 0 0-.072.886c0 .36.012.664.036.912.024.249.085.463.181.643.096.18.237.338.422.475.185.137.438.274.759.411l1.88.797c.546.222.988.484 1.325.783.338.3.599.651.784 1.054.184.403.309.865.373 1.388.065.522.097 1.117.097 1.785 0 .771-.073 1.487-.217 2.146-.145.66-.382 1.225-.711 1.696-.33.471-.767.844-1.314 1.118-.546.274-1.213.411-2 .411a4.139 4.139 0 0 1-1.663-.334 4.035 4.035 0 0 1-1.326-.912 4.326 4.326 0 0 1-.88-1.375 4.509 4.509 0 0 1-.325-1.722v-.976h2.459v.822c0 .48.132.912.397 1.298.265.385.711.578 1.338.578.418 0 .743-.064.976-.193.233-.128.41-.308.53-.54a2.33 2.33 0 0 0 .23-.86c.031-.343.047-.72.047-1.13 0-.48-.016-.874-.048-1.183-.032-.308-.1-.557-.205-.745a1.29 1.29 0 0 0-.434-.463 5.577 5.577 0 0 0-.735-.385l-1.759-.77c-1.06-.463-1.771-1.076-2.133-1.838-.362-.762-.542-1.717-.542-2.865 0-.685.088-1.336.265-1.953a4.666 4.666 0 0 1 .783-1.593c.346-.446.783-.801 1.314-1.067.53-.265 1.148-.398 1.855-.398.611 0 1.17.12 1.675.36.507.24.94.557 1.302.95.361.395.639.836.831 1.324.193.488.29.99.29 1.503v1.285z" fill="#FFF"/><path d="M36.564 76.939a26.989 26.989 0 0 0-4.04-.416 24.53 24.53 0 0 0-3.592.166c-1.274.149-2.384.513-3.331 1.093-.77.47-1.277 1.023-1.521 1.654-.245.631-.112 1.362.397 2.193.375.614.816 1.035 1.324 1.266.508.23 1.113.356 1.818.377.704.02 1.513-.038 2.426-.177a73.407 73.407 0 0 1 3.148-.391c1.853-.231 3.605-.311 5.258-.24 1.652.073 3.22.392 4.706.956 1.486.566 2.92 1.478 4.302 2.739 1.383 1.26 2.744 2.985 4.084 5.173 1.715 2.803 2.807 5.37 3.278 7.7.47 2.33.483 4.413.04 6.25-.443 1.837-1.228 3.446-2.356 4.828a15.297 15.297 0 0 1-3.868 3.406c-1.155.706-2.42 1.3-3.795 1.78a26.18 26.18 0 0 1-4.303 1.1c-1.494.252-2.997.39-4.51.413a23.852 23.852 0 0 1-4.453-.343l-3.144-13.513c1.626.328 3.229.52 4.81.575 1.349.078 2.785.011 4.306-.198 1.52-.207 2.903-.694 4.146-1.454.948-.58 1.493-1.169 1.635-1.769.142-.597.026-1.204-.35-1.817-.401-.657-.93-1.102-1.58-1.335-.652-.233-1.41-.325-2.276-.276-.866.049-1.827.156-2.886.322-1.058.166-2.208.3-3.451.396-1.82.153-3.482.132-4.984-.063a13.177 13.177 0 0 1-4.176-1.236c-1.281-.629-2.48-1.505-3.594-2.629-1.115-1.122-2.196-2.538-3.24-4.245-1.582-2.584-2.658-5.056-3.227-7.416-.57-2.359-.71-4.53-.417-6.516.29-1.983.933-3.745 1.924-5.285a11.898 11.898 0 0 1 3.84-3.75 13.72 13.72 0 0 1 3.677-1.574 24.126 24.126 0 0 1 3.94-.697 29.992 29.992 0 0 1 3.869-.11c1.25.047 2.392.116 3.424.206l2.742 12.857zm24.465-.595c1.027-.426 1.764-1.126 2.21-2.097.448-.972.67-2.1.669-3.382-.001-1.283-.193-2.683-.575-4.202a33.45 33.45 0 0 0-1.548-4.622L51.622 37.576l8.84-3.672 10.162 24.465c1.374 3.307 2.37 6.52 2.995 9.64.623 3.122.766 5.984.43 8.585-.337 2.603-1.17 4.887-2.496 6.853-1.328 1.966-3.23 3.464-5.708 4.493-2.57 1.067-5.032 1.343-7.39.829-2.356-.514-4.57-1.6-6.64-3.254-2.07-1.655-3.964-3.788-5.687-6.4-1.723-2.612-3.243-5.503-4.561-8.676L31.405 45.974l8.84-3.672 10.162 24.465a33.885 33.885 0 0 0 2.197 4.392c.814 1.365 1.676 2.5 2.583 3.407.909.907 1.852 1.537 2.832 1.889.979.353 1.982.316 3.01-.111zm23.777 4.583L70.09 28.274l15.347-4.289c1.738-.485 3.49-.402 5.26.25 1.768.652 3.417 1.683 4.947 3.094 1.53 1.411 2.903 3.133 4.12 5.165a26.018 26.018 0 0 1 2.758 6.384 28.064 28.064 0 0 1 1.043 7.024c.046 2.36-.202 4.534-.745 6.524-.543 1.991-1.4 3.697-2.571 5.117-1.171 1.42-2.627 2.373-4.365 2.858l-5.818 1.626 4.519 16.166-9.78 2.734zm51.861-25.45l2.2 12.904-25.975 4.428-9.189-53.892 25.513-4.35 2.2 12.904-15.503 2.643 1.295 7.591 13.244-2.259 2.045 11.993-13.244 2.258 1.45 8.502 15.964-2.722zm7.66 12.029l-5.473-54.396 16.891-1.7c1.795-.18 3.508.203 5.14 1.147 1.63.947 3.077 2.245 4.343 3.897 1.265 1.653 2.323 3.585 3.173 5.795a25.98 25.98 0 0 1 1.623 6.763c.32 3.168.15 6.164-.509 8.989-.658 2.827-1.728 5.193-3.21 7.095l10.301 19.162-11.399 1.147-8.676-15.998-3.782.38 1.68 16.702-10.103 1.017zm69.038-40.287a26.796 26.796 0 0 0-3.209-2.49 24.389 24.389 0 0 0-3.137-1.758c-1.159-.55-2.293-.827-3.404-.836-.902-.008-1.624.192-2.166.598-.542.407-.815 1.098-.823 2.072-.006.72.145 1.31.454 1.775.308.465.756.892 1.344 1.282.586.389 1.303.768 2.151 1.133.848.367 1.808.812 2.88 1.333 1.694.784 3.223 1.643 4.588 2.578a15.054 15.054 0 0 1 3.488 3.3c.961 1.268 1.695 2.8 2.201 4.6.507 1.803.75 3.986.73 6.552-.029 3.286-.459 6.04-1.292 8.267-.835 2.227-1.926 4.002-3.273 5.325-1.347 1.325-2.866 2.275-4.553 2.85-1.69.577-3.384.859-5.085.845a19.65 19.65 0 0 1-4.163-.496 26.166 26.166 0 0 1-4.233-1.343 29.66 29.66 0 0 1-4.045-2.035 23.921 23.921 0 0 1-3.598-2.648l4.481-13.131a29.307 29.307 0 0 0 3.777 3.034 22.356 22.356 0 0 0 3.76 2.11c1.4.627 2.83.947 4.287.959 1.111.009 1.885-.203 2.323-.636.437-.432.66-1.008.665-1.727.006-.77-.206-1.426-.635-1.97-.43-.541-1.025-1.02-1.784-1.438a29.62 29.62 0 0 0-2.62-1.253 44.438 44.438 0 0 1-3.139-1.49c-1.625-.832-3.025-1.73-4.197-2.69a13.162 13.162 0 0 1-2.89-3.257c-.754-1.212-1.306-2.59-1.659-4.133-.35-1.543-.519-3.316-.503-5.318.025-3.027.42-5.694 1.185-7.998.764-2.304 1.796-4.22 3.094-5.75 1.295-1.53 2.772-2.685 4.43-3.467a11.872 11.872 0 0 1 5.241-1.151 13.69 13.69 0 0 1 3.953.609 24.07 24.07 0 0 1 3.712 1.494c1.192.6 2.307 1.25 3.343 1.952a69.521 69.521 0 0 1 2.796 1.986l-4.475 12.36zm33.382 25.767l-1.015 13.05-26.27-2.042L223.7 9.489l25.804 2.006-1.015 13.05-15.679-1.22-.597 7.678 13.394 1.042-.942 12.129-13.396-1.041-.667 8.598 16.146 1.255zm1.842 13.182l22.265-51.802 8.124 1.3 4.937 56.155-10.593-1.695-.52-10.923-9.718-1.555-3.852 10.223-10.643-1.703zm38.287 6.97l13.695-52.928 16.435 4.253c1.748.452 3.222 1.404 4.425 2.855 1.202 1.452 2.112 3.171 2.727 5.16.614 1.988.938 4.167.971 6.534.033 2.37-.24 4.67-.819 6.907-.798 3.082-1.994 5.834-3.589 8.257-1.595 2.425-3.419 4.273-5.468 5.544l3.031 21.544-11.09-2.87-2.603-18.012-3.679-.952-4.205 16.251-9.83-2.544zm38.11-19.192a41.004 41.004 0 0 1 4.613-8.792c1.893-2.74 4.017-5.037 6.371-6.89 2.354-1.852 4.844-3.13 7.47-3.838 2.625-.706 5.253-.562 7.883.435 3.083 1.17 5.391 3.21 6.923 6.124 1.531 2.915 2.212 6.261 2.043 10.038l-10.149 4.882c.181-1.358.19-2.535.03-3.53-.163-.994-.428-1.836-.798-2.525-.37-.689-.827-1.247-1.37-1.673-.545-.425-1.077-.737-1.596-.934-1.2-.455-2.382-.45-3.542.016-1.16.466-2.267 1.228-3.316 2.284-1.05 1.057-2.01 2.34-2.879 3.85a31.967 31.967 0 0 0-2.205 4.64 29.397 29.397 0 0 0-1.475 5.288c-.31 1.75-.402 3.361-.274 4.836.126 1.477.48 2.75 1.058 3.82.577 1.07 1.42 1.813 2.523 2.232a5.23 5.23 0 0 0 1.827.321c.667.006 1.363-.142 2.09-.442.726-.302 1.46-.765 2.197-1.39.74-.627 1.456-1.467 2.152-2.52l5.15 9.775c-1.197 1.687-2.573 3.088-4.126 4.2-1.555 1.113-3.156 1.933-4.803 2.461-1.649.528-3.287.786-4.915.772-1.629-.014-3.125-.278-4.488-.795-2.403-.91-4.324-2.503-5.763-4.778-1.44-2.276-2.409-4.934-2.907-7.978-.499-3.043-.553-6.304-.163-9.779a41.377 41.377 0 0 1 2.44-10.11zm77.193 13.435l-26.856 47.62-8.845-4.99 10.515-18.645-10.795-6.088-10.516 18.645-8.845-4.988 26.857-47.619 8.844 4.988-9.91 17.572 10.796 6.088 9.91-17.57 8.845 4.987zm-250.74-30.618l6.373-.641c.622-.063 1.148-.63 1.582-1.707.432-1.075.556-2.532.371-4.371-.19-1.89-.646-3.302-1.368-4.235-.722-.933-1.394-1.37-2.016-1.306l-6.114.615 1.172 11.645zM86.544 49.42l5.166-1.443c.602-.169 1.047-.733 1.338-1.694.29-.96.139-2.503-.456-4.63-.608-2.174-1.323-3.573-2.146-4.196-.822-.622-1.535-.85-2.137-.683l-4.915 1.374 3.15 11.272zm217.647-2.663l6.201 1.605c.605.156 1.296-.194 2.074-1.054.78-.859 1.4-2.183 1.862-3.972.475-1.838.537-3.32.182-4.447-.354-1.126-.834-1.767-1.438-1.923l-5.949-1.54-2.932 11.331zM272.446 30.45l-6.29 17.553 6.634 1.06-.344-18.613z" fill-opacity=".362" fill="#0A2452"/><path d="M213.116 23.117l-.026.8 1.087-2.914c1.03-2.762 2.186-5.507 3.097-8.31.243-.746.18-1.558.215-2.342l.164-3.74-1.065 2.852-3.137 8.408a3.48 3.48 0 0 0-.198.94c-.006-.484-.122-.604-.75-1.111a25.532 25.532 0 0 0-3.481-2.374c-1.952-1.105-5.364-2.87-7.506-1.244-1.06.805-.807 2.512-.804 3.698l.011 3.945c-.008-2.827 3.036-2.858 5.088-2.22 2.664.83 5.191 2.595 7.279 4.413l.026-.8zm58.835 43.433l-.564-8.824c-.041-.651-.083-1.184-.026-1.761-.028.082-.06.143-.097.166-.172.111-1.039-.16-1.219-.188l-8.283-1.288.25-1.323c-.209.95-.461 1.888-.806 2.81l-3.085 8.252.022-.12c-.03.043-.094.05-.249.085-.473.103-1.316-.206-1.788-.278l-5.751-.895c-.53-.081-2.487-.12-2.658-.563-.085-.22.125-.84.159-1.07l.235-1.584.33-2.221 10.615 1.648-.308 1.678c.23-1.112.507-2.21.912-3.294l3.095-8.27-.014.073a.169.169 0 0 1 .06-.066c.197-.11 1.035.16 1.25.194 2.794.434 5.588.867 8.381 1.302l-.872 3.965.872-3.965.679 10.573-.04.172c.036-.063.094-.106.205-.146.34-.123 1.257.195 1.6.248l8.814 1.368-1.133 4.273c-.109.415-.058.543-.343.642-.347.12-1.18-.183-1.534-.238l-8.71-1.353.001-.002zm.508-2.212l.488-2.124a28049.067 28049.067 0 0 1-.488 2.124zm-.841-40.913v-.001.002l-1.195 3.363-4.144 11.669c-.818 2.3-1.184 4.652-1.647 7.053l1.21-3.404 4.116-11.598c.249-.702.456-1.412.637-2.127-.018.133-.035.266-.05.399-.092.809.018 1.665.045 2.479l.21 6.07.317 9.179 1.122-5.267-.077-2.211-.544-15.606zm93.994 72.71l-1.225 2.064c3.226-5.996 6.34-12.068 9.681-17.998l.03-.052c-.123.045-.253-.086-.412-.157-2.662-1.213-5.21-2.813-7.784-4.203l-2.65-1.432a237985.123 237985.123 0 0 1-7.244 13.37l-9.011-4.888-.95 1.892c-.24.482-.483.965-.725 1.447-.148.296-.526.78-.556 1.11-.03.33-.076.2.309.422.586.339 1.192.648 1.786.97l5.05 2.742c.36.197 1.051.773 1.466.797.108.006.178-.015.23-.06l10.434-19.26.52-.959.507-.936c.127-.235.537-1.362.792-1.462l.017-.033-.017.033c.101-.04.349.146.463.208l7.88 4.249 2.672 1.44-2.776 4.71c.267-.101.69-1.171.835-1.417l1.94-3.29-8.598 15.987-1.23 2.286-.066.112a.233.233 0 0 1 .135-.074c.277-.03 1.046.566 1.283.695l7.713 4.179-2.288 3.593c-.145.228-.361.758-.59.779-.287.027-.987-.535-1.227-.666l-7.618-4.134 1.224-2.064zm-12.004-3.977l.272-.502c-.131.243-.172.417-.272.502zm-49.589-40.006v-.001l-2.491-.624c-.218-.055-.906-.362-1.107-.277-.141.059-.066.094-.171.277-.448.783-.601 1.957-.866 2.82l-.615 2.002 2.453.615c.216.054.888.356 1.089.273.094-.039.093-.07.113-.14a3.126 3.126 0 0 0-.01.081c-.08.751.253 1.7.379 2.442l1.016 5.943 1.523 8.897 1.684-4.846-.377-2.197-2.62-15.265zm-.51 1.596zm-16.911 10.923l.046-.168 1.537-6.234 6.751-27.38 4.24-17.2c-.72 2.65-1.447 5.294-2.105 7.96l-6.773 27.471-5.003 20.29-.004.016 8.252 2.075c.26.066 1.097.442 1.367.344.192-.07.252-.542.326-.78l1.267-4.086-8.35-2.097c-.286-.072-1.104-.437-1.386-.348a.29.29 0 0 0-.165.137zm61.196-11.667l8.42-4.006c.37-.175.986-.333 1.29-.613.232-.213.358-.689.495-.975l2.045-4.282c-2.819 1.34-5.636 2.68-8.455 4.018-.397.19-1.053.358-1.381.657a.997.997 0 0 0-.208.295c.68-1.973.117-4.663-.969-6.339-1.29-1.989-3.886-3.098-6.165-2.327-3.022 1.022-5.111 3.95-6.55 6.66-1.322 2.495-2.28 5.196-3.349 7.81 1.496-3.658 4.377-9.097 8.853-9.419 1.715-.124 3.504.748 4.568 2.091 1.419 1.791 1.634 4.231 1.406 6.43zm-35.915-21.23l.102-.316.904-2.813c-.955-.236-1.91-.474-2.864-.712-.649-.16-1.296-.322-1.945-.483-.18-.044-.91-.351-1.076-.267-.366.183-.677 2.122-.8 2.53l-.884 2.92 2.815.701 1.95.485c.134.033.902.337 1.036.258a.12.12 0 0 0 .03-.027l-.01.033c.948.245 1.421 1.514 1.598 2.374.246 1.195.057 2.465-.223 3.637l1.772-5.347c.272-1.144.454-2.37.25-3.54-.158-.91-.641-2.301-1.649-2.561l-1.006 3.129zM140.216 64.88l-.464-2.869c-.788-4.883-1.584-9.742-2.546-14.593l.462 2.862c.778 4.817 1.557 9.613 2.507 14.397l-.955-4.784-3.244.537-22.697 3.759 1.045 3.65c.049.17.192 1.176.367 1.277.06.035.253-.057.322-.053.602.033 1.353-.225 1.944-.323l3.116-.517 8.551-1.417 11.593-1.922-.001-.004zm15.262-1.81l-.31-3.338c-.555-5.953-1.07-11.875-1.937-17.79l.307 3.302c.544 5.85 1.037 11.674 1.889 17.485l-.697-4.667-10.07.985c.254 1.395.508 2.79.76 4.185.046.244.048.714.23.81.25.134 1.133-.11 1.396-.136l8.433-.826-.001-.01zm1.594-20.894l-.08-.597h-.001l7.41 13.487 1.066 1.941.06.518-.06-.518 11.342-1.106c.12 1.512.446 3.144.366 4.656-.026.489.108.337-.357.432-.626.127-1.306.127-1.94.189l-5.91.577c-.518.051-2.595.537-2.933.201l.01.085-4.315-7.86-2.848-5.19c-.376-.686-.946-1.437-1.185-2.186l-.44-3.262-.185-1.367zm8.845 18.752a541.947 541.947 0 0 1-.084-.734l.084.734zm-.11-.966l-.084-.728-.08-.696.163 1.424zm-45.511-13.966c.025.05.055.088.091.107.166.088.814-.134.991-.163l4.455-.736 7.444-1.229-1.088-5.29-13.16 2.171 1.176 7.464c.31 1.977.91 3.916 1.393 5.856l-1.174-7.446c-.039-.245-.082-.49-.128-.734zm-4.227-23.888v-.002l15.348-2.52.988 5.018c-.92-4.734-1.704-9.471-2.469-14.234l-.488-3.032c.963 4.924 1.784 9.849 2.58 14.804l.481 2.99.004.022-8.333 1.371-5.226.86c-.336.055-1.03.316-1.365.224-.13-.036-.183-.051-.213-.098.024.121.047.243.068.364.413 2.291.728 4.603 1.09 6.903-.464-1.903-1.038-3.809-1.372-5.738-.398-2.304-.729-4.622-1.093-6.932zm34.67.613c.036.112.079.192.13.229.15.108.96-.095 1.133-.112l2.008-.196 2.776-.273-.706-5.61-6.032.59.427 2.997c.014.093.025.276.039.504-.145-1.167-.3-2.334-.467-3.5.514 5.54 1.02 11.041 1.816 16.545-.347-3.737-.694-7.458-1.125-11.174zM71.832 53.344l.804 1.995-1.684-4.224c-3.239-8.134-6.468-16.273-9.742-24.393l1.66 4.168c2.84 7.131 5.671 14.266 8.533 21.389l-.84-2.074c1.684 4.221 2.983 8.76 3.148 13.328.145 3.975-.675 8.092-3.136 11.295-2.25 2.927-5.992 4.771-9.625 5.106-8.207.755-14.153-6.727-17.523-13.283l2.513 4.89c2.46 4.785 5.86 9.594 10.874 11.89 4.19 1.92 8.81 1.444 12.698-1 4.294-2.699 6.143-7.684 6.24-12.603.114-5.778-1.808-11.198-3.92-16.484zM31.522 80.035c-.21-.371-.412-.762-.67-1.098-.7-.914-1.787-1.205-2.888-1.245-2.338-.085-4.708.53-7.037.71-2.839.22-5.81.148-8.469-.982C9.7 76.248 7.616 74.062 6 71.576c1.043 1.606 2.088 3.21 3.13 4.817 1.428 2.196 3.227 4.19 5.58 5.39 2.339 1.192 4.954 1.487 7.545 1.42 2.299-.06 4.544-.488 6.827-.705 1.7-.162 3.749-.22 4.73 1.477a12804.46 12804.46 0 0 1-2.236-3.845l2.25 3.87c-.745-1.293-1.562-2.692-2.304-3.965zm62.885-9.21a45.105 45.105 0 0 1-.91-2.984 166337.557 166337.557 0 0 1-3.701-14.098l5.816-1.575 1.176 3.584-1.175-3.584c5.954-1.609 7.931-8.445 7.943-13.96.042.146.087.292.132.44-.224-.92-.154-1.859-.242-2.809a25.5 25.5 0 0 0-.875-4.717c1.173 4.086 2.519 8.088 2.527 12.397l-.169-.584c.111.632.167 1.266.132 1.901-.274 5.066-2.396 10.982-7.774 12.437l-2.672.724-1.895.514c-.187.05-.945.39-1.125.304a.278.278 0 0 1-.087-.072c.147.48.286.962.414 1.448l2.843 10.823.855 3.257-8.23 2.234c-.262.07-1.088.458-1.364.37-.2-.064-.292-.532-.382-.765l-1.56-4.023 9.828-2.665.495 1.403zm-68.324-8.708l.22.392-.562-3.116c-.526-2.919-.89-5.926-1.587-8.809-.186-.769-.677-1.449-1.057-2.143l-1.839-3.367.559 3.105c.533 2.972.965 5.984 1.605 8.934.05.227.126.442.219.65-.152-.207-.341-.304-.827-.378a26.2 26.2 0 0 0-3.956-.307c-2.375 0-6.787.124-7.9 2.836-.521 1.268.61 2.632 1.237 3.664l2.105 3.458c-1.495-2.455 1.259-4.056 3.333-4.559 2.759-.669 5.9-.466 8.67.032l-.22-.392zm59.514-26.97c.318.21 1.835-.434 2.237-.542.865-.234 2.732-.467 3.597-.7l-1.775-5.44c-1.632.439-4.262.878-5.894 1.317.799 3.041 3.059 10.007 2.263 6.977a44.064 44.064 0 0 0-.472-1.658.18.18 0 0 0 .044.046zm.656 0a2007.364 2007.364 0 0 1 0 0zm7.252-1.958l1.716 5.385c-.48-1.506-1.744-4.228-3.79-3.67l-1.775-5.439c2.077-.566 3.362 2.195 3.85 3.724zM41.95 34.755c3.759 7.95 6.794 16.196 10.012 24.383l1.65 4.2c-3.804-7.95-6.81-16.236-10.034-24.44l-1.628-4.143zm12.603 30.75c-1.138-2.376-2.379-4.727-3.34-7.182 1.14 2.381 2.2 4.803 3.34 7.182zm-14.007 8.137c2.866 5.319 6.574 11.102 4.622 17.407-2.702 8.727-13.709 11.555-21.768 10.705-.719-.076-1.274-.002-1.715-.526-.375-.444-.667-1.005-.988-1.488l-1.744-2.63c6.442 1.14 14.395-.156 19.473-4.5 2.631-2.251 4.433-5.293 4.686-8.805.26-3.588-.886-7.045-2.566-10.163zM159.33 21.685l.655 5.539c-.145-1.229-.438-2.505-1.176-3.518-.447-.613-1.18-1.42-2.023-1.337l-.706-5.61c2.176-.213 3.067 3.372 3.25 4.925zm11.193-1.427c.623 7.007 1.504 14.62-3.263 20.503l-.308-2.953-.185-1.777c-.071-.686.013-.652.475-1.3 2.93-4.109 3.72-9.535 3.281-14.473zm-39.177 7.934c.946 4.633 1.724 9.262 2.474 13.933l.457 2.85c-.954-4.637-1.726-9.271-2.476-13.947l-.455-2.836zm181.608 8.71l-1.766 5.33c.714-2.154 1.382-4.328 2.096-6.486-.095.39-.203.776-.33 1.157zm9.374 4.34c-2.096 5.759-4.005 11.988-9.534 15.39l.867-2.464c.264-.753.444-1.988.924-2.63.173-.23.648-.435.895-.613.491-.355.961-.741 1.406-1.152a18.062 18.062 0 0 0 2.222-2.483c1.37-1.834 2.436-3.896 3.22-6.048zm60.525 23.095l-2.895 4.925c3.023-5.616 5.933-11.309 9.077-16.856.965-1.702 1.977-3.378 2.965-5.066l-8.008 14.88-1.14 2.117zm-64.702 9.074l-1.66 4.281c-.196.502-.073.44-.47.456-.523.022-1.238-.31-1.742-.438l-8.948-2.25c.509-1.463.915-3.019 1.541-4.433.209-.47.018-.328.41-.346.539-.025 1.287.323 1.809.454 3.02.76 6.04 1.517 9.06 2.276zm4.168-22.681l1.95-5.203c-2.6 6.942-3.49 15.16-1.219 22.32 1.076 3.39 2.992 6.725 6.052 8.653 3.01 1.896 6.74 2.276 10.17 1.535 4.133-.894 7.792-3.42 10.21-6.895-.78 1.593-1.466 3.289-2.363 4.819-2.196 3.75-6.766 6.303-10.94 6.962-4.407.695-8.991-.622-11.898-4.14-3.01-3.642-4.162-8.57-4.364-13.205-.22-5.04.635-10.133 2.402-14.846zm-73.414-34.928l-.593 4.543c-.026.21-.02.953-.18 1.064-.152.104-.878-.066-1.05-.08-3.604-.268-7.206-.538-10.81-.807l-3.322-.25.4-4.632c.02-.221-.02-.885.139-.99.175-.114.929.07 1.13.085l10.927.816 3.359.25zm-3.592 19.747l-.505 3.98c-.027.21-.005 1.226-.172 1.356-.086.066-.565-.043-.662-.05l-9.356-.707-3.04-.23.348-3.99c.017-.188-.029-1.243.12-1.36.095-.074.63.047.741.056a398391379.97 398391379.97 0 0 0 12.526.945zm1.268 22.068l-.53 3.806c-.027.196-.015 1.091-.172 1.218-.055.044-.308-.032-.377-.028-.808.044-1.685-.128-2.49-.189l-4.156-.314-17.796-1.348c-.747-.056-.921.142-.876-.646l.25-4.476 22.847 1.727 3.3.25zM207.528 40.99l-.094 5.27c.044-2.359-2.392-3.381-4.214-4.173-2.39-1.039-4.803-2.066-6.95-3.576-2.49-1.753-4.354-4.117-5.167-7.092-.493-1.805-.58-3.655-.64-5.515l-.142-4.371c.085 2.602.566 5.248 1.919 7.504 1.337 2.229 3.388 3.864 5.608 5.143 2.055 1.184 4.256 2.004 6.386 3.026 1.596.766 3.33 1.774 3.294 3.784zm10.81.162c-.287 5.74-.135 12.166-4.517 16.525-6.561 6.526-17.657 3.29-24.123-1.667-.562-.43-1.006-.633-1.119-1.283-.094-.54-.048-1.149-.07-1.696l-.127-3.06c5.005 4.355 12.638 7.387 19.283 5.953 3.245-.7 6.101-2.488 7.931-5.31 1.83-2.82 2.576-6.135 2.743-9.462z" fill="url(#c)"/><path d="M24.064 58.122a26.989 26.989 0 0 0-4.04-.416 24.53 24.53 0 0 0-3.592.167c-1.274.148-2.384.512-3.33 1.092-.77.471-1.278 1.023-1.522 1.654-.245.632-.112 1.363.397 2.194.375.614.816 1.035 1.324 1.266.508.23 1.113.356 1.818.376.704.021 1.513-.037 2.426-.176a73.407 73.407 0 0 1 3.148-.392c1.853-.23 3.605-.31 5.258-.239 1.652.072 3.22.391 4.706.955 1.486.566 2.92 1.48 4.302 2.74 1.383 1.26 2.744 2.985 4.084 5.173 1.715 2.802 2.807 5.37 3.278 7.7.47 2.33.483 4.413.04 6.25-.443 1.836-1.228 3.445-2.356 4.827a15.297 15.297 0 0 1-3.868 3.406c-1.155.707-2.42 1.3-3.795 1.781a26.18 26.18 0 0 1-4.303 1.1c-1.494.252-2.997.39-4.509.413a23.852 23.852 0 0 1-4.454-.344l-3.144-13.513c1.626.33 3.23.521 4.81.576 1.35.077 2.785.011 4.306-.198 1.52-.208 2.903-.694 4.146-1.455.948-.58 1.493-1.168 1.635-1.768.142-.598.026-1.204-.349-1.817-.402-.657-.93-1.102-1.58-1.335-.653-.233-1.41-.325-2.277-.277-.866.05-1.827.156-2.886.322-1.058.167-2.208.3-3.45.397-1.82.153-3.483.132-4.985-.063a13.177 13.177 0 0 1-4.176-1.236c-1.28-.629-2.479-1.506-3.594-2.629-1.115-1.123-2.196-2.539-3.24-4.246-1.582-2.583-2.658-5.055-3.227-7.415-.569-2.359-.709-4.53-.417-6.516.291-1.983.933-3.745 1.924-5.285a11.898 11.898 0 0 1 3.841-3.75 13.72 13.72 0 0 1 3.676-1.574 24.126 24.126 0 0 1 3.94-.697 29.992 29.992 0 0 1 3.87-.11c1.25.046 2.391.115 3.423.205l2.742 12.857zm36.465 9.405c1.027-.426 1.764-1.126 2.21-2.097.448-.972.67-2.099.669-3.382-.001-1.283-.193-2.683-.575-4.202a33.45 33.45 0 0 0-1.548-4.622L51.122 28.76l8.84-3.672 10.162 24.465c1.374 3.307 2.37 6.521 2.995 9.641.623 3.121.766 5.983.43 8.584-.337 2.603-1.17 4.887-2.496 6.853-1.328 1.966-3.23 3.464-5.708 4.493-2.57 1.067-5.032 1.343-7.39.83-2.356-.515-4.57-1.6-6.64-3.255-2.07-1.655-3.964-3.788-5.687-6.4-1.723-2.612-3.243-5.503-4.561-8.676L30.905 37.157l8.84-3.672L49.907 57.95a33.885 33.885 0 0 0 2.197 4.392c.814 1.365 1.676 2.5 2.583 3.407.909.907 1.852 1.537 2.832 1.89.979.352 1.982.315 3.01-.112zm23.777 4.584L69.591 19.458l15.347-4.289c1.738-.485 3.491-.402 5.26.25 1.768.652 3.417 1.683 4.947 3.094 1.53 1.411 2.903 3.133 4.12 5.165a26.018 26.018 0 0 1 2.758 6.384 28.064 28.064 0 0 1 1.043 7.024c.046 2.36-.202 4.534-.745 6.524-.543 1.991-1.4 3.697-2.571 5.117-1.171 1.42-2.627 2.373-4.365 2.858l-5.818 1.626 4.519 16.166-9.78 2.734zm51.862-25.45l2.2 12.904-25.975 4.428-9.19-53.892 25.514-4.35 2.2 12.904-15.503 2.643 1.295 7.591 13.244-2.259 2.045 11.993-13.244 2.258 1.449 8.502 15.965-2.722zm7.659 12.028l-5.472-54.396 16.89-1.699c1.796-.18 3.509.202 5.14 1.146 1.63.947 3.078 2.245 4.344 3.897 1.265 1.653 2.323 3.585 3.173 5.795a25.98 25.98 0 0 1 1.623 6.763c.319 3.168.149 6.164-.51 8.99-.657 2.826-1.727 5.192-3.21 7.094l10.302 19.162-11.4 1.147-8.675-15.998-3.782.38 1.68 16.702-10.103 1.017zm69.038-40.287a26.796 26.796 0 0 0-3.209-2.49 24.389 24.389 0 0 0-3.137-1.758c-1.159-.549-2.293-.827-3.404-.836-.902-.008-1.624.192-2.166.598-.542.407-.815 1.098-.823 2.072-.006.72.145 1.31.454 1.775.308.465.756.892 1.344 1.282.586.39 1.303.768 2.151 1.133.848.367 1.808.812 2.88 1.333 1.694.784 3.223 1.643 4.588 2.578a15.054 15.054 0 0 1 3.488 3.301c.961 1.267 1.695 2.8 2.201 4.6.507 1.802.75 3.985.73 6.551-.029 3.286-.459 6.041-1.292 8.267-.835 2.227-1.926 4.002-3.273 5.325-1.347 1.325-2.866 2.275-4.553 2.851-1.69.576-3.384.858-5.085.844a19.65 19.65 0 0 1-4.163-.496 26.166 26.166 0 0 1-4.233-1.343 29.66 29.66 0 0 1-4.045-2.035 23.921 23.921 0 0 1-3.598-2.648l4.481-13.13a29.307 29.307 0 0 0 3.777 3.033 22.356 22.356 0 0 0 3.76 2.11c1.4.627 2.83.947 4.287.96 1.111.008 1.885-.204 2.323-.637.437-.432.66-1.008.665-1.727.006-.77-.206-1.426-.635-1.969-.43-.542-1.025-1.02-1.784-1.439a29.62 29.62 0 0 0-2.62-1.253 44.438 44.438 0 0 1-3.139-1.489c-1.625-.833-3.025-1.73-4.197-2.69a13.162 13.162 0 0 1-2.89-3.258c-.754-1.212-1.306-2.59-1.659-4.133-.35-1.543-.519-3.316-.503-5.318.025-3.027.42-5.694 1.185-7.998.764-2.304 1.796-4.22 3.094-5.75 1.295-1.529 2.772-2.685 4.43-3.467a11.872 11.872 0 0 1 5.241-1.15 13.69 13.69 0 0 1 3.953.608 24.07 24.07 0 0 1 3.712 1.494c1.192.6 2.307 1.25 3.343 1.952a69.521 69.521 0 0 1 2.796 1.986l-4.475 12.361zm34.382 25.768l-1.015 13.05-26.27-2.042L224.2.673l25.804 2.006-1.015 13.05-15.679-1.22-.597 7.678 13.394 1.042-.942 12.129-13.396-1.041-.667 8.598 16.146 1.255zm.842 13.181L270.354 5.55l8.124 1.3 4.937 56.155-10.593-1.695-.52-10.923-9.718-1.555-3.852 10.223-10.643-1.703zm38.288 6.97l13.695-52.927 16.435 4.253c1.748.452 3.222 1.404 4.425 2.855 1.202 1.452 2.112 3.171 2.727 5.159.614 1.989.938 4.168.97 6.535.034 2.369-.24 4.67-.818 6.907-.798 3.082-1.994 5.834-3.59 8.257-1.594 2.425-3.418 4.273-5.467 5.544l3.03 21.544-11.09-2.87-2.602-18.012-3.68-.952-4.204 16.251-9.831-2.544zm38.11-19.191a41.004 41.004 0 0 1 4.612-8.792c1.893-2.74 4.017-5.037 6.371-6.89 2.354-1.852 4.844-3.131 7.47-3.838 2.625-.706 5.253-.562 7.883.435 3.083 1.169 5.391 3.21 6.923 6.124 1.531 2.915 2.212 6.261 2.043 10.038l-10.149 4.882c.181-1.358.19-2.535.03-3.53-.163-.994-.428-1.836-.798-2.525-.37-.689-.827-1.247-1.37-1.673-.545-.425-1.077-.737-1.596-.934-1.2-.455-2.382-.45-3.542.016-1.16.466-2.267 1.228-3.316 2.284-1.05 1.057-2.01 2.34-2.879 3.85a31.967 31.967 0 0 0-2.205 4.64 29.397 29.397 0 0 0-1.475 5.288c-.31 1.749-.402 3.361-.274 4.836.126 1.477.48 2.749 1.058 3.819.577 1.071 1.42 1.814 2.523 2.233a5.23 5.23 0 0 0 1.827.321c.667.006 1.363-.142 2.09-.442.726-.302 1.46-.765 2.197-1.391.74-.626 1.456-1.466 2.152-2.519l5.15 9.775c-1.197 1.687-2.573 3.088-4.126 4.2-1.555 1.113-3.156 1.933-4.803 2.461-1.649.528-3.287.786-4.915.772-1.629-.014-3.125-.278-4.488-.795-2.403-.911-4.324-2.503-5.763-4.778-1.44-2.276-2.409-4.934-2.907-7.978-.499-3.043-.553-6.304-.163-9.779a41.377 41.377 0 0 1 2.44-10.11zm77.192 6.435l-26.856 47.619-8.845-4.989 10.515-18.645-10.795-6.088-10.516 18.645-8.845-4.988L373.194 35.5l8.844 4.988-9.91 17.572 10.796 6.088 9.91-17.571 8.845 4.988zm-250.74-23.619l6.374-.64c.622-.064 1.148-.63 1.582-1.708.432-1.075.556-2.532.37-4.37-.19-1.89-.645-3.303-1.367-4.236-.722-.933-1.394-1.369-2.016-1.306l-6.114.615 1.172 11.645zM86.045 40.604l5.166-1.443c.602-.169 1.047-.733 1.338-1.694.29-.96.139-2.503-.456-4.63-.608-2.174-1.323-3.573-2.146-4.196-.822-.622-1.535-.85-2.137-.683l-4.915 1.374 3.15 11.272zm217.648-2.663l6.2 1.605c.606.156 1.297-.194 2.075-1.054.779-.859 1.399-2.183 1.862-3.972.475-1.838.537-3.321.182-4.447-.354-1.126-.834-1.767-1.438-1.923l-5.95-1.54-2.931 11.331zm-31.746-16.308l-6.29 17.553 6.634 1.061-.344-18.614z" fill="url(#d)"/><path d="M24.564 58.938a26.989 26.989 0 0 0-4.04-.416 24.53 24.53 0 0 0-3.592.168c-1.274.148-2.384.512-3.331 1.092-.77.47-1.277 1.023-1.521 1.654-.245.632-.112 1.362.397 2.194.375.613.816 1.035 1.324 1.265.508.23 1.113.356 1.818.377.704.02 1.513-.038 2.426-.177a73.407 73.407 0 0 1 3.148-.391c1.853-.231 3.605-.311 5.258-.24 1.652.073 3.22.392 4.706.956 1.486.566 2.92 1.478 4.302 2.739 1.383 1.26 2.744 2.985 4.084 5.173 1.715 2.803 2.807 5.37 3.278 7.7.47 2.33.483 4.413.04 6.25-.443 1.837-1.228 3.446-2.356 4.828a15.297 15.297 0 0 1-3.868 3.406c-1.155.706-2.42 1.3-3.795 1.78a26.18 26.18 0 0 1-4.303 1.1c-1.494.252-2.997.39-4.51.413a23.852 23.852 0 0 1-4.453-.343l-3.144-13.513c1.626.328 3.229.52 4.81.575 1.349.078 2.785.011 4.306-.198 1.52-.207 2.903-.694 4.146-1.454.948-.58 1.493-1.169 1.635-1.769.142-.597.026-1.204-.35-1.817-.401-.657-.93-1.102-1.58-1.335-.652-.233-1.41-.325-2.276-.276-.866.049-1.827.156-2.886.322-1.058.166-2.208.3-3.451.396-1.82.153-3.482.132-4.984-.063a13.177 13.177 0 0 1-4.176-1.236c-1.281-.629-2.48-1.505-3.594-2.629-1.115-1.122-2.196-2.538-3.24-4.245-1.582-2.584-2.658-5.056-3.227-7.416-.57-2.358-.71-4.53-.417-6.516.29-1.983.933-3.745 1.924-5.285a11.898 11.898 0 0 1 3.84-3.75 13.72 13.72 0 0 1 3.677-1.573 24.126 24.126 0 0 1 3.94-.697 29.992 29.992 0 0 1 3.869-.111c1.25.047 2.392.116 3.424.206l2.742 12.856zm36.465 9.406c1.027-.426 1.764-1.126 2.21-2.097.448-.972.67-2.1.669-3.382-.001-1.283-.193-2.683-.575-4.202a33.45 33.45 0 0 0-1.548-4.622L51.622 29.576l8.84-3.672 10.162 24.465c1.374 3.307 2.37 6.52 2.995 9.64.623 3.122.766 5.984.43 8.585-.337 2.603-1.17 4.887-2.496 6.853-1.328 1.966-3.23 3.464-5.708 4.493-2.57 1.067-5.032 1.343-7.39.829-2.356-.514-4.57-1.6-6.64-3.254-2.07-1.655-3.964-3.788-5.687-6.4-1.723-2.612-3.243-5.503-4.561-8.676L31.405 37.974l8.84-3.672 10.162 24.465a33.885 33.885 0 0 0 2.197 4.392c.814 1.365 1.676 2.5 2.583 3.407.909.907 1.852 1.537 2.832 1.889.979.353 1.982.316 3.01-.111zm23.777 4.583L70.09 20.274l15.347-4.289c1.738-.485 3.49-.402 5.26.25 1.768.652 3.417 1.683 4.947 3.094 1.53 1.411 2.903 3.133 4.12 5.165a26.018 26.018 0 0 1 2.758 6.384 28.064 28.064 0 0 1 1.043 7.024c.046 2.36-.202 4.534-.745 6.524-.543 1.991-1.4 3.697-2.571 5.117-1.171 1.42-2.627 2.373-4.365 2.858l-5.818 1.626 4.519 16.166-9.78 2.734zm51.861-25.45l2.2 12.904-25.975 4.428-9.189-53.892 25.513-4.35 2.2 12.904-15.503 2.643 1.295 7.591 13.244-2.259 2.045 11.993-13.244 2.258 1.45 8.502 15.964-2.722zm7.66 12.029L138.853 5.11l16.891-1.7c1.795-.18 3.508.203 5.14 1.147 1.63.947 3.077 2.245 4.343 3.897 1.265 1.653 2.323 3.585 3.173 5.795a25.98 25.98 0 0 1 1.623 6.763c.32 3.168.15 6.164-.509 8.989-.658 2.827-1.728 5.193-3.21 7.095l10.301 19.162-11.399 1.147-8.676-15.998-3.782.38 1.68 16.702-10.103 1.017zm69.038-40.287a26.796 26.796 0 0 0-3.209-2.49 24.389 24.389 0 0 0-3.137-1.758c-1.159-.55-2.293-.827-3.404-.836-.902-.008-1.624.192-2.166.598-.542.407-.815 1.098-.823 2.072-.006.72.145 1.31.454 1.775.308.465.756.892 1.344 1.282.586.389 1.303.768 2.151 1.133.848.367 1.808.812 2.88 1.333 1.694.784 3.223 1.643 4.588 2.578a15.054 15.054 0 0 1 3.488 3.3c.961 1.268 1.695 2.8 2.201 4.6.507 1.803.75 3.986.73 6.552-.029 3.286-.459 6.04-1.292 8.267-.835 2.227-1.926 4.002-3.273 5.325-1.347 1.325-2.866 2.275-4.553 2.85-1.69.577-3.384.859-5.085.845a19.65 19.65 0 0 1-4.163-.496 26.166 26.166 0 0 1-4.233-1.343 29.66 29.66 0 0 1-4.045-2.035 23.921 23.921 0 0 1-3.598-2.648l4.481-13.131a29.307 29.307 0 0 0 3.777 3.034 22.356 22.356 0 0 0 3.76 2.11c1.4.627 2.83.947 4.287.959 1.111.009 1.885-.203 2.323-.636.437-.432.66-1.008.665-1.727.006-.77-.206-1.426-.635-1.97-.43-.541-1.025-1.02-1.784-1.438a29.62 29.62 0 0 0-2.62-1.253 44.438 44.438 0 0 1-3.139-1.49c-1.625-.832-3.025-1.73-4.197-2.69a13.162 13.162 0 0 1-2.89-3.257c-.754-1.212-1.306-2.59-1.659-4.133-.35-1.543-.519-3.316-.503-5.318.025-3.027.42-5.694 1.185-7.998.764-2.304 1.796-4.22 3.094-5.75 1.295-1.53 2.772-2.685 4.43-3.467a11.872 11.872 0 0 1 5.241-1.151 13.69 13.69 0 0 1 3.953.609 24.07 24.07 0 0 1 3.712 1.494c1.192.6 2.307 1.25 3.343 1.952a69.521 69.521 0 0 1 2.796 1.986l-4.475 12.36zm34.382 25.767l-1.015 13.05-26.27-2.042L224.7 1.489l25.804 2.006-1.015 13.05-15.679-1.22-.597 7.678 13.394 1.042-.942 12.129-13.396-1.041-.667 8.598 16.146 1.255zm.842 13.182l22.265-51.802 8.124 1.3 4.937 56.155-10.593-1.695-.52-10.923-9.718-1.555-3.852 10.223-10.643-1.703zm38.287 6.97l13.695-52.928 16.435 4.253c1.748.452 3.222 1.404 4.425 2.855 1.202 1.452 2.112 3.171 2.727 5.16.614 1.988.938 4.167.971 6.534.033 2.37-.24 4.67-.819 6.907-.798 3.082-1.994 5.834-3.589 8.257-1.595 2.425-3.419 4.273-5.468 5.544l3.031 21.544-11.09-2.87-2.603-18.012-3.679-.952-4.205 16.251-9.83-2.544zm38.11-19.192a41.004 41.004 0 0 1 4.613-8.792c1.893-2.74 4.017-5.037 6.371-6.89 2.354-1.852 4.844-3.13 7.47-3.838 2.625-.706 5.253-.562 7.883.435 3.083 1.17 5.391 3.21 6.923 6.124 1.531 2.915 2.212 6.261 2.043 10.038l-10.149 4.882c.181-1.358.19-2.535.03-3.53-.163-.994-.428-1.836-.798-2.525-.37-.689-.827-1.247-1.37-1.673-.545-.425-1.077-.737-1.596-.934-1.2-.455-2.382-.45-3.542.016-1.16.466-2.267 1.228-3.316 2.284-1.05 1.057-2.01 2.34-2.879 3.85a31.967 31.967 0 0 0-2.205 4.64 29.397 29.397 0 0 0-1.475 5.288c-.31 1.75-.402 3.361-.274 4.836.126 1.477.48 2.75 1.058 3.82.577 1.07 1.42 1.813 2.523 2.232a5.23 5.23 0 0 0 1.827.321c.667.006 1.363-.142 2.09-.442.726-.302 1.46-.765 2.197-1.39.74-.627 1.456-1.467 2.152-2.52l5.15 9.775c-1.197 1.687-2.573 3.088-4.126 4.2-1.555 1.113-3.156 1.933-4.803 2.461-1.649.528-3.287.786-4.915.772-1.629-.014-3.125-.278-4.488-.795-2.403-.91-4.324-2.503-5.763-4.778-1.44-2.276-2.409-4.934-2.907-7.978-.499-3.043-.553-6.304-.163-9.779a41.377 41.377 0 0 1 2.44-10.11zm77.193 6.435l-26.856 47.62-8.845-4.99 10.515-18.645-10.795-6.088-10.516 18.645-8.845-4.988 26.857-47.619 8.844 4.988-9.91 17.572 10.796 6.088 9.91-17.57 8.845 4.987zm-250.74-23.618l6.373-.641c.622-.063 1.148-.63 1.582-1.707.432-1.075.556-2.532.371-4.371-.19-1.89-.646-3.302-1.368-4.235-.722-.933-1.394-1.37-2.016-1.306l-6.114.615 1.172 11.645zM86.544 41.42l5.166-1.443c.602-.169 1.047-.733 1.338-1.694.29-.96.139-2.503-.456-4.63-.608-2.174-1.323-3.573-2.146-4.196-.822-.622-1.535-.85-2.137-.683l-4.915 1.374 3.15 11.272zm217.647-2.663l6.201 1.605c.605.156 1.296-.194 2.074-1.054.78-.859 1.4-2.183 1.862-3.972.475-1.838.537-3.32.182-4.447-.354-1.126-.834-1.767-1.438-1.923l-5.949-1.54-2.932 11.331zM272.446 22.45l-6.29 17.553 6.634 1.06-.344-18.613z" fill="url(#e)"/><g><path d="M2.794.025h15.49a2.765 2.765 0 0 1 2.769 2.759v15.44a2.765 2.765 0 0 1-2.77 2.758H2.795a2.765 2.765 0 0 1-2.769-2.759V2.778A2.76 2.76 0 0 1 2.795.025z" fill="url(#f)" transform="translate(176 130)"/><path d="M186.781 135.32c-3.279 0-5.939 2.65-5.939 5.924 0 3.274 2.66 5.918 5.94 5.918 3.278 0 5.939-2.65 5.939-5.924 0-3.274-2.654-5.918-5.94-5.918zm0 10.094c-2.31 0-4.185-1.869-4.185-4.17 0-2.3 1.876-4.17 4.185-4.17 2.31 0 4.185 1.87 4.185 4.17 0 2.301-1.869 4.17-4.185 4.17zm0-7.488v3.108c0 .09.096.153.179.108l2.769-1.43c.063-.031.083-.108.05-.171a3.447 3.447 0 0 0-2.87-1.736c-.064 0-.128.051-.128.121zm-3.878-2.282l-.364-.362a.911.911 0 0 0-1.289 0l-.434.432a.903.903 0 0 0 0 1.284l.358.356c.057.057.14.045.191-.013.21-.286.44-.559.695-.813.262-.26.53-.49.823-.7.064-.037.07-.126.02-.184zm5.824-.94v-.718a.91.91 0 0 0-.912-.91h-2.125a.91.91 0 0 0-.912.91v.737c0 .083.077.14.16.12a6.667 6.667 0 0 1 1.85-.26c.606 0 1.205.083 1.786.242a.123.123 0 0 0 .153-.121zm39.872 11.352c0 1.697-.434 2.936-1.308 3.724-.873.788-2.207 1.183-4.006 1.183-.657 0-2.022-.127-3.113-.369l.402-1.97c.912.19 2.118.241 2.75.241 1.001 0 1.716-.203 2.143-.61.427-.407.638-1.01.638-1.812v-.406c-.249.12-.574.241-.976.368-.402.12-.868.185-1.39.185a5.242 5.242 0 0 1-1.883-.325 3.933 3.933 0 0 1-1.46-.953 4.356 4.356 0 0 1-.945-1.576c-.223-.63-.338-1.755-.338-2.581 0-.776.121-1.748.358-2.396a4.581 4.581 0 0 1 1.052-1.672c.46-.464 1.021-.82 1.678-1.08a6.168 6.168 0 0 1 2.265-.426c.81 0 1.556.101 2.284.222.727.12 1.346.248 1.85.388v9.864zm-6.934-4.907c0 1.042.23 2.199.689 2.682.459.483 1.052.724 1.78.724.395 0 .772-.057 1.122-.165.351-.108.632-.235.855-.387v-6.172a9.9 9.9 0 0 0-1.646-.21c-.906-.025-1.595.343-2.08.934-.478.591-.72 1.628-.72 2.594zm18.774 0c0 .838-.12 1.474-.37 2.167a5.124 5.124 0 0 1-1.052 1.773c-.453.49-.996.871-1.634 1.138-.638.267-1.62.42-2.111.42-.492-.007-1.467-.146-2.1-.42a4.753 4.753 0 0 1-1.626-1.138c-.453-.489-.804-1.08-1.059-1.773a5.88 5.88 0 0 1-.383-2.167c0-.84.115-1.647.37-2.333a5.165 5.165 0 0 1 1.072-1.76 4.795 4.795 0 0 1 1.633-1.132c.632-.267 1.327-.394 2.08-.394.753 0 1.448.133 2.086.394a4.563 4.563 0 0 1 1.633 1.131c.453.49.804 1.074 1.06 1.76.267.687.401 1.494.401 2.334zm-2.551.006c0-1.074-.236-1.97-.696-2.593-.459-.63-1.103-.941-1.926-.941s-1.468.312-1.927.94c-.46.63-.683 1.52-.683 2.594 0 1.087.23 1.818.69 2.447.459.636 1.103.947 1.926.947s1.467-.318 1.927-.947c.459-.636.689-1.36.689-2.447zm8.108 5.492c-4.09.019-4.09-3.293-4.09-3.82l-.006-11.747 2.495-.394v11.67c0 .299 0 2.193 1.601 2.2v2.09zm4.395 0h-2.507v-10.73l2.507-.394v11.123zm-1.256-12.3c.835 0 1.518-.673 1.518-1.506a1.51 1.51 0 0 0-1.518-1.506 1.51 1.51 0 0 0-1.519 1.506c0 .833.683 1.506 1.519 1.506zm7.49 1.183c.822 0 1.518.101 2.08.305.56.203 1.013.49 1.345.852.332.362.568.858.708 1.379.147.521.217 1.093.217 1.722v6.395c-.382.082-.963.178-1.741.292-.779.115-1.652.172-2.622.172a7.981 7.981 0 0 1-1.767-.185 3.738 3.738 0 0 1-1.372-.59 2.863 2.863 0 0 1-.887-1.056c-.21-.432-.319-1.042-.319-1.678 0-.61.122-.998.358-1.417a3.02 3.02 0 0 1 .976-1.03 4.21 4.21 0 0 1 1.429-.572 8.216 8.216 0 0 1 2.564-.12c.306.03.625.088.97.17v-.406c0-.286-.032-.56-.102-.813a1.743 1.743 0 0 0-.357-.68 1.675 1.675 0 0 0-.677-.458 2.956 2.956 0 0 0-1.065-.191 9.15 9.15 0 0 0-1.576.152 7.202 7.202 0 0 0-1.174.287l-.3-2.04c.313-.109.779-.217 1.379-.325.6-.108 1.244-.165 1.933-.165zm.21 9.02c.765 0 1.333-.045 1.729-.121v-2.53a5.978 5.978 0 0 0-1.467-.184c-.275 0-.555.018-.836.063-.28.038-.536.114-.76.222-.223.108-.408.26-.541.458-.14.197-.205.312-.205.61 0 .585.205.922.575 1.144.376.229.874.337 1.505.337zm-49.263-8.957c.823 0 1.519.102 2.08.306.561.203 1.014.489 1.346.851.338.369.568.859.708 1.38.147.52.217 1.093.217 1.722v6.394c-.382.083-.963.178-1.741.293-.779.114-1.652.172-2.622.172a7.981 7.981 0 0 1-1.767-.185 3.738 3.738 0 0 1-1.372-.59 2.863 2.863 0 0 1-.887-1.056c-.21-.432-.319-1.042-.319-1.678 0-.61.122-.998.358-1.418a3.02 3.02 0 0 1 .976-1.03 4.21 4.21 0 0 1 1.429-.571 8.216 8.216 0 0 1 2.564-.121c.3.032.625.089.97.172v-.407c0-.286-.032-.56-.102-.814a1.743 1.743 0 0 0-.358-.68 1.675 1.675 0 0 0-.676-.458 2.956 2.956 0 0 0-1.065-.19 9.15 9.15 0 0 0-1.576.152 7.202 7.202 0 0 0-1.174.286l-.3-2.04c.313-.108.779-.216 1.379-.324a10.33 10.33 0 0 1 1.933-.165zm.217 9.026c.766 0 1.334-.044 1.73-.12v-2.53a5.978 5.978 0 0 0-1.467-.184c-.275 0-.556.018-.837.063-.28.038-.536.114-.759.222-.223.108-.408.26-.542.458-.14.197-.204.312-.204.61 0 .585.204.922.574 1.144.37.223.874.337 1.506.337zm10.112 2.028c-4.09.019-4.09-3.293-4.09-3.82l-.006-11.746 2.495-.395v11.67c0 .3 0 2.193 1.6 2.2v2.09z" fill="#FFF"/></g></g></svg>