<svg width="217" height="30" viewBox="0 0 217 30" xmlns="http://www.w3.org/2000/svg" xmlns:xlink="http://www.w3.org/1999/xlink"><title>logo-instantsearch</title><defs><path d="M125.58 24.878c-.53 0-1.08-.04-1.65-.12a17.82 17.82 0 0 1-1.7-.32c-.56-.133-1.1-.3-1.613-.497a8.174 8.174 0 0 1-1.35-.652l1.52-2.563c.834.475 1.645.84 2.432 1.092.786.253 1.54.38 2.263.38.562 0 .992-.088 1.29-.262.296-.174.445-.427.445-.76 0-.33-.2-.588-.602-.77-.402-.182-1.092-.4-2.072-.653-.85-.22-1.574-.443-2.168-.664-.594-.222-1.072-.47-1.433-.748-.362-.277-.623-.59-.783-.937-.16-.348-.24-.76-.24-1.234 0-.634.13-1.212.396-1.734a3.92 3.92 0 0 1 1.096-1.33 5.315 5.315 0 0 1 1.65-.853 6.725 6.725 0 0 1 2.084-.308c.883 0 1.787.13 2.71.39.924.262 1.827.622 2.71 1.08l-1.517 2.398c-.788-.427-1.49-.74-2.11-.938a5.88 5.88 0 0 0-1.794-.296c-.482 0-.88.082-1.192.248-.313.166-.47.43-.47.795 0 .174.04.32.12.44.08.118.213.228.398.33.185.104.43.2.735.286a33.1 33.1 0 0 0 1.132.296c.93.237 1.717.474 2.36.712.642.237 1.164.502 1.565.795.402.292.69.628.868 1.008.176.38.265.832.265 1.354 0 .617-.125 1.174-.374 1.673-.25.498-.606.92-1.072 1.27-.466.347-1.028.616-1.686.806-.658.19-1.397.285-2.216.285zm13.024 0c-1.06 0-2.01-.17-2.855-.51-.844-.34-1.558-.803-2.144-1.388a5.942 5.942 0 0 1-1.337-2.03 6.46 6.46 0 0 1-.46-2.408c0-.902.153-1.752.46-2.55.304-.8.745-1.5 1.323-2.1.58-.603 1.29-1.077 2.132-1.425.844-.348 1.803-.522 2.88-.522 1.075 0 2.03.174 2.866.522.836.348 1.542.818 2.12 1.412a5.974 5.974 0 0 1 1.313 2.05 6.77 6.77 0 0 1 .446 2.446c0 .22-.01.44-.025.652-.016.214-.04.4-.072.558h-9.347c.064.84.373 1.475.928 1.91a2.98 2.98 0 0 0 1.89.653c.563 0 1.105-.135 1.627-.404.523-.27.872-.633 1.048-1.092l3.277.902c-.498.98-1.27 1.78-2.313 2.397-1.044.617-2.296.925-3.758.925zm2.674-7.64c-.08-.792-.37-1.417-.867-1.876-.497-.46-1.115-.688-1.854-.688-.755 0-1.377.233-1.867.7-.49.466-.776 1.087-.856 1.863h5.444zm9.218 7.64c-.626 0-1.208-.1-1.746-.297-.538-.196-1-.473-1.385-.83a3.986 3.986 0 0 1-.916-1.257 3.69 3.69 0 0 1-.338-1.578c0-.617.132-1.18.397-1.685a3.88 3.88 0 0 1 1.12-1.305 5.56 5.56 0 0 1 1.71-.854c.658-.205 1.39-.308 2.192-.308.53 0 1.044.044 1.542.13.498.088.93.218 1.3.392v-.57c0-1.44-.842-2.16-2.53-2.16-.69 0-1.348.116-1.974.345-.626.23-1.285.573-1.975 1.03l-1.133-2.372c.835-.538 1.703-.94 2.602-1.21.9-.27 1.855-.403 2.867-.403 1.912 0 3.39.443 4.433 1.33 1.044.885 1.566 2.182 1.566 3.89v3.204c0 .38.07.644.216.794.144.15.4.24.77.273v3.204c-.37.08-.71.13-1.023.155-.313.024-.59.036-.83.036-.708-.015-1.246-.158-1.615-.427-.37-.27-.602-.656-.7-1.162l-.07-.57a5.757 5.757 0 0 1-2.013 1.64c-.778.378-1.602.568-2.47.568zm1.132-2.73c.418 0 .824-.07 1.217-.213.393-.142.72-.332.976-.57.37-.284.555-.585.555-.9v-1.187a6.316 6.316 0 0 0-1.096-.297 6.182 6.182 0 0 0-1.097-.106c-.707 0-1.29.158-1.747.475-.458.315-.687.726-.687 1.233 0 .46.176.834.53 1.127.353.293.802.44 1.348.44zm17.29-6.715c-.933.016-1.772.166-2.52.45-.745.286-1.296.713-1.65 1.282v7.476h-3.853V12.183h3.54v2.515c.45-.838 1.017-1.49 1.7-1.957.682-.467 1.41-.716 2.18-.748.32 0 .52.008.602.024v3.417zm.713 2.966c0-.855.154-1.674.46-2.457a6.1 6.1 0 0 1 1.324-2.064c.578-.595 1.29-1.065 2.132-1.413.843-.348 1.803-.522 2.88-.522 1.46 0 2.688.304 3.684.913.996.61 1.743 1.404 2.24 2.385l-3.757 1.116c-.498-.792-1.23-1.188-2.193-1.188-.803 0-1.473.293-2.01.878-.54.585-.808 1.37-.808 2.35 0 .49.072.937.217 1.34.143.404.344.748.6 1.033.258.284.56.506.904.664a2.6 2.6 0 0 0 1.096.237c.482 0 .924-.114 1.325-.344.402-.23.7-.526.892-.89l3.758 1.14c-.466.965-1.21 1.756-2.23 2.373-1.018.617-2.26.925-3.72.925-1.06 0-2.012-.178-2.855-.534-.843-.356-1.558-.83-2.144-1.424a6.01 6.01 0 0 1-1.337-2.064 6.706 6.706 0 0 1-.46-2.457zm26.468 6.24h-3.855v-7c0-.807-.164-1.4-.494-1.78-.33-.38-.775-.57-1.338-.57-.224 0-.47.052-.734.155a2.967 2.967 0 0 0-.77.45c-.25.2-.48.432-.688.7-.208.27-.37.57-.48.903v7.143h-3.856V7.318h3.855v6.953a4.778 4.778 0 0 1 1.84-1.72c.764-.404 1.61-.605 2.543-.605.85 0 1.538.146 2.06.44.52.29.923.663 1.204 1.114.28.45.47.956.566 1.518.096.56.145 1.11.145 1.65v7.973z" id="a"/></defs><g fill="none" fill-rule="evenodd"><path d="M22.71 15.405a1.185 1.185 0 0 0-.184-.867l-2.488-3.618a6.486 6.486 0 0 0 1.728-3.393c.617-3.496-1.67-6.82-5.108-7.425-3.44-.607-6.723 1.734-7.34 5.23-.616 3.497 1.67 6.82 5.11 7.425 1.254.222 2.56.054 3.723-.492l2.49 3.61c.166.25.436.428.736.48.62.11 1.224-.32 1.335-.95zm-3.21-8.28c-.392 2.22-2.487 3.713-4.67 3.328-2.185-.385-3.643-2.505-3.252-4.725.392-2.22 2.488-3.713 4.67-3.328 2.185.385 3.643 2.505 3.252 4.725zM14.494 22.13c.22-.22.52-.343.815-.345l4.39-.037a6.486 6.486 0 0 1 1.788-3.362c2.51-2.51 6.543-2.544 9.013-.074 2.47 2.47 2.436 6.5-.074 9.012-2.51 2.51-6.543 2.544-9.012.075a6.233 6.233 0 0 1-1.733-3.335l-4.383.03c-.3.01-.6-.11-.817-.326-.444-.445-.438-1.188.014-1.64zm8.606-2.106c-1.594 1.594-1.615 4.167-.047 5.735 1.568 1.567 4.14 1.546 5.735-.048 1.594-1.595 1.616-4.168.048-5.736-1.568-1.567-4.14-1.546-5.736.048zm-9.59-5.908c.075.3.026.623-.124.877l-2.23 3.783a6.486 6.486 0 0 1 1.96 3.264c.86 3.445-1.188 6.92-4.577 7.763-3.39.845-6.828-1.26-7.687-4.705-.86-3.445 1.19-6.92 4.577-7.764a6.233 6.233 0 0 1 3.75.232l2.232-3.774c.148-.262.404-.458.7-.532.61-.152 1.243.236 1.398.856zM10.883 22.6c-.546-2.187-2.74-3.53-4.892-2.994-2.15.536-3.457 2.753-2.912 4.94.546 2.188 2.74 3.53 4.892 2.995 2.15-.536 3.458-2.752 2.913-4.94zM40.244 24.396V12.113h3.846v12.283h-3.846zm0-13.687V7.316h3.846v3.392h-3.846zm18.43 13.686h-3.847v-6.902c0-.81-.156-1.4-.47-1.766-.31-.367-.724-.55-1.237-.55-.272 0-.55.054-.83.164-.28.11-.544.26-.792.456a4.06 4.06 0 0 0-.685.69 3.08 3.08 0 0 0-.48.866v7.042h-3.847V12.113h3.46v2.06c.466-.734 1.123-1.3 1.972-1.697.85-.398 1.827-.597 2.933-.597.818 0 1.48.143 1.984.432.505.29.893.663 1.166 1.123.272.46.453.963.54 1.51.09.545.133 1.075.133 1.59v7.86zm7.587.234c-.528 0-1.077-.04-1.646-.117a17.977 17.977 0 0 1-1.694-.316 12.835 12.835 0 0 1-1.61-.492 8.2 8.2 0 0 1-1.347-.643l1.514-2.527c.834.468 1.643.827 2.428 1.077.785.25 1.54.374 2.26.374.56 0 .99-.086 1.286-.257.297-.173.445-.423.445-.75 0-.328-.2-.58-.6-.76-.4-.18-1.09-.394-2.068-.644-.85-.218-1.57-.437-2.163-.655-.593-.217-1.07-.463-1.43-.736-.36-.273-.62-.58-.782-.924-.16-.343-.24-.75-.24-1.216 0-.624.132-1.194.397-1.708.263-.515.628-.952 1.092-1.31a5.326 5.326 0 0 1 1.647-.843 6.786 6.786 0 0 1 2.078-.304c.882 0 1.783.128 2.704.385.922.258 1.823.612 2.705 1.065l-1.515 2.363c-.785-.422-1.486-.73-2.103-.925a5.932 5.932 0 0 0-1.792-.292c-.48 0-.877.082-1.19.246-.312.163-.468.425-.468.783 0 .172.04.316.12.433.08.117.212.226.396.328.185.1.43.195.734.28.304.086.68.184 1.13.293.93.233 1.714.467 2.355.7.64.235 1.162.496 1.562.785.4.288.69.62.866.994.176.373.264.818.264 1.332 0 .61-.124 1.158-.372 1.65-.25.49-.605.908-1.07 1.25-.465.345-1.026.61-1.683.797-.657.186-1.394.28-2.21.28zm15.04-.89c-.528.22-1.13.422-1.802.61a7.68 7.68 0 0 1-2.068.28c-.48 0-.933-.06-1.358-.176a3.06 3.06 0 0 1-1.117-.56 2.627 2.627 0 0 1-.758-1.02c-.184-.42-.276-.927-.276-1.52v-6.41h-1.61v-2.83h1.61V8.205h3.847v3.907h2.572v2.83h-2.573v5.124c0 .406.108.698.324.878.218.18.486.27.807.27.272 0 .56-.048.865-.142.305-.093.577-.194.817-.304l.72 2.97zm4.872.89a5.068 5.068 0 0 1-1.743-.293 4.1 4.1 0 0 1-1.383-.82 3.932 3.932 0 0 1-.913-1.24 3.6 3.6 0 0 1-.337-1.554c0-.61.132-1.162.397-1.662a3.84 3.84 0 0 1 1.118-1.285c.48-.36 1.05-.64 1.706-.842.657-.203 1.387-.305 2.188-.305.53 0 1.04.043 1.538.13.497.085.93.214 1.298.385v-.56c0-1.42-.84-2.13-2.524-2.13-.69 0-1.346.113-1.97.34-.626.225-1.283.564-1.972 1.017l-1.13-2.34c.834-.53 1.7-.928 2.596-1.193.898-.265 1.85-.398 2.86-.398 1.908 0 3.382.436 4.424 1.31 1.04.873 1.562 2.152 1.562 3.836v3.158c0 .375.072.636.217.784.144.148.4.238.77.27v3.158c-.37.078-.71.128-1.023.152-.312.023-.59.035-.83.035-.704-.016-1.24-.156-1.61-.42-.368-.266-.6-.65-.697-1.148l-.072-.56a5.73 5.73 0 0 1-2.007 1.613c-.777.374-1.598.562-2.464.562zm1.13-2.69c.417 0 .82-.07 1.214-.21.392-.142.717-.33.973-.563.368-.28.552-.577.552-.89v-1.17a6.364 6.364 0 0 0-1.093-.29 6.24 6.24 0 0 0-1.095-.106c-.705 0-1.286.157-1.743.468-.457.312-.685.718-.685 1.217 0 .452.176.823.53 1.11.35.29.8.434 1.345.434zm21.434 2.456h-3.846v-6.902c0-.81-.157-1.4-.47-1.766-.312-.367-.724-.55-1.237-.55-.272 0-.55.054-.83.164-.28.11-.544.26-.793.456a4.06 4.06 0 0 0-.685.69 3.08 3.08 0 0 0-.48.866v7.042h-3.847V12.113h3.462v2.06c.465-.734 1.122-1.3 1.97-1.697.85-.398 1.828-.597 2.934-.597.817 0 1.478.143 1.983.432.505.29.893.663 1.166 1.123.272.46.452.963.54 1.51.09.545.133 1.075.133 1.59v7.86zm10.448-.655c-.53.22-1.13.422-1.803.61a7.68 7.68 0 0 1-2.066.28c-.48 0-.933-.06-1.358-.176a3.06 3.06 0 0 1-1.118-.56 2.627 2.627 0 0 1-.757-1.02c-.183-.42-.276-.927-.276-1.52v-6.41h-1.61v-2.83h1.61V8.205h3.847v3.907h2.573v2.83h-2.572v5.124c0 .406.11.698.325.878.216.18.485.27.805.27.273 0 .56-.048.866-.142.304-.093.577-.194.817-.304l.72 2.97zm79.557.656v-1.99h1.06v1.99h-1.06zm2.036 4.14c-.512 0-.99-.066-1.43-.198a3.145 3.145 0 0 1-1.19-.667l.65-.77c.272.217.568.365.89.443.32.078.64.117.96.117.305 0 .6-.058.89-.175a2.47 2.47 0 0 0 .77-.49c.223-.212.408-.46.552-.75a2.09 2.09 0 0 0 .216-.948V12.23h1.202v12.82c0 .515-.1.983-.3 1.404-.2.422-.47.788-.806 1.1a3.752 3.752 0 0 1-1.13.725c-.416.17-.84.257-1.274.257zm2.308-19.067V7.316h1.202V9.47h-1.202zm8.694 15.16a8.224 8.224 0 0 1-2.765-.468 6.42 6.42 0 0 1-2.307-1.404l.6-.795c.674.592 1.37 1.03 2.092 1.31.72.28 1.514.42 2.38.42 1.09 0 1.967-.22 2.632-.666.665-.445.998-1.064.998-1.86 0-.374-.085-.69-.253-.947-.168-.258-.42-.476-.757-.656a6.35 6.35 0 0 0-1.25-.48c-.497-.14-1.074-.288-1.73-.444a26.286 26.286 0 0 1-1.84-.468c-.52-.155-.95-.343-1.286-.56a2.19 2.19 0 0 1-.757-.796c-.168-.312-.252-.71-.252-1.194 0-.608.12-1.138.36-1.59a3.16 3.16 0 0 1 .998-1.123c.426-.298.914-.52 1.467-.668a6.8 6.8 0 0 1 1.767-.222c.977 0 1.843.16 2.596.48.753.32 1.338.728 1.755 1.227l-.673.632c-.417-.47-.958-.82-1.623-1.054a6.364 6.364 0 0 0-2.128-.35c-.465 0-.902.046-1.31.14a3.2 3.2 0 0 0-1.07.444 2.21 2.21 0 0 0-.72.784c-.177.32-.265.698-.265 1.135 0 .357.06.646.18.864.12.22.312.406.577.562.264.156.605.292 1.02.41.418.116.915.245 1.492.385.785.188 1.482.368 2.09.54.61.17 1.12.38 1.527.63.41.25.722.547.938.89.217.343.325.78.325 1.31 0 1.092-.436 1.96-1.31 2.61-.873.646-2.04.97-3.497.97z" fill="#FFF"/><g><use fill="#00B7E5" xlink:href="#a"/><use xlink:href="#a"/></g></g></svg>