<?xml version="1.0" encoding="UTF-8" standalone="no"?>
<svg width="406px" height="146px" viewBox="0 0 406 146" version="1.1" xmlns="http://www.w3.org/2000/svg" xmlns:xlink="http://www.w3.org/1999/xlink" xmlns:sketch="http://www.bohemiancoding.com/sketch/ns">
    <!-- Generator: Sketch 3.5.1 (25234) - http://www.bohemiancoding.com/sketch -->
    <title>logo-superbowl</title>
    <desc>Created with Sketch.</desc>
    <defs>
        <linearGradient x1="9.25748094%" y1="100%" x2="77.2431823%" y2="70.6510607%" id="linearGradient-1">
            <stop stop-color="#144A9D" offset="0%"></stop>
            <stop stop-color="#396FC7" offset="100%"></stop>
        </linearGradient>
        <path d="M35.4542059,7.4114163 L34.6784114,10.2192506 L37.1769576,8.82060142 C36.8140929,8.14103177 36.1949121,7.62718405 35.4542059,7.4114163 Z M29.3231089,10.2772571 C29.3231089,13.2851733 31.7103044,15.7241379 34.6559989,15.7241379 C37.6016934,15.7241379 39.9888889,13.2851733 39.9888889,10.2772571 C39.9888889,7.26934099 37.6016934,4.83037632 34.6559989,4.83037632 C31.7103044,4.83037632 29.3231089,7.26934099 29.3231089,10.2772571 Z M34.6559989,6.38662798 C36.7563005,6.38662798 38.465206,8.13206148 38.465206,10.2772571 C38.465206,12.4224528 36.7563005,14.1678863 34.6559989,14.1678863 C32.5556973,14.1678863 30.8467918,12.4224528 30.8467918,10.2772571 C30.8467918,8.13206148 32.5556973,6.38662798 34.6559989,6.38662798 Z M36.4966447,4.15666741 C36.4980806,4.13555262 36.5026276,4.11541992 36.5026276,4.0938141 L36.5026276,3.60277262 C36.5023883,3.06066282 36.0740104,2.62093518 35.5453585,2.62068966 L33.8698981,2.62068966 C33.3414856,2.62093518 32.9128683,3.0604173 32.9128683,3.60277262 L32.9128683,4.08522087 C33.4463065,3.93201593 34.0075056,3.84829336 34.5880893,3.84829336 C35.2536307,3.84829336 35.8947617,3.95730457 36.4966447,4.15666741 Z M30.6479695,5.1178811 C30.2741559,4.73437771 29.6677258,4.73462323 29.2939122,5.1178811 L29.1247149,5.29146427 C28.7509013,5.67472214 28.7511406,6.2968717 29.1247149,6.6803751 L29.3049208,6.86500669 C29.6885464,6.23352735 30.176993,5.67619527 30.7446536,5.217317 L30.6479695,5.1178811 Z" id="path-2"></path>
        <linearGradient x1="50%" y1="0%" x2="53.4044252%" y2="126.20081%" id="linearGradient-3">
            <stop stop-color="#2270C3" offset="0%"></stop>
            <stop stop-color="#0F3D90" offset="100%"></stop>
        </linearGradient>
        <linearGradient x1="50%" y1="0%" x2="50%" y2="100%" id="linearGradient-4">
            <stop stop-color="#F2AEC8" offset="0%"></stop>
            <stop stop-color="#3D58B3" offset="100%"></stop>
        </linearGradient>
        <linearGradient x1="50%" y1="0%" x2="50%" y2="100%" id="linearGradient-5">
            <stop stop-color="#BA2960" offset="0%"></stop>
            <stop stop-color="#3D58B3" offset="100%"></stop>
        </linearGradient>
    </defs>
    <g id="Page-1" stroke="none" stroke-width="1" fill="none" fill-rule="evenodd" sketch:type="MSPage">
        <g id="-superbowl" sketch:type="MSArtboardGroup" transform="translate(-192.000000, -109.000000)">
            <g id="logo-superbowl" sketch:type="MSLayerGroup" transform="translate(192.000000, 109.000000)">
                <path d="M59.3789062,110 L35,83 L123.613281,83 L123.613281,137 L35,137 L59.3789062,110 Z" id="Rectangle-437-Copy" fill="#396FC7" sketch:type="MSShapeGroup" transform="translate(79.306641, 110.000000) rotate(-12.000000) translate(-79.306641, -110.000000) "></path>
                <path d="M78,115 L129,115 L129,127 L78,115 Z" id="Rectangle-439" fill="#43215E" sketch:type="MSShapeGroup"></path>
                <path d="M329.701611,109 L305.322705,82 L393.935986,82 L393.935986,136 L305.322705,136 L329.701611,109 Z" id="Rectangle-437-Copy-2" fill="url(#linearGradient-1)" sketch:type="MSShapeGroup" transform="translate(349.629345, 109.000000) scale(-1, 1) rotate(-12.000000) translate(-349.629345, -109.000000) "></path>
                <path d="M301,114 L352,114 L352,126 L301,114 Z" id="Rectangle-439-Copy" fill="#34266D" sketch:type="MSShapeGroup" transform="translate(326.500000, 120.000000) scale(-1, 1) translate(-326.500000, -120.000000) "></path>
                <g id="Algolia_logo_bg-dark" transform="translate(190.000000, 124.000000)">
                    <g id="Group" transform="translate(28.844444, 2.620690)"></g>
                    <g id="Fill-4">
                        <use fill="#00B7E5" fill-rule="evenodd" sketch:type="MSShapeGroup" xlink:href="#path-2"></use>
                        <use fill="none" xlink:href="#path-2"></use>
                    </g>
                    <path d="M10.4149236,14.4137931 C10.1965051,13.8463108 9.99139619,13.2886328 9.79888374,12.7402923 C9.60637129,12.1919518 9.40720408,11.6340403 9.20209514,11.0667915 L3.15720419,11.0667915 L1.94437575,14.4137931 L0,14.4137931 C0.513128865,13.0271848 0.994409992,11.7446889 1.44384338,10.5658384 C1.8930391,9.38722136 2.33225269,8.26836387 2.7626725,7.2097328 C3.1923793,6.15063485 3.61923407,5.1391578 4.04276146,4.17483477 C4.46628885,3.21051173 4.90906749,2.25575957 5.37109737,1.31034483 L7.08445818,1.31034483 C7.54648806,2.25575957 7.9892667,3.21051173 8.41279409,4.17483477 C8.83632148,5.1391578 9.26293858,6.15063485 9.69312072,7.2097328 C10.1228275,8.26836387 10.5622788,9.38722136 11.0117122,10.5658384 C11.4609079,11.7446889 11.942189,13.0271848 12.4555556,14.4137931 L10.4149236,14.4137931 L10.4149236,14.4137931 Z M8.66306028,9.55436135 C8.25212938,8.45744682 7.84476353,7.39578108 7.44072505,6.36819696 C7.03621124,5.34084628 6.61577355,4.35458029 6.17964967,3.40893211 C5.73021628,4.35458029 5.30359918,5.34084628 4.8995607,6.36819696 C4.49528456,7.39578108 4.09386045,8.45744682 3.69623905,9.55436135 L8.66306028,9.55436135 L8.66306028,9.55436135 Z" id="Fill-5" fill="#FFFFFF" sketch:type="MSShapeGroup"></path>
                    <path d="M16.7952207,15.0689655 C15.6960799,15.0434032 14.9166935,14.8071888 14.4565881,14.3596122 C13.996246,13.9125089 13.7666667,13.2159367 13.7666667,12.2698956 L13.7666667,0.30674739 L15.5491018,0 L15.5491018,11.9823199 C15.5491018,12.2767595 15.5748999,12.5193645 15.6257861,12.7110816 C15.6771456,12.9025621 15.7602202,13.0561725 15.8750098,13.1712027 C15.9900362,13.2859963 16.1436413,13.3723874 16.3353519,13.4299025 C16.5272992,13.4874176 16.7635056,13.5354653 17.0444444,13.5738087 L16.7952207,15.0689655" id="Fill-6" fill="#FFFFFF" sketch:type="MSShapeGroup"></path>
                    <path d="M25.7637087,14.3954858 C25.6117723,14.4978823 25.3168231,14.6281193 24.8793309,14.7873766 C24.4418387,14.9466338 23.9313136,15.0263804 23.3479907,15.0263804 C22.7519867,15.0263804 22.190738,14.9305901 21.664714,14.7397174 C21.1384553,14.5483728 20.678654,14.2522722 20.285545,13.850944 C19.892436,13.4493798 19.5817532,12.9496659 19.3534963,12.3508587 C19.1254744,11.7520515 19.0111111,11.038579 19.0111111,10.2104413 C19.0111111,9.48422827 19.1186642,8.81841502 19.3344749,8.21323749 C19.5500508,7.60829589 19.8637865,7.08569618 20.2761517,6.64614619 C20.6880473,6.20659619 21.191997,5.86260054 21.7882357,5.61415923 C22.3842397,5.36571793 23.0563292,5.24137931 23.8045043,5.24137931 C24.628765,5.24137931 25.3482906,5.30225097 25.9635508,5.42305054 C26.5785761,5.54432198 27.0952068,5.65568409 27.5136776,5.75737279 L27.5136776,14.6250522 C27.5136776,16.1539217 27.1208035,17.2621162 26.3345855,17.9501075 C25.5478979,18.6380988 24.3561249,18.9818585 22.7583272,18.9818585 C22.1369614,18.9818585 21.5505856,18.9313681 20.998965,18.8294435 C20.4473443,18.7270469 19.9685217,18.6064833 19.5629666,18.4663369 L19.8863304,16.9183565 C20.2411617,17.058031 20.6756012,17.1826056 21.189179,17.2909005 C21.7027568,17.3989595 22.2384089,17.4534609 22.79637,17.4534609 C23.8488876,17.4534609 24.606456,17.2432413 25.0695449,16.8225662 C25.532399,16.402363 25.7637087,15.7332467 25.7637087,14.8159249 L25.7637087,14.3954858 L25.7637087,14.3954858 Z M25.0315021,6.87547662 C24.7332653,6.83112053 24.3307631,6.80847061 23.8237605,6.80847061 C22.8726905,6.80847061 22.1402491,7.12108668 21.6266712,7.74513915 C21.1130934,8.36942755 20.8564219,9.1973293 20.8564219,10.2293162 C20.8564219,10.8028783 20.928985,11.2933906 21.0750506,11.7010891 C21.2208813,12.1090236 21.4174358,12.4461771 21.664714,12.7139652 C21.9119923,12.9812815 22.1973133,13.1789964 22.5206771,13.3061662 C22.8440409,13.433808 23.1770329,13.4972749 23.5194181,13.4972749 C23.9883778,13.4972749 24.4195296,13.4305049 24.8126386,13.2967288 C25.2055127,13.1627167 25.5164304,13.0069986 25.7446873,12.8286304 L25.7446873,7.01892611 C25.5669193,6.96796379 25.3295041,6.92030459 25.0315021,6.87547662 Z" id="Fill-7" fill="#FFFFFF" sketch:type="MSShapeGroup"></path>
                    <path d="M44.32859,15.0689655 C43.2293713,15.0431665 42.4500975,14.8071888 41.9900585,14.3596122 C41.5300195,13.9125089 41.3,13.2157 41.3,12.2698956 L41.3,0.30674739 L43.0828877,0 L43.0828877,11.9820832 C43.0828877,12.2765228 43.1082088,12.5191278 43.1593242,12.710845 C43.2104397,12.9025621 43.2935023,13.0559358 43.4087487,13.170966 C43.5235218,13.2859963 43.6766315,13.3723874 43.868551,13.4299025 C44.0602339,13.4874176 44.2964062,13.5352286 44.5777778,13.573572 L44.32859,15.0689655" id="Fill-8" fill="#FFFFFF" sketch:type="MSShapeGroup"></path>
                    <path d="M47.8552858,3.04441529 C47.491358,3.04441529 47.1813855,2.93658263 46.9269867,2.72140087 C46.6717787,2.50573556 46.5444444,2.21560285 46.5444444,1.84979385 C46.5444444,1.48422664 46.6717787,1.19361037 46.9269867,0.97842861 C47.1813855,0.762763294 47.491358,0.655172414 47.8552858,0.655172414 C48.2194833,0.655172414 48.5291861,0.762763294 48.7843941,0.97842861 C49.0387929,1.19361037 49.1666667,1.48422664 49.1666667,1.84979385 C49.1666667,2.21560285 49.0387929,2.50573556 48.7843941,2.72140087 C48.5291861,2.93658263 48.2194833,3.04441529 47.8552858,3.04441529 L47.8552858,3.04441529 Z M46.8503704,4.88530735 L48.8825926,4.88530735 L48.8825926,15.0689655 L46.8503704,15.0689655 L46.8503704,4.88530735 Z" id="Fill-9" fill="#FFFFFF" sketch:type="MSShapeGroup"></path>
                    <path d="M55.1152263,4.5862069 C55.8403841,4.5862069 56.452116,4.68554438 56.9509018,4.88320828 C57.4492079,5.08112495 57.8506346,5.36093817 58.1549418,5.72239517 C58.4592491,6.08435771 58.6762689,6.5143146 58.8057613,7.01251862 C58.935014,7.51072265 59,8.05998563 59,8.66056034 L59,15.3149079 C58.8446091,15.3422068 58.6275893,15.3796163 58.3494203,15.4273893 C58.0707717,15.4751623 57.7568724,15.5193966 57.4072428,15.5603448 C57.0576132,15.6012931 56.6787278,15.6387026 56.2710664,15.6728262 C55.8629254,15.706697 55.4581415,15.7241379 55.0569547,15.7241379 C54.4869481,15.7241379 53.9627435,15.6627155 53.4836214,15.5398707 C53.0044993,15.4170259 52.5901235,15.2223952 52.2404938,14.9564841 C51.8908642,14.6903203 51.61893,14.338974 51.4246914,13.9019397 C51.2304527,13.465158 51.1333333,12.9396552 51.1333333,12.325431 C51.1333333,11.7387585 51.2465193,11.233477 51.4733709,10.8103448 C51.6995031,10.3874654 52.0071676,10.0462298 52.3958848,9.78663793 C52.7843621,9.52755162 53.2375857,9.3362069 53.7555556,9.21336207 C54.2732856,9.09051724 54.8171539,9.02909483 55.3871605,9.02909483 C55.5682101,9.02909483 55.756214,9.03920551 55.9504527,9.05967965 C56.1446914,9.08015379 56.329338,9.10795817 56.503913,9.14182897 C56.6787278,9.17595253 56.8310014,9.20653736 56.9607336,9.23383621 C57.0899863,9.26138782 57.180631,9.28186196 57.232428,9.29525862 L57.232428,8.76293103 C57.232428,8.44899425 57.2000549,8.13859621 57.1353086,7.83123138 C57.0703226,7.52411931 56.9537794,7.25138357 56.785679,7.01251862 C56.6173388,6.77365368 56.3873698,6.58256173 56.0960118,6.43899 C55.8046538,6.2959238 55.4257684,6.22413793 54.9598354,6.22413793 C54.3639303,6.22413793 53.8430829,6.26862495 53.3960941,6.35734621 C52.9495849,6.44606748 52.6160219,6.53832748 52.3958848,6.63362069 L52.1822222,5.05711207 C52.4153086,4.94816943 52.8040258,4.84226 53.3476543,4.73988931 C53.8915226,4.63726586 54.4807133,4.5862069 55.1152263,4.5862069 L55.1152263,4.5862069 Z M55.2706173,14.1271552 C55.6979424,14.1271552 56.0768277,14.1167917 56.4070335,14.0963176 C56.7372392,14.0758434 57.0122908,14.0386867 57.232428,13.9838362 L57.232428,10.8103448 C57.1026957,10.7423505 56.8923904,10.684214 56.6012722,10.636441 C56.3096743,10.5886681 55.9569273,10.5644024 55.5425514,10.5644024 C55.2706173,10.5644024 54.9823767,10.5851293 54.6783092,10.6260776 C54.3740019,10.6670259 54.0953534,10.7524612 53.8430829,10.8818779 C53.5903328,11.0118002 53.3797876,11.18899 53.2116872,11.4144583 C53.0433471,11.639421 52.959177,11.9364224 52.959177,12.3049569 C52.959177,12.9874282 53.1661251,13.4616193 53.5807407,13.7277831 C53.9951166,13.9941997 54.5584088,14.1271552 55.2706173,14.1271552 L55.2706173,14.1271552 Z" id="Fill-10" fill="#FFFFFF" sketch:type="MSShapeGroup"></path>
                </g>
                <path d="M173.268182,138.12 C172.772179,138.12 172.312184,137.992001 171.888182,137.736 C171.46418,137.479999 171.132183,137.152002 170.892182,136.752 L170.892182,138 L170.352182,138 L170.352182,129.24 L170.952182,129.24 L170.952182,133.116 C171.248183,132.683998 171.59618,132.332001 171.996182,132.06 C172.396184,131.787999 172.860179,131.652 173.388182,131.652 C173.828184,131.652 174.22618,131.745999 174.582182,131.934 C174.938184,132.122001 175.238181,132.369998 175.482182,132.678 C175.726183,132.986002 175.914181,133.333998 176.046182,133.722 C176.178183,134.110002 176.244182,134.503998 176.244182,134.904 C176.244182,135.336002 176.168183,135.745998 176.016182,136.134 C175.864181,136.522002 175.654183,136.861999 175.386182,137.154 C175.118181,137.446001 174.802184,137.679999 174.438182,137.856 C174.07418,138.032001 173.684184,138.12 173.268182,138.12 L173.268182,138.12 Z M173.148182,137.58 C173.508184,137.58 173.84018,137.504001 174.144182,137.352 C174.448183,137.199999 174.710181,136.998001 174.930182,136.746 C175.150183,136.493999 175.322181,136.208002 175.446182,135.888 C175.570183,135.567998 175.632182,135.240002 175.632182,134.904 C175.632182,134.551998 175.574183,134.214002 175.458182,133.89 C175.342181,133.565998 175.180183,133.278001 174.972182,133.026 C174.764181,132.773999 174.514183,132.572001 174.222182,132.42 C173.93018,132.267999 173.608184,132.192 173.256182,132.192 C172.992181,132.192 172.742183,132.238 172.506182,132.33 C172.270181,132.422 172.054183,132.543999 171.858182,132.696 C171.662181,132.848001 171.488183,133.023999 171.336182,133.224 C171.184181,133.424001 171.056182,133.631999 170.952182,133.848 L170.952182,135.912 C170.976182,136.144001 171.062181,136.361999 171.210182,136.566 C171.358183,136.770001 171.540181,136.945999 171.756182,137.094 C171.972183,137.242001 172.204181,137.36 172.452182,137.448 C172.700183,137.536 172.932181,137.58 173.148182,137.58 L173.148182,137.58 Z M179.662,140.124 C179.734,140.124 179.839999,140.12 179.98,140.112 C180.120001,140.104 180.226,140.08 180.298,140.04 C180.33,140.024 180.368,139.986 180.412,139.926 C180.456,139.866 180.514,139.764001 180.586,139.62 C180.658,139.475999 180.749999,139.274001 180.862,139.014 C180.974001,138.753999 181.113999,138.416002 181.282,138 L178.498,131.76 L179.134,131.76 L181.606,137.412 L183.922,131.76 L184.51,131.76 L181.09,139.968 C180.969999,140.256001 180.812001,140.446 180.616,140.538 C180.419999,140.63 180.182001,140.676 179.902,140.676 L179.782,140.676 C179.742,140.676 179.702,140.672 179.662,140.664 L179.662,140.124 Z" id="by" fill="#FFFFFF" sketch:type="MSShapeGroup"></path>
                <path d="M79,61 L219.820312,61 L353,61 L353,115 L223.300781,115 L79,115 L79,61 Z" id="Rectangle-437" fill="url(#linearGradient-3)" sketch:type="MSShapeGroup"></path>
                <path d="M114.841507,92.707 C114.841507,93.301003 114.729008,93.8679973 114.504007,94.408 C114.279006,94.9480027 113.968509,95.420498 113.572507,95.8255 C113.176505,96.230502 112.71301,96.5544988 112.182007,96.7975 C111.651004,97.0405012 111.07951,97.162 110.467507,97.162 C109.945505,97.162 109.41451,97.0900007 108.874507,96.946 C108.334504,96.8019993 107.848509,96.5545018 107.416507,96.2035 C106.984505,95.8524982 106.629009,95.3890029 106.350007,94.813 C106.071006,94.2369971 105.931507,93.5080044 105.931507,92.626 L105.931507,82.042 C105.931507,81.4119969 106.039506,80.8270027 106.255507,80.287 C106.471508,79.7469973 106.777505,79.279002 107.173507,78.883 C107.569509,78.486998 108.042004,78.1765011 108.591007,77.9515 C109.14001,77.7264989 109.747504,77.614 110.413507,77.614 C111.04351,77.614 111.628504,77.7264989 112.168507,77.9515 C112.70851,78.1765011 113.176505,78.491498 113.572507,78.8965 C113.968509,79.301502 114.279006,79.7874972 114.504007,80.3545 C114.729008,80.9215028 114.841507,81.5379967 114.841507,82.204 L114.841507,83.284 L112.087507,83.284 L112.087507,82.366 C112.087507,81.8259973 111.934509,81.358002 111.628507,80.962 C111.322506,80.565998 110.90851,80.368 110.386507,80.368 C109.702504,80.368 109.248008,80.5794979 109.023007,81.0025 C108.798006,81.4255021 108.685507,81.9609968 108.685507,82.609 L108.685507,92.437 C108.685507,92.9950028 108.807006,93.4629981 109.050007,93.841 C109.293008,94.2190019 109.729504,94.408 110.359507,94.408 C110.539508,94.408 110.733006,94.3765003 110.940007,94.3135 C111.147008,94.2504997 111.336006,94.1470007 111.507007,94.003 C111.678008,93.8589993 111.817507,93.6610013 111.925507,93.409 C112.033508,93.1569987 112.087507,92.8420019 112.087507,92.464 L112.087507,91.519 L114.841507,91.519 L114.841507,92.707 Z M126.280506,82.312 C126.280506,81.5379961 126.415504,80.854003 126.685506,80.26 C126.955507,79.665997 127.311004,79.1755019 127.752006,78.7885 C128.193008,78.4014981 128.688003,78.109001 129.237006,77.911 C129.786009,77.712999 130.339503,77.614 130.897506,77.614 C131.455509,77.614 132.009003,77.712999 132.558006,77.911 C133.107009,78.109001 133.602004,78.4014981 134.043006,78.7885 C134.484008,79.1755019 134.839504,79.665997 135.109506,80.26 C135.379507,80.854003 135.514506,81.5379961 135.514506,82.312 L135.514506,92.464 C135.514506,93.256004 135.379507,93.9444971 135.109506,94.5295 C134.839504,95.1145029 134.484008,95.6004981 134.043006,95.9875 C133.602004,96.3745019 133.107009,96.666999 132.558006,96.865 C132.009003,97.063001 131.455509,97.162 130.897506,97.162 C130.339503,97.162 129.786009,97.063001 129.237006,96.865 C128.688003,96.666999 128.193008,96.3745019 127.752006,95.9875 C127.311004,95.6004981 126.955507,95.1145029 126.685506,94.5295 C126.415504,93.9444971 126.280506,93.256004 126.280506,92.464 L126.280506,82.312 Z M129.034506,92.464 C129.034506,93.1300033 129.219004,93.6204984 129.588006,93.9355 C129.957008,94.2505016 130.393503,94.408 130.897506,94.408 C131.401508,94.408 131.838004,94.2505016 132.207006,93.9355 C132.576008,93.6204984 132.760506,93.1300033 132.760506,92.464 L132.760506,82.312 C132.760506,81.6459967 132.576008,81.1555016 132.207006,80.8405 C131.838004,80.5254984 131.401508,80.368 130.897506,80.368 C130.393503,80.368 129.957008,80.5254984 129.588006,80.8405 C129.219004,81.1555016 129.034506,81.6459967 129.034506,82.312 L129.034506,92.464 Z M147.304505,77.776 L149.950505,77.776 L153.487505,87.955 L153.541505,87.955 L157.051505,77.776 L159.724505,77.776 L159.724505,97 L156.970505,97 L156.970505,85.309 L156.916505,85.309 L154.189505,93.571 L152.812505,93.571 L150.112505,85.309 L150.058505,85.309 L150.058505,97 L147.304505,97 L147.304505,77.776 Z M171.676503,77.776 L174.322503,77.776 L177.859503,87.955 L177.913503,87.955 L181.423503,77.776 L184.096503,77.776 L184.096503,97 L181.342503,97 L181.342503,85.309 L181.288503,85.309 L178.561503,93.571 L177.184503,93.571 L174.484503,85.309 L174.430503,85.309 L174.430503,97 L171.676503,97 L171.676503,77.776 Z M196.048502,77.776 L204.256502,77.776 L204.256502,80.368 L198.802502,80.368 L198.802502,86.011 L203.554502,86.011 L203.554502,88.603 L198.802502,88.603 L198.802502,94.246 L204.256502,94.246 L204.256502,97 L196.048502,97 L196.048502,77.776 Z M218.152501,86.362 L219.718501,86.362 C220.204503,86.362 220.591499,86.2945007 220.879501,86.1595 C221.167502,86.0244993 221.388,85.8310013 221.541001,85.579 C221.694001,85.3269987 221.7975,85.0165018 221.851501,84.6475 C221.905501,84.2784982 221.932501,83.8510024 221.932501,83.365 C221.932501,82.8789976 221.905501,82.4515018 221.851501,82.0825 C221.7975,81.7134982 221.685002,81.3985013 221.514001,81.1375 C221.343,80.8764987 221.104502,80.6830006 220.798501,80.557 C220.492499,80.4309994 220.087503,80.368 219.583501,80.368 L218.152501,80.368 L218.152501,86.362 Z M215.398501,77.776 L219.826501,77.776 C223.066517,77.776 224.686501,79.6569812 224.686501,83.419 C224.686501,84.5350056 224.511002,85.493496 224.160001,86.2945 C223.808999,87.095504 223.192505,87.7389976 222.310501,88.225 L225.280501,97 L222.364501,97 L219.799501,88.792 L218.152501,88.792 L218.152501,97 L215.398501,97 L215.398501,77.776 Z M245.008499,92.707 C245.008499,93.301003 244.896,93.8679973 244.670999,94.408 C244.445998,94.9480027 244.135501,95.420498 243.739499,95.8255 C243.343497,96.230502 242.880002,96.5544988 242.348999,96.7975 C241.817997,97.0405012 241.246502,97.162 240.634499,97.162 C240.112497,97.162 239.581502,97.0900007 239.041499,96.946 C238.501497,96.8019993 238.015502,96.5545018 237.583499,96.2035 C237.151497,95.8524982 236.796001,95.3890029 236.516999,94.813 C236.237998,94.2369971 236.098499,93.5080044 236.098499,92.626 L236.098499,82.042 C236.098499,81.4119969 236.206498,80.8270027 236.422499,80.287 C236.6385,79.7469973 236.944497,79.279002 237.340499,78.883 C237.736501,78.486998 238.208997,78.1765011 238.757999,77.9515 C239.307002,77.7264989 239.914496,77.614 240.580499,77.614 C241.210503,77.614 241.795497,77.7264989 242.335499,77.9515 C242.875502,78.1765011 243.343497,78.491498 243.739499,78.8965 C244.135501,79.301502 244.445998,79.7874972 244.670999,80.3545 C244.896,80.9215028 245.008499,81.5379967 245.008499,82.204 L245.008499,83.284 L242.254499,83.284 L242.254499,82.366 C242.254499,81.8259973 242.101501,81.358002 241.795499,80.962 C241.489498,80.565998 241.075502,80.368 240.553499,80.368 C239.869496,80.368 239.415,80.5794979 239.189999,81.0025 C238.964998,81.4255021 238.852499,81.9609968 238.852499,82.609 L238.852499,92.437 C238.852499,92.9950028 238.973998,93.4629981 239.216999,93.841 C239.460001,94.2190019 239.896496,94.408 240.526499,94.408 C240.7065,94.408 240.899998,94.3765003 241.106999,94.3135 C241.314,94.2504997 241.502998,94.1470007 241.673999,94.003 C241.845,93.8589993 241.984499,93.6610013 242.092499,93.409 C242.2005,93.1569987 242.254499,92.8420019 242.254499,92.464 L242.254499,91.519 L245.008499,91.519 L245.008499,92.707 Z M256.690498,77.776 L259.444498,77.776 L259.444498,97 L256.690498,97 L256.690498,77.776 Z M275.689497,83.311 L275.635497,83.311 L274.285497,90.277 L277.039497,90.277 L275.689497,83.311 Z M274.528497,77.776 L276.823497,77.776 L281.116497,97 L278.362497,97 L277.552497,92.869 L273.799497,92.869 L272.989497,97 L270.235497,97 L274.528497,77.776 Z M291.826495,77.776 L294.580495,77.776 L294.580495,94.246 L300.034495,94.246 L300.034495,97 L291.826495,97 L291.826495,77.776 Z M320.086494,83.311 L317.332494,83.311 L317.332494,82.69 C317.332494,82.0599969 317.183996,81.5155023 316.886994,81.0565 C316.589993,80.5974977 316.090498,80.368 315.388494,80.368 C315.010492,80.368 314.699995,80.4399993 314.456994,80.584 C314.213993,80.7280007 314.024995,80.9124989 313.889994,81.1375 C313.754993,81.3625011 313.660494,81.6234985 313.606494,81.9205 C313.552494,82.2175015 313.525494,82.5279984 313.525494,82.852 C313.525494,83.2300019 313.538994,83.5494987 313.565994,83.8105 C313.592994,84.0715013 313.660494,84.2964991 313.768494,84.4855 C313.876495,84.6745009 314.033993,84.8409993 314.240994,84.985 C314.447995,85.1290007 314.731492,85.2729993 315.091494,85.417 L317.197494,86.254 C317.809497,86.4880012 318.304492,86.7624984 318.682494,87.0775 C319.060496,87.3925016 319.352993,87.7614979 319.559994,88.1845 C319.766995,88.6075021 319.906494,89.0934973 319.978494,89.6425 C320.050495,90.1915027 320.086494,90.8169965 320.086494,91.519 C320.086494,92.3290041 320.005495,93.0804965 319.843494,93.7735 C319.681493,94.4665035 319.415996,95.0604975 319.046994,95.5555 C318.677992,96.0505025 318.187497,96.4419986 317.575494,96.73 C316.963491,97.0180014 316.216499,97.162 315.334494,97.162 C314.668491,97.162 314.047497,97.0450012 313.471494,96.811 C312.895491,96.5769988 312.400496,96.257502 311.986494,95.8525 C311.572492,95.447498 311.243995,94.9660028 311.000994,94.408 C310.757993,93.8499972 310.636494,93.2470032 310.636494,92.599 L310.636494,91.573 L313.390494,91.573 L313.390494,92.437 C313.390494,92.9410025 313.538993,93.395498 313.835994,93.8005 C314.132996,94.205502 314.632491,94.408 315.334494,94.408 C315.802497,94.408 316.166993,94.3405007 316.427994,94.2055 C316.688995,94.0704993 316.886993,93.8815012 317.021994,93.6385 C317.156995,93.3954988 317.242494,93.0940018 317.278494,92.734 C317.314494,92.3739982 317.332494,91.9780022 317.332494,91.546 C317.332494,91.0419975 317.314494,90.6280016 317.278494,90.304 C317.242494,89.9799984 317.165995,89.719001 317.048994,89.521 C316.931994,89.322999 316.769995,89.1610006 316.562994,89.035 C316.355993,88.9089994 316.081496,88.7740007 315.739494,88.63 L313.768494,87.82 C312.580488,87.3339976 311.783996,86.690504 311.378994,85.8895 C310.973992,85.088496 310.771494,84.085006 310.771494,82.879 C310.771494,82.1589964 310.870493,81.4750032 311.068494,80.827 C311.266495,80.1789968 311.558992,79.6210023 311.945994,79.153 C312.332996,78.6849977 312.823491,78.3115014 313.417494,78.0325 C314.011497,77.7534986 314.70449,77.614 315.496494,77.614 C316.180498,77.614 316.805991,77.7399987 317.372994,77.992 C317.939997,78.2440013 318.425992,78.5769979 318.830994,78.991 C319.235996,79.4050021 319.546493,79.8684974 319.762494,80.3815 C319.978495,80.8945026 320.086494,81.4209973 320.086494,81.961 L320.086494,83.311 Z" id="COMMERCIALS" fill="#FFFFFF" sketch:type="MSShapeGroup"></path>
                <g id="Group-2" sketch:type="MSShapeGroup">
                    <path d="M34.6202594,59.4057823 C33.2032661,59.3973575 31.7928137,59.5026734 30.3888598,59.7217332 C29.2003973,59.898342 27.9142667,60.1924424 26.5304294,60.6040431 C25.1465921,61.0156437 23.8974342,61.6379499 22.7829184,62.4709802 C21.8773742,63.1478173 21.2373866,63.8633947 20.8629361,64.6177341 C20.4884857,65.3720734 20.4976647,66.165854 20.8904735,66.9990997 C21.1799116,67.6130702 21.5743871,68.0002525 22.073912,68.160658 C22.5734369,68.3210636 23.1967613,68.3444488 23.943904,68.2308142 C24.6910466,68.1171796 25.563615,67.8949639 26.5616352,67.5641604 C27.5596554,67.2333568 28.7018627,66.8837365 29.9882914,66.5152888 C32.005006,65.8975367 33.8872677,65.4692266 35.6351328,65.2303455 C37.3829979,64.9914644 38.9977653,65.0447965 40.4794832,65.3903435 C41.9612012,65.7358904 43.3250519,66.4808743 44.5710764,67.6253177 C45.8171008,68.769761 46.9569496,70.4383336 47.9906569,72.6310855 C49.3138023,75.4378078 50.0157909,78.1008544 50.0966437,80.6203051 C50.1774965,83.1397558 49.8162413,85.4706815 49.0128672,87.613152 C48.2094932,89.7556225 47.0821053,91.7102756 45.63067,93.4771701 C44.1792346,95.2440645 42.6002394,96.7652777 40.893637,98.0408553 C39.5353208,99.0561109 38.0801754,99.96582 36.528157,100.77001 C34.9761387,101.5742 33.3811661,102.262234 31.7431914,102.834132 C30.1052167,103.406031 28.478161,103.851164 26.8619755,104.169546 C25.2457901,104.487928 23.6840584,104.647008 22.1767338,104.646793 L21.2622259,90.117992 C22.9360588,90.1716759 24.6104242,90.0766754 26.2853723,89.8329876 C27.7100003,89.6577829 29.2516157,89.3061641 30.9102645,88.7781206 C32.5689134,88.2500771 34.1296155,87.4393914 35.5924175,86.3460391 C36.7069334,85.5130089 37.3939947,84.7474201 37.6536222,84.0492498 C37.9132498,83.3510796 37.8983447,82.695019 37.6089066,82.0810485 C37.2987944,81.4232229 36.8175274,81.0267784 36.1650911,80.891703 C35.5126548,80.7566275 34.7206372,80.8000232 33.7890143,81.0218912 C32.8573915,81.2437592 31.8125914,81.5502272 30.6545825,81.9413045 C29.4965737,82.3323818 28.2466223,82.7032273 26.9046908,83.0538522 C24.9369593,83.5756848 23.1697977,83.8734849 21.6031529,83.9472614 C20.0365081,84.0210379 18.6271707,83.8289865 17.3750987,83.3711014 C16.1230266,82.9132163 15.0040448,82.1631285 14.0181199,81.1208155 C13.032195,80.0785024 12.1361001,78.7021933 11.3298084,76.9918469 C10.1100338,74.4043997 9.40939631,71.8441301 9.22787504,69.3109612 C9.04635378,66.7777924 9.28980676,64.3718228 9.95824131,62.0929805 C10.6266759,59.8141381 11.6278332,57.7166072 12.9617434,55.8003248 C14.2956536,53.8840424 15.8855433,52.2360728 17.7314601,50.8563664 C19.0897763,49.8411107 20.4907709,49.0163561 21.934486,48.3820776 C23.378201,47.7477991 24.819707,47.2337787 26.259047,46.8400008 C27.6983871,46.446223 29.0800162,46.154877 30.4039758,45.9659541 C31.7279354,45.7770312 32.9318855,45.6333158 34.0158621,45.5348036 L34.6202594,59.4057823 Z M73.6491797,69.6920597 C74.9427729,69.097471 75.9419533,68.2310299 76.6467508,67.0927102 C77.3515483,65.9543906 77.8191577,64.6672259 78.049593,63.2311777 C78.2800283,61.7951294 78.3061941,60.2494035 78.128091,58.5939534 C77.9499879,56.9385034 77.617893,55.272425 77.1317965,53.5956682 L69.527896,27.3665331 L80.6565466,22.2513476 L88.2604471,48.4804828 C89.288194,52.0256256 89.8885166,55.5092914 90.0614327,58.9315847 C90.2343488,62.353878 89.886254,65.5405572 89.0171379,68.491718 C88.1480217,71.4428788 86.7500615,74.0941775 84.8232153,76.4456936 C82.8963691,78.7972096 80.3730626,80.6899432 77.2532202,82.1239511 C74.0192372,83.6104227 71.053462,84.1999791 68.3558055,83.892638 C65.6581491,83.585297 63.2341202,82.6228789 61.083646,81.0053549 C58.9331719,79.387831 57.074582,77.2154348 55.5078205,74.4881012 C53.9410591,71.7607676 52.6646567,68.6964363 51.6785752,65.2950155 L44.0746747,39.0658803 L55.2033253,33.9506949 L62.8072258,60.17983 C63.2933223,61.8565868 63.8952132,63.4122284 64.6129166,64.8468015 C65.3306199,66.2813746 66.1449446,67.4543491 67.0559151,68.3657603 C67.9668855,69.2771715 68.9700977,69.8747135 70.0655817,70.1584042 C71.1610658,70.4420949 72.3555865,70.2866483 73.6491797,69.6920597 L73.6491797,69.6920597 Z M100.945889,75.4333506 L91.6209143,22.4036076 L109.771865,17.3431016 C111.828193,16.7697952 113.820437,16.7758687 115.748658,17.3613221 C117.676878,17.9467756 119.414832,18.9247787 120.962569,20.2953608 C122.510307,21.665943 123.834878,23.3598864 124.93632,25.3772421 C126.037763,27.3945977 126.785481,29.5235959 127.179495,31.7643005 C127.591022,34.1045919 127.655473,36.4763195 127.372849,38.8795545 C127.090225,41.2827894 126.496904,43.5114433 125.592867,45.5655831 C124.68883,47.6197228 123.46648,49.3969452 121.925778,50.8973034 C120.385077,52.3976617 118.58659,53.4344784 116.530263,54.0077848 L109.64951,55.9261466 L112.512671,72.2085184 L100.945889,75.4333506 Z M107.41677,43.2288842 L113.526404,41.5255112 C114.238209,41.327059 114.828339,40.7316013 115.296811,39.7391202 C115.765282,38.7466391 115.811266,37.1798632 115.434762,35.0387455 C115.049503,32.8478344 114.430933,31.4532784 113.579033,30.8550356 C112.727134,30.2567929 111.945293,30.0569006 111.233487,30.2553528 L105.420437,31.8760378 L107.41677,43.2288842 Z M165.173039,49.8983261 L166.56376,62.7846707 L136.102481,67.9969141 L130.294178,14.177475 L160.213655,9.05793949 L161.604375,21.9442841 L143.423929,25.0551487 L144.241999,32.6353514 L159.773639,29.9777253 L161.066191,41.9544456 L145.534552,44.6120717 L146.450791,53.1018987 L165.173039,49.8983261 Z M170.219877,63.9484533 L167.246868,9.76351804 L187.005397,8.04466556 C189.106519,7.86188279 191.075996,8.24009443 192.913887,9.17931183 C194.751778,10.1185292 196.355252,11.4104042 197.724356,13.0549754 C199.09346,14.6995466 200.203764,16.6222063 201.0553,18.823012 C201.906836,21.0238177 202.395408,23.2689448 202.521028,25.5584605 C202.694106,28.7129045 202.309841,31.6985248 201.368223,34.5154111 C200.426605,37.3322973 199.033525,39.6899946 197.188941,41.5885735 L207.979273,60.6636523 L194.645297,61.8236141 L185.550245,45.8983443 L181.125789,46.2832407 L182.038628,62.9203053 L170.219877,63.9484533 Z M180.413942,33.309383 L187.868847,32.6608589 C188.596158,32.5975879 189.245037,32.029938 189.815501,30.9578921 C190.385966,29.8858462 190.620946,28.4340388 190.52045,26.6024262 C190.417162,24.7199354 189.974651,23.3142849 189.192903,22.3854324 C188.411156,21.4565798 187.656638,21.0237955 186.929327,21.0870665 L179.777467,21.7092278 L180.413942,33.309383 Z M258.387746,49.3144611 C258.361733,51.7622135 257.934395,53.8588952 257.10572,55.6045693 C256.277046,57.3502434 255.148033,58.7720604 253.71865,59.870063 C252.289266,60.9680656 250.630155,61.7689121 248.741267,62.2726265 C246.852378,62.7763409 244.854993,63.0104522 242.749051,62.9749676 L221.547993,62.6177346 L222.125159,8.30850025 L247.153343,8.73021947 C248.651802,8.75546815 250.004159,9.18628072 251.210454,10.0226701 C252.416749,10.8590595 253.43821,11.9345874 254.274867,13.2492862 C255.111524,14.563985 255.753905,16.053902 256.202029,17.7190819 C256.650153,19.3842618 256.864999,21.0837385 256.846572,22.8175631 C256.819475,25.3673052 256.277245,27.7935719 255.219865,30.0964361 C254.162485,32.3993002 252.594865,34.119746 250.516957,35.2578251 C252.977634,36.2173585 254.91474,37.8438485 256.328334,40.137344 C257.741928,42.4308396 258.428392,45.489848 258.387746,49.3144611 L258.387746,49.3144611 Z M246.392155,46.052115 C246.406245,44.7262492 246.134544,43.6123513 245.577044,42.710388 C245.019544,41.8084247 244.295317,41.3499436 243.404341,41.3349309 L233.62391,41.1701328 L233.527174,50.2726665 L242.882369,50.4302994 C243.854342,50.4466769 244.678496,50.0780397 245.354857,49.3243766 C246.031218,48.5707135 246.37698,47.4799706 246.392155,46.052115 L246.392155,46.052115 Z M233.83608,21.2057523 L233.747473,29.5433672 L241.826959,29.6795047 C242.636937,29.6931526 243.379011,29.4251388 244.053204,28.8754551 C244.727397,28.3257714 245.07343,27.2095314 245.091314,25.5267016 C245.107031,24.0478512 244.834788,22.9849474 244.274578,22.3379584 C243.714368,21.6909693 243.049533,21.3609969 242.280054,21.3480314 L233.83608,21.2057523 Z M279.543868,67.4391205 C276.475088,67.1362646 273.72796,66.0722492 271.3024,64.2470422 C268.87684,62.4218351 266.845574,60.1368029 265.208543,57.391877 C263.571512,54.6469511 262.36123,51.5733055 261.577661,48.170848 C260.794092,44.7683905 260.511495,41.3131134 260.729863,37.8049131 C260.951395,34.2458694 261.679833,30.8647931 262.915198,27.6615828 C264.150563,24.4583725 265.775258,21.6900865 267.789332,19.3566416 C269.803406,17.0231967 272.118922,15.2310893 274.735949,13.9802656 C277.352977,12.7294419 280.175648,12.2534727 283.204049,12.5523436 C286.272829,12.8551994 289.019957,13.9192148 291.445517,15.7444219 C293.871077,17.5696289 295.901551,19.8673718 297.537,22.6377194 C299.172449,25.4080671 300.371846,28.4934271 301.135225,31.8938922 C301.898605,35.2943572 302.172689,38.7232167 301.957486,42.1805735 C301.735954,45.7396173 301.008307,49.1079829 299.774525,52.2857714 C298.540742,55.4635599 296.937027,58.2211278 294.963332,60.5585576 C292.989637,62.8959875 290.683424,64.7018018 288.044625,65.9760547 C285.405826,67.2503076 282.572268,67.7379913 279.543868,67.4391205 L279.543868,67.4391205 Z M272.712776,39.1409656 C272.598845,40.9713309 272.660478,42.7550512 272.897678,44.4921799 C273.134878,46.2293086 273.575737,47.7946792 274.22027,49.1883388 C274.864803,50.5819984 275.706851,51.7393554 276.746439,52.6604446 C277.786027,53.5815339 279.032619,54.1137995 280.486251,54.2572575 C281.980262,54.4047005 283.298469,54.1127644 284.440912,53.3814404 C285.583354,52.6501165 286.539713,51.6446655 287.310016,50.3650573 C288.08032,49.0854491 288.690872,47.5982641 289.141692,45.9034577 C289.592513,44.2086513 289.873301,42.4715133 289.984068,40.6919914 C290.097999,38.861626 290.026271,37.0769095 289.768882,35.3377884 C289.511493,33.5986672 289.069842,32.0460072 288.443916,30.6797619 C287.81799,29.3135165 286.984455,28.1825771 285.943284,27.2869096 C284.902113,26.3912421 283.65473,25.8716871 282.201098,25.7282291 C280.707087,25.5807861 279.399766,25.8610078 278.279095,26.5689025 C277.158424,27.2767972 276.202856,28.2695375 275.412364,29.5471532 C274.621871,30.824769 274.002015,32.298247 273.552777,33.9676317 C273.10354,35.6370163 272.823542,37.3614437 272.712776,39.1409656 L272.712776,39.1409656 Z M321.743043,20.3724968 L332.489438,22.4711003 L334.172555,39.7532932 L339.993904,23.9366055 L350.7403,26.0352089 L340.559706,50.2901969 L342.243508,62.0761813 L355.963408,27.0552006 L368.690983,29.5406974 L345.390273,79.9538552 L335.664485,78.0545604 L331.965859,57.6693053 L323.597304,75.698028 L313.871516,73.7987333 L303.79236,16.8670084 L316.459899,19.3407812 L321.170967,57.9610426 L325.490738,47.3474625 L321.743043,20.3724968 Z M362.110209,89.425009 L374.907063,37.5561327 L386.220639,41.9816364 L376.48782,81.4312043 L395.169725,88.7389591 L392.105689,101.158267 L362.110209,89.425009 Z" id="SUPER-BOWL" fill-opacity="0.357987998" fill="#000000"></path>
                    <path d="M33.1477316,55.4057823 C31.7013706,55.3973575 30.261686,55.5026734 28.8286346,55.7217332 C27.6155408,55.898342 26.3027546,56.1924424 24.8902367,56.6040431 C23.4777188,57.0156437 22.2026717,57.6379499 21.0650571,58.4709802 C20.1407452,59.1478173 19.4874935,59.8633947 19.1052825,60.6177341 C18.7230714,61.3720734 18.7324407,62.165854 19.1333906,62.9990997 C19.4288273,63.6130702 19.8314786,64.0002525 20.3413563,64.160658 C20.8512341,64.3210636 21.4874771,64.3444488 22.2501046,64.2308142 C23.0127321,64.1171796 23.9033847,63.8949639 24.9220893,63.5641604 C25.9407939,63.2333568 27.1066739,62.8837365 28.4197643,62.5152888 C30.4782761,61.8975367 32.3995483,61.4692266 34.1836387,61.2303455 C35.967729,60.9914644 37.615963,61.0447965 39.1283901,61.3903435 C40.6408173,61.7358904 42.0329344,62.4808743 43.3047831,63.6253177 C44.5766319,64.769761 45.7401045,66.4383336 46.7952358,68.6310855 C48.1458039,71.4378078 48.8623415,74.1008544 48.94487,76.6203051 C49.0273985,79.1397558 48.6586561,81.4706815 47.8386318,83.613152 C47.0186075,85.7556225 45.8678542,87.7102756 44.3863372,89.4771701 C42.9048203,91.2440645 41.2930998,92.7652777 39.5511274,94.0408553 C38.1646596,95.0561109 36.6793557,95.96582 35.0951712,96.7700098 C33.5109867,97.5741997 31.8829577,98.2622335 30.2110353,98.834132 C28.5391129,99.4060306 26.8783358,99.8511641 25.2286543,100.169546 C23.5789728,100.487928 21.9848737,100.647008 20.4463091,100.646793 L19.5128477,86.117992 C21.2213715,86.1716759 22.9304387,86.0766754 24.6401007,85.8329876 C26.0942547,85.6577829 27.6678207,85.3061641 29.3608457,84.7781206 C31.0538707,84.2500771 32.6469189,83.4393914 34.1400381,82.3460391 C35.2776527,81.5130089 35.9789537,80.7474201 36.2439621,80.0492498 C36.5089705,79.3510796 36.4937565,78.695019 36.1983197,78.0810485 C35.8817804,77.4232229 35.3905389,77.0267784 34.7245806,76.891703 C34.0586223,76.7566275 33.2501898,76.8000232 32.2992587,77.0218912 C31.3483276,77.2437592 30.2818736,77.5502272 29.0998645,77.9413045 C27.9178555,78.3323818 26.6419984,78.7032273 25.2722549,79.0538522 C23.2637414,79.5756848 21.4599546,79.8734849 19.8608405,79.9472614 C18.2617264,80.0210379 16.82318,79.8289865 15.5451582,79.3711014 C14.2671364,78.9132163 13.1249634,78.1631285 12.1186048,77.1208155 C11.1122462,76.0785024 10.1975794,74.7021933 9.37457699,72.9918469 C8.12952203,70.4043997 7.4143636,67.8441301 7.22908023,65.3109612 C7.04379687,62.7777924 7.29229551,60.3718228 7.97458363,58.0929805 C8.65687174,55.8141381 9.67877846,53.7166072 11.0403345,51.8003248 C12.4018904,49.8840424 14.0247312,48.2360728 15.9089054,46.8563664 C17.2953732,45.8411107 18.725404,45.0163561 20.1990406,44.3820776 C21.6726772,43.7477991 23.1440589,43.2337787 24.6132299,42.8400008 C26.0824009,42.446223 27.4926648,42.154877 28.8440639,41.9659541 C30.1954631,41.7770312 31.4243655,41.6333158 32.530808,41.5348036 L33.1477316,55.4057823 Z M72.9855414,65.6920597 C74.3059449,65.097471 75.3258336,64.2310299 76.0452384,63.0927102 C76.7646431,61.9543906 77.2419439,60.6672259 77.4771551,59.2311777 C77.7123662,57.7951294 77.7390743,56.2494035 77.5572799,54.5939534 C77.3754856,52.9385034 77.0365079,51.272425 76.5403369,49.5956682 L68.7788426,23.3665331 L80.1381387,18.2513476 L87.899633,44.4804828 C88.9486804,48.0256256 89.5614449,51.5092914 89.7379448,54.9315847 C89.9144447,58.353878 89.5591355,61.5405572 88.6720066,64.491718 C87.7848776,67.4428788 86.3579441,70.0941775 84.3911633,72.4456936 C82.4243824,74.7972096 79.8487795,76.6899432 76.6642771,78.1239511 C73.3632685,79.6104227 70.3360265,80.1999791 67.5824601,79.892638 C64.8288937,79.585297 62.3546258,78.6228789 60.1595822,77.0053549 C57.9645387,75.387831 56.0674287,73.2154348 54.4681956,70.4881012 C52.8689624,67.7607676 51.5661061,64.6964363 50.5595877,61.2950155 L42.7980934,35.0658803 L54.1573895,29.9506949 L61.9188838,56.17983 C62.4150549,57.8565868 63.0294202,59.4122284 63.7619983,60.8468015 C64.4945763,62.2813746 65.3257782,63.4543491 66.2556289,64.3657603 C67.1854795,65.2771715 68.2094837,65.8747135 69.327672,66.1584042 C70.4458604,66.4420949 71.665138,66.2866483 72.9855414,65.6920597 L72.9855414,65.6920597 Z M100.847986,71.4333506 L91.3297472,18.4036076 L109.856884,13.3431016 C111.955829,12.7697952 113.989363,12.7758687 115.957547,13.3613221 C117.925731,13.9467756 119.699704,14.9247787 121.27952,16.2953608 C122.859335,17.665943 124.211358,19.3598864 125.335628,21.3772421 C126.459898,23.3945977 127.223113,25.5235959 127.625294,27.7643005 C128.04535,30.1045919 128.111136,32.4763195 127.822655,34.8795545 C127.534173,37.2827894 126.928555,39.5114433 126.005782,41.5655831 C125.083008,43.6197228 123.835324,45.3969452 122.262691,46.8973034 C120.690059,48.3976617 118.854297,49.4344784 116.755352,50.0077848 L109.731993,51.9261466 L112.654494,68.2085184 L100.847986,71.4333506 Z M107.452978,39.2288842 L113.689237,37.5255112 C114.415795,37.327059 115.018155,36.7316013 115.496336,35.7391202 C115.974516,34.7466391 116.021453,33.1798632 115.637147,31.0387455 C115.243903,28.8478344 114.612513,27.4532784 113.742957,26.8550356 C112.873401,26.2567929 112.075356,26.0569006 111.348798,26.2553528 L105.415271,27.8760378 L107.452978,39.2288842 Z M166.406268,45.8983261 L167.825812,58.7846707 L136.733212,63.9969141 L130.804529,10.177475 L161.344099,5.05793949 L162.763643,17.9442841 L144.206399,21.0551487 L145.041425,28.6353514 L160.894964,25.9777253 L162.214305,37.9544456 L146.360766,40.6120717 L147.295994,49.1018987 L166.406268,45.8983261 Z M171.557704,59.9484533 L168.523078,5.76351804 L188.69111,4.04466556 C190.835779,3.86188279 192.846074,4.24009443 194.722056,5.17931183 C196.598038,6.11852923 198.234744,7.41040417 199.632224,9.0549754 C201.029703,10.6995466 202.163018,12.6222063 203.032203,14.823012 C203.901388,17.0238177 204.400085,19.2689448 204.528309,21.5584605 C204.704974,24.7129045 204.312745,27.6985248 203.351612,30.5154111 C202.390478,33.3322973 200.968526,35.6899946 199.085713,37.5885735 L210.099678,56.6636523 L196.48935,57.8236141 L187.2058,41.8983443 L182.689645,42.2832407 L183.621404,58.9203053 L171.557704,59.9484533 Z M181.963045,29.309383 L189.572456,28.6608589 C190.314841,28.5975879 190.977167,28.029938 191.559455,26.9578921 C192.141743,25.8858462 192.381593,24.4340388 192.279014,22.6024262 C192.173585,20.7199354 191.721903,19.3142849 190.923954,18.3854324 C190.126005,17.4565798 189.355849,17.0237955 188.613464,17.0870665 L181.313379,17.7092278 L181.963045,29.309383 Z M261.552886,45.3144611 C261.526334,47.7622135 261.090139,49.8588952 260.24429,51.6045693 C259.398441,53.3502434 258.246029,54.7720604 256.787021,55.870063 C255.328013,56.9680656 253.634516,57.7689121 251.70648,58.2726265 C249.778444,58.7763409 247.739662,59.0104522 245.590074,58.9749676 L223.949615,58.6177346 L224.538744,4.30850025 L250.085646,4.73021947 C251.615161,4.75546815 252.995546,5.18628072 254.226842,6.02267009 C255.458138,6.85905945 256.500769,7.9345874 257.354766,9.24928618 C258.208763,10.563985 258.864458,12.053902 259.321869,13.7190819 C259.779281,15.3842618 259.998579,17.0837385 259.979771,18.8175631 C259.952113,21.3673052 259.398644,23.7935719 258.31935,26.0964361 C257.240055,28.3993002 255.639945,30.119746 253.518972,31.2578251 C256.030648,32.2173585 258.007901,33.8438485 259.450792,36.137344 C260.893683,38.4308396 261.594374,41.489848 261.552886,45.3144611 L261.552886,45.3144611 Z M249.308682,42.052115 C249.323064,40.7262492 249.045732,39.6123513 248.476677,38.710388 C247.907623,37.8084247 247.168386,37.3499436 246.258945,37.3349309 L236.27581,37.1701328 L236.177069,46.2726665 L245.726154,46.4302994 C246.718272,46.4466769 247.559507,46.0780397 248.249886,45.3243766 C248.940264,44.5707135 249.293193,43.4799706 249.308682,42.052115 L249.308682,42.052115 Z M236.492377,17.2057523 L236.401934,25.5433672 L244.648871,25.6795047 C245.475635,25.6931526 246.233089,25.4251388 246.921255,24.8754551 C247.609421,24.3257714 247.962626,23.2095314 247.980881,21.5267016 C247.996923,20.0478512 247.719038,18.9849474 247.147217,18.3379584 C246.575397,17.6909693 245.896783,17.3609969 245.111357,17.3480314 L236.492377,17.2057523 Z M283.147477,63.4391205 C280.015096,63.1362646 277.211032,62.0722492 274.735201,60.2470422 C272.25937,58.4218351 270.186006,56.1368029 268.515047,53.391877 C266.844088,50.6469511 265.608722,47.5733055 264.808913,44.170848 C264.009105,40.7683905 263.720651,37.3131134 263.943545,33.8049131 C264.169668,30.2458694 264.913203,26.8647931 266.174171,23.6615828 C267.43514,20.4583725 269.093507,17.6900865 271.149324,15.3566416 C273.20514,13.0231967 275.568646,11.2310893 278.239913,9.9802656 C280.911179,8.72944194 283.792352,8.25347268 286.883517,8.55234356 C290.015898,8.85519939 292.819962,9.91921485 295.295793,11.7444219 C297.771623,13.5696289 299.84418,15.8673718 301.513524,18.6377194 C303.182868,21.4080671 304.407123,24.4934271 305.186324,27.8938922 C305.965525,31.2943572 306.245289,34.7232167 306.025626,38.1805735 C305.799503,41.7396173 305.056775,45.1079829 303.797422,48.2857714 C302.538069,51.4635599 300.901117,54.2211278 298.886516,56.5585576 C296.871914,58.8959875 294.517905,60.7018018 291.824415,61.9760547 C289.130926,63.2503076 286.238642,63.7379913 283.147477,63.4391205 L283.147477,63.4391205 Z M276.174808,35.1409656 C276.058516,36.9713309 276.121426,38.7550512 276.363542,40.4921799 C276.605658,42.2293086 277.055655,43.7946792 277.713545,45.1883388 C278.371436,46.5819984 279.230936,47.7393554 280.29207,48.6604446 C281.353204,49.5815339 282.625632,50.1137995 284.109392,50.2572575 C285.634367,50.4047005 286.979894,50.1127644 288.146014,49.3814404 C289.312134,48.6501165 290.288314,47.6446655 291.074582,46.3650573 C291.86085,45.0854491 292.484057,43.5982641 292.94422,41.9034577 C293.404384,40.2086513 293.690992,38.4715133 293.804054,36.6919914 C293.920346,34.861626 293.847132,33.0769095 293.584408,31.3377884 C293.321685,29.5986672 292.87088,28.0460072 292.231982,26.6797619 C291.593084,25.3135165 290.742273,24.1825771 289.679523,23.2869096 C288.616774,22.3912421 287.343539,21.8716871 285.859779,21.7282291 C284.334804,21.5807861 283.000388,21.8610078 281.856491,22.5689025 C280.712594,23.2767972 279.737222,24.2695375 278.930346,25.5471532 C278.12347,26.824769 277.490767,28.298247 277.032219,29.9676317 C276.573671,31.6370163 276.28787,33.3614437 276.174808,35.1409656 L276.174808,35.1409656 Z M326.221246,16.3724968 L337.190365,18.4711003 L338.908365,35.7532932 L344.850364,19.9366055 L355.819483,22.0352089 L345.427893,46.2901969 L347.146591,58.0761813 L361.150842,23.0552006 L374.142201,25.5406974 L350.358575,75.9538552 L340.431216,74.0545604 L336.655934,53.6693053 L328.113938,71.698028 L318.186579,69.7987333 L307.898528,12.8670084 L320.828607,15.3407812 L325.637314,53.9610426 L330.046614,43.3474625 L326.221246,16.3724968 Z M367.425037,85.425009 L380.487112,33.5561327 L392.035166,37.9816364 L382.10063,77.4312043 L401.169725,84.7389591 L398.042186,97.1582675 L367.425037,85.425009 Z" id="SUPER-BOWL" fill="#370F48"></path>
                    <path d="M26.6597285,51.4057823 C25.1754118,51.3973575 23.6979466,51.5026734 22.2272887,51.7217332 C20.9823606,51.898342 19.6351239,52.1924424 18.1855384,52.6040431 C16.7359528,53.0156437 15.4274456,53.6379499 14.2599774,54.4709802 C13.3114095,55.1478173 12.641015,55.8633947 12.2487739,56.6177341 C11.8565327,57.3720734 11.8661479,58.165854 12.2776196,58.9990997 C12.5808093,59.6130702 12.994027,60.0002525 13.5172851,60.160658 C14.0405432,60.3210636 14.6934827,60.3444488 15.4761232,60.2308142 C16.2587637,60.1171796 17.1727891,59.8949639 18.2182268,59.5641604 C19.2636645,59.2333568 20.4601399,58.8837365 21.8076887,58.5152888 C23.9202205,57.8975367 25.8919113,57.4692266 27.7228202,57.2303455 C29.553729,56.9914644 31.2452164,57.0447965 32.7973331,57.3903435 C34.3494497,57.7358904 35.7780991,58.4808743 37.083324,59.6253177 C38.388549,60.769761 39.5825537,62.4383336 40.6653741,64.6310855 C42.0513841,67.4378078 42.7867253,70.1008544 42.8714195,72.6203051 C42.9561137,75.1397558 42.5776948,77.4706815 41.7361512,79.613152 C40.8946076,81.7556225 39.7136558,83.7102756 38.1932605,85.4771701 C36.6728652,87.2440645 35.0188495,88.7652777 33.2311639,90.0408553 C31.808312,91.0561109 30.2840304,91.96582 28.6582733,92.7700098 C27.0325163,93.5741997 25.3617641,94.2622335 23.6459667,94.834132 C21.9301693,95.4060306 20.2258097,95.8511641 18.5328368,96.1695458 C16.8398639,96.4879276 15.203932,96.6470084 13.6249921,96.646793 L12.6670345,82.117992 C14.4203938,82.1716759 16.1743108,82.0766754 17.9288382,81.8329876 C19.4211525,81.6577829 21.0360124,81.3061641 22.7734662,80.7781206 C24.51092,80.2500771 26.1457734,79.4393914 27.6780754,78.3460391 C28.8455436,77.5130089 29.5652483,76.7474201 29.8372111,76.0492498 C30.1091739,75.3510796 30.0935607,74.695019 29.790371,74.0810485 C29.4655249,73.4232229 28.9613921,73.0267784 28.2779576,72.891703 C27.5945231,72.7566275 26.7648754,72.8000232 25.7889898,73.0218912 C24.8131041,73.2437592 23.7186639,73.5502272 22.5056363,73.9413045 C21.2926087,74.3323818 19.9832702,74.7032273 18.5775815,75.0538522 C16.5163601,75.5756848 14.6652379,75.8734849 13.0241594,75.9472614 C11.3830809,76.0210379 9.90678386,75.8289865 8.59522391,75.3711014 C7.28366397,74.9132163 6.11151772,74.1631285 5.07875001,73.1208155 C4.0459823,72.0785024 3.10731259,70.7021933 2.26271271,68.9918469 C0.984984702,66.4043997 0.251058895,63.8441301 0.0609132752,61.3109612 C-0.129232345,58.7777924 0.125787466,56.3718228 0.825980358,54.0929805 C1.52617325,51.8141381 2.57489711,49.7166072 3.97218341,47.8003248 C5.3694697,45.8840424 7.03489747,44.2360728 8.96851667,42.8563664 C10.3913685,41.8411107 11.8589265,41.0163561 13.3712347,40.3820776 C14.8835428,39.7477991 16.3935369,39.2337787 17.9012623,38.8400008 C19.4089876,38.446223 20.85626,38.154877 22.2431229,37.9659541 C23.6299859,37.7770312 24.8911374,37.6333158 26.0266155,37.5348036 L26.6597285,51.4057823 Z M67.5429724,61.6920597 C68.8980262,61.097471 69.9446792,60.2310299 70.6829627,59.0927102 C71.4212462,57.9543906 71.9110725,56.6672259 72.1524561,55.2311777 C72.3938398,53.7951294 72.4212487,52.2494035 72.2346836,50.5939534 C72.0481186,48.9385034 71.7002454,47.272425 71.1910537,45.5956682 L63.2258803,19.3665331 L74.88327,14.2513476 L82.8484434,40.4804828 C83.9250202,44.0256256 84.553865,47.5092914 84.7349966,50.9315847 C84.9161283,54.353878 84.551495,57.5405572 83.6410858,60.491718 C82.7306766,63.4428788 81.2662971,66.0941775 79.2479035,68.4456936 C77.2295099,70.7972096 74.5863173,72.6899432 71.3182464,74.1239511 C67.9306119,75.6104227 64.8239282,76.1999791 61.998102,75.892638 C59.1722758,75.585297 56.6330776,74.6228789 54.3804311,73.0053549 C52.1277846,71.387831 50.1808903,69.2154348 48.5396896,66.4881012 C46.8984889,63.7607676 45.5614428,60.6964363 44.528511,57.2950155 L36.5633376,31.0658803 L48.2207273,25.9506949 L56.1859007,52.17983 C56.6950925,53.8565868 57.3255801,55.4122284 58.0773827,56.8468015 C58.8291852,58.2813746 59.6821997,59.4543491 60.6364518,60.3657603 C61.5907038,61.2771715 62.6415801,61.8747135 63.7891123,62.1584042 C64.9366444,62.4420949 66.1879186,62.2866483 67.5429724,61.6920597 L67.5429724,61.6920597 Z M96.1365899,67.4333506 L86.3685716,14.4036076 L105.381902,9.34310159 C107.535929,8.76979521 109.622827,8.77586865 111.642661,9.3613221 C113.662494,9.94677556 115.48302,10.9247787 117.104294,12.2953608 C118.725567,13.665943 120.11307,15.3598864 121.266843,17.3772421 C122.420617,19.3945977 123.20386,21.5235959 123.616595,23.7643005 C124.047674,26.1045919 124.115187,28.4763195 123.819135,30.8795545 C123.523084,33.2827894 122.901573,35.5114433 121.954584,37.5655831 C121.007595,39.6197228 119.727168,41.3969452 118.113266,42.8973034 C116.499364,44.3976617 114.615428,45.4344784 112.461401,46.0077848 L105.253734,47.9261466 L108.252928,64.2085184 L96.1365899,67.4333506 Z M102.914912,35.2288842 L109.314824,33.5255112 C110.060449,33.327059 110.678617,32.7316013 111.169346,31.7391202 C111.660075,30.7466391 111.708243,29.1798632 111.313852,27.0387455 C110.910289,24.8478344 110.262329,23.4532784 109.369954,22.8550356 C108.47758,22.2567929 107.658592,22.0569006 106.912968,22.2553528 L100.823731,23.8760378 L102.914912,35.2288842 Z M163.41527,41.8983261 L164.872066,54.7846707 L132.963526,59.9969141 L126.879261,6.17747504 L158.220258,1.05793949 L159.677054,13.9442841 L140.632826,17.0551487 L141.489765,24.6353514 L157.759337,21.9777253 L159.1133,33.9544456 L142.843728,36.6120717 L143.803499,45.1018987 L163.41527,41.8983261 Z M168.701891,55.9484533 L165.58763,1.76351804 L186.284916,0.0446655591 C188.485866,-0.138117214 190.548916,0.240094427 192.474128,1.17931183 C194.39934,2.11852923 196.078997,3.41040417 197.51315,5.0549754 C198.947302,6.69954663 200.110358,8.62220627 201.002352,10.823012 C201.894346,13.0238177 202.40613,15.2689448 202.537719,17.5584605 C202.71902,20.7129045 202.316498,23.6985248 201.330143,26.5154111 C200.343787,29.3322973 198.884519,31.6899946 196.952297,33.5885735 L208.255294,52.6636523 L194.2878,53.8236141 L184.760628,37.8983443 L180.12596,38.2832407 L181.082169,54.9203053 L168.701891,55.9484533 Z M179.380292,25.309383 L187.18939,24.6608589 C187.951258,24.5975879 188.630965,24.029938 189.228533,22.9578921 C189.826101,21.8858462 190.072246,20.4340388 189.966975,18.6024262 C189.858779,16.7199354 189.395244,15.3142849 188.576355,14.3854324 C187.757466,13.4565798 186.9671,13.0237955 186.205232,13.0870665 L178.713577,13.7092278 L179.380292,25.309383 Z M261.05875,41.3144611 C261.031501,43.7622135 260.58386,45.8588952 259.715813,47.6045693 C258.847767,49.3502434 257.665114,50.7720604 256.167818,51.870063 C254.670522,52.9680656 252.932584,53.7689121 250.953952,54.2726265 C248.975319,54.7763409 246.883035,55.0104522 244.677037,54.9749676 L222.468684,54.6177346 L223.073273,0.308500252 L249.290584,0.730219466 C250.860236,0.755468154 252.276845,1.18628072 253.540454,2.02267009 C254.804062,2.85905945 255.874054,3.9345874 256.750462,5.24928618 C257.62687,6.56398497 258.299771,8.05390197 258.769186,9.71908187 C259.238601,11.3842618 259.463654,13.0837385 259.444353,14.8175631 C259.415968,17.3673052 258.847976,19.7935719 257.740358,22.0964361 C256.63274,24.3993002 254.99064,26.119746 252.814008,27.2578251 C255.391595,28.2173585 257.420736,29.8438485 258.901492,32.137344 C260.382248,34.4308396 261.101327,37.489848 261.05875,41.3144611 L261.05875,41.3144611 Z M248.49323,38.052115 C248.50799,36.7262492 248.22338,35.6123513 247.639392,34.710388 C247.055404,33.8084247 246.296768,33.3499436 245.363461,33.3349309 L235.118346,33.1701328 L235.017014,42.2726665 L244.816688,42.4302994 C245.834842,42.4466769 246.698153,42.0780397 247.406649,41.3243766 C248.115144,40.5707135 248.477334,39.4799706 248.49323,38.052115 L248.49323,38.052115 Z M235.340597,13.2057523 L235.24778,21.5433672 L243.711135,21.6795047 C244.559596,21.6931526 245.336927,21.4251388 246.043152,20.8754551 C246.749377,20.3257714 247.111851,19.2095314 247.130584,17.5267016 C247.147047,16.0478512 246.86187,14.9849474 246.275044,14.3379584 C245.688217,13.6909693 244.991795,13.3609969 244.185757,13.3480314 L235.340597,13.2057523 Z M283.220031,59.4391205 C280.00545,59.1362646 277.127801,58.0722492 274.586999,56.2470422 C272.046196,54.4218351 269.918423,52.1368029 268.203613,49.391877 C266.488804,46.6469511 265.22102,43.5733055 264.400222,40.170848 C263.579425,36.7683905 263.283402,33.3131134 263.512145,29.8049131 C263.744202,26.2458694 264.507249,22.8647931 265.801308,19.6615828 C267.095367,16.4583725 268.797254,13.6900865 270.90702,11.3566416 C273.016786,9.02319667 275.442315,7.23108927 278.183682,5.9802656 C280.925048,4.72944194 283.881829,4.25347268 287.054114,4.55234356 C290.268695,4.85519939 293.146344,5.91921485 295.687146,7.74442187 C298.227949,9.56962889 300.354894,11.8673718 302.068045,14.6377194 C303.781197,17.4080671 305.037578,20.4934271 305.837227,23.8938922 C306.636876,27.2943572 306.923983,30.7232167 306.698555,34.1805735 C306.466497,37.7396173 305.704279,41.1079829 304.411878,44.2857714 C303.119476,47.4635599 301.439567,50.2211278 299.372098,52.5585576 C297.304629,54.8959875 294.888845,56.7018018 292.124672,57.9760547 C289.3605,59.2503076 286.392316,59.7379913 283.220031,59.4391205 L283.220031,59.4391205 Z M276.064384,31.1409656 C275.94504,32.9713309 276.009602,34.7550512 276.258071,36.4921799 C276.50654,38.2293086 276.968346,39.7946792 277.643501,41.1883388 C278.318657,42.5819984 279.200712,43.7393554 280.289692,44.6604446 C281.378673,45.5815339 282.684492,46.1137995 284.207189,46.2572575 C285.772183,46.4047005 287.15302,46.1127644 288.349741,45.3814404 C289.546463,44.6501165 290.54826,43.6446655 291.355161,42.3650573 C292.162063,41.0854491 292.801624,39.5982641 293.273863,37.9034577 C293.746103,36.2086513 294.040232,34.4715133 294.156261,32.6919914 C294.275605,30.861626 294.200469,29.0769095 293.930851,27.3377884 C293.661233,25.5986672 293.198599,24.0460072 292.542935,22.6797619 C291.88727,21.3135165 291.014132,20.1825771 289.923494,19.2869096 C288.832855,18.3912421 287.526207,17.8716871 286.003511,17.7282291 C284.438517,17.5807861 283.069083,17.8610078 281.895167,18.5689025 C280.721251,19.2767972 279.720284,20.2695375 278.892233,21.5471532 C278.064183,22.824769 277.414877,24.298247 276.944295,25.9676317 C276.473713,27.6370163 276.180413,29.3614437 276.064384,31.1409656 L276.064384,31.1409656 Z M327.424154,12.3724968 L338.681127,14.4711003 L340.444211,31.7532932 L346.542142,15.9366055 L357.799115,18.0352089 L347.134826,42.2901969 L348.898627,54.0761813 L363.270381,19.0552006 L376.602662,21.5406974 L352.1949,71.9538552 L342.007025,70.0545604 L338.132671,49.6693053 L329.366513,67.698028 L319.178638,65.7987333 L308.620606,8.86700836 L321.889999,11.3407812 L326.824897,49.9610426 L331.349908,39.3474625 L327.424154,12.3724968 Z M369.709225,81.425009 L383.114078,29.5561327 L394.965179,33.9816364 L384.769939,73.4312043 L404.339449,80.7389591 L401.129837,93.1582675 L369.709225,81.425009 Z" id="SUPER-BOWL" fill="url(#linearGradient-4)"></path>
                    <path d="M27.6597285,52.4057823 C26.1754118,52.3973575 24.6979466,52.5026734 23.2272887,52.7217332 C21.9823606,52.898342 20.6351239,53.1924424 19.1855384,53.6040431 C17.7359528,54.0156437 16.4274456,54.6379499 15.2599774,55.4709802 C14.3114095,56.1478173 13.641015,56.8633947 13.2487739,57.6177341 C12.8565327,58.3720734 12.8661479,59.165854 13.2776196,59.9990997 C13.5808093,60.6130702 13.994027,61.0002525 14.5172851,61.160658 C15.0405432,61.3210636 15.6934827,61.3444488 16.4761232,61.2308142 C17.2587637,61.1171796 18.1727891,60.8949639 19.2182268,60.5641604 C20.2636645,60.2333568 21.4601399,59.8837365 22.8076887,59.5152888 C24.9202205,58.8975367 26.8919113,58.4692266 28.7228202,58.2303455 C30.553729,57.9914644 32.2452164,58.0447965 33.7973331,58.3903435 C35.3494497,58.7358904 36.7780991,59.4808743 38.083324,60.6253177 C39.388549,61.769761 40.5825537,63.4383336 41.6653741,65.6310855 C43.0513841,68.4378078 43.7867253,71.1008544 43.8714195,73.6203051 C43.9561137,76.1397558 43.5776948,78.4706815 42.7361512,80.613152 C41.8946076,82.7556225 40.7136558,84.7102756 39.1932605,86.4771701 C37.6728652,88.2440645 36.0188495,89.7652777 34.2311639,91.0408553 C32.808312,92.0561109 31.2840304,92.96582 29.6582733,93.7700098 C28.0325163,94.5741997 26.3617641,95.2622335 24.6459667,95.834132 C22.9301693,96.4060306 21.2258097,96.8511641 19.5328368,97.1695458 C17.8398639,97.4879276 16.203932,97.6470084 14.6249921,97.646793 L13.6670345,83.117992 C15.4203938,83.1716759 17.1743108,83.0766754 18.9288382,82.8329876 C20.4211525,82.6577829 22.0360124,82.3061641 23.7734662,81.7781206 C25.51092,81.2500771 27.1457734,80.4393914 28.6780754,79.3460391 C29.8455436,78.5130089 30.5652483,77.7474201 30.8372111,77.0492498 C31.1091739,76.3510796 31.0935607,75.695019 30.790371,75.0810485 C30.4655249,74.4232229 29.9613921,74.0267784 29.2779576,73.891703 C28.5945231,73.7566275 27.7648754,73.8000232 26.7889898,74.0218912 C25.8131041,74.2437592 24.7186639,74.5502272 23.5056363,74.9413045 C22.2926087,75.3323818 20.9832702,75.7032273 19.5775815,76.0538522 C17.5163601,76.5756848 15.6652379,76.8734849 14.0241594,76.9472614 C12.3830809,77.0210379 10.9067839,76.8289865 9.59522391,76.3711014 C8.28366397,75.9132163 7.11151772,75.1631285 6.07875001,74.1208155 C5.0459823,73.0785024 4.10731259,71.7021933 3.26271271,69.9918469 C1.9849847,67.4043997 1.25105889,64.8441301 1.06091328,62.3109612 C0.870767655,59.7777924 1.12578747,57.3718228 1.82598036,55.0929805 C2.52617325,52.8141381 3.57489711,50.7166072 4.97218341,48.8003248 C6.3694697,46.8840424 8.03489747,45.2360728 9.96851667,43.8563664 C11.3913685,42.8411107 12.8589265,42.0163561 14.3712347,41.3820776 C15.8835428,40.7477991 17.3935369,40.2337787 18.9012623,39.8400008 C20.4089876,39.446223 21.85626,39.154877 23.2431229,38.9659541 C24.6299859,38.7770312 25.8911374,38.6333158 27.0266155,38.5348036 L27.6597285,52.4057823 Z M68.5429724,62.6920597 C69.8980262,62.097471 70.9446792,61.2310299 71.6829627,60.0927102 C72.4212462,58.9543906 72.9110725,57.6672259 73.1524561,56.2311777 C73.3938398,54.7951294 73.4212487,53.2494035 73.2346836,51.5939534 C73.0481186,49.9385034 72.7002454,48.272425 72.1910537,46.5956682 L64.2258803,20.3665331 L75.88327,15.2513476 L83.8484434,41.4804828 C84.9250202,45.0256256 85.553865,48.5092914 85.7349966,51.9315847 C85.9161283,55.353878 85.551495,58.5405572 84.6410858,61.491718 C83.7306766,64.4428788 82.2662971,67.0941775 80.2479035,69.4456936 C78.2295099,71.7972096 75.5863173,73.6899432 72.3182464,75.1239511 C68.9306119,76.6104227 65.8239282,77.1999791 62.998102,76.892638 C60.1722758,76.585297 57.6330776,75.6228789 55.3804311,74.0053549 C53.1277846,72.387831 51.1808903,70.2154348 49.5396896,67.4881012 C47.8984889,64.7607676 46.5614428,61.6964363 45.528511,58.2950155 L37.5633376,32.0658803 L49.2207273,26.9506949 L57.1859007,53.17983 C57.6950925,54.8565868 58.3255801,56.4122284 59.0773827,57.8468015 C59.8291852,59.2813746 60.6821997,60.4543491 61.6364518,61.3657603 C62.5907038,62.2771715 63.6415801,62.8747135 64.7891123,63.1584042 C65.9366444,63.4420949 67.1879186,63.2866483 68.5429724,62.6920597 L68.5429724,62.6920597 Z M97.1365899,68.4333506 L87.3685716,15.4036076 L106.381902,10.3431016 C108.535929,9.76979521 110.622827,9.77586865 112.642661,10.3613221 C114.662494,10.9467756 116.48302,11.9247787 118.104294,13.2953608 C119.725567,14.665943 121.11307,16.3598864 122.266843,18.3772421 C123.420617,20.3945977 124.20386,22.5235959 124.616595,24.7643005 C125.047674,27.1045919 125.115187,29.4763195 124.819135,31.8795545 C124.523084,34.2827894 123.901573,36.5114433 122.954584,38.5655831 C122.007595,40.6197228 120.727168,42.3969452 119.113266,43.8973034 C117.499364,45.3976617 115.615428,46.4344784 113.461401,47.0077848 L106.253734,48.9261466 L109.252928,65.2085184 L97.1365899,68.4333506 Z M103.914912,36.2288842 L110.314824,34.5255112 C111.060449,34.327059 111.678617,33.7316013 112.169346,32.7391202 C112.660075,31.7466391 112.708243,30.1798632 112.313852,28.0387455 C111.910289,25.8478344 111.262329,24.4532784 110.369954,23.8550356 C109.47758,23.2567929 108.658592,23.0569006 107.912968,23.2553528 L101.823731,24.8760378 L103.914912,36.2288842 Z M164.41527,42.8983261 L165.872066,55.7846707 L133.963526,60.9969141 L127.879261,7.17747504 L159.220258,2.05793949 L160.677054,14.9442841 L141.632826,18.0551487 L142.489765,25.6353514 L158.759337,22.9777253 L160.1133,34.9544456 L143.843728,37.6120717 L144.803499,46.1018987 L164.41527,42.8983261 Z M169.701891,56.9484533 L166.58763,2.76351804 L187.284916,1.04466556 C189.485866,0.861882786 191.548916,1.24009443 193.474128,2.17931183 C195.39934,3.11852923 197.078997,4.41040417 198.51315,6.0549754 C199.947302,7.69954663 201.110358,9.62220627 202.002352,11.823012 C202.894346,14.0238177 203.40613,16.2689448 203.537719,18.5584605 C203.71902,21.7129045 203.316498,24.6985248 202.330143,27.5154111 C201.343787,30.3322973 199.884519,32.6899946 197.952297,34.5885735 L209.255294,53.6636523 L195.2878,54.8236141 L185.760628,38.8983443 L181.12596,39.2832407 L182.082169,55.9203053 L169.701891,56.9484533 Z M180.380292,26.309383 L188.18939,25.6608589 C188.951258,25.5975879 189.630965,25.029938 190.228533,23.9578921 C190.826101,22.8858462 191.072246,21.4340388 190.966975,19.6024262 C190.858779,17.7199354 190.395244,16.3142849 189.576355,15.3854324 C188.757466,14.4565798 187.9671,14.0237955 187.205232,14.0870665 L179.713577,14.7092278 L180.380292,26.309383 Z M262.05875,42.3144611 C262.031501,44.7622135 261.58386,46.8588952 260.715813,48.6045693 C259.847767,50.3502434 258.665114,51.7720604 257.167818,52.870063 C255.670522,53.9680656 253.932584,54.7689121 251.953952,55.2726265 C249.975319,55.7763409 247.883035,56.0104522 245.677037,55.9749676 L223.468684,55.6177346 L224.073273,1.30850025 L250.290584,1.73021947 C251.860236,1.75546815 253.276845,2.18628072 254.540454,3.02267009 C255.804062,3.85905945 256.874054,4.9345874 257.750462,6.24928618 C258.62687,7.56398497 259.299771,9.05390197 259.769186,10.7190819 C260.238601,12.3842618 260.463654,14.0837385 260.444353,15.8175631 C260.415968,18.3673052 259.847976,20.7935719 258.740358,23.0964361 C257.63274,25.3993002 255.99064,27.119746 253.814008,28.2578251 C256.391595,29.2173585 258.420736,30.8438485 259.901492,33.137344 C261.382248,35.4308396 262.101327,38.489848 262.05875,42.3144611 L262.05875,42.3144611 Z M249.49323,39.052115 C249.50799,37.7262492 249.22338,36.6123513 248.639392,35.710388 C248.055404,34.8084247 247.296768,34.3499436 246.363461,34.3349309 L236.118346,34.1701328 L236.017014,43.2726665 L245.816688,43.4302994 C246.834842,43.4466769 247.698153,43.0780397 248.406649,42.3243766 C249.115144,41.5707135 249.477334,40.4799706 249.49323,39.052115 L249.49323,39.052115 Z M236.340597,14.2057523 L236.24778,22.5433672 L244.711135,22.6795047 C245.559596,22.6931526 246.336927,22.4251388 247.043152,21.8754551 C247.749377,21.3257714 248.111851,20.2095314 248.130584,18.5267016 C248.147047,17.0478512 247.86187,15.9849474 247.275044,15.3379584 C246.688217,14.6909693 245.991795,14.3609969 245.185757,14.3480314 L236.340597,14.2057523 Z M284.220031,60.4391205 C281.00545,60.1362646 278.127801,59.0722492 275.586999,57.2470422 C273.046196,55.4218351 270.918423,53.1368029 269.203613,50.391877 C267.488804,47.6469511 266.22102,44.5733055 265.400222,41.170848 C264.579425,37.7683905 264.283402,34.3131134 264.512145,30.8049131 C264.744202,27.2458694 265.507249,23.8647931 266.801308,20.6615828 C268.095367,17.4583725 269.797254,14.6900865 271.90702,12.3566416 C274.016786,10.0231967 276.442315,8.23108927 279.183682,6.9802656 C281.925048,5.72944194 284.881829,5.25347268 288.054114,5.55234356 C291.268695,5.85519939 294.146344,6.91921485 296.687146,8.74442187 C299.227949,10.5696289 301.354894,12.8673718 303.068045,15.6377194 C304.781197,18.4080671 306.037578,21.4934271 306.837227,24.8938922 C307.636876,28.2943572 307.923983,31.7232167 307.698555,35.1805735 C307.466497,38.7396173 306.704279,42.1079829 305.411878,45.2857714 C304.119476,48.4635599 302.439567,51.2211278 300.372098,53.5585576 C298.304629,55.8959875 295.888845,57.7018018 293.124672,58.9760547 C290.3605,60.2503076 287.392316,60.7379913 284.220031,60.4391205 L284.220031,60.4391205 Z M277.064384,32.1409656 C276.94504,33.9713309 277.009602,35.7550512 277.258071,37.4921799 C277.50654,39.2293086 277.968346,40.7946792 278.643501,42.1883388 C279.318657,43.5819984 280.200712,44.7393554 281.289692,45.6604446 C282.378673,46.5815339 283.684492,47.1137995 285.207189,47.2572575 C286.772183,47.4047005 288.15302,47.1127644 289.349741,46.3814404 C290.546463,45.6501165 291.54826,44.6446655 292.355161,43.3650573 C293.162063,42.0854491 293.801624,40.5982641 294.273863,38.9034577 C294.746103,37.2086513 295.040232,35.4715133 295.156261,33.6919914 C295.275605,31.861626 295.200469,30.0769095 294.930851,28.3377884 C294.661233,26.5986672 294.198599,25.0460072 293.542935,23.6797619 C292.88727,22.3135165 292.014132,21.1825771 290.923494,20.2869096 C289.832855,19.3912421 288.526207,18.8716871 287.003511,18.7282291 C285.438517,18.5807861 284.069083,18.8610078 282.895167,19.5689025 C281.721251,20.2767972 280.720284,21.2695375 279.892233,22.5471532 C279.064183,23.824769 278.414877,25.298247 277.944295,26.9676317 C277.473713,28.6370163 277.180413,30.3614437 277.064384,32.1409656 L277.064384,32.1409656 Z M328.424154,13.3724968 L339.681127,15.4711003 L341.444211,32.7532932 L347.542142,16.9366055 L358.799115,19.0352089 L348.134826,43.2901969 L349.898627,55.0761813 L364.270381,20.0552006 L377.602662,22.5406974 L353.1949,72.9538552 L343.007025,71.0545604 L339.132671,50.6693053 L330.366513,68.698028 L320.178638,66.7987333 L309.620606,9.86700836 L322.889999,12.3407812 L327.824897,50.9610426 L332.349908,40.3474625 L328.424154,13.3724968 Z M370.709225,82.425009 L384.114078,30.5561327 L395.965179,34.9816364 L385.769939,74.4312043 L405.339449,81.7389591 L402.129837,94.1582675 L370.709225,82.425009 Z" id="SUPER-BOWL" fill="url(#linearGradient-5)"></path>
                </g>
            </g>
        </g>
    </g>
</svg>