<svg width="217" height="30" viewBox="0 0 217 30" xmlns="http://www.w3.org/2000/svg" xmlns:xlink="http://www.w3.org/1999/xlink"><title>logo-instantsearch</title><defs><path d="M125.58 24.878c-.53 0-1.08-.04-1.65-.119a17.82 17.82 0 0 1-1.699-.32c-.562-.134-1.1-.3-1.614-.498a8.174 8.174 0 0 1-1.349-.653l1.518-2.563c.835.475 1.646.839 2.433 1.092.787.253 1.542.38 2.264.38.562 0 .992-.088 1.29-.262.296-.174.445-.427.445-.759s-.2-.59-.602-.771c-.402-.182-1.092-.4-2.072-.653a22.627 22.627 0 0 1-2.168-.664c-.594-.222-1.072-.471-1.433-.748-.362-.277-.623-.59-.783-.937-.161-.348-.241-.76-.241-1.234 0-.633.132-1.21.397-1.733.265-.522.63-.965 1.096-1.329a5.315 5.315 0 0 1 1.65-.854 6.725 6.725 0 0 1 2.084-.308c.883 0 1.787.13 2.71.391.924.261 1.827.621 2.71 1.08l-1.517 2.397c-.787-.427-1.49-.74-2.108-.938a5.88 5.88 0 0 0-1.795-.296c-.482 0-.88.083-1.192.249-.313.166-.47.431-.47.795 0 .174.04.32.12.439.08.119.213.23.398.332.185.103.43.198.735.285a33.1 33.1 0 0 0 1.132.297c.931.237 1.718.474 2.36.712.643.237 1.165.502 1.566.795.402.292.69.628.868 1.008.176.38.265.83.265 1.353 0 .617-.125 1.174-.374 1.673a3.553 3.553 0 0 1-1.072 1.27c-.466.347-1.028.616-1.686.806-.658.19-1.397.285-2.216.285zm13.024 0c-1.06 0-2.011-.17-2.855-.51-.843-.34-1.557-.803-2.143-1.388a5.942 5.942 0 0 1-1.337-2.03 6.46 6.46 0 0 1-.458-2.408c0-.902.152-1.752.458-2.551a6.172 6.172 0 0 1 1.324-2.1c.579-.602 1.29-1.076 2.132-1.424.844-.348 1.803-.522 2.88-.522 1.075 0 2.03.174 2.866.522a6.302 6.302 0 0 1 2.12 1.412 5.974 5.974 0 0 1 1.312 2.052c.298.776.446 1.59.446 2.445 0 .221-.008.439-.024.652-.016.214-.04.4-.072.558h-9.347c.064.839.373 1.475.928 1.91a2.98 2.98 0 0 0 1.89.653c.563 0 1.105-.134 1.627-.403.522-.27.87-.633 1.047-1.092l3.277.902c-.498.98-1.27 1.78-2.313 2.397-1.044.617-2.296.925-3.758.925zm2.674-7.641c-.08-.791-.37-1.416-.867-1.875-.498-.459-1.116-.688-1.855-.688-.755 0-1.377.233-1.867.7-.49.466-.775 1.087-.855 1.863h5.444zm9.218 7.641a5.024 5.024 0 0 1-1.746-.297c-.538-.197-1-.474-1.385-.83a3.986 3.986 0 0 1-.916-1.258 3.69 3.69 0 0 1-.337-1.578c0-.617.132-1.179.397-1.685a3.88 3.88 0 0 1 1.12-1.305 5.561 5.561 0 0 1 1.71-.854c.66-.206 1.39-.309 2.193-.309.53 0 1.044.044 1.542.13.498.088.931.218 1.3.392v-.57c0-1.44-.842-2.159-2.529-2.159-.69 0-1.349.115-1.975.344-.626.23-1.285.574-1.975 1.032l-1.133-2.373a10.178 10.178 0 0 1 2.602-1.21 9.955 9.955 0 0 1 2.867-.403c1.91 0 3.388.443 4.432 1.329 1.044.886 1.566 2.183 1.566 3.891v3.204c0 .38.072.645.217.795.144.15.401.241.77.273v3.204c-.369.079-.71.13-1.023.154-.313.024-.59.036-.831.036-.707-.016-1.245-.159-1.614-.428-.37-.269-.602-.656-.699-1.162l-.072-.57a5.757 5.757 0 0 1-2.012 1.638c-.778.38-1.602.569-2.469.569zm1.132-2.729c.418 0 .824-.071 1.217-.214.393-.142.719-.332.976-.57.369-.284.554-.585.554-.9v-1.187a6.316 6.316 0 0 0-1.096-.297 6.182 6.182 0 0 0-1.096-.107c-.707 0-1.29.158-1.747.475-.458.316-.687.727-.687 1.234 0 .459.177.834.53 1.127.354.293.803.439 1.35.439zm17.289-6.716c-.932.016-1.77.166-2.518.451-.746.285-1.297.712-1.65 1.281v7.476h-3.854V12.18h3.541v2.516c.45-.838 1.016-1.49 1.698-1.957.683-.467 1.41-.716 2.18-.748.322 0 .522.008.603.024v3.417zm.714 2.966c0-.854.153-1.673.458-2.456a6.099 6.099 0 0 1 1.325-2.064c.578-.594 1.289-1.064 2.132-1.412.843-.348 1.803-.522 2.879-.522 1.46 0 2.69.304 3.685.913.996.61 1.743 1.404 2.24 2.385l-3.757 1.116c-.498-.791-1.229-1.187-2.193-1.187-.803 0-1.473.293-2.011.878s-.807 1.369-.807 2.35c0 .49.072.937.217 1.34.144.404.345.748.602 1.033.257.284.558.506.903.664a2.6 2.6 0 0 0 1.096.237c.482 0 .924-.114 1.325-.344.402-.23.699-.526.892-.89l3.758 1.14c-.466.965-1.209 1.756-2.229 2.373-1.02.617-2.26.925-3.721.925-1.06 0-2.012-.178-2.855-.534-.843-.356-1.558-.83-2.144-1.424a6.01 6.01 0 0 1-1.337-2.064 6.706 6.706 0 0 1-.458-2.457zm26.467 6.242h-3.855v-7c0-.808-.164-1.401-.494-1.78-.329-.38-.774-.57-1.337-.57-.224 0-.47.051-.734.154a2.967 2.967 0 0 0-.771.45 4.095 4.095 0 0 0-.687.7c-.208.27-.37.57-.481.903v7.143h-3.855V7.317h3.855v6.953a4.778 4.778 0 0 1 1.842-1.72c.763-.404 1.61-.605 2.542-.605.851 0 1.538.146 2.06.439.521.292.923.664 1.204 1.115.281.45.47.957.566 1.519.096.561.145 1.111.145 1.65v7.973z" id="a"/></defs><g fill="none" fill-rule="evenodd"><path d="M22.71 15.405a1.185 1.185 0 0 0-.184-.867l-2.488-3.618a6.486 6.486 0 0 0 1.728-3.393c.617-3.496-1.669-6.819-5.108-7.425-3.439-.607-6.723 1.734-7.34 5.23-.616 3.497 1.67 6.82 5.109 7.425a6.233 6.233 0 0 0 3.724-.492l2.49 3.609c.165.251.435.429.735.482.62.109 1.224-.322 1.335-.951zm-3.21-8.28c-.392 2.22-2.487 3.713-4.67 3.328-2.185-.385-3.643-2.505-3.252-4.725.392-2.22 2.488-3.713 4.671-3.328 2.184.385 3.642 2.505 3.25 4.725zM14.494 22.13c.219-.22.52-.344.815-.346l4.391-.037a6.486 6.486 0 0 1 1.788-3.362c2.51-2.51 6.543-2.544 9.013-.074 2.469 2.469 2.435 6.501-.075 9.012-2.51 2.51-6.543 2.544-9.012.075a6.233 6.233 0 0 1-1.733-3.334l-4.384.03c-.301.01-.601-.11-.817-.326-.444-.444-.438-1.187.014-1.638zm8.606-2.107c-1.594 1.594-1.615 4.167-.047 5.735 1.568 1.568 4.141 1.547 5.735-.047 1.594-1.595 1.616-4.168.048-5.736-1.568-1.567-4.141-1.546-5.736.048zm-9.59-5.908c.075.3.026.623-.124.877l-2.23 3.783a6.486 6.486 0 0 1 1.961 3.264c.859 3.445-1.19 6.919-4.578 7.763-3.388.845-6.827-1.26-7.686-4.705-.86-3.445 1.19-6.919 4.577-7.764a6.233 6.233 0 0 1 3.75.232l2.232-3.774c.148-.262.404-.458.7-.532.61-.152 1.243.236 1.398.856zM10.883 22.6c-.546-2.187-2.74-3.53-4.892-2.994-2.151.536-3.458 2.753-2.913 4.94.546 2.188 2.74 3.531 4.892 2.995 2.151-.537 3.458-2.753 2.913-4.94zM40.244 24.396V12.113h3.846v12.283h-3.846zm0-13.687V7.317h3.846v3.392h-3.846zm18.429 13.687h-3.846v-6.902c0-.811-.156-1.4-.469-1.766-.312-.367-.725-.55-1.238-.55-.272 0-.549.054-.83.164-.28.109-.544.26-.792.456a4.061 4.061 0 0 0-.685.69 3.08 3.08 0 0 0-.481.866v7.042h-3.846V12.113h3.461v2.059c.465-.733 1.122-1.299 1.971-1.696.85-.398 1.827-.597 2.933-.597.817 0 1.478.144 1.983.433.505.289.893.663 1.166 1.123.272.46.453.963.54 1.509.089.546.133 1.076.133 1.59v7.862zm7.588.234c-.529 0-1.078-.04-1.647-.117a17.977 17.977 0 0 1-1.694-.316 12.835 12.835 0 0 1-1.611-.492 8.199 8.199 0 0 1-1.346-.643l1.514-2.527c.834.468 1.643.827 2.428 1.077.785.25 1.539.374 2.26.374.56 0 .99-.086 1.286-.257.296-.172.444-.422.444-.75 0-.327-.2-.58-.6-.76-.401-.179-1.09-.393-2.068-.643-.85-.218-1.57-.437-2.163-.655-.593-.218-1.07-.464-1.43-.737-.361-.273-.621-.58-.782-.924-.16-.343-.24-.749-.24-1.216 0-.624.132-1.194.397-1.708a3.874 3.874 0 0 1 1.093-1.31 5.326 5.326 0 0 1 1.647-.843 6.786 6.786 0 0 1 2.08-.304c.88 0 1.782.129 2.703.386.922.258 1.823.612 2.705 1.065l-1.515 2.363c-.785-.422-1.486-.73-2.103-.925a5.932 5.932 0 0 0-1.79-.292c-.482 0-.878.082-1.19.246-.313.163-.47.425-.47.783 0 .172.04.316.12.433.08.117.213.226.397.328.185.101.429.195.734.28.304.086.68.184 1.13.293.929.234 1.714.468 2.355.702.641.234 1.162.495 1.562.784.401.288.69.62.866.994.176.374.264.819.264 1.333 0 .609-.124 1.158-.372 1.65a3.514 3.514 0 0 1-1.07 1.251c-.465.344-1.026.609-1.683.796-.657.187-1.394.28-2.211.28zm15.04-.89c-.53.219-1.13.422-1.803.609a7.68 7.68 0 0 1-2.068.28c-.48 0-.933-.058-1.358-.175a3.06 3.06 0 0 1-1.117-.561 2.627 2.627 0 0 1-.758-1.018c-.184-.421-.276-.928-.276-1.52v-6.411h-1.61v-2.83h1.61V8.205h3.846v3.907h2.572v2.83h-2.572v5.124c0 .406.108.698.324.878.217.18.485.269.806.269.272 0 .56-.047.865-.14.305-.094.577-.195.817-.305l.722 2.972zm4.871.89a5.068 5.068 0 0 1-1.743-.293 4.1 4.1 0 0 1-1.382-.819 3.932 3.932 0 0 1-.913-1.24 3.6 3.6 0 0 1-.337-1.555c0-.609.132-1.162.397-1.662.264-.499.637-.928 1.118-1.286.48-.359 1.05-.64 1.706-.842.657-.203 1.387-.305 2.188-.305.529 0 1.041.043 1.538.13.497.085.93.214 1.298.385v-.561c0-1.42-.841-2.13-2.524-2.13-.689 0-1.346.114-1.97.34-.626.226-1.283.565-1.972 1.018l-1.13-2.34c.834-.53 1.699-.928 2.596-1.193.898-.265 1.851-.398 2.86-.398 1.908 0 3.382.437 4.424 1.31 1.041.874 1.562 2.153 1.562 3.837v3.158c0 .375.072.636.217.784.144.148.4.238.769.27v3.158c-.369.078-.71.128-1.022.152-.312.023-.589.035-.83.035-.704-.016-1.241-.156-1.61-.421-.368-.265-.6-.648-.697-1.147l-.072-.561a5.731 5.731 0 0 1-2.007 1.614 5.607 5.607 0 0 1-2.464.562zm1.13-2.69c.417 0 .821-.071 1.214-.211.392-.14.717-.328.973-.562.369-.28.553-.577.553-.889v-1.17a6.364 6.364 0 0 0-1.093-.292 6.241 6.241 0 0 0-1.094-.105c-.705 0-1.286.156-1.743.467-.457.312-.685.718-.685 1.217 0 .452.176.823.529 1.111.352.289.801.433 1.346.433zm21.434 2.456h-3.846v-6.902c0-.811-.157-1.4-.47-1.766-.312-.367-.724-.55-1.237-.55-.272 0-.549.054-.83.164-.28.109-.544.26-.793.456a4.061 4.061 0 0 0-.685.69 3.08 3.08 0 0 0-.48.866v7.042h-3.847V12.113h3.462v2.059c.465-.733 1.122-1.299 1.971-1.696.85-.398 1.827-.597 2.933-.597.817 0 1.478.144 1.983.433.505.289.893.663 1.166 1.123.272.46.452.963.54 1.509.089.546.133 1.076.133 1.59v7.862zm10.448-.655c-.529.218-1.13.42-1.803.608a7.68 7.68 0 0 1-2.067.28c-.48 0-.933-.058-1.358-.175a3.06 3.06 0 0 1-1.118-.561 2.627 2.627 0 0 1-.757-1.018c-.184-.421-.277-.928-.277-1.52v-6.411h-1.61v-2.83h1.61V8.205h3.847v3.907h2.572v2.83h-2.572v5.124c0 .406.108.698.324.878.216.18.485.269.805.269.273 0 .561-.047.866-.14.304-.094.577-.195.817-.305l.721 2.972zm79.557.655v-1.989h1.058v1.989h-1.058zm2.035 4.14c-.512 0-.99-.066-1.43-.198a3.145 3.145 0 0 1-1.19-.667l.65-.772c.272.218.568.366.889.444.32.078.64.117.961.117.305 0 .601-.058.89-.175a2.47 2.47 0 0 0 .769-.491c.224-.21.409-.46.553-.749a2.09 2.09 0 0 0 .216-.948V12.23h1.202v12.82c0 .515-.1.983-.3 1.404-.2.422-.47.788-.806 1.1a3.752 3.752 0 0 1-1.13.725 3.318 3.318 0 0 1-1.274.258zm2.308-19.067V7.317h1.202V9.47h-1.202zm8.694 15.16a8.224 8.224 0 0 1-2.765-.467 6.42 6.42 0 0 1-2.307-1.404l.6-.795c.674.592 1.37 1.029 2.092 1.31.721.28 1.514.42 2.38.42 1.09 0 1.967-.221 2.632-.666.665-.445.998-1.064.998-1.86 0-.374-.085-.69-.253-.947-.168-.258-.42-.476-.757-.656a6.35 6.35 0 0 0-1.25-.48 42.802 42.802 0 0 0-1.73-.444 26.286 26.286 0 0 1-1.84-.468c-.52-.155-.95-.343-1.286-.561a2.19 2.19 0 0 1-.757-.795c-.168-.312-.252-.71-.252-1.194 0-.608.12-1.138.36-1.59.24-.453.573-.827.998-1.123a4.634 4.634 0 0 1 1.466-.667 6.8 6.8 0 0 1 1.767-.222c.977 0 1.843.16 2.596.48.753.319 1.338.728 1.755 1.227l-.673.632c-.417-.468-.958-.819-1.623-1.053a6.364 6.364 0 0 0-2.127-.35c-.465 0-.902.046-1.31.14a3.2 3.2 0 0 0-1.07.444 2.211 2.211 0 0 0-.721.784c-.176.32-.264.698-.264 1.135 0 .358.06.647.18.865.12.219.312.406.577.562.264.156.605.292 1.021.41.417.116.914.245 1.49.385.786.187 1.483.367 2.092.538.609.172 1.118.382 1.526.632.409.25.722.546.938.889.216.343.324.78.324 1.31 0 1.092-.436 1.961-1.31 2.609-.873.647-2.039.97-3.497.97z" fill="#FFF"/><g><use fill="#00B7E5" xlink:href="#a"/><use xlink:href="#a"/></g></g></svg>